<?xml version="1.0" encoding="utf-8"?>
<!-- Generator: Adobe Illustrator 18.0.0, SVG Export Plug-In . SVG Version: 6.00 Build 0)  -->
<!DOCTYPE svg PUBLIC "-//W3C//DTD SVG 1.1//EN" "http://www.w3.org/Graphics/SVG/1.1/DTD/svg11.dtd">
<svg version="1.1" id="Layer_1" xmlns="http://www.w3.org/2000/svg" xmlns:xlink="http://www.w3.org/1999/xlink" x="0px" y="0px"
	 width="196.3px" height="233.4px" viewBox="0 0 196.3 233.4" enable-background="new 0 0 196.3 233.4" xml:space="preserve">
<g>
	<g>
		<path fill="#7AC257" d="M196.3,18.6c-11.6,0-20.9-8.3-21-18.6h-6.5c0,2.3-2.1,4.2-4.8,4.2c-2.6,0-4.8-1.9-4.8-4.2h-5.1
			c0,2.3-2.1,4.2-4.8,4.2c-2.6,0-4.8-1.9-4.8-4.2h-5.1c0,2.3-2.1,4.2-4.8,4.2c-2.6,0-4.8-1.9-4.8-4.2h-5.1c0,2.3-2.1,4.2-4.8,4.2
			s-4.8-1.9-4.8-4.2h-5.1c0,2.3-2.1,4.2-4.8,4.2s-4.8-1.9-4.8-4.2h-5.1c0,2.3-2.1,4.2-4.8,4.2c-2.6,0-4.8-1.9-4.8-4.2H81
			c0,2.3-2.1,4.2-4.8,4.2c-2.6,0-4.8-1.9-4.8-4.2h-5.1c0,2.3-2.1,4.2-4.8,4.2S56.9,2.3,56.9,0h-5.1c0,2.3-2.1,4.2-4.8,4.2
			c-2.6,0-4.8-1.9-4.8-4.2h-5.1c0,2.3-2.1,4.2-4.8,4.2c-2.6,0-4.8-1.9-4.8-4.2H21c-0.1,10.3-9.4,18.6-21,18.6v196.1
			c11.6,0,21,8.4,21,18.7h6.6c0-2.3,2.1-4.2,4.8-4.2c2.6,0,4.8,1.9,4.8,4.2h5.1c0-2.3,2.1-4.2,4.8-4.2c2.6,0,4.8,1.9,4.8,4.2h5.1
			c0-2.3,2.1-4.2,4.8-4.2s4.8,1.9,4.8,4.2h5.1c0-2.3,2.1-4.2,4.8-4.2c2.6,0,4.8,1.9,4.8,4.2h5.1c0-2.3,2.1-4.2,4.8-4.2
			c2.6,0,4.8,1.9,4.8,4.2h5.1c0-2.3,2.1-4.2,4.8-4.2s4.8,1.9,4.8,4.2h5.1c0-2.3,2.1-4.2,4.8-4.2s4.8,1.9,4.8,4.2h5.1
			c0-2.3,2.1-4.2,4.8-4.2c2.6,0,4.8,1.9,4.8,4.2h5.1c0-2.3,2.1-4.2,4.8-4.2c2.6,0,4.8,1.9,4.8,4.2h5.1c0-2.3,2.1-4.2,4.8-4.2
			c2.6,0,4.8,1.9,4.8,4.2h6.5c0-10.3,9.4-18.7,21-18.7l0,0V18.6L196.3,18.6z"/>
	</g>
</g>
<rect x="10.3" y="28.8" fill="#FFFFFF" width="175.7" height="175.7"/>
</svg>
