<?xml version="1.0" encoding="utf-8"?>
<!-- Generator: Adobe Illustrator 18.1.0, SVG Export Plug-In . SVG Version: 6.00 Build 0)  -->
<svg version="1.1" id="Isolation_Mode" xmlns="http://www.w3.org/2000/svg" xmlns:xlink="http://www.w3.org/1999/xlink" x="0px"
	 y="0px" width="358.129px" height="186.98px" viewBox="0 0 358.129 186.98" enable-background="new 0 0 358.129 186.98"
	 xml:space="preserve">
<g>
	<path fill="#121212" d="M314.542,179.135l-2.588-31.97l7.587-0.573l2.588,31.97L314.542,179.135z"/>
</g>
<g>
	<path fill="#221F1F" d="M306.386,184.472l16.129-1.303l-0.392-4.704c0,0-0.769,0.048-8.452,0.628
		C305.988,179.672,306.06,180.826,306.386,184.472z"/>
	<path fill="#FFFFFF" d="M306.223,183.421c-0.066,0.487,0.066,1.057,0.066,1.057l16.225-1.309l-0.066-1.057L306.223,183.421z"/>
	<path fill="#FFFFFF" d="M320.712,180.581c-0.03-0.481-0.439-0.841-0.919-0.811s-0.841,0.439-0.811,0.919
		c0.03,0.481,0.439,0.841,0.919,0.811C320.382,181.47,320.742,181.061,320.712,180.581z"/>
	<path fill="#FFFFFF" d="M314.049,178.973l0.066,1.057c0.006,0.096,0.108,0.186,0.204,0.18c0.096-0.006,0.186-0.108,0.18-0.204
		l-0.066-1.057C314.338,178.955,314.146,178.967,314.049,178.973z"/>
	<path fill="#FFFFFF" d="M313.557,180.355c0.096-0.006,0.186-0.108,0.18-0.204l-0.066-1.057c-0.192,0.012-0.288,0.018-0.481,0.03
		l0.066,1.057C313.257,180.181,313.365,180.367,313.557,180.355z"/>
	<path fill="#FFFFFF" d="M311.923,180.457c0.096-0.006,0.186-0.108,0.18-0.204l-0.066-1.057c-0.192,0.012-0.288,0.018-0.481,0.03
		l0.066,1.057C311.629,180.379,311.731,180.469,311.923,180.457z"/>
	<path fill="#FFFFFF" d="M312.692,180.409c0.096-0.006,0.186-0.108,0.18-0.204l-0.066-1.057c-0.192,0.012-0.288,0.018-0.481,0.03
		l0.066,1.057C312.494,180.325,312.596,180.415,312.692,180.409z"/>
	<path fill="#FFFFFF" d="M311.058,180.512c0.096-0.006,0.186-0.108,0.18-0.204l-0.06-0.961c-0.192,0.012-0.288,0.018-0.481,0.03
		l0.06,0.961C310.86,180.428,310.962,180.518,311.058,180.512z"/>
	
		<rect x="306.243" y="183.469" transform="matrix(0.9968 -0.0794 0.0794 0.9968 -13.6068 25.5451)" fill="#221F1F" width="16.276" height="0.77"/>
</g>
<g>
	<path fill="#121212" d="M336.174,177.872l-1.434-32.043l-7.599,0.381l1.434,32.043L336.174,177.872z"/>
</g>
<g>
	<path fill="#221F1F" d="M344.838,182.153l-16.166,0.726l-0.2-4.716c0,0,0.769-0.048,8.464-0.435
		C344.632,177.341,344.705,178.494,344.838,182.153z"/>
	<path fill="#FFFFFF" d="M344.868,181.089c0.126,0.475,0.066,1.057,0.066,1.057l-16.262,0.732l-0.066-1.057L344.868,181.089z"/>
	<path fill="#FFFFFF" d="M330.138,180.085c-0.03-0.481,0.33-0.889,0.811-0.919s0.889,0.33,0.919,0.811
		c0.03,0.481-0.33,0.889-0.811,0.919C330.576,180.926,330.168,180.565,330.138,180.085z"/>
	<path fill="#FFFFFF" d="M336.643,177.65l0.066,1.057c0.006,0.096-0.084,0.198-0.18,0.204s-0.198-0.084-0.204-0.18l-0.066-1.057
		C336.354,177.668,336.45,177.662,336.643,177.65z"/>
	<path fill="#FFFFFF" d="M337.304,178.959c-0.096,0.006-0.198-0.084-0.204-0.18l-0.066-1.057c0.192-0.012,0.288-0.018,0.481-0.03
		l0.066,1.057C337.49,178.851,337.4,178.953,337.304,178.959z"/>
	<path fill="#FFFFFF" d="M338.938,178.856c-0.096,0.006-0.198-0.084-0.204-0.18l-0.066-1.057c0.192-0.012,0.288-0.018,0.481-0.03
		l0.066,1.057C339.124,178.748,339.034,178.85,338.938,178.856z"/>
	<path fill="#FFFFFF" d="M338.073,178.911c-0.096,0.006-0.198-0.084-0.204-0.18l-0.066-1.057c0.192-0.012,0.288-0.018,0.481-0.03
		l0.066,1.057C338.355,178.797,338.265,178.899,338.073,178.911z"/>
	<path fill="#FFFFFF" d="M339.707,178.808c-0.096,0.006-0.198-0.084-0.204-0.18l-0.06-0.961c0.192-0.012,0.288-0.018,0.481-0.03
		l0.06,0.961C339.989,178.694,339.899,178.796,339.707,178.808z"/>
	
		<rect x="328.687" y="182.292" transform="matrix(-0.9989 0.046 -0.046 -0.9989 681.6956 349.669)" fill="#221F1F" width="16.276" height="0.77"/>
</g>
<g>
	<path fill="#F76BA4" d="M234.604,143.295c0,0,17.428,0,36.891,0c0-11.486,0-17.207,0-17.207h-15.971h-10.248l-5.507,5.507
		L234.604,143.295z"/>
	<path fill="#FF7DB2" d="M255.824,111.234c0,0-3.008-3.829-8.797-3.068c-5.227,0.687-10.265,5.065-6.832,15.436
		c3.105,6.232,5.788,8.639,12.985,8.639C253.18,120.901,255.824,111.234,255.824,111.234z"/>
	<path fill="#FF7DB2" d="M240.762,134.048c-2.88-2.672-5.854-6.517-8.488-12.052c-5.554,8.012-0.871,13.6,0.643,15.831
		c1.514,2.231,1.665,4.045,1.688,5.469c1.534-2.937,2.662-4.93,3.218-5.891L240.762,134.048z"/>
	<path fill="#F76BA4" d="M240.434,112.235c0,0-6.763-0.773-9.358,8.253c-1.45,5.171,2.567,13.752,12.244,14.563
		c5.294-2.661,5.983-2.653,5.983-2.653s-6.863-3.953-8.808-10.245C237.992,115.603,240.434,112.235,240.434,112.235z"/>
	<path fill="#F76BA4" d="M253.726,129.93c0,0-3.885-4.715-2.688-11.821c1.197-7.107,6.918-11.397,13.815-7.714
		c6.204,3.389,4.631,9.366,4.631,9.366s-0.036,3.275-5.139,7.38c-5.104,4.105-10.197,4.099-10.197,4.099L253.726,129.93z"/>
	<path fill="#F76BA4" d="M273.827,121.995c5.554,8.012,0.871,13.6-0.643,15.831c-1.514,2.231-1.665,4.045-1.688,5.469
		c-1.534-2.937-2.662-4.93-3.218-5.891l-11.974,2.03C260.778,138.071,268.105,134.018,273.827,121.995z"/>
	<path fill="#FF7DB2" d="M277.39,126.201c0-4.696-3.565-8.503-7.964-8.503c-1.839,0-3.771,0.628-4.321,0.8
		c-8.917,2.791-7.332,15.235-7.332,15.235c-0.011,2.578,0.227,4.443,0.227,4.443s10.991-1.367,14.619-3.93
		C276.246,131.682,277.39,129.796,277.39,126.201z"/>
</g>
<g>
	<path fill="none" d="M318.116,106.676c-0.059,2.505,2.706,4.606,6.082,4.623s6.199-1.931,6.257-4.437"/>
	<path fill="#2B357F" d="M303.56,106.449c0,0-0.656,46.371-0.649,47.819c0.007,1.448,1.016,2.282,2.368,2.27
		c1.352-0.013,35.089,0.535,36.633,0.534c1.544-0.001,2.372-0.914,2.468-2.452c-0.001-1.544,0.733-47.621,0.733-47.621
		l-14.556-0.227c-0.059,2.505-2.791,4.555-6.257,4.437c-3.376-0.016-6.141-2.118-6.082-4.623L303.56,106.449z"/>
</g>
<path fill="#E1AF79" d="M299.071,115.048L283.318,87.44c-2.267-3.904-4.183-4.119-5.985-3.073c-1.7,0.956-2.588,2.831-0.321,6.734
	l15.753,27.608L299.071,115.048z"/>
<g>
	<path fill="#2B357F" d="M294.567,106.76l4.696,8.3c0.956,1.7,0.242,3.875-1.656,4.915l0,0c-1.898,1.04-4.091,0.615-5.047-1.085
		l-4.696-8.3L294.567,106.76z"/>
</g>
<path fill="#E1AF79" d="M347.005,116.958l3.734,31.591c0.495,4.469,2.268,5.448,4.31,5.188c2.042-0.259,3.477-1.618,2.983-6.087
	l-3.734-31.591L347.005,116.958z"/>
<g>
	<path fill="#2B357F" d="M347.964,126.377l-1.152-9.431c-0.271-1.85,1.29-3.683,3.422-3.84l0,0c2.139-0.253,3.983,1.115,4.255,2.966
		l1.152,9.431L347.964,126.377z"/>
</g>
<path fill="#FFE682" d="M307.375,83.817c0,0-0.624-10.17,8.4-9.418c-1.46-1.345-3.191-1.452-3.191-1.452s2.967-1.167,5.587,0.153
	c3.873-3.33,15.527-4.537,21.723,1.347c4.55,4.431,3.355,6.576,6.918,6.701c0,0-2.252,2.08-3.977,0.332
	c0.962,1.603,2.747,2.39,4.404,2.106c-1.922,1.425-4.872,0.759-4.872,0.759L307.375,83.817z"/>
<path fill="#E1AF79" d="M336.774,81.202l4.826-7.806c0.318-0.463,0.258-1.045-0.109-1.358c-0.367-0.312-0.859-0.15-1.177,0.313
	l-5.042,8.179c-3.185-1.548-6.802-2.352-10.562-2.392c-3.761-0.04-7.377,0.701-10.65,2.138l-4.792-8.306
	c-0.259-0.498-0.829-0.63-1.136-0.36c-0.402,0.265-0.444,0.937-0.18,1.34l4.618,8.006c-7.573,3.873-12.964,11.451-13.711,20.378
	l51.093,0.755C349.354,93.078,344.141,85.325,336.774,81.202"/>
<path fill="#FFFFFF" d="M313.742,93.186c-1.352,0.013-2.337-1.206-2.344-2.654c-0.007-1.448,1.122-2.536,2.378-2.554
	c1.352-0.013,2.337,1.206,2.35,2.558C316.132,91.983,315.094,93.173,313.742,93.186"/>
<path fill="#FFFFFF" d="M335.429,93.565c-1.352,0.013-2.434-1.212-2.44-2.66c-0.007-1.448,1.128-2.632,2.48-2.644
	c1.352-0.013,2.434,1.212,2.44,2.66C337.915,92.369,336.78,93.553,335.429,93.565"/>
<path fill="#FFE682" d="M310.077,80.704c0,0,3.012,4.336,11.014,5.99c-2.404-1.693-1.744-3.003-1.744-3.003
	s2.376,5.261,14.805,5.549c-1.382-1.051-2.224-3.033-2.224-3.033s5.535,4.106,11.818,2.373c-3.328-0.785-3.347-2.041-3.347-2.041
	s2.698,1.615,5.834,0.844c-1.61-0.486-1.929-1.567-1.929-1.567s-2.69-9.526-18.886-9.759
	C309.312,75.929,310.149,79.551,310.077,80.704z"/>
<path fill="#FFE682" d="M352.494,103.115c-0.013-1.352-0.212-2.811-0.717-4.001c0.006-0.096-0.09-0.102-0.084-0.198
	c-1.86-7.352-6.885-13.453-13.801-17.066c0,0,11.178,9.57,11.044,17.957c-0.023,1.928-2.216,1.503-3.952,1.492
	c-1.063,0.031-6.554-0.117-10.219-0.151c-0.145-0.781-0.481-1.574-0.65-1.97c-0.77-1.592-1.762-2.714-3.258-3.483
	c-2.145-1.194-4.374-1.043-6.591-1.084l0.121,1.165c-0.168,1.148,1.244,1.717,2.092,2.059c1.22,0.558,2.259,0.912,3.161,1.933
	c0.27,0.306,0.529,0.805,0.788,1.303l-1.256,0.019c-3.665-0.034-4.914-0.112-4.914-0.112s-1.256,0.019-4.914-0.112l-1.346-0.083
	c0.222-0.469,0.54-0.931,0.852-1.298c1.021-0.902,2.012-1.323,3.201-1.828c0.793-0.337,2.27-0.824,2.15-1.99l0.168-1.147
	c-2.217-0.041-4.422-0.274-6.614,0.844c-1.495,0.776-2.522,1.773-3.296,3.366c-0.216,0.373-0.558,1.22-0.696,1.887
	c-3.664-0.034-9.059-0.176-10.122-0.145c-1.736-0.011-3.977,0.332-3.954-1.596c0.134-8.386,11.609-17.613,11.609-17.613
	c-7.165,3.512-12.569,9.738-14.487,17.338c-0.456,1.13-0.527,2.283-0.599,3.437c-0.161,2.595,0.82,5.454,3.049,6.847
	c0.931,0.54,1.995,0.51,2.506,1.603c0.607,1.099,1.034,1.994,2.26,2.456c0.847,0.342,1.893,0.6,2.764,0.557
	c0.384,0.024,0.985-0.325,1.267-0.211c0.475,0.126,0.433,0.799,0.607,1.099c0.174,0.3,0.349,0.601,0.625,0.811
	c0.908,0.925,2.326,1.399,3.575,1.476c1.346,0.083,3.49-0.266,4.337-1.468c0.92,2.276,4.513,3.464,6.826,3.511
	c2.313,0.047,6.241-1.06,7.153-3.32c0.794,1.207,2.986,1.633,4.248,1.518c1.255-0.019,2.631-0.416,3.658-1.414
	c0.21-0.276,0.516-0.547,0.63-0.829c0.216-0.373,0.156-0.955,0.648-1.118c0.294-0.078,0.955,0.156,1.244,0.174
	c0.961,0.06,1.94-0.169,2.829-0.5c1.279-0.403,1.627-1.346,2.372-2.458c0.642-1.022,1.603-0.962,2.6-1.479
	C351.476,108.648,352.526,105.722,352.494,103.115z"/>
<g>
	<path fill="#E7E7E7" d="M277.121,92.459c-0.084-0.198-0.072-0.39,0.126-0.475l6.702-3.83c0.102-0.09,0.288,0.018,0.379,0.12
		l1.136,1.904c0.084,0.198,0.072,0.39-0.126,0.475l-6.702,3.83c-0.102,0.09-0.288-0.018-0.379-0.12L277.121,92.459L277.121,92.459z"
		/>
	<circle fill="#323335" stroke="#DBDADA" stroke-width="1.5196" cx="281.337" cy="91.37" r="2.311"/>
	<path fill="#E7E7E7" d="M281.662,92.355c-0.006,0.096,0.09,0.102,0.192,0.012l0,0c0.102-0.09,0.102-0.09,0.108-0.186l-0.523-0.901
		c0.006-0.096-0.09-0.102-0.192-0.012l0,0c-0.102,0.09-0.102,0.09-0.108,0.186L281.662,92.355z"/>
	<path fill="#E7E7E7" d="M282.532,90.768c0.096,0.006,0.102-0.09,0.012-0.192l0,0c-0.09-0.102-0.09-0.102-0.186-0.108l-1.099,0.607
		c-0.096-0.006-0.102,0.09-0.012,0.192l0,0c0.09,0.102,0.09,0.102,0.186,0.108L282.532,90.768z"/>
	<circle fill="#E7E7E7" cx="281.247" cy="91.268" r="0.289"/>
</g>
<g>
	<path fill="#BF360C" d="M60.628,140.39c-0.154-2.045-0.417-4.115-0.794-6.109c-0.305-1.62-0.554-3.131-0.98-4.697
		c-0.328-1.203-0.828-4.578-1.773-5.162c0.596,0.368,1.262,0.631,1.873,0.752c-0.696-1.197-1.526-2.173-2.19-3.489
		c-0.825-1.633-1.62-3.291-2.444-4.905c-1.063-2.083-2.1-4.325-3.476-6.043c-0.875-1.094-1.819-2.058-2.707-3.129
		c-3.725-4.489-9.732-6.735-14.585-6.593c-4.854-0.143-10.862,2.104-14.585,6.593c-0.889,1.072-1.832,2.035-2.708,3.129
		c-1.374,1.718-2.411,3.96-3.476,6.043c-0.823,1.613-1.618,3.272-2.444,4.905c-0.664,1.316-1.493,2.293-2.189,3.489
		c0.611-0.12,1.275-0.383,1.873-0.752c-0.945,0.584-1.447,3.96-1.773,5.162c-0.426,1.566-0.675,3.077-0.982,4.697
		c-0.374,1.994-0.638,4.065-0.793,6.109c-0.216,2.864-0.342,5.908-0.181,8.819c0.441-1.078,0.548-2.35,0.983-3.431
		c0,0,0.483,7.061,3.159,11.035c-0.386-1.986-0.467-3.476-0.467-3.476c0.072,1.351,1.335,3.102,1.938,3.995
		c2.201,3.262,5.039,5.158,7.936,6.896c-0.805-0.895-1.427-2.007-1.942-3.243c1.128,1.249,2.591,2.311,3.922,3.088
		c1.477,0.864,3.117,1.098,4.62,1.662c-0.745-0.507-1.443-1.614-1.9-2.56c-0.15-0.311-0.346-0.782-0.506-1.005
		c0.464,0.186,0.828,0.817,1.214,1.195c1.399,1.373,2.627,2.624,4.291,3.329c-0.57-0.681-1.176-1.511-1.489-2.47
		c0.847,0.169,1.712,1.006,2.514,1.448c0.703,0.388,1.449,0.808,2.164,1.045c-0.183-0.421-0.428-1.032-0.398-1.535
		c0.44,0.196,0.82,0.749,1.221,1.086c0.401-0.336,0.78-0.89,1.221-1.086c0.03,0.504-0.215,1.115-0.399,1.535
		c0.716-0.237,1.462-0.658,2.164-1.045c0.802-0.442,1.667-1.279,2.516-1.448c-0.314,0.959-0.921,1.79-1.491,2.47
		c1.665-0.705,2.894-1.956,4.293-3.329c0.385-0.379,0.752-1.01,1.213-1.195c-0.159,0.223-0.356,0.694-0.506,1.005
		c-0.457,0.946-1.156,2.053-1.901,2.56c1.503-0.564,3.145-0.797,4.623-1.662c1.331-0.777,2.794-1.839,3.92-3.088
		c-0.514,1.236-1.135,2.348-1.941,3.243c2.897-1.737,5.735-3.634,7.936-6.896c0.602-0.893,1.864-2.645,1.939-3.997
		c0,0-0.081,1.492-0.468,3.477c2.675-3.974,3.158-11.035,3.158-11.035c0.437,1.081,0.543,2.353,0.984,3.431
		C60.97,146.299,60.845,143.255,60.628,140.39z"/>
	<path fill="#FBBC73" d="M42.554,107.799l-1.121-0.802c-2.4-1.576-5.064-2.455-7.874-2.455c-2.807,0-5.472,0.879-7.872,2.455
		l-1.121,0.802c-5.572,4.321-9.48,12.533-9.979,22.115H52.53C52.034,120.332,48.126,112.121,42.554,107.799"/>
	<path fill="#FBBC73" d="M36.034,122.724c-0.284,0.418-0.853,0.528-1.271,0.244l0,0c-0.418-0.284-0.527-0.853-0.244-1.272
		l14.966-22.075c0.284-0.419,0.853-0.528,1.271-0.244l0,0c0.419,0.284,0.528,0.853,0.245,1.271L36.034,122.724z"/>
	<path fill="#FBBC73" d="M34.725,120.063c0.325,0.389,0.271,0.966-0.117,1.289l0,0c-0.388,0.324-0.965,0.271-1.288-0.118
		L16.252,100.74c-0.324-0.389-0.271-0.966,0.117-1.289l0,0c0.388-0.324,0.965-0.271,1.288,0.117L34.725,120.063z"/>
	<circle fill="#FFFFFF" cx="23.998" cy="118.452" r="2.485"/>
	<circle fill="#FFFFFF" cx="43.081" cy="118.452" r="2.484"/>
	<path fill="#BF360C" d="M24.897,110.999c0,0,13.609,5.86,18.145,0.944c0,0,2.079,4.537,5.293,5.671
		c3.213,1.134,5.67,8.695,5.67,8.695s-4.914-17.768-9.829-20.602c-4.915-2.836-11.153-4.537-13.8-3.025
		c-2.646,1.512-13.042,7.371-15.31,14.365c-2.269,6.994-0.188,6.238-0.188,6.238s1.322,3.592,3.403,5.104
		C18.281,128.388,13.744,119.694,24.897,110.999z"/>
</g>
<rect x="27.619" y="164.446" transform="matrix(0.9924 0.1231 -0.1231 0.9924 21.4517 -2.3283)" fill="#FFDDB2" width="3.903" height="16.029"/>
<rect x="27.683" y="164.45" transform="matrix(0.9924 0.1231 -0.1231 0.9924 21.3886 -2.3402)" fill="#4A148C" width="3.903" height="14.989"/>
<rect x="37.94" y="164.387" transform="matrix(-0.9704 0.2416 -0.2416 -0.9704 120.2609 330.0547)" fill="#FFDDB2" width="3.904" height="16.029"/>
<rect x="37.814" y="164.402" transform="matrix(-0.9704 0.2416 -0.2416 -0.9704 119.8912 329.0902)" fill="#4A148C" width="3.904" height="14.989"/>
<g>
	<circle fill="#FBBC73" cx="2.082" cy="115.301" r="2.082"/>
	<g>
		<path fill="#E4E4E4" d="M36.286,133.449c0,0,0.395,2.768-2.088,4.287c-2.483-1.518-2.087-4.287-2.087-4.287H29.36
			c0,5.325,2.304,8.2,2.304,8.2v24.602h2.535h2.535v-24.602c0,0,2.304-2.875,2.304-8.2H36.286z"/>
		<path fill="#2C2C2C" d="M29.579,133.474h-7.274v32.777h9.939v-24.86C29.637,139.085,29.513,135.075,29.579,133.474z"/>
		<path fill="#2C2C2C" d="M38.818,133.474h7.272v32.777h-9.941v-24.86C38.758,139.085,38.884,135.075,38.818,133.474z"/>
		<path fill="#EFEEEE" d="M35.838,133.474c0,0,0.098,2.477-1.64,3.622c-1.736-1.145-1.641-3.622-1.641-3.622s-0.335,0-1.339,0
			c0.092,4.471,2.98,5.779,2.98,5.779s2.887-1.307,2.98-5.779C36.173,133.474,35.838,133.474,35.838,133.474z"/>
		<g>
			<path fill="#1F1F1F" d="M28.953,139.657c-0.052-0.003-1.29-0.082-2.632-1.607l-0.005-0.007l-0.005-0.006
				c-0.892-1.224-1.034-2.11-1.148-3.322c-0.068-0.975-0.006-1.278,0.006-1.329l0.039-0.151h1.053l3.009,5.878l-0.193,0.55
				L28.953,139.657z"/>
			<polygon fill="#1F1F1F" points="32.245,142.945 27.78,141.728 28.756,140.229 32.245,141.348 			"/>
			<path fill="#3E3E3E" d="M29.686,133.448c-0.066,1.615-0.049,4.963,2.566,7.273v1.707c-0.526-0.163-4.523-1.209-4.523-1.209
				l1.134-1.989c0,0-2.146-0.696-2.887-2.478c-0.674-1.619-0.463-3.304-0.463-3.304H29.686L29.686,133.448z"/>
			<ellipse fill="#BCBCBC" cx="26.542" cy="134.772" rx="0.38" ry="0.452"/>
		</g>
		<g>
			<path fill="#1F1F1F" d="M39.444,139.657c0.052-0.003,1.289-0.082,2.631-1.607l0.006-0.007l0.005-0.006
				c0.892-1.224,1.033-2.11,1.148-3.322c0.068-0.975,0.006-1.278-0.006-1.329l-0.038-0.15h-1.054l-3.01,5.877l0.195,0.55
				L39.444,139.657z"/>
			<polygon fill="#1F1F1F" points="36.149,142.945 40.617,141.728 39.64,140.229 36.149,141.348 			"/>
			<path fill="#3E3E3E" d="M38.711,133.448c0.065,1.615,0.052,4.963-2.563,7.273v1.707c0.527-0.163,4.519-1.209,4.519-1.209
				l-1.134-1.989c0,0,2.145-0.696,2.886-2.478c0.673-1.619,0.463-3.304,0.463-3.304H38.711L38.711,133.448z"/>
			<ellipse fill="#BCBCBC" cx="41.855" cy="134.772" rx="0.38" ry="0.452"/>
		</g>
		<path fill="#333333" d="M37.576,150.706c0.045,0.313,0.115,0.62,0.205,0.907c0.18,0.572,0.46,1.205,0.906,1.539
			c0.894,0.671,2.351,0.666,2.896-0.571c0.29-0.658,0.363-1.449,0.419-2.179c0.043-0.55,0.064-1.103,0.115-1.652
			c0.055-0.571,0.132-1.143,0.12-1.72c-0.016-0.73,0.087-1.445,0.176-2.166c0.062-0.488,0.13-0.976,0.224-1.457
			c0.1-0.507,0.124-1.015,0.215-1.519c0.089-0.505,0.283-1.017,0.196-1.543c-0.054-0.328-0.243-0.56-0.53-0.539
			c-0.307,0.022-0.522,0.308-0.668,0.606c-0.17,0.346-0.317,0.677-0.524,1.002c-0.321,0.502-0.686,0.943-1.137,1.283
			c-0.754,0.568-1.446,1.177-1.88,2.132c-0.374,0.825-0.396,1.646-0.454,2.559c-0.045,0.737-0.298,1.441-0.338,2.181
			C37.498,149.94,37.519,150.327,37.576,150.706z"/>
		<path fill="#333333" d="M30.822,150.706c-0.047,0.313-0.117,0.62-0.208,0.907c-0.179,0.572-0.46,1.205-0.905,1.539
			c-0.894,0.671-2.352,0.666-2.896-0.571c-0.29-0.658-0.363-1.449-0.419-2.179c-0.043-0.55-0.063-1.103-0.115-1.652
			c-0.055-0.571-0.133-1.143-0.121-1.72c0.016-0.73-0.087-1.445-0.176-2.166c-0.061-0.488-0.128-0.976-0.223-1.457
			c-0.1-0.507-0.126-1.015-0.215-1.519c-0.089-0.505-0.283-1.017-0.196-1.543c0.053-0.328,0.243-0.56,0.53-0.539
			c0.306,0.022,0.521,0.308,0.668,0.606c0.17,0.346,0.318,0.677,0.525,1.002c0.321,0.502,0.686,0.943,1.137,1.283
			c0.753,0.568,1.446,1.177,1.88,2.132c0.374,0.825,0.396,1.646,0.454,2.559c0.045,0.737,0.298,1.441,0.338,2.181
			C30.899,149.94,30.878,150.327,30.822,150.706z"/>
		<path fill="#BCBCBC" d="M41.952,141.255c-0.204,0-0.369,0.196-0.369,0.44c0,0.064,0.013,0.125,0.033,0.179l-1.407,1.319
			c-0.062-0.056-0.139-0.093-0.225-0.093c-0.203,0-0.368,0.197-0.368,0.439c0,0.244,0.165,0.44,0.368,0.44
			c0.204,0,0.369-0.196,0.369-0.44c0-0.064-0.013-0.124-0.033-0.179l1.406-1.32c0.064,0.057,0.141,0.093,0.226,0.093
			c0.204,0,0.368-0.197,0.368-0.44C42.32,141.451,42.157,141.255,41.952,141.255z"/>
		<path fill="#BCBCBC" d="M42.368,142.858c-0.125,0-0.227,0.12-0.227,0.269c0,0.039,0.009,0.077,0.02,0.111l-0.862,0.809
			c-0.039-0.035-0.086-0.057-0.138-0.057c-0.125,0-0.227,0.121-0.227,0.27c0,0.148,0.102,0.269,0.227,0.269
			c0.125,0,0.227-0.121,0.227-0.269c0-0.04-0.009-0.077-0.021-0.111l0.863-0.809c0.038,0.035,0.086,0.057,0.138,0.057
			c0.124,0,0.226-0.121,0.226-0.27C42.594,142.978,42.493,142.858,42.368,142.858z"/>
	</g>
	<g>
		<path fill="#2C2C2C" d="M3.768,114.02l16.834,19.535c0.756,0.877,0.657,2.201-0.22,2.956l0,0c-0.877,0.755-2.201,0.658-2.956-0.22
			L0.592,116.757L3.768,114.02z"/>
		
			<rect x="0.427" y="115.261" transform="matrix(0.7575 -0.6528 0.6528 0.7575 -74.9735 29.722)" fill="#232323" width="4.192" height="1.05"/>
		<path fill="#333333" d="M19.483,135.396c0.137-0.065,0.26-0.187,0.361-0.3c0.107-0.122,0.156-0.241,0.184-0.401
			c0.035-0.193,0.032-0.361,0.005-0.555c-0.034-0.253-0.133-0.53-0.245-0.759c-0.138-0.286-0.322-0.532-0.518-0.782
			c-0.178-0.229-0.391-0.44-0.599-0.64c-0.173-0.167-0.371-0.33-0.591-0.431c-0.432-0.199-0.881-0.229-1.296,0.016
			c-0.2,0.117-0.402,0.297-0.572,0.456c-0.202,0.189-0.4,0.411-0.505,0.671c-0.094,0.233-0.028,0.549,0.065,0.771
			c0.106,0.255,0.278,0.481,0.448,0.698c0.39,0.498,0.946,0.985,1.565,1.161c0.282,0.079,0.568,0.142,0.86,0.167
			c0.189,0.015,0.371,0.042,0.56,0.014C19.3,135.468,19.395,135.438,19.483,135.396z"/>
	</g>
	<circle fill="#FBBC73" cx="70.353" cy="121.392" r="2.082"/>
	<g>
		<path fill="#2C2C2C" d="M71.402,123.232l-21.574,14.127c-0.969,0.634-2.268,0.363-2.903-0.606l0,0
			c-0.634-0.968-0.363-2.267,0.606-2.901l21.574-14.127L71.402,123.232z"/>
		
			<rect x="67.719" y="121.241" transform="matrix(0.5478 0.8366 -0.8366 0.5478 133.4409 -3.3451)" fill="#232323" width="4.192" height="1.05"/>
		<path fill="#333333" d="M48.149,136.006c0.046,0.144,0.152,0.283,0.25,0.397c0.106,0.121,0.219,0.187,0.374,0.236
			c0.186,0.059,0.354,0.079,0.549,0.078c0.255,0,0.543-0.063,0.785-0.142c0.301-0.101,0.569-0.251,0.843-0.412
			c0.249-0.147,0.487-0.329,0.713-0.51c0.188-0.151,0.376-0.325,0.505-0.53c0.254-0.402,0.343-0.842,0.155-1.286
			c-0.09-0.213-0.242-0.438-0.378-0.628c-0.161-0.225-0.354-0.45-0.599-0.589c-0.219-0.124-0.541-0.1-0.773-0.037
			c-0.267,0.072-0.513,0.214-0.75,0.354c-0.545,0.321-1.101,0.808-1.356,1.399c-0.116,0.268-0.216,0.543-0.278,0.831
			c-0.04,0.184-0.091,0.362-0.088,0.552C48.102,135.817,48.119,135.915,48.149,136.006z"/>
	</g>
</g>
<g>
	<polyline fill="#166590" points="105.092,181.383 101.947,182.438 95.916,164.465 99.061,163.41 	"/>
	<g>
		<path fill="#99643F" d="M105.911,151.484c-0.123,1.005,0.593,1.92,1.598,2.043l21.115,2.579c1.006,0.123,1.92-0.593,2.043-1.598
			c0.123-1.005-0.592-1.92-1.598-2.043l-21.115-2.579C106.949,149.763,106.034,150.479,105.911,151.484"/>
		<path fill="#868686" d="M127.023,155.93l-19.585-2.392c-0.967-0.118-1.651-1.037-1.527-2.053c0.124-1.016,1.009-1.744,1.976-1.626
			l19.586,2.392L127.023,155.93z"/>
		
			<rect x="124.656" y="152.495" transform="matrix(0.1213 -0.9926 0.9926 0.1213 -41.6664 260.8985)" fill="#DDDDDD" width="3.73" height="2.974"/>
		<path fill="#7C7C7C" d="M126.553,152.563c-0.013,0.11,0.182,0.224,0.438,0.256c0.255,0.031,0.472-0.033,0.486-0.143
			c0.013-0.11-0.182-0.225-0.437-0.256C126.784,152.389,126.567,152.453,126.553,152.563"/>
		
			<rect x="123.345" y="153.104" transform="matrix(0.1213 -0.9926 0.9926 0.1213 -42.5738 259.5804)" fill="#9A9A9A" width="3.955" height="1.463"/>
	</g>
	<g>
		<path fill="#382800" d="M115.441,139.174c0,0-0.217-4.249-2.551-4.249c1.582-2.32-1.601-3.623-1.601-3.623
			c1.495-0.577,1.999-2.235,0.577-3.583c-1.179-1.118-2.976-0.918-4.397,0.155c0.577-0.887-0.654-1.712-1.374-1.057
			c0.341-1.105,0.109-2.814-1.127-3.335c-1.257-0.521-2.893-0.304-3.696,1.029c0.423-1.896-0.922-3.218-2.829-3.371
			c-1.907-0.152-4.171,1.799-4.345,3.457c-0.759-1.983-2.839-2.805-4.259-2.231c-1.419,0.574-2.135,2.101-2.384,3.803
			c-0.412-1.886-3.046-2.894-4.606-1.81c-1.56,1.084-1.756,3.17-1.593,4.812c-2.113-0.179-3.202,0.569-3.478,1.723
			c-0.276,1.154,0.52,2.26,1.235,2.796c-2.129,0.292-2.585,1.203-2.845,2.991c-1.366,0.228-1.626,2.175-1.323,2.713
			C79.017,139.395,115.441,139.174,115.441,139.174"/>
		<path fill="#99643F" d="M106.421,130.781l3.532-6.441c0.186-0.34,0.062-0.768-0.279-0.954c-0.339-0.186-0.767-0.062-0.954,0.278
			l-3.567,6.504c-2.995-1.328-6.354-2.074-9.904-2.074c-3.542,0-6.896,0.742-9.885,2.066l-3.563-6.496
			c-0.187-0.341-0.614-0.464-0.954-0.278c-0.34,0.187-0.465,0.614-0.278,0.954l3.529,6.432
			c-6.933,3.581-11.619,10.391-11.619,18.209h45.546C118.025,141.17,113.346,134.364,106.421,130.781"/>
		<rect x="90.835" y="164.251" fill="#166590" width="3.317" height="18.958"/>
		<path fill="#FFFFFF" d="M83.363,139.266c0-1.492,1.209-2.701,2.701-2.701c1.492,0,2.701,1.209,2.701,2.701
			c0,1.492-1.209,2.701-2.701,2.701C84.572,141.967,83.363,140.758,83.363,139.266"/>
		<path fill="#FFFFFF" d="M101.764,139.266c0-1.492,1.209-2.701,2.701-2.701c1.492,0,2.701,1.209,2.701,2.701
			c0,1.492-1.209,2.701-2.701,2.701C102.974,141.967,101.764,140.758,101.764,139.266"/>
		<path fill="#99643F" d="M85.605,162.322c0,1.147,1.032,2.077,2.305,2.077h14.7c1.274,0,2.307-0.93,2.307-2.077v-12.075H85.605
			V162.322z"/>
	</g>
	<g>
		<defs>
			<path id="SVGID_1_" d="M85.605,150.247v12.075c0,1.147,1.032,2.077,2.305,2.077h14.7c1.274,0,2.307-0.93,2.307-2.077v-12.075
				H85.605z"/>
		</defs>
		<clipPath id="SVGID_2_">
			<use xlink:href="#SVGID_1_"  overflow="visible"/>
		</clipPath>
		<path clip-path="url(#SVGID_2_)" fill="#868686" d="M98.899,150.247c0,0-0.237,1.655-3.621,3.469
			c-3.384-1.814-3.621-3.469-3.621-3.469h-6.016v22.115h19.276v-22.115H98.899z"/>
	</g>
	<g>
		<path fill="#191919" d="M94.447,183.704v0.382l-1.907,0.011v-0.163c0,0-0.752-0.141-1.334,0.161c-1.272,0-5.238,0.007-5.238,0.007
			s-0.042-0.434,0.347-0.434c0.389,0,0.135-0.187,0.135-0.187l8.01-0.271L94.447,183.704z"/>
		<path fill="#0C0C0C" d="M94.154,180.968c0,0-1.18,0.958-3.343,0.132c-1.632,0.855-2.421,1.328-4.021,1.635
			c-0.766,0.173-0.682,1.014-0.682,1.014s8.276,0.024,8.339,0.013c0,0,0.116-0.33,0.087-1.352
			C94.505,181.387,94.154,180.968,94.154,180.968"/>
		<path fill="#111111" d="M89.478,182.88c-0.847,0.333-1.465,0.38-1.679-0.309c1.018-0.304,1.769-0.69,3.03-1.351
			c2.163,0.826,3.289-0.115,3.289-0.115s0.26,0.268,0.289,1.29c0.029,1.022-0.151,1.302-0.151,1.302c-0.014,0.002-0.924,0-0.924,0
			S92.217,182.01,89.478,182.88"/>
		
			<line fill="none" stroke="#282828" stroke-width="3.001" stroke-linecap="round" stroke-linejoin="round" x1="90.42" y1="181.219" x2="91.089" y2="181.661"/>
		
			<line fill="none" stroke="#282828" stroke-width="3.001" stroke-linecap="round" stroke-linejoin="round" x1="90.058" y1="181.44" x2="90.612" y2="181.906"/>
		
			<line fill="none" stroke="#282828" stroke-width="3.001" stroke-linecap="round" stroke-linejoin="round" x1="89.64" y1="181.653" x2="90.148" y2="182.106"/>
		
			<line fill="none" stroke="#282828" stroke-width="3.001" stroke-linecap="round" stroke-linejoin="round" x1="89.246" y1="181.836" x2="89.709" y2="182.307"/>
		
			<line fill="none" stroke="#282828" stroke-width="3.001" stroke-linecap="round" stroke-linejoin="round" x1="88.834" y1="182.066" x2="89.234" y2="182.539"/>
		
			<line fill="none" stroke="#282828" stroke-width="3.001" stroke-linecap="round" stroke-linejoin="round" x1="88.368" y1="182.268" x2="88.734" y2="182.728"/>
		<path fill="#444444" d="M95.996,154.551c0,0,0.224,4.398,3.308,6.042c2.406-1.058,2.896-2.408,2.896-2.408
			s-2.485-1.327-2.768-5.232C96.342,154.425,95.996,154.551,95.996,154.551"/>
		<path fill="#777777" d="M98.155,159.746c-1.994-1.958-2.159-5.195-2.159-5.195s0.346-0.126,3.437-1.598
			c0.172,2.378,1.161,3.799,1.908,4.547C100.892,158.082,99.955,159.003,98.155,159.746"/>
		<path fill="#353535" d="M99.724,154.653c0,0-1.826,1.278-3.512,1.3c-0.147-0.629-0.132-0.684-0.132-0.684l3.466-1.398
			L99.724,154.653z"/>
		<path fill="#444444" d="M97.276,158.638c-0.259-0.416-0.466-0.848-0.632-1.27c0.642-0.184,1.721-0.667,3.363-1.896
			c0.168,0.405,0.359,0.758,0.556,1.063C100.115,157.005,99.032,157.984,97.276,158.638"/>
		<path fill="#444444" d="M102.55,158.57c0.035,0,0.07-0.019,0.088-0.053c0.025-0.048,0.006-0.107-0.042-0.133l-0.427-0.221
			c-0.048-0.025-0.108-0.006-0.133,0.042c-0.025,0.048-0.006,0.107,0.042,0.132l0.427,0.222
			C102.519,158.566,102.535,158.57,102.55,158.57"/>
		<path fill="#444444" d="M102.414,158.847c0.035,0,0.07-0.019,0.087-0.053c0.025-0.048,0.007-0.108-0.042-0.132l-0.427-0.222
			c-0.048-0.025-0.108-0.007-0.133,0.042c-0.026,0.048-0.007,0.107,0.042,0.132l0.427,0.222
			C102.383,158.843,102.399,158.847,102.414,158.847"/>
		<path fill="#444444" d="M102.2,159.11c0.035,0,0.07-0.019,0.088-0.053c0.025-0.048,0.007-0.107-0.042-0.132l-0.427-0.222
			c-0.049-0.025-0.108-0.006-0.133,0.042c-0.025,0.048-0.007,0.107,0.042,0.133l0.427,0.221
			C102.169,159.106,102.185,159.11,102.2,159.11"/>
		<path fill="#444444" d="M101.987,159.37c0.035,0,0.07-0.019,0.088-0.053c0.025-0.048,0.006-0.107-0.042-0.132l-0.427-0.222
			c-0.049-0.025-0.108-0.006-0.133,0.042c-0.025,0.048-0.007,0.107,0.042,0.132l0.427,0.222
			C101.956,159.367,101.971,159.37,101.987,159.37"/>
		<path fill="#444444" d="M101.773,159.631c0.036,0,0.07-0.019,0.088-0.053c0.025-0.048,0.006-0.107-0.042-0.132l-0.427-0.222
			c-0.048-0.025-0.108-0.006-0.133,0.042c-0.025,0.048-0.007,0.107,0.042,0.132l0.427,0.221
			C101.742,159.627,101.758,159.631,101.773,159.631"/>
		<path fill="#444444" d="M101.427,159.937c0.032,0,0.063-0.015,0.082-0.043c0.03-0.045,0.018-0.106-0.027-0.136l-0.4-0.267
			c-0.045-0.03-0.107-0.019-0.137,0.026c-0.031,0.045-0.018,0.106,0.027,0.136l0.4,0.267
			C101.389,159.931,101.408,159.937,101.427,159.937"/>
		<path fill="#444444" d="M101.079,160.205c0.029,0,0.057-0.012,0.076-0.036c0.035-0.042,0.029-0.104-0.013-0.138l-0.373-0.304
			c-0.042-0.035-0.105-0.028-0.139,0.014c-0.035,0.042-0.029,0.104,0.013,0.138l0.372,0.304
			C101.035,160.198,101.057,160.205,101.079,160.205"/>
		<path fill="#444444" d="M100.758,160.445c0.026,0,0.052-0.01,0.071-0.03c0.038-0.039,0.036-0.101-0.003-0.139l-0.347-0.332
			c-0.039-0.038-0.102-0.036-0.14,0.003c-0.038,0.039-0.037,0.101,0.003,0.139l0.347,0.332
			C100.709,160.436,100.734,160.445,100.758,160.445"/>
		<path fill="#444444" d="M100.419,160.603c0.026,0,0.052-0.01,0.071-0.03c0.038-0.039,0.037-0.101-0.002-0.139l-0.348-0.332
			c-0.039-0.038-0.102-0.036-0.14,0.002c-0.038,0.039-0.036,0.101,0.003,0.139l0.347,0.332
			C100.37,160.594,100.394,160.603,100.419,160.603"/>
		<path fill="#444444" d="M100.12,160.798c0.026,0,0.052-0.01,0.071-0.03c0.038-0.039,0.037-0.101-0.003-0.139l-0.348-0.332
			c-0.039-0.038-0.102-0.036-0.139,0.002c-0.038,0.039-0.036,0.101,0.003,0.139l0.347,0.332
			C100.07,160.789,100.095,160.798,100.12,160.798"/>
		<path fill="#444444" d="M99.78,160.971c0.028,0,0.055-0.011,0.075-0.033c0.036-0.041,0.032-0.103-0.009-0.138l-0.362-0.316
			c-0.041-0.036-0.103-0.032-0.14,0.009c-0.036,0.041-0.031,0.103,0.009,0.139l0.363,0.316
			C99.734,160.963,99.757,160.971,99.78,160.971"/>
		<path fill="#444444" d="M94.483,154.551c0,0-0.224,4.398-3.309,6.042c-2.406-1.058-2.896-2.408-2.896-2.408
			s2.484-1.327,2.768-5.232C94.137,154.425,94.483,154.551,94.483,154.551"/>
		<path fill="#777777" d="M92.324,159.746c1.994-1.958,2.159-5.195,2.159-5.195s-0.346-0.126-3.437-1.598
			c-0.173,2.378-1.161,3.799-1.908,4.547C89.587,158.082,90.524,159.003,92.324,159.746"/>
		<path fill="#353535" d="M90.755,154.653c0,0,1.826,1.278,3.511,1.3c0.147-0.629,0.132-0.684,0.132-0.684l-3.466-1.398
			L90.755,154.653z"/>
		<path fill="#444444" d="M93.203,158.638c0.259-0.416,0.466-0.848,0.632-1.27c-0.642-0.184-1.722-0.667-3.364-1.896
			c-0.168,0.405-0.358,0.758-0.556,1.063C90.364,157.005,91.447,157.984,93.203,158.638"/>
		<path fill="#444444" d="M87.929,158.57c-0.036,0-0.07-0.019-0.088-0.053c-0.025-0.048-0.006-0.107,0.042-0.133l0.427-0.221
			c0.049-0.025,0.108-0.006,0.134,0.042c0.025,0.048,0.006,0.107-0.042,0.132l-0.427,0.222
			C87.96,158.566,87.944,158.57,87.929,158.57"/>
		<path fill="#444444" d="M88.065,158.847c-0.036,0-0.07-0.019-0.088-0.053c-0.025-0.048-0.006-0.108,0.042-0.132l0.427-0.222
			c0.048-0.025,0.108-0.007,0.133,0.042c0.025,0.048,0.006,0.107-0.042,0.132l-0.427,0.222
			C88.096,158.843,88.08,158.847,88.065,158.847"/>
		<path fill="#444444" d="M88.279,159.11c-0.036,0-0.07-0.019-0.088-0.053c-0.025-0.048-0.007-0.107,0.042-0.132l0.427-0.222
			c0.049-0.025,0.108-0.006,0.133,0.042c0.025,0.048,0.006,0.107-0.042,0.133l-0.427,0.221
			C88.31,159.106,88.294,159.11,88.279,159.11"/>
		<path fill="#444444" d="M88.493,159.37c-0.036,0-0.07-0.019-0.088-0.053c-0.026-0.048-0.006-0.107,0.042-0.132l0.427-0.222
			c0.049-0.025,0.108-0.006,0.133,0.042c0.025,0.048,0.006,0.107-0.042,0.132l-0.427,0.222
			C88.523,159.367,88.508,159.37,88.493,159.37"/>
		<path fill="#444444" d="M88.706,159.631c-0.036,0-0.07-0.019-0.088-0.053c-0.026-0.048-0.007-0.107,0.042-0.132l0.427-0.222
			c0.049-0.025,0.108-0.006,0.134,0.042c0.025,0.048,0.006,0.107-0.042,0.132l-0.427,0.221
			C88.737,159.627,88.721,159.631,88.706,159.631"/>
		<path fill="#444444" d="M89.052,159.937c-0.032,0-0.063-0.015-0.082-0.043c-0.03-0.045-0.019-0.106,0.027-0.136l0.4-0.267
			c0.045-0.03,0.107-0.019,0.137,0.026c0.03,0.045,0.019,0.106-0.027,0.136l-0.4,0.267C89.09,159.931,89.071,159.937,89.052,159.937
			"/>
		<path fill="#444444" d="M89.4,160.205c-0.029,0-0.057-0.012-0.076-0.036c-0.035-0.042-0.028-0.104,0.014-0.138l0.373-0.304
			c0.042-0.035,0.104-0.028,0.139,0.014c0.035,0.042,0.029,0.104-0.013,0.138l-0.373,0.304
			C89.444,160.198,89.422,160.205,89.4,160.205"/>
		<path fill="#444444" d="M89.721,160.445c-0.026,0-0.052-0.01-0.071-0.03c-0.038-0.039-0.036-0.101,0.003-0.139l0.347-0.332
			c0.039-0.038,0.102-0.036,0.14,0.003c0.038,0.039,0.037,0.101-0.003,0.139l-0.347,0.332
			C89.77,160.436,89.745,160.445,89.721,160.445"/>
		<path fill="#444444" d="M90.06,160.603c-0.026,0-0.052-0.01-0.071-0.03c-0.038-0.039-0.037-0.101,0.003-0.139l0.348-0.332
			c0.039-0.038,0.102-0.036,0.139,0.002c0.038,0.039,0.037,0.101-0.002,0.139l-0.348,0.332
			C90.109,160.594,90.085,160.603,90.06,160.603"/>
		<path fill="#444444" d="M90.36,160.798c-0.026,0-0.052-0.01-0.071-0.03c-0.038-0.039-0.037-0.101,0.003-0.139l0.347-0.332
			c0.039-0.038,0.102-0.036,0.14,0.002c0.038,0.039,0.036,0.101-0.003,0.139l-0.347,0.332
			C90.409,160.789,90.384,160.798,90.36,160.798"/>
		<path fill="#444444" d="M90.699,160.971c-0.028,0-0.055-0.011-0.075-0.033c-0.036-0.041-0.032-0.103,0.009-0.138l0.363-0.316
			c0.041-0.036,0.103-0.032,0.139,0.009c0.036,0.041,0.032,0.103-0.009,0.139l-0.363,0.316
			C90.745,160.963,90.722,160.971,90.699,160.971"/>
		<path fill="#5E5E5E" d="M96.985,150.233c0.077,0.146,0.121,0.304,0.121,0.469c0,0.735-0.835,1.331-1.866,1.331
			c-1.03,0-1.867-0.596-1.867-1.331c0-0.165,0.045-0.323,0.122-0.469h-4.682c-0.022,0.154-0.033,0.311-0.033,0.469
			c0,2.544,2.892,4.606,6.46,4.606c3.568,0,6.46-2.062,6.46-4.606c0-0.158-0.011-0.315-0.033-0.469H96.985z"/>
		<path fill="#444444" d="M91.611,154.513l2.425-2.795c-0.37-0.223-0.615-0.546-0.655-0.912l-4.32,1.24
			C89.494,153.062,90.407,153.929,91.611,154.513"/>
		<path fill="#444444" d="M98.96,154.467c1.171-0.59,2.055-1.45,2.472-2.454l-4.331-1.243c-0.025,0.351-0.239,0.666-0.573,0.894
			L98.96,154.467z"/>
		<path fill="#444444" d="M95.239,155.309c0.513,0,1.011-0.044,1.49-0.125l-0.928-3.213c-0.177,0.04-0.366,0.061-0.562,0.061
			c-0.163,0-0.321-0.016-0.472-0.044l-0.993,3.2C94.245,155.266,94.735,155.309,95.239,155.309"/>
		<path fill="#382800" d="M94.963,127.117c-11.816,0-18.325,9.142-20.154,12.036c1.097-0.113,2.381-2.142,2.381-2.142
			s3.589-0.144,3.728-2.457c0,0,3.424,0.78,4.253-1.763c1.666,0.444,5.813,1.01,9.793,0.983c3.98,0.027,8.127-0.539,9.793-0.983
			c0.828,2.543,4.253,1.763,4.253,1.763c0.139,2.312,3.727,2.457,3.727,2.457s1.581,1.94,2.678,2.054
			C113.168,134.625,106.779,127.117,94.963,127.117"/>
	</g>
	<g>
		<path fill="#99643F" d="M84.523,150.12c-0.651-0.681-1.732-0.706-2.413-0.055l-14.306,13.677
			c-0.682,0.652-0.705,1.732-0.054,2.413c0.651,0.681,1.731,0.706,2.413,0.054l14.306-13.677
			C85.15,151.881,85.174,150.801,84.523,150.12"/>
		<path fill="#868686" d="M68.875,162.694l13.27-12.686c0.655-0.627,1.72-0.577,2.378,0.111c0.658,0.688,0.66,1.754,0.005,2.381
			l-13.27,12.686L68.875,162.694z"/>
		
			<rect x="68.745" y="162.166" transform="matrix(-0.691 -0.7228 0.7228 -0.691 0.9676 327.5127)" fill="#DDDDDD" width="3.47" height="2.767"/>
		<path fill="#7C7C7C" d="M69.667,162.51c0.071,0.075-0.011,0.269-0.184,0.435c-0.173,0.165-0.371,0.238-0.442,0.164
			c-0.071-0.075,0.011-0.269,0.184-0.434C69.398,162.508,69.595,162.435,69.667,162.51"/>
		
			<rect x="69.453" y="162.093" transform="matrix(-0.691 -0.7228 0.7228 -0.691 2.9013 326.7869)" fill="#9A9A9A" width="3.68" height="1.361"/>
	</g>
	<g>
		<path fill="#191919" d="M101.646,182.54l7.68-2.291c0,0-0.181,0.258,0.188,0.135c0.369-0.124,0.467,0.301,0.467,0.301
			s-3.763,1.256-4.968,1.66c-0.647-0.101-1.316,0.271-1.316,0.271l0.052,0.154l-1.812,0.596l-0.121-0.362L101.646,182.54z"/>
		<path fill="#0C0C0C" d="M101.322,181.805c0.297,0.978,0.512,1.255,0.512,1.255c0.063-0.01,7.902-2.665,7.902-2.665
			s-0.188-0.824-0.969-0.744c-1.614,0.218-2.513,0.021-4.332-0.271c-1.788,1.471-3.211,0.938-3.211,0.938
			S101.024,180.827,101.322,181.805"/>
		<path fill="#111111" d="M102.87,182.642c0,0-0.862,0.292-0.876,0.294c0,0-0.26-0.208-0.557-1.186
			c-0.298-0.978-0.137-1.315-0.137-1.315s1.367,0.534,3.155-0.938c1.406,0.225,2.241,0.353,3.303,0.317
			c0.016,0.722-0.584,0.873-1.493,0.827C103.391,180.689,102.87,182.642,102.87,182.642"/>
		
			<line fill="none" stroke="#282828" stroke-width="3.001" stroke-linecap="round" stroke-linejoin="round" x1="104.349" y1="179.999" x2="104.844" y2="179.367"/>
		
			<line fill="none" stroke="#282828" stroke-width="3.001" stroke-linecap="round" stroke-linejoin="round" x1="104.88" y1="180.08" x2="105.257" y2="179.461"/>
		
			<line fill="none" stroke="#282828" stroke-width="3.001" stroke-linecap="round" stroke-linejoin="round" x1="105.383" y1="180.122" x2="105.72" y2="179.53"/>
		
			<line fill="none" stroke="#282828" stroke-width="3.001" stroke-linecap="round" stroke-linejoin="round" x1="105.864" y1="180.173" x2="106.152" y2="179.578"/>
		
			<line fill="none" stroke="#282828" stroke-width="3.001" stroke-linecap="round" stroke-linejoin="round" x1="106.388" y1="180.242" x2="106.616" y2="179.666"/>
		
			<line fill="none" stroke="#282828" stroke-width="3.001" stroke-linecap="round" stroke-linejoin="round" x1="106.922" y1="180.262" x2="107.123" y2="179.708"/>
	</g>
</g>
<g>
	<g>
		<path fill="#F1B077" d="M247.556,184.95c1.998,0,2.354-2.163,2.354-2.163V167.05h-4.805v15.736
			C245.105,182.787,245.559,184.95,247.556,184.95z"/>
	</g>
	<g>
		<path fill="#002D46" d="M250.003,181.283V167.05h-4.993v14.233H250.003z"/>
	</g>
	<g>
		<g>
			<path fill="#1E1919" d="M245.122,181.853c0,1.301,1.07,2.356,2.389,2.356c1.319,0,2.389-1.055,2.389-2.356v-0.721
				c0.225,0.474,0.255,1.021,0.255,1.604c0,1.805-1.13,3.366-2.644,3.366c-1.514,0-2.644-1.561-2.644-3.366
				c0-0.582,0.029-1.128,0.253-1.601L245.122,181.853z"/>
		</g>
		<g>
			<g>
				<g>
					<path fill="#808184" d="M246.33,184.636c0-0.157,0.128-0.283,0.283-0.283c0.009,0,0.988,0.035,0.988,0.283
						c0,0.249-0.978,0.283-0.988,0.283C246.456,184.919,246.33,184.792,246.33,184.636z M246.613,184.556
						c-0.045,0-0.081,0.035-0.081,0.08c0,0.045,0.036,0.081,0.081,0.081c0.086,0,0.415-0.037,0.628-0.081
						C247.028,184.592,246.699,184.555,246.613,184.556z"/>
				</g>
			</g>
			<g>
				<g>
					<path fill="#808184" d="M247.578,184.636c0-0.249,0.978-0.283,0.989-0.283c0.156,0,0.283,0.127,0.283,0.283
						c0,0.157-0.128,0.283-0.283,0.283C248.556,184.919,247.578,184.885,247.578,184.636z M247.938,184.636
						c0.213,0.044,0.542,0.081,0.629,0.081c0.044,0,0.08-0.036,0.08-0.081c0-0.045-0.036-0.081-0.08-0.081
						C248.48,184.555,248.151,184.592,247.938,184.636z"/>
				</g>
				<g>
					<path fill="#1E1919" d="M247.805,184.641c0,0.131-0.107,0.237-0.238,0.237l0,0c-0.131,0-0.237-0.106-0.237-0.237l0,0
						c0-0.131,0.106-0.237,0.237-0.237l0,0C247.698,184.404,247.805,184.51,247.805,184.641L247.805,184.641z"/>
				</g>
				<g>
					<path fill="#808184" d="M247.75,184.599c0,0.102-0.082,0.183-0.183,0.183l0,0c-0.101,0-0.183-0.082-0.183-0.183l0,0
						c0-0.1,0.082-0.182,0.183-0.182l0,0C247.668,184.417,247.75,184.498,247.75,184.599L247.75,184.599z"/>
				</g>
			</g>
		</g>
	</g>
	<g>
		<path fill="#F1B077" d="M257.426,184.95c1.998,0,2.353-2.163,2.353-2.163V167.05h-4.805v15.736
			C254.974,182.787,255.429,184.95,257.426,184.95z"/>
	</g>
	<path fill="#F1B077" d="M274.629,152.751l9.749,12.345c1.331,1.685,1.077,3.011,0.087,3.792l0,0
		c-0.99,0.781-2.338,0.721-3.669-0.964l-9.749-12.345L274.629,152.751L274.629,152.751z"/>
	<g>
		<path fill="#002D46" d="M259.873,181.283V167.05h-4.993v14.233H259.873z"/>
	</g>
	<path fill="#F1B077" d="M259.426,150.758v6.672l-1.158,1.058H246.68l-1.243-1.314v-6.417H259.426z"/>
	<g>
		<rect x="246.528" y="153.306" fill="#40403A" width="10.833" height="5.772"/>
		<path fill="#C9C694" d="M257.272,156.495c0,0-9.397,2.009-9.397-5.801c-10.22,0-10.946,0-10.946,0s0,22.923,0,23.98
			c0,1.057,0.969,2.016,2.097,2.016c1.128,0,18.245,0,18.245,0V156.495z"/>
		<path fill="#B9B287" d="M252.675,159.739c0,0-8.666-1.316-8.753-9.046c-1.264,0-3.051,0-3.051,0s1.594,9.122,10.395,9.992
			C251.851,160.338,252.675,159.739,252.675,159.739z"/>
		<path fill="#DBDAAA" d="M256.509,150.694c0,0,0.683,5.139-8.257,10.527c0,8.792,0,15.469,0,15.469s16.4,0,17.528,0
			c1.129,0,2.155-0.712,2.155-2.087c0-1.374,0-23.91,0-23.91H256.509z"/>
		<path fill="#BFBC81" d="M260.588,150.694c0,0-1.045,8.768-12.337,10.417c0,0.248,0,0.516,0,0.764
			c3.517,0.907,14.828-2.242,14.828-11.181C261.137,150.694,260.588,150.694,260.588,150.694z"/>
		<g opacity="0.7">
			<circle fill="#16180B" cx="253.993" cy="163.794" r="0.971"/>
			<circle fill="#2C301B" cx="253.993" cy="163.794" r="0.787"/>
			<circle fill="#16180B" cx="254.264" cy="163.934" r="0.143"/>
			<circle fill="#16180B" cx="253.751" cy="163.585" r="0.143"/>
		</g>
		<g opacity="0.7">
			<circle fill="#16180B" cx="250.721" cy="163.794" r="0.971"/>
			<circle fill="#2C301B" cx="250.721" cy="163.794" r="0.787"/>
			<circle fill="#16180B" cx="250.992" cy="163.934" r="0.143"/>
			<circle fill="#16180B" cx="250.478" cy="163.585" r="0.143"/>
		</g>
		<g opacity="0.7">
			<circle fill="#16180B" cx="253.993" cy="167.505" r="0.971"/>
			<circle fill="#2C301B" cx="253.993" cy="167.505" r="0.787"/>
			<circle fill="#16180B" cx="254.264" cy="167.644" r="0.143"/>
			<circle fill="#16180B" cx="253.751" cy="167.295" r="0.143"/>
		</g>
		<g opacity="0.7">
			<circle fill="#16180B" cx="250.721" cy="167.505" r="0.971"/>
			<circle fill="#2C301B" cx="250.721" cy="167.505" r="0.787"/>
			<circle fill="#16180B" cx="250.992" cy="167.644" r="0.143"/>
			<circle fill="#16180B" cx="250.478" cy="167.295" r="0.143"/>
		</g>
		<g opacity="0.7">
			<circle fill="#16180B" cx="253.993" cy="170.802" r="0.971"/>
			<circle fill="#2C301B" cx="253.993" cy="170.802" r="0.787"/>
			<circle fill="#16180B" cx="254.264" cy="170.942" r="0.143"/>
			<circle fill="#16180B" cx="253.751" cy="170.592" r="0.144"/>
		</g>
		<g opacity="0.7">
			<circle fill="#16180B" cx="250.721" cy="170.802" r="0.971"/>
			<circle fill="#2C301B" cx="250.721" cy="170.802" r="0.787"/>
			<circle fill="#16180B" cx="250.992" cy="170.942" r="0.143"/>
			<circle fill="#16180B" cx="250.478" cy="170.592" r="0.144"/>
		</g>
	</g>
	<g>
		<path fill="#DBDAAA" d="M283.909,164.177l-10.358-13.116c-0.817-1.035-2.354-1.186-3.43-0.336l0,0
			c-1.077,0.851-1.287,2.38-0.469,3.415l10.358,13.116L283.909,164.177z"/>
		
			<rect x="279.22" y="164.585" transform="matrix(0.7848 -0.6198 0.6198 0.7848 -41.8789 210.1805)" fill="#40403A" width="4.968" height="1.615"/>
	</g>
	<path fill="#F1B077" d="M229.666,152.519l-11.138-11.108c-1.52-1.516-1.424-2.863-0.534-3.756l0,0
		c0.89-0.892,2.236-0.991,3.756,0.525l11.138,11.108L229.666,152.519L229.666,152.519z"/>
	<g>
		<path fill="#DBDAAA" d="M219.102,142.268l11.834,11.802c0.934,0.931,2.477,0.9,3.446-0.072l0,0
			c0.968-0.971,0.996-2.515,0.062-3.446l-11.834-11.802L219.102,142.268z"/>
		
			<rect x="218.665" y="139.993" transform="matrix(-0.7062 0.708 -0.708 -0.7062 477.0101 83.6446)" fill="#40403A" width="4.968" height="1.615"/>
	</g>
	<g>
		<g>
			<path fill="#1E1919" d="M254.991,181.853c0,1.301,1.07,2.356,2.39,2.356s2.388-1.055,2.388-2.356l0.001-0.721
				c0.224,0.474,0.254,1.021,0.254,1.604c0,1.805-1.13,3.366-2.643,3.366c-1.514,0-2.645-1.561-2.645-3.366
				c0-0.582,0.03-1.128,0.253-1.601L254.991,181.853z"/>
		</g>
		<g>
			<g>
				<g>
					<path fill="#808184" d="M256.198,184.636c0-0.157,0.128-0.283,0.283-0.283c0.01,0,0.989,0.035,0.989,0.283
						c0,0.249-0.978,0.283-0.989,0.283C256.326,184.919,256.198,184.792,256.198,184.636z M256.482,184.556
						c-0.044,0-0.08,0.035-0.08,0.08c0,0.045,0.036,0.081,0.08,0.081c0.087,0,0.416-0.037,0.629-0.081
						C256.897,184.592,256.568,184.555,256.482,184.556z"/>
				</g>
			</g>
			<g>
				<g>
					<path fill="#808184" d="M257.448,184.636c0-0.249,0.978-0.283,0.988-0.283c0.157,0,0.284,0.127,0.284,0.283
						c0,0.157-0.127,0.283-0.284,0.283C258.426,184.919,257.448,184.885,257.448,184.636z M257.807,184.636
						c0.214,0.044,0.542,0.081,0.628,0.081c0.045,0,0.082-0.036,0.082-0.081c0-0.045-0.037-0.081-0.082-0.081
						C258.35,184.555,258.021,184.592,257.807,184.636z"/>
				</g>
				<g>
					<path fill="#1E1919" d="M257.674,184.641c0,0.131-0.105,0.237-0.236,0.237l0,0c-0.131,0-0.238-0.106-0.238-0.237l0,0
						c0-0.131,0.107-0.237,0.238-0.237l0,0C257.568,184.404,257.674,184.51,257.674,184.641L257.674,184.641z"/>
				</g>
				<g>
					<path fill="#808184" d="M257.62,184.599c0,0.102-0.082,0.183-0.183,0.183l0,0c-0.101,0-0.183-0.082-0.183-0.183l0,0
						c0-0.1,0.082-0.182,0.183-0.182l0,0C257.538,184.417,257.62,184.498,257.62,184.599L257.62,184.599z"/>
				</g>
			</g>
		</g>
	</g>
	<g>
		<path fill="#F1B077" d="M242.407,132.312l-3.905-6.148c-0.232-0.366-0.174-0.845,0.129-1.07c0.303-0.226,0.738-0.115,0.966,0.25
			l4.059,6.386c2.675-1.141,5.644-1.778,8.774-1.778c3.13,0,6.1,0.637,8.775,1.778l4.058-6.386c0.233-0.365,0.666-0.476,0.969-0.25
			c0.303,0.226,0.362,0.704,0.128,1.07l-3.906,6.148c6.21,3.132,10.565,9.084,11.122,16.03h-42.289
			C231.84,141.396,236.195,135.443,242.407,132.312"/>
		<path fill="#FFFFFF" d="M260.885,141.881c1.019,0,1.845-0.895,1.845-1.999c0-1.106-0.826-1.998-1.845-1.998
			c-1.019,0-1.843,0.893-1.843,1.998C259.042,140.986,259.866,141.881,260.885,141.881"/>
		<path fill="#FFFFFF" d="M243.736,141.94c1.046,0,1.895-0.922,1.895-2.058c0-1.137-0.848-2.056-1.895-2.056
			c-1.051,0-1.899,0.919-1.899,2.056C241.837,141.018,242.685,141.94,243.736,141.94"/>
	</g>
</g>
<g>
	
		<rect x="156.161" y="132.469" transform="matrix(-0.9985 -0.0554 0.0554 -0.9985 312.3792 325.4512)" fill="#004968" width="9.074" height="51.859"/>
	
		<rect x="179.545" y="130.96" transform="matrix(0.9481 -0.318 0.318 0.9481 -40.3347 66.6805)" fill="#004968" width="9.074" height="51.859"/>
	<line fill="#3F365B" x1="114.355" y1="56.458" x2="115.646" y2="58.438"/>
	<line fill="#3F365B" x1="107.421" y1="60.983" x2="114.355" y2="56.458"/>
	<line fill="#3F365B" x1="108.712" y1="62.963" x2="107.421" y2="60.983"/>
	<path fill="#191919" d="M164.523,185.938l-0.058,1.043l-5.21-0.257l0.025-0.445c0,0-2.033-0.499-3.667,0.238
		c-3.474-0.193-14.309-0.776-14.309-0.776s-0.049-1.192,1.013-1.133c1.062,0.059,0.398-0.491,0.398-0.491l21.919,0.473
		L164.523,185.938z"/>
	<path fill="#0C0C0C" d="M164.135,178.42c0,0-3.368,2.439-9.15-0.146c-4.586,2.088-6.814,3.26-11.229,3.856
		c-2.119,0.355-2.015,2.666-2.015,2.666s22.601,1.318,22.774,1.299c0,0,0.366-0.884,0.441-3.681
		C165.031,179.618,164.135,178.42,164.135,178.42"/>
	<path fill="#111111" d="M151.074,182.932c-2.364,0.781-4.058,0.816-4.539-1.099c2.826-0.676,4.937-1.618,8.482-3.233
		c5.782,2.585,9.002,0.185,9.002,0.185s0.669,0.771,0.593,3.567c-0.075,2.796-0.609,3.533-0.609,3.533
		c-0.039,0.004-2.523-0.14-2.523-0.14S158.688,180.971,151.074,182.932"/>
	
		<line fill="none" stroke="#282828" stroke-width="3.001" stroke-linecap="round" stroke-linejoin="round" x1="153.898" y1="178.539" x2="155.66" y2="179.847"/>
	
		<line fill="none" stroke="#282828" stroke-width="3.001" stroke-linecap="round" stroke-linejoin="round" x1="152.877" y1="179.087" x2="154.321" y2="180.446"/>
	
		<line fill="none" stroke="#282828" stroke-width="3.001" stroke-linecap="round" stroke-linejoin="round" x1="151.703" y1="179.605" x2="153.022" y2="180.92"/>
	
		<line fill="none" stroke="#282828" stroke-width="3.001" stroke-linecap="round" stroke-linejoin="round" x1="150.6" y1="180.045" x2="151.793" y2="181.404"/>
	
		<line fill="none" stroke="#282828" stroke-width="3.001" stroke-linecap="round" stroke-linejoin="round" x1="149.439" y1="180.613" x2="150.459" y2="181.965"/>
	
		<line fill="none" stroke="#282828" stroke-width="3.001" stroke-linecap="round" stroke-linejoin="round" x1="148.135" y1="181.092" x2="149.066" y2="182.406"/>
	<path fill="#191919" d="M187.203,183.196l21.01-6.264c0,0-0.494,0.706,0.514,0.368c1.008-0.338,1.277,0.824,1.277,0.824
		s-10.293,3.433-13.592,4.54c-1.771-0.278-3.599,0.742-3.599,0.742l0.142,0.422l-4.956,1.629l-0.332-0.99L187.203,183.196z"/>
	<path fill="#0C0C0C" d="M186.316,181.183c0.813,2.677,1.4,3.432,1.4,3.432c0.173-0.027,21.616-7.288,21.616-7.288
		s-0.512-2.255-2.65-2.036c-4.415,0.596-6.875,0.056-11.849-0.742c-4.89,4.024-8.785,2.565-8.785,2.565
		S185.502,178.507,186.316,181.183"/>
	<path fill="#111111" d="M190.551,183.475c0,0-2.357,0.797-2.396,0.804c0,0-0.71-0.569-1.524-3.245
		c-0.814-2.676-0.373-3.597-0.373-3.597s3.741,1.46,8.631-2.564c3.846,0.617,6.13,0.966,9.034,0.869
		c0.044,1.974-1.599,2.388-4.085,2.262C191.977,178.13,190.551,183.475,190.551,183.475"/>
	
		<line fill="none" stroke="#282828" stroke-width="3.001" stroke-linecap="round" stroke-linejoin="round" x1="194.598" y1="176.244" x2="195.951" y2="174.517"/>
	
		<line fill="none" stroke="#282828" stroke-width="3.001" stroke-linecap="round" stroke-linejoin="round" x1="196.049" y1="176.467" x2="197.082" y2="174.774"/>
	
		<line fill="none" stroke="#282828" stroke-width="3.001" stroke-linecap="round" stroke-linejoin="round" x1="197.427" y1="176.58" x2="198.35" y2="174.963"/>
	
		<line fill="none" stroke="#282828" stroke-width="3.001" stroke-linecap="round" stroke-linejoin="round" x1="198.741" y1="176.721" x2="199.531" y2="175.095"/>
	
		<line fill="none" stroke="#282828" stroke-width="3.001" stroke-linecap="round" stroke-linejoin="round" x1="200.176" y1="176.909" x2="200.8" y2="175.334"/>
	
		<line fill="none" stroke="#282828" stroke-width="3.001" stroke-linecap="round" stroke-linejoin="round" x1="201.636" y1="176.964" x2="202.185" y2="175.451"/>
	<path fill="#D8BB9C" d="M204.56,46.134l11.984-16.13c0.633-0.853,0.456-2.057-0.397-2.69c-0.85-0.631-2.055-0.455-2.689,0.397
		l-12.101,16.288c-7.617-4.722-16.441-8-26.061-9.329c-9.598-1.327-18.963-0.571-27.561,1.896l-7.223-18.937
		c-0.379-0.993-1.49-1.488-2.482-1.111c-0.991,0.379-1.489,1.489-1.111,2.481l7.152,18.752
		c-20.128,7.107-35.377,23.806-38.305,44.99l123.418,17.059C232.111,78.632,221.981,58.437,204.56,46.134"/>
	<path fill="#D8BB9C" d="M137.134,98.941c1.895-1.237,2.429-3.777,1.193-5.671l-25.974-39.801c-1.237-1.896-3.777-2.429-5.672-1.192
		c-1.894,1.236-2.429,3.775-1.192,5.671l25.974,39.801C132.7,99.643,135.24,100.177,137.134,98.941"/>
	<path fill="#FFFFFF" d="M138.899,60.49c0.559-4.042,4.288-6.866,8.33-6.308c4.042,0.559,6.866,4.289,6.307,8.331
		c-0.559,4.042-4.288,6.865-8.33,6.307C141.164,68.261,138.34,64.532,138.899,60.49"/>
	<path fill="#FFFFFF" d="M188.762,67.382c0.559-4.042,4.289-6.866,8.331-6.307c4.042,0.559,6.866,4.289,6.307,8.331
		c-0.559,4.042-4.288,6.865-8.33,6.307C191.028,75.154,188.204,71.424,188.762,67.382"/>
	<g>
		<defs>
			<path id="SVGID_3_" d="M137.938,101.461l4.397,32.737c0.418,3.11,3.553,5.255,7.007,4.791l39.855-5.353
				c3.454-0.464,5.916-3.361,5.498-6.471l-4.397-32.737L137.938,101.461z"/>
		</defs>
		<clipPath id="SVGID_4_">
			<use xlink:href="#SVGID_3_"  overflow="visible"/>
		</clipPath>
		<polygon clip-path="url(#SVGID_4_)" fill="#686737" points="160.877,98.38 164.942,103.699 167.379,121.842 156.037,123.365 
			152.826,99.461 		"/>
		<polygon clip-path="url(#SVGID_4_)" fill="#686737" points="167.46,97.495 164.942,103.699 167.379,121.842 178.721,120.318 
			175.51,96.414 		"/>
		
			<line clip-path="url(#SVGID_4_)" fill="none" stroke="#444225" stroke-width="1.501" stroke-linecap="round" stroke-linejoin="round" x1="164.942" y1="103.699" x2="166.637" y2="116.315"/>
		<path clip-path="url(#SVGID_4_)" fill="#271F3A" d="M173.981,96.62c0,0,0.997,12.29-7.516,18.441
			c-9.835-3.686-12.117-15.804-12.117-15.804l-16.31,2.191l8.053,59.957l52.259-7.019l-8.053-59.957L173.981,96.62z"/>
		<polygon clip-path="url(#SVGID_4_)" fill="#8E8D4C" points="163.504,101.816 160.764,104.605 157.231,98.869 160.877,98.38 		"/>
		<polygon clip-path="url(#SVGID_4_)" fill="#8E8D4C" points="165.827,101.504 169.205,103.471 171.099,97.007 167.453,97.497 		"/>
		<path clip-path="url(#SVGID_4_)" fill="#D3D170" d="M168.538,101.168c0.273-0.037,0.523,0.155,0.56,0.427
			c0.037,0.272-0.154,0.523-0.427,0.56c-0.272,0.037-0.523-0.155-0.56-0.427C168.075,101.455,168.266,101.205,168.538,101.168"/>
		<path clip-path="url(#SVGID_4_)" fill="#D3D170" d="M160.747,102.215c0.273-0.037,0.523,0.155,0.56,0.427
			c0.036,0.272-0.155,0.523-0.427,0.56c-0.273,0.037-0.523-0.155-0.56-0.427C160.283,102.502,160.475,102.251,160.747,102.215"/>
		<polygon clip-path="url(#SVGID_4_)" fill="#444225" points="165.106,103.295 169.205,103.471 165.827,101.504 		"/>
		<polygon clip-path="url(#SVGID_4_)" fill="#444225" points="164.677,103.353 160.771,104.604 163.51,101.815 		"/>
		<path clip-path="url(#SVGID_4_)" fill="#3F365B" d="M173.988,96.619c0,0,0.998,12.29-7.516,18.441l-0.003,0l-0.004,0.001
			c-9.836-3.686-12.116-15.804-12.116-15.804l-1.949,0.262c0,0,2.298,15.732,14.371,17.787c11.102-5.167,9.168-20.948,9.168-20.948
			L173.988,96.619z"/>
	</g>
	<g>
		<path fill="#271F3A" d="M114.355,56.459l24.092,36.918c1.19,1.823,0.602,4.314-1.312,5.564c-1.915,1.25-4.432,0.784-5.622-1.039
			l-24.093-36.918L114.355,56.459z"/>
		<path fill="#3F365B" d="M114.355,56.458"/>
		<path fill="#3F365B" d="M107.421,60.983"/>
		<line fill="#3F365B" x1="115.646" y1="58.438" x2="108.712" y2="62.963"/>
		<path fill="#D8BB9C" d="M198.54,101.497c1.589,1.612,4.184,1.63,5.795,0.042l33.844-33.367c1.612-1.59,1.629-4.184,0.04-5.795
			c-1.588-1.611-4.182-1.63-5.795-0.041l-33.844,33.367C196.971,97.291,196.952,99.886,198.54,101.497"/>
		<path fill="#271F3A" d="M235.647,70.728l-31.392,30.949c-1.55,1.529-4.109,1.448-5.714-0.18c-1.606-1.629-1.65-4.188-0.099-5.716
			l31.393-30.95L235.647,70.728z"/>
		<line fill="#3F365B" x1="229.835" y1="64.832" x2="235.647" y2="70.728"/>
		<line fill="#3F365B" x1="233.964" y1="72.387" x2="228.151" y2="66.491"/>
		<path fill="#382800" d="M200.537,45.195c0,0-6.836-3.501-17.116,0.665c-10.28,4.167-45.069,9.062-57.605-16.196
			C118.537,14.248,131.168,1.585,139.915,0c-3.973,9.597,2.164,18.385,18.891,18.638C175.533,18.891,198.837,24.285,200.537,45.195"
			/>
	</g>
</g>
<path fill="#FF7DB2" d="M250.571,125.334c0,0,2.614,5.51,6.438,6.436c-5.924,1.538-10.272-1.186-10.272-1.186L250.571,125.334z"/>
<g>
	<g>
		<path fill="#311B92" d="M26.501,179.74c0,0,0.957,0.792,2.42,0.331c1.463-0.462,1.85-1.352,1.85-1.352s1.041,1.155-0.036,2.496
			c-0.741,0.966-0.823,2.593-0.823,2.593l-0.313-0.039l0.166-1.335c0,0,0.046-0.714-0.659-0.378
			c-0.706,0.336-1.173,1.432-1.747,1.361c-0.574-0.071-3.688-0.457-3.688-0.457s0.101-0.76,0.627-0.78
			C24.821,182.16,26.197,181.762,26.501,179.74z"/>
		<path fill="#311B92" d="M28.546,180.313c0,0-0.491-1.184-1.954-1.365c0.081-0.653,0.124-1.002,0.124-1.002s2.419,0.35,2.993,2.031
			C29.07,180.188,28.546,180.313,28.546,180.313z"/>
		<g>
			<path fill="#BCBCBC" d="M28.608,180.224c-0.076-0.009-0.144-0.049-0.191-0.112l-0.339-0.455
				c-0.095-0.124-0.069-0.302,0.056-0.396l0.551-0.411c0.121-0.091,0.306-0.064,0.396,0.057l0.34,0.455
				c0.094,0.125,0.068,0.302-0.058,0.397l-0.549,0.412C28.755,180.213,28.682,180.233,28.608,180.224z M28.859,179.035
				c-0.006-0.001-0.017,0-0.029,0.008l-0.551,0.412c-0.017,0.013-0.021,0.039-0.007,0.057l0.339,0.455
				c0.009,0.012,0.022,0.015,0.027,0.016c0.008,0.001,0.019,0.001,0.03-0.007l0.551-0.411c0.018-0.014,0.021-0.04,0.008-0.057
				l-0.34-0.455C28.877,179.039,28.865,179.036,28.859,179.035z"/>
		</g>
		<g>
			<path fill="#BCBCBC" d="M28.724,179.532c-0.019-0.002-0.037-0.012-0.051-0.028l-0.254-0.298
				c-0.028-0.034-0.024-0.085,0.009-0.114c0.035-0.028,0.086-0.024,0.115,0.009l0.254,0.298c0.028,0.033,0.024,0.085-0.01,0.114
				C28.77,179.528,28.745,179.534,28.724,179.532z"/>
		</g>
	</g>
	<g>
		<path fill="#311B92" d="M43.875,179.255c0,0-0.857,0.902-2.363,0.62c-1.507-0.283-1.999-1.119-1.999-1.119
			s-0.895,1.272,0.336,2.473c0.853,0.869,1.13,2.475,1.13,2.475l0.306-0.076l-0.325-1.305c0,0-0.132-0.703,0.609-0.454
			c0.74,0.249,1.337,1.28,1.897,1.141c0.562-0.14,3.608-0.898,3.608-0.898s-0.192-0.743-0.716-0.699
			C45.833,181.456,44.421,181.226,43.875,179.255z"/>
		<path fill="#311B92" d="M41.915,180.071c0,0,0.344-1.234,1.774-1.59c-0.159-0.639-0.244-0.98-0.244-0.98s-2.358,0.639-2.726,2.377
			C41.379,180.009,41.915,180.071,41.915,180.071z"/>
		<g>
			<path fill="#BCBCBC" d="M41.63,179.96l-0.597-0.342c-0.135-0.079-0.181-0.252-0.103-0.387l0.283-0.492
				c0.074-0.13,0.256-0.179,0.387-0.104l0.595,0.342c0.136,0.078,0.182,0.252,0.104,0.387l-0.283,0.493
				c-0.038,0.068-0.101,0.115-0.176,0.134C41.769,180.007,41.694,179.997,41.63,179.96z M41.424,178.859l-0.283,0.493
				c-0.011,0.019-0.004,0.044,0.015,0.055l0.595,0.342c0.013,0.007,0.023,0.006,0.031,0.004c0.006-0.002,0.017-0.006,0.025-0.019
				l0.283-0.492c0.012-0.019,0.004-0.044-0.015-0.056l-0.596-0.343c-0.013-0.006-0.024-0.006-0.031-0.004
				C41.444,178.841,41.431,178.846,41.424,178.859z"/>
		</g>
		<g>
			<path fill="#BCBCBC" d="M41.643,179.316c0.019-0.005,0.035-0.016,0.048-0.034l0.216-0.326c0.024-0.037,0.014-0.088-0.024-0.112
				c-0.037-0.024-0.087-0.014-0.113,0.023l-0.215,0.326c-0.024,0.037-0.014,0.088,0.024,0.112
				C41.598,179.318,41.622,179.321,41.643,179.316z"/>
		</g>
	</g>
</g>
<g>
	<path opacity="0.2" fill="#280500" d="M51.202,113.604c0,0-9.158-2.201-14.643,0.647l-0.696,3.705
		c1.197,4.061,2.282,7.912,8.22,7.912c5.21,0,7.249-4.466,7.249-8.414C51.331,113.652,51.202,113.604,51.202,113.604z"/>
	<path opacity="0.95" fill="#D6272D" d="M17.023,120.208c0.458,1.794,1.395,3.456,2.924,4.508v-11.652
		c-1.421,0.179-2.491,0.397-2.924,0.492V120.208z"/>
	<path opacity="0.95" fill="#F98E28" d="M19.91,124.69c0.804,0.562,1.738,0.953,2.888,1.106v-12.952h-0.463
		c-0.875,0.05-1.697,0.133-2.425,0.225V124.69z"/>
	<path opacity="0.95" fill="#FDE346" d="M22.798,125.79c0.36,0.05,0.736,0.078,1.133,0.078c0.655,0,1.211-0.049,1.754-0.138v-12.885
		c-0.008-0.001-2.888-0.002-2.888-0.002V125.79z"/>
	<path opacity="0.95" fill="#72CB4B" d="M28.572,124.597v-11.351c-0.948-0.214-1.897-0.34-2.875-0.403h-0.012v12.893
		C26.892,125.545,27.807,125.148,28.572,124.597z"/>
	<path opacity="0.95" fill="#27B8B4" d="M28.572,113.238v11.386c1.503-1.063,2.3-2.709,2.924-4.549v-5.604l-0.041-0.221
		C30.572,113.792,29.593,113.465,28.572,113.238z"/>
	<path opacity="0.2" fill="#0F0000" d="M24.241,122.484c-5.327,0-7.681-5.815-7.681-5.815c0.973,11.045,7.681,9.127,7.681,9.127
		s6.709,1.918,7.682-9.127C31.923,116.668,31.003,122.484,24.241,122.484z"/>
	<path opacity="0.2" fill="#0F0000" d="M31.668,117.508v-3.393l-5.521-1.322l-7.859,0.355l-2.092,2.374l1.055,3.323
		c-0.053-1.67-0.369-3.974,2.444-4.783c2.004-0.44,5.644-0.369,7.473,0c4.079,0.809,4.132,1.952,4.132,3.71L31.668,117.508z"/>
	<path opacity="0.2" fill="#0F0000" d="M51.326,117.817c0,0-0.219,8.052-7.923,8.052c-3.984,0-6.389-2.6-7.312-7.666
		c-0.133-0.749-1.313-2.189-1.313-2.189h-0.771h-0.771c0,0-1.179,1.44-1.313,2.189c-0.923,5.066-3.328,7.666-7.312,7.666
		c-7.704,0-7.923-8.052-7.923-8.052l-0.572-0.001l0.203,1.661c0.281,1.292,1.099,5.952,4.712,7.059
		c3.508,1.108,7.569,0.619,9.415-2.084c1.925-2.819,2.015-6.834,3.56-6.844c1.545,0.01,1.635,4.025,3.56,6.844
		c1.846,2.703,5.908,3.191,9.415,2.084c3.613-1.108,4.431-5.767,4.712-7.059l0.203-1.661L51.326,117.817z"/>
	<path opacity="0.95" fill="#D6272D" d="M50.99,120.208c-0.458,1.794-1.395,3.456-2.924,4.508v-11.652
		c1.421,0.179,2.491,0.397,2.924,0.492V120.208z"/>
	<path opacity="0.95" fill="#F98E28" d="M48.103,124.69c-0.804,0.562-1.738,0.953-2.888,1.106v-12.952h0.463
		c0.875,0.05,1.697,0.133,2.425,0.225V124.69z"/>
	<path opacity="0.95" fill="#FDE346" d="M45.216,125.79c-0.36,0.05-0.736,0.078-1.133,0.078c-0.655,0-1.211-0.049-1.754-0.138
		v-12.885c0.008-0.001,2.888-0.002,2.888-0.002V125.79z"/>
	<path opacity="0.95" fill="#72CB4B" d="M39.441,124.597v-11.351c0.948-0.214,1.897-0.34,2.875-0.403h0.012v12.893
		C41.121,125.545,40.207,125.148,39.441,124.597z"/>
	<path opacity="0.95" fill="#27B8B4" d="M39.441,113.238v11.386c-1.503-1.063-2.3-2.709-2.924-4.549v-5.604l0.041-0.221
		C37.442,113.792,38.421,113.465,39.441,113.238z"/>
	<path opacity="0.2" fill="#0F0000" d="M43.772,122.484c5.327,0,7.681-5.815,7.681-5.815c-0.973,11.045-7.681,9.127-7.681,9.127
		s-6.709,1.918-7.682-9.127C36.09,116.668,37.01,122.484,43.772,122.484z"/>
	<path opacity="0.2" fill="#0F0000" d="M36.714,117.772c0-1.758,0.053-2.901,4.132-3.71c1.829-0.369,5.468-0.44,7.473,0
		c2.813,0.809,2.497,3.112,2.444,4.783l1.055-3.323l-2.092-2.374l-7.859-0.355l-5.521,1.322v3.393L36.714,117.772z"/>
	<path fill="#FAE6D2" d="M38.095,112.98c-2.65,0.681-3.973,0.687-4.083,0.686v0c0,0-0.004,0-0.005,0c-0.001,0-0.005,0-0.005,0v0
		c-0.109,0.001-1.433-0.004-4.083-0.686c-2.769-0.712-10.892-1.108-15.27,0.501c0,0,0.073,1.609,0.119,2.099
		c0,0,0.015,0.42,0.412,0.645c0.397,0.226,0.858,1.063,1.139,2.355c0.281,1.292,1.099,5.952,4.712,7.059
		c3.508,1.108,7.569,0.619,9.415-2.084c1.925-2.819,2.015-6.834,3.56-6.844c1.545,0.01,1.635,4.025,3.56,6.844
		c1.846,2.703,5.908,3.191,9.415,2.084c3.613-1.108,4.431-5.767,4.712-7.059c0.281-1.292,0.742-2.129,1.139-2.355
		c0.397-0.226,0.412-0.645,0.412-0.645c0.047-0.49,0.119-2.099,0.119-2.099C48.987,111.873,40.864,112.268,38.095,112.98z
		 M29.945,122.589c-1.503,2.998-5.204,3.165-7.385,2.743c-5.053-0.702-5.31-7.121-5.31-7.121c-0.053-1.67-0.369-3.974,2.444-4.783
		c2.004-0.44,5.644-0.369,7.473,0c4.079,0.809,4.132,1.952,4.132,3.71C31.299,118.211,31.172,120.143,29.945,122.589z
		 M50.763,118.211c0,0-0.257,6.419-5.31,7.121c-2.18,0.422-5.881,0.255-7.385-2.743c-1.227-2.446-1.354-4.378-1.354-5.451
		c0-1.758,0.053-2.901,4.132-3.71c1.829-0.369,5.468-0.44,7.473,0C51.132,114.237,50.815,116.541,50.763,118.211z"/>
	<path fill="#D1C0B0" d="M52.151,114.374c0.573,0,0.684,0.415,0.684,0.415s-0.111,0.415-0.684,0.415
		c-0.573,0-0.684-0.415-0.684-0.415S51.577,114.374,52.151,114.374z"/>
	<path fill="#D1C0B0" d="M15.863,114.374c-0.573,0-0.684,0.415-0.684,0.415s0.111,0.415,0.684,0.415
		c0.573,0,0.684-0.415,0.684-0.415S16.436,114.374,15.863,114.374z"/>
</g>
</svg>
