<?xml version="1.0" encoding="utf-8"?>
<!-- Generator: Adobe Illustrator 18.0.0, SVG Export Plug-In . SVG Version: 6.00 Build 0)  -->
<!DOCTYPE svg PUBLIC "-//W3C//DTD SVG 1.1//EN" "http://www.w3.org/Graphics/SVG/1.1/DTD/svg11.dtd">
<svg version="1.1" id="Layer_1" xmlns="http://www.w3.org/2000/svg" xmlns:xlink="http://www.w3.org/1999/xlink" x="0px" y="0px"
	 width="1920px" height="1080px" viewBox="0 0 1920 1080" enable-background="new 0 0 1920 1080" xml:space="preserve">
<g id="Layer_1_1_">
	<g>
		<g>
			<g>
				<path fill="#B7B7B7" d="M1126.5,454.5l-4.1-9c30.2-13.8,49.7-44.1,49.7-77.2c0-37.2-23.8-69.7-59.2-80.9l3-9.5
					c39.5,12.5,66.1,48.8,66.1,90.3C1181.9,405.3,1160.2,439.2,1126.5,454.5z"/>
				<g>
					<polygon fill="#B7B7B7" points="1172.3,467.9 1174.7,458.2 1127.1,446.7 1142,400.1 1132.5,397.1 1114.4,453.9 					"/>
				</g>
			</g>
		</g>
		<g>
			<g>
				<path fill="#B7B7B7" d="M804.1,458.6c-39.5-12.5-66.1-48.8-66.1-90.3c0-37,21.8-70.9,55.5-86.3l4.1,9
					c-30.2,13.8-49.7,44.1-49.7,77.2c0,37.2,23.8,69.7,59.2,80.9L804.1,458.6z"/>
				<g>
					<polygon fill="#B7B7B7" points="747.7,268.7 745.3,278.3 792.9,289.8 778,336.4 787.5,339.5 805.6,282.7 					"/>
				</g>
			</g>
		</g>
		<path fill="#434343" d="M856,189.7l0.7,356.6c0,0.9,0.5,4,0.7,4.6c0.4,1.8,1.2,3.5,2.4,5.1c2.5,3.4,6.6,5.9,12.5,7
			c12.8,2.4,60.1,4.9,82,4.8c0.8,0,0.8,0,1.5,0c22.4,0,70.6-2.7,83.6-5.2c6-1.2,10.2-3.6,12.7-7c1.2-1.6,2-3.4,2.4-5.1
			c0.2-0.6,0.7-3.7,0.7-4.6l-0.9-356.5c0-0.9,0-2.6-0.1-3c0-0.6-0.1-1.2-0.3-1.8c-0.4-1.8-1.2-3.5-2.4-5.1c-2.5-3.4-6.6-5.9-12.5-7
			c-12.8-2.4-60.1-4.9-82-4.8c-0.8,0-0.8,0-1.5,0c-22.4,0-70.6,2.7-83.6,5.2c-6,1.2-10.2,3.6-12.7,7c-1.2,1.6-2,3.4-2.4,5.1
			C856.6,185.6,856,189.7,856,189.7"/>
		<rect x="864.4" y="207.8" fill="#FFFFFF" width="182.3" height="324.1"/>
		<polygon fill="#434343" points="860.7,202.6 863.2,538 1050.4,537.3 1049.2,204.3 		"/>
		
			<rect x="864.4" y="207.7" transform="matrix(1 2.340460e-03 -2.340460e-03 1 0.8681 -2.2355)" fill="#FFFFFF" width="182.3" height="324.1"/>
		
			<rect x="829.4" y="161.9" transform="matrix(0.9872 0.1592 -0.1592 0.9872 70.7449 -147.4507)" fill="none" width="252.5" height="411.9"/>
		<path fill="#603713" d="M940.1,455.4c0,1.7,2.2,3.4,4.8,3.4l0,0c2.7,0,4.8-1.7,4.8-3.4v-42.9c0-2.4-2.2-4.9-4.8-4.9l0,0
			c-2.7,0-4.8,2.6-4.8,4.9V455.4z"/>
		<path fill="#603713" d="M958,455.4c0,1.7,2.2,3.4,4.8,3.4l0,0c2.7,0,4.8-1.7,4.8-3.4v-42.9c0-2.4-2.2-4.9-4.8-4.9l0,0
			c-2.7,0-4.8,2.6-4.8,4.9V455.4z"/>
		<g>
			<path fill="#D8D8D7" d="M940.1,450h9.8v15.9h-23v-3.1c0,0,1.6-4.2,8.6-4.2c3.3,0,4.6-3.4,4.6-6.9C940.1,451,940.1,450,940.1,450z
				"/>
			<polygon fill="#AFACAA" points="945.3,464 945.3,452.3 949.9,452.3 949.9,464.2 			"/>
			<path fill="#BF2026" d="M950.3,452.9c0,0.1-0.1,0.2-0.2,0.2h-10.5c-0.1,0-0.2-0.1-0.2-0.2v-2.7c0-0.1,0.1-0.2,0.2-0.2h10.5
				c0.1,0,0.2,0.1,0.2,0.2V452.9z"/>
			<path fill="#BF2026" d="M949.9,464.7v-2.8c-5.5,0.4-9-3.1-10.8-5.5c-0.6,1.2-1.6,2-2.9,2.2c-1.5,2.7-5.7,2.9-8.3,2.8
				c-0.8,0.8-1,1.5-1,1.5v3.1h4.6c0,0,3.9-1.6,8.8-4.2C943.1,464.8,947.3,464.7,949.9,464.7z"/>
			<path fill="#8C191C" d="M949.9,465.7c0,0.1-0.1,0.2-0.2,0.2h-22.6c-0.1,0-0.2-0.1-0.2-0.2v-1.5c0-0.1,0.1-0.2,0.2-0.2h22.6
				c0.1,0,0.2,0.1,0.2,0.2V465.7z"/>
			<path fill="#332D27" d="M937.1,460.3c0,0.1,0,0.2-0.1,0.2l-0.6,0.3c-0.1,0-0.2,0-0.2-0.1l-0.8-1.9c0-0.1,0-0.2,0.1-0.2l0.6-0.3
				c0.1,0,0.2,0,0.2,0.1L937.1,460.3z"/>
			<path fill="#332D27" d="M934.8,460.6c0,0.1-0.1,0.2-0.2,0.2l-0.7,0.1c-0.1,0-0.2,0-0.2-0.1l-0.3-1.9c0-0.1,0.1-0.2,0.2-0.2
				l0.7-0.1c0.1,0,0.2,0,0.2,0.1L934.8,460.6z"/>
			<path fill="#332D27" d="M939,458.8c0.1,0.1,0,0.2,0,0.2l-0.5,0.5c-0.1,0.1-0.2,0.1-0.2,0l-1.2-1.3c-0.1-0.1,0-0.2,0-0.2l0.5-0.5
				c0.1-0.1,0.2-0.1,0.2,0L939,458.8z"/>
			<path fill="#332D27" d="M940.7,456.9c0.1,0,0.1,0.1,0,0.2l-0.4,0.6c-0.1,0.1-0.2,0.1-0.2,0.1l-1.7-1c-0.1,0-0.1-0.1,0-0.2
				l0.4-0.6c0.1-0.1,0.2-0.1,0.2-0.1L940.7,456.9z"/>
			<path fill="#332D27" d="M941.4,454.7c0.1,0,0.1,0.1,0.1,0.2l-0.2,0.7c0,0.1-0.1,0.2-0.2,0.1l-1.8-0.6c-0.1,0-0.1-0.1-0.1-0.2
				l0.2-0.7c0-0.1,0.1-0.2,0.2-0.1L941.4,454.7z"/>
			<path fill="#332D27" d="M941.4,452.5c0.1,0,0.1,0.1,0.1,0.2v0.7c0,0.1-0.1,0.2-0.1,0.2l-1.8-0.1c-0.1,0-0.1-0.1-0.1-0.2v-0.7
				c0-0.1,0.1-0.2,0.1-0.2L941.4,452.5z"/>
			<circle fill="#332D27" cx="945.8" cy="456.9" r="2.8"/>
			<circle fill="#F4F5F5" cx="945.8" cy="456.9" r="1.4"/>
		</g>
		<g>
			<path fill="#D8D8D7" d="M967.6,450h-9.8v15.9h23v-3.1c0,0-1.6-4.2-8.6-4.2c-3.3,0-4.6-3.4-4.6-6.9C967.6,451,967.6,450,967.6,450
				z"/>
			<polygon fill="#AFACAA" points="962.4,464 962.4,452.3 957.8,452.3 957.8,464.2 			"/>
			<path fill="#BF2026" d="M957.4,452.9c0,0.1,0.1,0.2,0.2,0.2h10.5c0.1,0,0.2-0.1,0.2-0.2v-2.7c0-0.1-0.1-0.2-0.2-0.2h-10.5
				c-0.1,0-0.2,0.1-0.2,0.2V452.9z"/>
			<path fill="#BF2026" d="M957.8,464.7v-2.8c5.5,0.4,9-3.1,10.8-5.5c0.6,1.2,1.6,2,2.9,2.2c1.5,2.7,5.7,2.9,8.3,2.8
				c0.8,0.8,1,1.5,1,1.5v3.1h-4.6c0,0-3.9-1.6-8.8-4.2C964.7,464.8,960.4,464.7,957.8,464.7z"/>
			<path fill="#8C191C" d="M957.8,465.7c0,0.1,0.1,0.2,0.2,0.2h22.6c0.1,0,0.2-0.1,0.2-0.2v-1.5c0-0.1-0.1-0.2-0.2-0.2H958
				c-0.1,0-0.2,0.1-0.2,0.2V465.7z"/>
			<path fill="#332D27" d="M970.6,460.3c0,0.1,0,0.2,0.1,0.2l0.6,0.3c0.1,0,0.2,0,0.2-0.1l0.8-1.9c0-0.1,0-0.2-0.1-0.2l-0.6-0.3
				c-0.1,0-0.2,0-0.2,0.1L970.6,460.3z"/>
			<path fill="#332D27" d="M972.9,460.6c0,0.1,0.1,0.2,0.2,0.2l0.7,0.1c0.1,0,0.2,0,0.2-0.1l0.3-1.9c0-0.1-0.1-0.2-0.2-0.2l-0.7-0.1
				c-0.1,0-0.2,0-0.2,0.1L972.9,460.6z"/>
			<path fill="#332D27" d="M968.7,458.8c-0.1,0.1,0,0.2,0,0.2l0.5,0.5c0.1,0.1,0.2,0.1,0.2,0l1.2-1.3c0.1-0.1,0-0.2,0-0.2l-0.5-0.5
				c-0.1-0.1-0.2-0.1-0.2,0L968.7,458.8z"/>
			<path fill="#332D27" d="M967,456.9c-0.1,0-0.1,0.1,0,0.2l0.4,0.6c0.1,0.1,0.2,0.1,0.2,0.1l1.7-1c0.1,0,0.1-0.1,0-0.2l-0.4-0.6
				c-0.1-0.1-0.2-0.1-0.2-0.1L967,456.9z"/>
			<path fill="#332D27" d="M966.4,454.7c-0.1,0-0.1,0.1-0.1,0.2l0.2,0.7c0,0.1,0.1,0.2,0.2,0.1l1.8-0.6c0.1,0,0.1-0.1,0.1-0.2
				l-0.2-0.7c0-0.1-0.1-0.2-0.2-0.1L966.4,454.7z"/>
			<path fill="#332D27" d="M966.3,452.5c-0.1,0-0.1,0.1-0.1,0.2v0.7c0,0.1,0.1,0.2,0.1,0.2l1.8-0.1c0.1,0,0.1-0.1,0.1-0.2v-0.7
				c0-0.1-0.1-0.2-0.1-0.2L966.3,452.5z"/>
			<circle fill="#332D27" cx="961.9" cy="456.9" r="2.8"/>
			<circle fill="#F4F5F5" cx="961.9" cy="456.9" r="1.4"/>
		</g>
		<rect x="939.7" y="366.8" fill="#33357F" width="10.5" height="46.2"/>
		<rect x="957.6" y="366.8" fill="#33357F" width="10.5" height="46.2"/>
		<path fill="#603713" d="M977.1,357.1c2.6,0,4.7-3.6,4.7-8l0,0c0-4.4-2.1-8-4.7-8h-45.8c-2.6,0-4.7,3.6-4.7,8l0,0
			c0,4.4,2.1,8,4.7,8H977.1z"/>
		<g>
			<polygon fill="#DDDDDC" points="960,343.5 949.6,343.5 950.3,351.1 957.8,351.1 			"/>
		</g>
		<g>
			<path fill="#6C1E1F" d="M942.9,341c8.7,0,11.3,8.6,11.3,8.6s2.6-8.6,11.3-8.6h16.3c0,0,0,38.1,0,40.9s-3,4.9-5.7,4.9
				s-41.2,0-44,0c-2.7,0-5.7-2.1-5.7-4.6s0-41.2,0-41.2L942.9,341L942.9,341z"/>
		</g>
		<g>
			<path fill="#F27F80" d="M937.9,356.6h7.6c-0.1-1.2-0.9-2.3-2-2.8l0.7-1.1c0-0.1,0-0.2,0-0.2c-0.1,0-0.1,0-0.2,0l-0.7,1.1
				c-0.5-0.2-1-0.3-1.6-0.3s-1.1,0.1-1.6,0.3l-0.7-1.1c0-0.1-0.1-0.1-0.2,0c-0.1,0-0.1,0.1,0,0.2l0.7,1.1
				C938.8,354.3,938,355.4,937.9,356.6z M942.9,355.1c0-0.2,0.2-0.4,0.4-0.4s0.4,0.2,0.4,0.4c0,0.2-0.2,0.4-0.4,0.4
				C943.1,355.5,942.9,355.3,942.9,355.1z M939.7,355.1c0-0.2,0.2-0.4,0.4-0.4s0.4,0.2,0.4,0.4c0,0.2-0.2,0.4-0.4,0.4
				S939.7,355.3,939.7,355.1z"/>
		</g>
		<g>
			<polygon fill="#E35151" points="954,381.6 954.4,381.6 954.4,349.6 954,349.6 			"/>
		</g>
		<polygon fill="#983131" points="956.4,345.9 981.8,345.9 981.8,341 966.8,341 		"/>
		<rect x="956.5" y="345.2" fill="#C1494A" width="25.2" height="0.8"/>
		<polygon fill="#983131" points="951.6,345.9 926.4,345.9 926.4,341 943.2,341 		"/>
		<rect x="926.4" y="345.2" fill="#C1494A" width="25" height="0.8"/>
		<g>
			<path fill="#4B1919" d="M954.2,349.6c0,0,7.1-6.8,15.7-8.6c-7.6,0-9,0-9,0S955,344.3,954.2,349.6z"/>
		</g>
		<g>
			<path fill="#4B1919" d="M954.2,349.6c0,0-7.1-6.8-15.7-8.6c7.6,0,9,0,9,0S953.4,344.3,954.2,349.6z"/>
		</g>
		<g>
			<ellipse fill="#F05758" cx="954.2" cy="349.6" rx="0.7" ry="0.8"/>
		</g>
		<g>
			<polygon fill="#F05758" points="954.2,349.8 955.3,353.9 954.2,353.9 953.1,353.9 			"/>
		</g>
		<path fill="#603713" d="M1015.1,282.5c1.3-2.9,4.4-4.6,6.9-3.6l0,0c2.5,1.1,3.4,4.5,2.1,7.4l-24.1,55.6c-1.3,2.9-4.3,4.4-6.8,3.3
			l0,0c-2.5-1.1-3.5-4.3-2.2-7.2L1015.1,282.5z"/>
		<g>
			<g>
				<g>
					<g>
						<path fill="#6C1E1F" d="M1013.2,284.5l-24.4,56.4c-1.4,3.2-0.1,6.8,2.8,8.1l0,0c2.9,1.3,6.4-0.3,7.8-3.4l24.4-56.4
							L1013.2,284.5L1013.2,284.5z"/>
					</g>
					
						<rect x="1012.5" y="285.7" transform="matrix(0.9177 0.3972 -0.3972 0.9177 197.9292 -380.8303)" fill="#4B1919" width="11.6" height="3.3"/>
				</g>
			</g>
			<path fill="#983131" d="M993.2,349.3c-0.5-0.1-1-0.2-1.5-0.4c-0.5-0.2-0.9-0.5-1.3-0.8l25.9-59.8l2.8,1.2L993.2,349.3z"/>
			<path fill="#C1494A" d="M990.3,348.1c-0.2-0.2-0.3-0.3-0.5-0.5l25.8-59.6l0.6,0.3L990.3,348.1z"/>
			<path fill="#C1494A" d="M993.9,349.4c-0.2,0-0.5,0-0.7,0l25.9-59.8l0.6,0.3L993.9,349.4z"/>
		</g>
		<path fill="#603713" d="M921,411.5c0,3.2-2.2,6-4.9,6l0,0c-2.7,0-4.9-2.8-4.9-6V351c0-3.2,2.2-5.7,4.9-5.7l0,0
			c2.7,0,4.9,2.6,4.9,5.7V411.5z"/>
		<g>
			<g>
				<g>
					<g>
						<path fill="#6C1E1F" d="M921.9,408.9v-61.4c0-3.5-2.6-6.3-5.8-6.3l0,0c-3.2,0-5.8,2.8-5.8,6.3v61.4H921.9L921.9,408.9z"/>
					</g>
					<rect x="910.3" y="406.6" fill="#4B1919" width="11.6" height="3.3"/>
				</g>
			</g>
			<path fill="#983131" d="M914.6,341.5c0.5-0.1,1-0.2,1.5-0.2s1.1,0.1,1.5,0.2v65.1h-3.1L914.6,341.5L914.6,341.5z"/>
			<path fill="#C1494A" d="M917.7,341.5c0.2,0.1,0.4,0.1,0.7,0.2v64.9h-0.7V341.5z"/>
			<path fill="#C1494A" d="M913.9,341.7c0.2-0.1,0.4-0.2,0.7-0.2v65.1h-0.7V341.7z"/>
		</g>
		<g>
			<path d="M980.8,263.3c1.2,0,2.3,1.2,2.3,2.7v36c0,1.5-1,2.6-2.3,2.4l-24.4-3.5c-1.2-0.2-3.3-0.2-4.5,0l-24.4,3.5
				c-1.2,0.2-2.3-0.9-2.3-2.4v-36c0-1.5,1-2.7,2.3-2.7H980.8z"/>
		</g>
		<path d="M954.2,286.4c0,0,18.2-0.1,29,12.2c0,0-12.6-6.4-29-6.4s-29,6.4-29,6.4C936,286.3,954.2,286.4,954.2,286.4z"/>
		<path fill="#603713" d="M930.8,294.9l2.9-1.5c6.2-2.9,13.1-4.6,20.4-4.6c7.3,0,14.2,1.6,20.4,4.6l2.9,1.5
			c14.5,8.1,24.6,23.4,25.9,41.4H905C906.3,318.4,916.4,303,930.8,294.9"/>
		<path fill="#603713" d="M930.8,294.9l-9.1-15.9c-0.5-0.9-0.4-2.2,0.3-2.8c0.7-0.6,1.7-0.3,2.2,0.6l9.4,16.5"/>
		<path fill="#603713" d="M974.6,293.4l9.4-16.5c0.5-0.9,1.5-1.2,2.3-0.6c0.7,0.6,0.8,1.8,0.3,2.8l-9.1,15.9"/>
		<g>
			<g>
				<path fill="#121212" d="M913.6,309.3c0.4,0.3,2.6,0.1,2.6,1.8c0,4.4,1.7,9.8,2.6,11.5c1,1.7,1.7,3.5,6.8,5
					c4.6,1.4,9.8,1.1,13.3-0.6c2.7-1.3,6.9-4.7,9-9.8c1.7-4.1,2.2-7.9,6.1-7.9c3.9,0,4.3,4.1,6,8.1c2.1,5.1,6.3,8.5,9,9.8
					c3.5,1.7,8.7,2,13.3,0.6c5.1-1.5,5.8-3.4,6.8-5c1-1.7,2.6-7,2.6-11.5c0-1.7,2.2-1.5,2.6-1.8c0.4-0.3,1-5.2,0.6-5.9
					c-0.4-0.7-21.2-1.8-25.8-1.5c-8.2,0.5-9.4,3.4-15.1,3.4c-5.7,0-8.3-2.9-15.2-3.6c-4.6-0.6-25.3,0.8-25.8,1.5
					C912.6,304.2,913.2,309,913.6,309.3z M963.1,306.8c2.6-1.8,7.9-2.2,11.6-2.2s10.1,0.8,11.2,1.5c1.9,1.2,2.8,2.3,2.6,7
					c-0.1,4.7-0.3,9.7-3.7,11.6c-3.5,1.9-9.1,2.9-14.1,1s-7.8-7.3-8.4-10.4C961.5,312.3,960.4,308.6,963.1,306.8z M922.1,305.9
					c1.2-0.7,7.5-1.5,11.2-1.5s9.1,0.5,11.6,2.2c2.6,1.8,1.5,5.5,0.8,8.6c-0.7,3-3.5,8.4-8.4,10.4c-5,1.9-10.7,1-14.1-1
					c-3.5-1.9-3.6-6.9-3.7-11.6C919.3,308.2,920.1,307.1,922.1,305.9z"/>
			</g>
			<path opacity="0.2" fill="#FFFFFF" enable-background="new    " d="M986.7,307.9c0,0-11.4-3.8-22.9,0.3c0,4.8,4.8,9.1,11.7,9.1
				C982.5,317.3,986.7,313.7,986.7,307.9z"/>
			<path opacity="0.2" fill="#FFFFFF" enable-background="new    " d="M933.1,317.3c6.9,0,11.7-4.3,11.7-9.1
				c-11.4-4-22.9-0.3-22.9-0.3C921.9,313.7,926.1,317.3,933.1,317.3z"/>
		</g>
		<g>
			<g>
				<path fill="#202020" d="M917.3,416.1l-10.1,10.1c-0.9,0.9-2.4,0.9-3.3,0L884.7,407c-0.9-0.9-0.9-2.4,0-3.3l10.1-10.1
					c0.9-0.9,2.4-0.9,3.3,0l19.3,19.2C918.2,413.7,918.2,415.2,917.3,416.1z"/>
			</g>
			
				<rect x="892.8" y="396.6" transform="matrix(-0.7061 0.7081 -0.7081 -0.7061 1827.2104 61.2384)" fill="#FFFFFF" width="16.2" height="26.4"/>
			
				<rect x="884.4" y="400.1" transform="matrix(-0.7061 0.7081 -0.7081 -0.7061 1806.9077 52.8878)" fill="#FADD60" width="16.2" height="2.6"/>
			
				<rect x="899" y="413.5" transform="matrix(-0.7061 0.7081 -0.7081 -0.7061 1842.1958 67.4104)" fill="#E9407A" width="16.2" height="5"/>
			
				<rect x="891.3" y="399.9" transform="matrix(-0.7061 0.7081 -0.7081 -0.7061 1823.5848 59.7317)" fill="#F7AB51" width="16.2" height="16.8"/>
			<circle fill="#FADD60" cx="909.3" cy="410.3" r="1.4"/>
		</g>
		<path fill="#FFFFFF" d="M973.9,319.2c2.4,0,4.3-2.1,4.3-4.7s-1.9-4.7-4.3-4.7c-2.4,0-4.3,2.1-4.3,4.7
			C969.6,317.1,971.5,319.2,973.9,319.2"/>
		<path fill="#FFFFFF" d="M933.9,318.2c2.4,0,4.4-2.1,4.4-4.8c0-2.6-2-4.8-4.4-4.8s-4.4,2.1-4.4,4.8S931.5,318.2,933.9,318.2"/>
	</g>
</g>
<g>
	<path fill="#78C557" d="M565.4,696.3c5.5,0,9.9,1.6,14.1,5.2v-4.2h12.4v50h-12.4v-4.2c-4.2,3.7-8.6,5.2-14.1,5.2
		c-14.6,0-24.9-11.4-24.9-26C540.5,707.7,550.8,696.3,565.4,696.3z M579.5,730.1v-15.6c-3.7-4.9-8.6-6.5-12.5-6.5
		c-7.7,0-13.7,6.1-13.7,14.3c0,8.2,6,14.3,13.7,14.3C570.9,736.6,575.8,735.1,579.5,730.1z"/>
	<path fill="#78C557" d="M601.1,697.3h12.4v4.1c3.2-3.2,7.5-5.1,12.9-5.1c12.6,0,20.9,10.1,20.9,22.9v28.1h-12.4v-28.4
		c0-6-4.7-10.9-10.7-10.9c-5.9,0-10.7,5-10.7,10.9v28.4h-12.4V697.3z"/>
	<path fill="#78C557" d="M677.9,696.3c5.5,0,9.9,1.6,14.1,5.2v-19.2h12.4v65H692v-4.2c-4.2,3.7-8.6,5.2-14.1,5.2
		c-14.6,0-24.9-11.4-24.9-26C653,707.7,663.3,696.3,677.9,696.3z M692,730.1v-15.6c-3.7-4.9-8.6-6.5-12.5-6.5
		c-7.7,0-13.7,6.1-13.7,14.3c0,8.2,6,14.3,13.7,14.3C683.4,736.6,688.3,735.1,692,730.1z"/>
	<path fill="#78C557" d="M713.6,697.3H726v5.1c2.8-3.8,7-6.1,12.9-6.1h1.4v12.6h-3.6c-7,0-10.7,4.7-10.7,10.8v27.6h-12.4V697.3z"/>
	<path fill="#78C557" d="M740.9,722.3c0-14.5,11.8-26,26.3-26s26.3,11.5,26.3,26c0,14.9-11.9,26-26.3,26
		C752.8,748.3,740.9,737.2,740.9,722.3z M780.7,722.3c0-8.3-6.2-14.3-13.5-14.3c-7.4,0-13.5,6-13.5,14.3c0,8.4,6,14.3,13.5,14.3
		C774.7,736.6,780.7,730.7,780.7,722.3z"/>
	<path fill="#78C557" d="M798.3,684c0-4.2,3.5-7.7,7.7-7.7s7.7,3.5,7.7,7.7s-3.5,7.7-7.7,7.7S798.3,688.2,798.3,684z M799.8,697.3
		h12.4v50h-12.4V697.3z"/>
	<path fill="#78C557" d="M843.5,696.3c5.5,0,9.9,1.6,14.1,5.2v-19.2H870v65h-12.4v-4.2c-4.2,3.7-8.6,5.2-14.1,5.2
		c-14.6,0-24.9-11.4-24.9-26C818.6,707.7,828.9,696.3,843.5,696.3z M857.6,730.1v-15.6c-3.7-4.9-8.6-6.5-12.5-6.5
		c-7.7,0-13.7,6.1-13.7,14.3c0,8.2,6,14.3,13.7,14.3C849,736.6,853.9,735.1,857.6,730.1z"/>
	<path fill="#78C557" d="M877.7,684c0-4.2,3.5-7.7,7.7-7.7s7.7,3.5,7.7,7.7s-3.5,7.7-7.7,7.7S877.7,688.2,877.7,684z M879.2,697.3
		h12.4v50h-12.4V697.3z"/>
	<path fill="#78C557" d="M897.8,700.1h6v-2.7c0-7.7,5.1-15.1,15.2-15.1h8.4v10.6h-5.8c-3.7,0-5.4,1.9-5.4,5.7v1.5h10.3v10.7h-10.3
		v36.5h-12.4v-36.5h-6V700.1z"/>
	<path fill="#78C557" d="M932.1,749.8c3.6,2.3,6,2.4,7.2,2.4c2.9,0,5-1.4,5.8-3.3l0.4-0.9l-18.7-50.7h14.5l11.7,35.4l11.6-35.4h14
		l-19.1,52.3c-3.8,10.4-12,13.7-18.6,13.7c-5.2,0-9.9-1.4-14-3.9L932.1,749.8z"/>
	<path fill="#78C557" d="M996.5,700.1h6v-2.7c0-7.7,5.1-15.1,15.2-15.1h8.4v10.6h-5.8c-3.7,0-5.4,1.9-5.4,5.7v1.5h10.3v10.7h-10.3
		v36.5h-12.4v-36.5h-6V700.1z"/>
	<path fill="#78C557" d="M1029.6,726.8v-29.5h12.4v29.2c0,5.9,4.5,10.1,10.4,10.1s10.4-4.2,10.4-10.1v-29.2h12.4v29.5
		c0,12.7-10.3,21.5-22.8,21.5S1029.6,739.5,1029.6,726.8z"/>
	<path fill="#78C557" d="M1083.8,697.3h12.4v4.1c3.2-3.2,7.5-5.1,12.9-5.1c12.6,0,20.9,10.1,20.9,22.9v28.1h-12.4v-28.4
		c0-6-4.7-10.9-10.7-10.9c-5.9,0-10.7,5-10.7,10.9v28.4h-12.4V697.3z"/>
	<path fill="#78C557" d="M1135.6,719.6c0-13.2,10.2-23.3,25-23.3c4.7,0,9.2,1.6,13.4,4.7v-3.7h12.4v42.3c0,14.6-11,23.7-25.6,23.7
		c-9.3,0-17.1-3.7-21.8-9.2l-1.1-1.3l9.8-7l1.3,1.3c2.7,2.7,6.8,4.9,11.8,4.9c7.2,0,13.2-4.1,13.2-11.7v-2
		c-4.2,3.1-8.7,4.6-13.4,4.6C1145.8,742.9,1135.6,732.8,1135.6,719.6z M1174,726v-12.8c-4.4-3.9-8.1-5.4-12.9-5.4
		c-7.2,0-12.7,5.2-12.7,11.8c0,6.6,5.5,11.8,12.7,11.8C1165.9,731.4,1169.6,729.9,1174,726z"/>
	<path fill="#78C557" d="M1192.7,722.1c0-14.6,12-25.8,26.1-25.8c14.7,0,26.3,11.3,26.3,25.8v4H1206c1.7,6,6.9,10.4,13.1,10.4
		c4.7,0,9-2.4,11.6-6l10.9,5.3c-4.5,7.7-12.8,12.5-22.8,12.5C1204.8,748.3,1192.7,737,1192.7,722.1z M1206.2,717.1h25.8
		c-1.7-6.1-6.7-9.8-12.9-9.8C1213.1,707.3,1208,711.1,1206.2,717.1z"/>
	<path fill="#78C557" d="M1250.7,697.3h12.4v5.1c2.8-3.8,7-6.1,12.9-6.1h1.4v12.6h-3.6c-7,0-10.7,4.7-10.7,10.8v27.6h-12.4V697.3z"
		/>
	<path fill="#78C557" d="M1302.9,696.3c5.5,0,9.9,1.6,14.1,5.2v-4.2h12.4v50H1317v-4.2c-4.2,3.7-8.6,5.2-14.1,5.2
		c-14.6,0-24.9-11.4-24.9-26C1278,707.7,1288.3,696.3,1302.9,696.3z M1317,730.1v-15.6c-3.7-4.9-8.6-6.5-12.5-6.5
		c-7.7,0-13.7,6.1-13.7,14.3c0,8.2,6,14.3,13.7,14.3C1308.4,736.6,1313.3,735.1,1317,730.1z"/>
	<path fill="#78C557" d="M1338.6,697.3h12.4v5.1c2.8-3.8,7-6.1,12.9-6.1h1.4v12.6h-3.6c-7,0-10.7,4.7-10.7,10.8v27.6h-12.4V697.3z"
		/>
	<path fill="#78C557" d="M566.2,839.3c-5.5,0-10-1.5-14.1-5.2v4.2h-12.4v-65h12.4v19.2c4.1-3.6,8.6-5.2,14.1-5.2
		c14.6,0,24.9,11.4,24.9,26C591.1,827.9,580.8,839.3,566.2,839.3z M552.1,805.5v15.6c3.7,5,8.6,6.5,12.5,6.5
		c7.7,0,13.7-6.1,13.7-14.3c0-8.2-6-14.3-13.7-14.3C560.7,799,555.8,800.6,552.1,805.5z"/>
	<path fill="#78C557" d="M619.5,787.3c5.5,0,9.9,1.6,14.1,5.2v-4.2H646v50h-12.4v-4.2c-4.2,3.7-8.6,5.2-14.1,5.2
		c-14.6,0-24.9-11.4-24.9-26C594.6,798.7,604.9,787.3,619.5,787.3z M602.6,775c0-4.2,3.5-7.7,7.7-7.7s7.7,3.5,7.7,7.7
		s-3.5,7.7-7.7,7.7S602.6,779.2,602.6,775z M633.6,821.1v-15.6c-3.7-4.9-8.6-6.5-12.5-6.5c-7.7,0-13.7,6.1-13.7,14.3
		c0,8.2,6,14.3,13.7,14.3C625,827.6,629.9,826.1,633.6,821.1z M625.6,775c0-4.2,3.5-7.7,7.7-7.7s7.7,3.5,7.7,7.7s-3.5,7.7-7.7,7.7
		S625.6,779.2,625.6,775z"/>
	<path fill="#78C557" d="M653.1,833.8l-1.5-0.9l6.2-9.6l1.9,1c3.6,1.9,8.9,4.2,14.7,4.2c4.8,0,7.5-1.6,7.5-4c0-3.7-4.4-4.2-11.9-6
		c-10.2-2.5-16.7-7.2-16.7-15.8c0-8,7.6-15.4,20.4-15.4c7.8,0,14.2,1.9,18.4,3.9l2.3,1.1l-6,9.2l-2-0.8c-2.2-0.9-7.4-2.6-12.6-2.6
		c-3.8,0-7.5,1.2-7.5,3.9c0,2.6,2.8,3.7,9.3,5.2c10.9,2.5,19.4,5.9,19.4,15.9c0,9.3-8,16.2-21.1,16.2
		C665.4,839.3,658.4,837,653.1,833.8z"/>
	<path fill="#78C557" d="M697.7,788.3h7v-12h12.4v12h12.3V799h-12.3v20.2c0,4.5,2.7,7.4,7.3,7.4h5v11.7h-7
		c-10.2,0-17.7-6.5-17.7-16.9V799h-7V788.3z"/>
	<path fill="#78C557" d="M753.2,775c0-4.2,3.5-7.7,7.7-7.7s7.7,3.5,7.7,7.7s-3.5,7.7-7.7,7.7S753.2,779.2,753.2,775z M754.7,788.3
		h12.4v50h-12.4V788.3z"/>
	<path fill="#78C557" d="M793.2,833.8l-1.5-0.9l6.2-9.6l1.9,1c3.6,1.9,8.9,4.2,14.7,4.2c4.8,0,7.5-1.6,7.5-4c0-3.7-4.4-4.2-11.9-6
		c-10.2-2.5-16.7-7.2-16.7-15.8c0-8,7.6-15.4,20.4-15.4c7.8,0,14.2,1.9,18.4,3.9l2.3,1.1l-6,9.2l-2-0.8c-2.2-0.9-7.4-2.6-12.6-2.6
		c-3.8,0-7.5,1.2-7.5,3.9c0,2.6,2.8,3.7,9.3,5.2c10.9,2.5,19.4,5.9,19.4,15.9c0,9.3-8,16.2-21.1,16.2
		C805.5,839.3,798.5,837,793.2,833.8z"/>
	<path fill="#78C557" d="M837.8,788.3h7v-12h12.4v12h12.3V799h-12.3v20.2c0,4.5,2.7,7.4,7.3,7.4h5v11.7h-7
		c-10.2,0-17.7-6.5-17.7-16.9V799h-7V788.3z"/>
	<path fill="#78C557" d="M897.3,787.3c5.5,0,9.9,1.6,14.1,5.2v-4.2h12.4v50h-12.4v-4.2c-4.2,3.7-8.6,5.2-14.1,5.2
		c-14.6,0-24.9-11.4-24.9-26C872.4,798.7,882.7,787.3,897.3,787.3z M911.4,821.1v-15.6c-3.7-4.9-8.6-6.5-12.5-6.5
		c-7.7,0-13.7,6.1-13.7,14.3c0,8.2,6,14.3,13.7,14.3C902.8,827.6,907.7,826.1,911.4,821.1z M886.4,770.5c0-7.2,6.1-12.9,13.2-12.9
		c7.3,0,13.2,5.7,13.2,12.9c0,7.1-5.9,13-13.2,13C892.5,783.5,886.4,777.6,886.4,770.5z M905.4,770.5c0-3.2-2.6-5.8-5.8-5.8
		c-3.1,0-5.7,2.6-5.7,5.8c0,3.1,2.6,5.7,5.7,5.7C902.8,776.2,905.4,773.6,905.4,770.5z"/>
	<path fill="#78C557" d="M930.2,813.1c0-14.6,12-25.8,26.1-25.8c14.7,0,26.3,11.3,26.3,25.8v4h-39.1c1.7,6,6.9,10.4,13.1,10.4
		c4.7,0,9-2.4,11.6-6l10.9,5.3c-4.5,7.7-12.8,12.5-22.8,12.5C942.3,839.3,930.2,828,930.2,813.1z M943.7,808.1h25.8
		c-1.7-6.1-6.7-9.8-12.9-9.8C950.6,798.3,945.5,802.1,943.7,808.1z"/>
	<path fill="#78C557" d="M988.2,788.3h12.4v4.1c3.2-3.2,7.5-5.1,12.9-5.1c12.6,0,20.9,10.1,20.9,22.9v28.1H1022v-28.4
		c0-6-4.7-10.9-10.7-10.9c-5.9,0-10.7,5-10.7,10.9v28.4h-12.4V788.3z"/>
	<path fill="#78C557" d="M1065,787.3c5.5,0,9.9,1.6,14.1,5.2v-19.2h12.4v65h-12.4v-4.2c-4.2,3.7-8.6,5.2-14.1,5.2
		c-14.6,0-24.9-11.4-24.9-26C1040.1,798.7,1050.4,787.3,1065,787.3z M1079.1,821.1v-15.6c-3.7-4.9-8.6-6.5-12.5-6.5
		c-7.7,0-13.7,6.1-13.7,14.3c0,8.2,6,14.3,13.7,14.3C1070.5,827.6,1075.4,826.1,1079.1,821.1z"/>
	<path fill="#78C557" d="M1097.9,813.1c0-14.6,12-25.8,26.1-25.8c14.7,0,26.3,11.3,26.3,25.8v4h-39.1c1.7,6,6.9,10.4,13.1,10.4
		c4.7,0,9-2.4,11.6-6l10.9,5.3c-4.5,7.7-12.8,12.5-22.8,12.5C1110,839.3,1097.9,828,1097.9,813.1z M1111.4,808.1h25.8
		c-1.7-6.1-6.7-9.8-12.9-9.8C1118.3,798.3,1113.2,802.1,1111.4,808.1z"/>
	<path fill="#78C557" d="M1174.9,773.3h12.4v65h-12.4V773.3z"/>
	<path fill="#78C557" d="M1218.5,787.3c5.5,0,9.9,1.6,14.1,5.2v-4.2h12.4v50h-12.4v-4.2c-4.2,3.7-8.6,5.2-14.1,5.2
		c-14.6,0-24.9-11.4-24.9-26C1193.6,798.7,1203.9,787.3,1218.5,787.3z M1201.6,775c0-4.2,3.5-7.7,7.7-7.7s7.7,3.5,7.7,7.7
		s-3.5,7.7-7.7,7.7S1201.6,779.2,1201.6,775z M1232.6,821.1v-15.6c-3.7-4.9-8.6-6.5-12.5-6.5c-7.7,0-13.7,6.1-13.7,14.3
		c0,8.2,6,14.3,13.7,14.3C1224,827.6,1228.9,826.1,1232.6,821.1z M1224.6,775c0-4.2,3.5-7.7,7.7-7.7s7.7,3.5,7.7,7.7
		s-3.5,7.7-7.7,7.7S1224.6,779.2,1224.6,775z"/>
	<path fill="#78C557" d="M1251.3,810.6c0-13.2,10.2-23.3,25-23.3c4.7,0,9.2,1.6,13.4,4.7v-3.7h12.4v42.3c0,14.6-11,23.7-25.6,23.7
		c-9.3,0-17.1-3.7-21.8-9.2l-1.1-1.3l9.8-7l1.3,1.3c2.7,2.7,6.8,4.9,11.8,4.9c7.2,0,13.2-4.1,13.2-11.7v-2
		c-4.2,3.1-8.7,4.6-13.4,4.6C1261.5,833.9,1251.3,823.8,1251.3,810.6z M1289.7,817v-12.8c-4.4-3.9-8.1-5.4-12.9-5.4
		c-7.2,0-12.7,5.2-12.7,11.8c0,6.6,5.5,11.8,12.7,11.8C1281.6,822.4,1285.3,820.9,1289.7,817z"/>
	<path fill="#78C557" d="M1308.4,813.1c0-14.6,12-25.8,26.1-25.8c14.7,0,26.3,11.3,26.3,25.8v4h-39.1c1.7,6,6.9,10.4,13.1,10.4
		c4.7,0,9-2.4,11.6-6l10.9,5.3c-4.5,7.7-12.8,12.5-22.8,12.5C1320.5,839.3,1308.4,828,1308.4,813.1z M1321.9,808.1h25.8
		c-1.7-6.1-6.7-9.8-12.9-9.8C1328.8,798.3,1323.7,802.1,1321.9,808.1z"/>
	<path fill="#78C557" d="M1364.8,830.1c0-4.9,4-9,9.2-9c4.8,0,9,4.1,9,9c0,5.2-4.2,9.2-9,9.2
		C1368.8,839.3,1364.8,835.3,1364.8,830.1z"/>
</g>
<g>
	<path fill="#B7B7B7" d="M733,868h8.6v3.5c1.9-2.6,4.8-4.2,8.9-4.2h1v8.7h-2.5c-4.8,0-7.4,3.2-7.4,7.5v19H733V868z"/>
	<path fill="#B7B7B7" d="M751.8,885.2c0-10,8.1-17.9,18.1-17.9s18.1,7.9,18.1,17.9c0,10.3-8.2,17.9-18.1,17.9
		C760,903.2,751.8,895.5,751.8,885.2z M779.3,885.2c0-5.7-4.3-9.9-9.3-9.9c-5.1,0-9.3,4.1-9.3,9.9c0,5.8,4.1,9.9,9.3,9.9
		S779.3,891,779.3,885.2z"/>
	<path fill="#B7B7B7" d="M789.2,868h4.8v-8.3h8.6v8.3h8.5v7.4h-8.5v13.9c0,3.1,1.9,5.1,5,5.1h3.5v8.1h-4.8c-7,0-12.2-4.5-12.2-11.7
		v-15.5h-4.8V868z"/>
	<path fill="#B7B7B7" d="M813.2,885.1c0-10.1,8.3-17.8,18-17.8c10.1,0,18.1,7.8,18.1,17.8v2.8h-27c1.2,4.1,4.8,7.2,9,7.2
		c3.2,0,6.2-1.7,8-4.1l7.5,3.7c-3.1,5.3-8.8,8.6-15.7,8.6C821.5,903.2,813.2,895.4,813.2,885.1z M822.5,881.7h17.8
		c-1.2-4.2-4.6-6.8-8.9-6.8C827.2,874.9,823.7,877.5,822.5,881.7z"/>
	<path fill="#B7B7B7" d="M853.2,868h8.6v3.5c1.9-2.6,4.8-4.2,8.9-4.2h1v8.7h-2.5c-4.8,0-7.4,3.2-7.4,7.5v19h-8.6V868z"/>
	<path fill="#B7B7B7" d="M889.2,867.3c3.8,0,6.8,1.1,9.7,3.6V868h8.6v34.5h-8.6v-2.9c-2.9,2.6-5.9,3.6-9.7,3.6
		c-10.1,0-17.2-7.9-17.2-17.9S879.1,867.3,889.2,867.3z M898.9,890.6v-10.8c-2.6-3.4-5.9-4.5-8.6-4.5c-5.3,0-9.5,4.2-9.5,9.9
		s4.1,9.9,9.5,9.9C893,895.1,896.4,894.1,898.9,890.6z"/>
	<path fill="#B7B7B7" d="M925,885.1c0-10.1,8.3-17.8,18-17.8c10.1,0,18.1,7.8,18.1,17.8v2.8h-27c1.2,4.1,4.8,7.2,9,7.2
		c3.2,0,6.2-1.7,8-4.1l7.5,3.7c-3.1,5.3-8.8,8.6-15.7,8.6C933.4,903.2,925,895.4,925,885.1z M934.3,881.7h17.8
		c-1.2-4.2-4.6-6.8-8.9-6.8C939.1,874.9,935.6,877.5,934.3,881.7z"/>
	<path fill="#B7B7B7" d="M965,868h8.6v2.8c2.2-2.2,5.2-3.5,8.9-3.5c8.7,0,14.4,7,14.4,15.8v19.4h-8.6v-19.6c0-4.1-3.2-7.5-7.4-7.5
		c-4.1,0-7.4,3.5-7.4,7.5v19.6H965V868z"/>
	<path fill="#B7B7B7" d="M1002.8,857.6h8.6v13.2c2.2-2.2,5.2-3.5,8.9-3.5c8.7,0,14.4,7,14.4,15.8v19.4h-8.6v-19.6
		c0-4.1-3.2-7.5-7.4-7.5c-4.1,0-7.4,3.5-7.4,7.5v19.6h-8.6V857.6z"/>
	<path fill="#B7B7B7" d="M1038.6,885.1c0-10.1,8.3-17.8,18-17.8c10.1,0,18.1,7.8,18.1,17.8v2.8h-27c1.2,4.1,4.8,7.2,9,7.2
		c3.2,0,6.2-1.7,8-4.1l7.5,3.7c-3.1,5.3-8.8,8.6-15.7,8.6C1046.9,903.2,1038.6,895.4,1038.6,885.1z M1047.9,881.7h17.8
		c-1.2-4.2-4.6-6.8-8.9-6.8C1052.7,874.9,1049.1,877.5,1047.9,881.7z"/>
	<path fill="#B7B7B7" d="M1075.7,868h4.8v-8.3h8.6v8.3h8.5v7.4h-8.5v13.9c0,3.1,1.9,5.1,5,5.1h3.5v8.1h-4.8c-7,0-12.2-4.5-12.2-11.7
		v-15.5h-4.8V868z"/>
	<path fill="#B7B7B7" d="M1099.7,885.1c0-10.1,8.3-17.8,18-17.8c10.1,0,18.1,7.8,18.1,17.8v2.8h-27c1.2,4.1,4.8,7.2,9,7.2
		c3.2,0,6.2-1.7,8-4.1l7.5,3.7c-3.1,5.3-8.8,8.6-15.7,8.6C1108,903.2,1099.7,895.4,1099.7,885.1z M1109,881.7h17.8
		c-1.2-4.2-4.6-6.8-8.9-6.8C1113.7,874.9,1110.2,877.5,1109,881.7z"/>
	<path fill="#B7B7B7" d="M1139.7,868h8.6v2.8c2.2-2.2,5.2-3.5,8.9-3.5c8.7,0,14.4,7,14.4,15.8v19.4h-8.6v-19.6
		c0-4.1-3.2-7.5-7.4-7.5c-4.1,0-7.4,3.5-7.4,7.5v19.6h-8.6V868z"/>
	<path fill="#B7B7B7" d="M1176.3,896.8c0-3.4,2.8-6.2,6.3-6.2c3.3,0,6.2,2.8,6.2,6.2c0,3.6-2.9,6.3-6.2,6.3
		C1179.1,903.2,1176.3,900.4,1176.3,896.8z"/>
</g>
</svg>
