<?xml version="1.0" encoding="utf-8"?>
<!-- Generator: Adobe Illustrator 18.1.0, SVG Export Plug-In . SVG Version: 6.00 Build 0)  -->
<svg version="1.1" id="Layer_1" xmlns="http://www.w3.org/2000/svg" xmlns:xlink="http://www.w3.org/1999/xlink" x="0px" y="0px"
	 width="1920px" height="1080px" viewBox="0 0 1920 1080" enable-background="new 0 0 1920 1080" xml:space="preserve">
<g>
	<path fill="#78C557" d="M610,676.3c5.5,0,9.9,1.6,14.1,5.2v-4.2h12.4v50h-12.4v-4.2c-4.2,3.7-8.6,5.2-14.1,5.2
		c-14.6,0-24.9-11.4-24.9-26C585.1,687.7,595.4,676.3,610,676.3z M624.1,710.1v-15.6c-3.7-4.9-8.6-6.5-12.5-6.5
		c-7.7,0-13.7,6.1-13.7,14.3c0,8.2,6,14.3,13.7,14.3C615.5,716.6,620.4,715.1,624.1,710.1z"/>
	<path fill="#78C557" d="M645.7,677.3h12.4v4.1c3.2-3.2,7.5-5.1,12.9-5.1c12.6,0,20.9,10.1,20.9,22.9v28.1h-12.4v-28.4
		c0-6-4.7-10.9-10.7-10.9c-5.9,0-10.7,5-10.7,10.9v28.4h-12.4V677.3z"/>
	<path fill="#78C557" d="M722.5,676.3c5.5,0,9.9,1.6,14.1,5.2v-19.2H749v65h-12.4v-4.2c-4.2,3.7-8.6,5.2-14.1,5.2
		c-14.6,0-24.9-11.4-24.9-26C697.6,687.7,707.9,676.3,722.5,676.3z M736.6,710.1v-15.6c-3.7-4.9-8.6-6.5-12.5-6.5
		c-7.7,0-13.7,6.1-13.7,14.3c0,8.2,6,14.3,13.7,14.3C728,716.6,732.9,715.1,736.6,710.1z"/>
	<path fill="#78C557" d="M758.2,677.3h12.4v5.1c2.8-3.8,7-6.1,12.9-6.1h1.4v12.6h-3.6c-7,0-10.7,4.7-10.7,10.8v27.6h-12.4V677.3z"/>
	<path fill="#78C557" d="M785.5,702.3c0-14.5,11.8-26,26.3-26s26.3,11.5,26.3,26c0,14.9-11.9,26-26.3,26
		C797.4,728.3,785.5,717.2,785.5,702.3z M825.3,702.3c0-8.3-6.2-14.3-13.5-14.3c-7.4,0-13.5,6-13.5,14.3c0,8.4,6,14.3,13.5,14.3
		C819.3,716.6,825.3,710.7,825.3,702.3z"/>
	<path fill="#78C557" d="M842.9,664c0-4.2,3.5-7.7,7.7-7.7s7.7,3.5,7.7,7.7s-3.5,7.7-7.7,7.7S842.9,668.2,842.9,664z M844.4,677.3
		h12.4v50h-12.4V677.3z"/>
	<path fill="#78C557" d="M888.1,676.3c5.5,0,9.9,1.6,14.1,5.2v-19.2h12.4v65h-12.4v-4.2c-4.2,3.7-8.6,5.2-14.1,5.2
		c-14.6,0-24.9-11.4-24.9-26C863.2,687.7,873.5,676.3,888.1,676.3z M902.2,710.1v-15.6c-3.7-4.9-8.6-6.5-12.5-6.5
		c-7.7,0-13.7,6.1-13.7,14.3c0,8.2,6,14.3,13.7,14.3C893.6,716.6,898.5,715.1,902.2,710.1z"/>
	<path fill="#78C557" d="M922.3,664c0-4.2,3.5-7.7,7.7-7.7s7.7,3.5,7.7,7.7s-3.5,7.7-7.7,7.7S922.3,668.2,922.3,664z M923.8,677.3
		h12.4v50h-12.4V677.3z"/>
	<path fill="#78C557" d="M942.4,680.1h6v-2.7c0-7.7,5.1-15.1,15.2-15.1h8.4v10.6h-5.8c-3.7,0-5.4,1.9-5.4,5.7v1.5h10.3v10.7h-10.3
		v36.5h-12.4v-36.5h-6V680.1z"/>
	<path fill="#78C557" d="M976.7,729.8c3.6,2.3,6,2.4,7.2,2.4c2.9,0,5-1.4,5.8-3.3l0.4-0.9l-18.7-50.7h14.5l11.7,35.4l11.6-35.4h14
		l-19.1,52.3c-3.8,10.4-12,13.7-18.6,13.7c-5.2,0-9.9-1.4-14-3.9L976.7,729.8z"/>
	<path fill="#78C557" d="M1042.5,664c0-4.2,3.5-7.7,7.7-7.7s7.7,3.5,7.7,7.7s-3.5,7.7-7.7,7.7S1042.5,668.2,1042.5,664z M1044,677.3
		h12.4v50H1044V677.3z"/>
	<path fill="#78C557" d="M1063.5,722.8l-1.5-0.9l6.2-9.6l1.9,1c3.6,1.9,8.9,4.2,14.7,4.2c4.8,0,7.5-1.6,7.5-4c0-3.7-4.4-4.2-11.9-6
		c-10.2-2.5-16.7-7.2-16.7-15.8c0-8,7.6-15.4,20.4-15.4c7.8,0,14.2,1.9,18.4,3.9l2.3,1.1l-6,9.2l-2-0.8c-2.2-0.9-7.4-2.6-12.6-2.6
		c-3.8,0-7.5,1.2-7.5,3.9c0,2.6,2.8,3.7,9.3,5.2c10.9,2.5,19.4,5.9,19.4,15.9c0,9.3-8,16.2-21.1,16.2
		C1075.8,728.3,1068.8,726,1063.5,722.8z"/>
	<path fill="#78C557" d="M1157.2,728.3c-5.5,0-10-1.5-14.1-5.2v4.2h-12.4v-65h12.4v19.2c4.1-3.6,8.6-5.2,14.1-5.2
		c14.6,0,24.9,11.4,24.9,26C1182.2,716.9,1171.9,728.3,1157.2,728.3z M1143.1,694.5v15.6c3.7,5,8.6,6.5,12.5,6.5
		c7.7,0,13.7-6.1,13.7-14.3c0-8.2-6-14.3-13.7-14.3C1151.7,688,1146.8,689.6,1143.1,694.5z"/>
	<path fill="#78C557" d="M1185.7,702.1c0-14.6,12-25.8,26.1-25.8c14.7,0,26.3,11.3,26.3,25.8v4H1199c1.7,6,6.9,10.4,13.1,10.4
		c4.7,0,9-2.4,11.6-6l10.9,5.3c-4.5,7.7-12.8,12.5-22.8,12.5C1197.8,728.3,1185.7,717,1185.7,702.1z M1199.2,697.1h25.8
		c-1.7-6.1-6.7-9.8-12.9-9.8C1206.1,687.3,1201,691.1,1199.2,697.1z"/>
	<path fill="#78C557" d="M1241.6,722.8l-1.5-0.9l6.2-9.6l1.9,1c3.6,1.9,8.9,4.2,14.7,4.2c4.8,0,7.5-1.6,7.5-4c0-3.7-4.4-4.2-11.9-6
		c-10.2-2.5-16.7-7.2-16.7-15.8c0-8,7.6-15.4,20.4-15.4c7.8,0,14.2,1.9,18.4,3.9l2.3,1.1l-6,9.2l-2-0.8c-2.2-0.9-7.4-2.6-12.6-2.6
		c-3.8,0-7.5,1.2-7.5,3.9c0,2.6,2.8,3.7,9.3,5.2c10.9,2.5,19.4,5.9,19.4,15.9c0,9.3-8,16.2-21.1,16.2
		C1253.9,728.3,1246.9,726,1241.6,722.8z"/>
	<path fill="#78C557" d="M1286.2,677.3h7v-12h12.4v12h12.3V688h-12.3v20.2c0,4.5,2.7,7.4,7.3,7.4h5v11.7h-7
		c-10.2,0-17.7-6.5-17.7-16.9V688h-7V677.3z"/>
	<path fill="#78C557" d="M585.9,795.3c0-13.9,11.4-24.5,24.8-24.5c14,0,25,10.7,25,24.5v3.8h-37.1c1.6,5.7,6.6,9.9,12.4,9.9
		c4.5,0,8.6-2.3,11-5.7l10.4,5c-4.3,7.3-12.2,11.9-21.7,11.9C597.4,820.2,585.9,809.5,585.9,795.3z M598.8,790.6h24.5
		c-1.6-5.8-6.4-9.3-12.3-9.3C605.3,781.3,600.5,784.9,598.8,790.6z"/>
	<path fill="#78C557" d="M640.1,771.8h11.8v3.9c3-3,7.1-4.8,12.3-4.8c12,0,19.9,9.6,19.9,21.8v26.7h-11.8v-27
		c0-5.7-4.5-10.4-10.2-10.4c-5.6,0-10.2,4.8-10.2,10.4v27h-11.8V771.8z"/>
	<path fill="#78C557" d="M684.3,823.8h1c3.5,0,5.9-3,5.9-6.3v-45.8h11.8v46c0,9.9-6.8,16.7-16.7,16.7h-1.9V823.8z M689.7,759.1
		c0-4,3.3-7.3,7.3-7.3s7.3,3.3,7.3,7.3s-3.3,7.3-7.3,7.3S689.7,763.1,689.7,759.1z"/>
	<path fill="#78C557" d="M707.9,795.5c0-13.8,11.2-24.7,25-24.7s25,10.9,25,24.7c0,14.2-11.3,24.7-25,24.7
		C719.2,820.2,707.9,809.7,707.9,795.5z M745.7,795.5c0-7.9-5.9-13.6-12.8-13.6c-7,0-12.8,5.7-12.8,13.6c0,8,5.7,13.6,12.8,13.6
		S745.7,803.5,745.7,795.5z"/>
	<path fill="#78C557" d="M761.6,821.6c3.4,2.2,5.7,2.3,6.8,2.3c2.8,0,4.8-1.3,5.5-3.1l0.4-0.9l-17.8-48.2h13.8l11.1,33.6l11-33.6
		h13.3l-18.1,49.7c-3.6,9.9-11.4,13-17.7,13c-4.9,0-9.4-1.3-13.3-3.7L761.6,821.6z"/>
	<path fill="#78C557" d="M804.5,795.3c0-13.9,11.4-24.5,24.8-24.5c14,0,25,10.7,25,24.5v3.8h-37.1c1.6,5.7,6.6,9.9,12.4,9.9
		c4.5,0,8.5-2.3,11-5.7l10.4,5c-4.3,7.3-12.2,11.9-21.7,11.9C816,820.2,804.5,809.5,804.5,795.3z M817.4,790.6h24.5
		c-1.6-5.8-6.4-9.3-12.3-9.3C823.9,781.3,819.1,784.9,817.4,790.6z"/>
	<path fill="#78C557" d="M879.7,770.8c5.2,0,9.4,1.5,13.4,4.9v-18.2h11.8v61.8h-11.8v-4c-4,3.5-8.2,4.9-13.4,4.9
		c-13.9,0-23.7-10.8-23.7-24.7S865.8,770.8,879.7,770.8z M893.1,802.9v-14.8c-3.5-4.7-8.2-6.2-11.9-6.2c-7.3,0-13,5.8-13,13.6
		s5.7,13.6,13,13.6C884.9,809.1,889.6,807.7,893.1,802.9z"/>
	<path fill="#78C557" d="M928.3,759.1c0-4,3.3-7.3,7.3-7.3s7.3,3.3,7.3,7.3s-3.3,7.3-7.3,7.3S928.3,763.1,928.3,759.1z M929.7,771.8
		h11.8v47.5h-11.8V771.8z"/>
	<path fill="#78C557" d="M949.3,771.8h11.8v3.9c3-3,7.1-4.8,12.3-4.8c12,0,19.9,9.6,19.9,21.8v26.7h-11.8v-27
		c0-5.7-4.5-10.4-10.2-10.4c-5.6,0-10.2,4.8-10.2,10.4v27h-11.8V771.8z"/>
	<path fill="#78C557" d="M1042.6,820.2c-5.2,0-9.5-1.4-13.4-4.9v18.2h-11.8v-61.8h11.8v4c3.9-3.4,8.2-4.9,13.4-4.9
		c13.9,0,23.7,10.8,23.7,24.7S1056.5,820.2,1042.6,820.2z M1029.2,788.1v14.8c3.5,4.8,8.2,6.2,11.9,6.2c7.3,0,13-5.8,13-13.6
		s-5.7-13.6-13-13.6C1037.4,781.9,1032.7,783.5,1029.2,788.1z"/>
	<path fill="#78C557" d="M1068.6,795.5c0-13.8,11.2-24.7,25-24.7s25,10.9,25,24.7c0,14.2-11.3,24.7-25,24.7
		C1079.9,820.2,1068.6,809.7,1068.6,795.5z M1106.4,795.5c0-7.9-5.9-13.6-12.8-13.6c-7,0-12.8,5.7-12.8,13.6c0,8,5.7,13.6,12.8,13.6
		S1106.4,803.5,1106.4,795.5z"/>
	<path fill="#78C557" d="M1123.6,771.8h11.8v4.8c2.7-3.6,6.7-5.8,12.3-5.8h1.3v12h-3.4c-6.6,0-10.2,4.5-10.2,10.3v26.2h-11.8V771.8z
		"/>
	<path fill="#78C557" d="M1151.2,771.8h6.7v-11.4h11.8v11.4h11.7v10.2h-11.7v19.2c0,4.3,2.6,7,6.9,7h4.8v11.1h-6.6
		c-9.7,0-16.8-6.2-16.8-16.1v-21.3h-6.7V771.8z"/>
	<path fill="#78C557" d="M1186.3,771.8h11.8v4.8c2.7-3.6,6.7-5.8,12.3-5.8h1.3v12h-3.4c-6.6,0-10.2,4.5-10.2,10.3v26.2h-11.8V771.8z
		"/>
	<path fill="#78C557" d="M1235,770.8c5.2,0,9.4,1.5,13.4,4.9v-4h11.8v47.5h-11.8v-4c-4,3.5-8.2,4.9-13.4,4.9
		c-13.9,0-23.7-10.8-23.7-24.7S1221.1,770.8,1235,770.8z M1248.4,802.9v-14.8c-3.5-4.7-8.2-6.2-11.9-6.2c-7.3,0-13,5.8-13,13.6
		s5.7,13.6,13,13.6C1240.2,809.1,1244.9,807.7,1248.4,802.9z"/>
	<path fill="#78C557" d="M1266.5,759.1c0-4,3.3-7.3,7.3-7.3s7.3,3.3,7.3,7.3s-3.3,7.3-7.3,7.3S1266.5,763.1,1266.5,759.1z
		 M1267.9,771.8h11.8v47.5h-11.8V771.8z"/>
	<path fill="#78C557" d="M1284.1,771.8h6.7v-11.4h11.8v11.4h11.7v10.2h-11.7v19.2c0,4.3,2.6,7,6.9,7h4.8v11.1h-6.6
		c-9.7,0-16.8-6.2-16.8-16.1v-21.3h-6.7V771.8z"/>
	<path fill="#78C557" d="M1317.7,811.5c0-4.7,3.8-8.5,8.7-8.5c4.6,0,8.5,3.9,8.5,8.5c0,4.9-4,8.7-8.5,8.7
		C1321.5,820.2,1317.7,816.4,1317.7,811.5z"/>
</g>
<g>
	<path fill="#B0B0B0" d="M603.8,901.2c-3.7,0-6.8-1-9.6-3.5v13.1h-8.4v-44.2h8.4v2.9c2.8-2.4,5.8-3.5,9.6-3.5
		c9.9,0,16.9,7.8,16.9,17.7S613.7,901.2,603.8,901.2z M594.2,878.2v10.6c2.5,3.4,5.8,4.4,8.5,4.4c5.2,0,9.3-4.1,9.3-9.7
		s-4.1-9.7-9.3-9.7C600.1,873.8,596.7,874.9,594.2,878.2z"/>
	<path fill="#B0B0B0" d="M624.8,856.3h8.4v44.2h-8.4V856.3z"/>
	<path fill="#B0B0B0" d="M637.2,883.4c0-9.9,8.2-17.5,17.7-17.5c10,0,17.9,7.7,17.9,17.5v2.7h-26.6c1.2,4.1,4.7,7.1,8.9,7.1
		c3.2,0,6.1-1.6,7.9-4.1l7.4,3.6c-3.1,5.2-8.7,8.5-15.5,8.5C645.4,901.2,637.2,893.5,637.2,883.4z M646.4,880h17.5
		c-1.2-4.1-4.6-6.7-8.8-6.7C651.1,873.3,647.6,875.9,646.4,880z"/>
	<path fill="#B0B0B0" d="M691.3,865.8c3.7,0,6.7,1.1,9.6,3.5v-2.9h8.4v34h-8.4v-2.9c-2.9,2.5-5.8,3.5-9.6,3.5
		c-9.9,0-16.9-7.8-16.9-17.7S681.3,865.8,691.3,865.8z M700.9,888.8v-10.6c-2.5-3.3-5.8-4.4-8.5-4.4c-5.2,0-9.3,4.1-9.3,9.7
		s4.1,9.7,9.3,9.7C695,893.2,698.3,892.2,700.9,888.8z"/>
	<path fill="#B0B0B0" d="M713.8,897.4l-1-0.6l4.2-6.5l1.3,0.7c2.4,1.3,6.1,2.9,10,2.9c3.3,0,5.1-1.1,5.1-2.7c0-2.5-3-2.9-8.1-4.1
		c-6.9-1.7-11.4-4.9-11.4-10.7c0-5.4,5.2-10.5,13.9-10.5c5.3,0,9.7,1.3,12.5,2.7l1.6,0.7l-4.1,6.3l-1.4-0.5c-1.5-0.6-5-1.8-8.6-1.8
		c-2.6,0-5.1,0.8-5.1,2.7c0,1.8,1.9,2.5,6.3,3.5c7.4,1.7,13.2,4,13.2,10.8c0,6.3-5.4,11-14.3,11
		C722.1,901.2,717.4,899.6,713.8,897.4z"/>
	<path fill="#B0B0B0" d="M744.3,883.4c0-9.9,8.2-17.5,17.7-17.5c10,0,17.9,7.7,17.9,17.5v2.7h-26.6c1.2,4.1,4.7,7.1,8.9,7.1
		c3.2,0,6.1-1.6,7.9-4.1l7.4,3.6c-3.1,5.2-8.7,8.5-15.5,8.5C752.5,901.2,744.3,893.5,744.3,883.4z M753.5,880H771
		c-1.2-4.1-4.6-6.7-8.8-6.7C758.2,873.3,754.7,875.9,753.5,880z"/>
	<path fill="#B0B0B0" d="M796,866.5h8.4v3.5c1.9-2.6,4.8-4.1,8.8-4.1h1v8.6h-2.4c-4.8,0-7.3,3.2-7.3,7.3v18.8H796V866.5z"/>
	<path fill="#B0B0B0" d="M814.2,883.5c0-9.9,8-17.7,17.9-17.7c9.9,0,17.9,7.8,17.9,17.7c0,10.1-8.1,17.7-17.9,17.7
		S814.2,893.6,814.2,883.5z M841.3,883.5c0-5.6-4.2-9.7-9.2-9.7c-5,0-9.2,4.1-9.2,9.7c0,5.7,4.1,9.7,9.2,9.7
		S841.3,889.2,841.3,883.5z"/>
	<path fill="#B0B0B0" d="M850.7,866.5h4.8v-8.2h8.4v8.2h8.4v7.3h-8.4v13.7c0,3.1,1.8,5,5,5h3.4v8h-4.8c-6.9,0-12-4.4-12-11.5v-15.2
		h-4.8V866.5z"/>
	<path fill="#B0B0B0" d="M890.8,865.8c3.7,0,6.7,1.1,9.6,3.5v-2.9h8.4v34h-8.4v-2.9c-2.9,2.5-5.8,3.5-9.6,3.5
		c-9.9,0-16.9-7.8-16.9-17.7S880.9,865.8,890.8,865.8z M900.4,888.8v-10.6c-2.5-3.3-5.8-4.4-8.5-4.4c-5.2,0-9.3,4.1-9.3,9.7
		s4.1,9.7,9.3,9.7C894.6,893.2,897.9,892.2,900.4,888.8z"/>
	<path fill="#B0B0B0" d="M912.3,866.5h4.8v-8.2h8.4v8.2h8.4v7.3h-8.4v13.7c0,3.1,1.8,5,5,5h3.4v8h-4.8c-6.9,0-12-4.4-12-11.5v-15.2
		h-4.8V866.5z"/>
	<path fill="#B0B0B0" d="M935.6,883.4c0-9.9,8.2-17.5,17.7-17.5c10,0,17.9,7.7,17.9,17.5v2.7h-26.6c1.2,4.1,4.7,7.1,8.9,7.1
		c3.2,0,6.1-1.6,7.9-4.1l7.4,3.6c-3.1,5.2-8.7,8.5-15.5,8.5C943.8,901.2,935.6,893.5,935.6,883.4z M944.8,880h17.5
		c-1.2-4.1-4.6-6.7-8.8-6.7C949.5,873.3,946,875.9,944.8,880z"/>
	<path fill="#B0B0B0" d="M986,902.2c2.4,1.6,4.1,1.6,4.9,1.6c2,0,3.4-1,3.9-2.2l0.3-0.6l-12.7-34.5h9.9l8,24.1l7.9-24.1h9.5
		l-13,35.6c-2.6,7.1-8.2,9.3-12.6,9.3c-3.5,0-6.7-1-9.5-2.7L986,902.2z"/>
	<path fill="#B0B0B0" d="M1017,883.5c0-9.9,8-17.7,17.9-17.7c9.9,0,17.9,7.8,17.9,17.7c0,10.1-8.1,17.7-17.9,17.7
		S1017,893.6,1017,883.5z M1044,883.5c0-5.6-4.2-9.7-9.2-9.7c-5,0-9.2,4.1-9.2,9.7c0,5.7,4.1,9.7,9.2,9.7S1044,889.2,1044,883.5z"/>
	<path fill="#B0B0B0" d="M1056.3,886.6v-20.1h8.4v19.9c0,4,3.1,6.9,7.1,6.9c4,0,7.1-2.9,7.1-6.9v-19.9h8.4v20.1
		c0,8.6-7,14.6-15.5,14.6S1056.3,895.2,1056.3,886.6z"/>
	<path fill="#B0B0B0" d="M1092.8,866.5h8.4v3.5c1.9-2.6,4.8-4.1,8.8-4.1h1v8.6h-2.4c-4.8,0-7.3,3.2-7.3,7.3v18.8h-8.4V866.5z"/>
	<path fill="#B0B0B0" d="M1142.9,901.2c-3.7,0-6.8-1-9.6-3.5v13.1h-8.4v-44.2h8.4v2.9c2.8-2.4,5.8-3.5,9.6-3.5
		c9.9,0,16.9,7.8,16.9,17.7S1152.8,901.2,1142.9,901.2z M1133.3,878.2v10.6c2.5,3.4,5.8,4.4,8.5,4.4c5.2,0,9.3-4.1,9.3-9.7
		s-4.1-9.7-9.3-9.7C1139.2,873.8,1135.8,874.9,1133.3,878.2z"/>
	<path fill="#B0B0B0" d="M1163.9,856.3h8.4v13c2.2-2.2,5.1-3.5,8.8-3.5c8.6,0,14.2,6.9,14.2,15.6v19.1h-8.4v-19.3
		c0-4.1-3.2-7.4-7.3-7.4c-4,0-7.3,3.4-7.3,7.4v19.3h-8.4V856.3z"/>
	<path fill="#B0B0B0" d="M1198.7,883.5c0-9.9,8-17.7,17.9-17.7c9.9,0,17.9,7.8,17.9,17.7c0,10.1-8.1,17.7-17.9,17.7
		S1198.7,893.6,1198.7,883.5z M1225.8,883.5c0-5.6-4.2-9.7-9.2-9.7c-5,0-9.2,4.1-9.2,9.7c0,5.7,4.1,9.7,9.2,9.7
		S1225.8,889.2,1225.8,883.5z"/>
	<path fill="#B0B0B0" d="M1238.5,866.5h8.4v2.8c2.2-2.2,5.1-3.5,8.8-3.5c8.6,0,14.2,6.9,14.2,15.6v19.1h-8.4v-19.3
		c0-4.1-3.2-7.4-7.3-7.4c-4,0-7.3,3.4-7.3,7.4v19.3h-8.4V866.5z"/>
	<path fill="#B0B0B0" d="M1273.4,883.4c0-9.9,8.2-17.5,17.7-17.5c10,0,17.9,7.7,17.9,17.5v2.7h-26.6c1.2,4.1,4.7,7.1,8.9,7.1
		c3.2,0,6.1-1.6,7.9-4.1l7.4,3.6c-3.1,5.2-8.7,8.5-15.5,8.5C1281.6,901.2,1273.4,893.5,1273.4,883.4z M1282.6,880h17.5
		c-1.2-4.1-4.6-6.7-8.8-6.7C1287.3,873.3,1283.8,875.9,1282.6,880z"/>
	<path fill="#B0B0B0" d="M1311.4,894.9c0-3.3,2.7-6.1,6.3-6.1c3.3,0,6.1,2.8,6.1,6.1c0,3.5-2.9,6.3-6.1,6.3
		C1314.1,901.2,1311.4,898.5,1311.4,894.9z"/>
</g>
<g>
	<g>
		<g>
			<path fill="#B7B7B7" d="M1126.5,454.5l-4.1-9c30.2-13.8,49.7-44.1,49.7-77.2c0-37.2-23.8-69.7-59.2-80.9l3-9.5
				c39.5,12.5,66.1,48.8,66.1,90.3C1181.9,405.3,1160.2,439.2,1126.5,454.5z"/>
			<g>
				<polygon fill="#B7B7B7" points="1172.3,467.9 1174.7,458.2 1127.1,446.7 1142,400.1 1132.5,397.1 1114.4,453.9 				"/>
			</g>
		</g>
	</g>
	<g>
		<g>
			<path fill="#B7B7B7" d="M804.1,458.6c-39.5-12.5-66.1-48.8-66.1-90.3c0-37,21.8-70.9,55.5-86.3l4.1,9
				c-30.2,13.8-49.7,44.1-49.7,77.2c0,37.2,23.8,69.7,59.2,80.9L804.1,458.6z"/>
			<g>
				<polygon fill="#B7B7B7" points="747.7,268.7 745.3,278.3 792.9,289.8 778,336.4 787.5,339.5 805.6,282.7 				"/>
			</g>
		</g>
	</g>
	<path fill-rule="evenodd" clip-rule="evenodd" fill="#434343" d="M856,189.7l0.7,356.6c0,0.9,0.5,4,0.7,4.6
		c0.4,1.8,1.2,3.5,2.4,5.1c2.5,3.4,6.6,5.9,12.5,7c12.8,2.4,60.1,4.9,82,4.8c0.8,0,0.8,0,1.5,0c22.4,0,70.6-2.7,83.6-5.2
		c6-1.2,10.2-3.6,12.7-7c1.2-1.6,2-3.4,2.4-5.1c0.2-0.6,0.7-3.7,0.7-4.6l-0.9-356.5c0-0.9,0-2.6-0.1-3c0-0.6-0.1-1.2-0.3-1.8
		c-0.4-1.8-1.2-3.5-2.4-5.1c-2.5-3.4-6.6-5.9-12.5-7c-12.8-2.4-60.1-4.9-82-4.8c-0.8,0-0.8,0-1.5,0c-22.4,0-70.6,2.7-83.6,5.2
		c-6,1.2-10.2,3.6-12.7,7c-1.2,1.6-2,3.4-2.4,5.1C856.6,185.6,856,189.7,856,189.7"/>
	
		<rect x="864.4" y="207.8" transform="matrix(-1 -8.956511e-04 8.956511e-04 -1 1910.8025 740.601)" fill="#FFFFFF" width="182.3" height="324.1"/>
	<polygon fill="#434343" points="860.7,202.6 863.2,538 1050.4,537.3 1049.2,204.3 	"/>
	
		<rect x="864.4" y="207.8" transform="matrix(-1 -2.340466e-03 2.340466e-03 -1 1910.2635 741.8577)" fill="#FFFFFF" width="182.3" height="324.1"/>
	
		<rect x="829.3" y="161.8" transform="matrix(-0.9872 -0.1592 0.1592 -0.9872 1840.3945 882.9642)" fill="none" width="252.5" height="411.9"/>
	<path fill="#603713" d="M940.1,455.4c0,1.7,2.2,3.4,4.8,3.4l0,0c2.7,0,4.8-1.7,4.8-3.4v-42.9c0-2.4-2.2-4.9-4.8-4.9l0,0
		c-2.7,0-4.8,2.6-4.8,4.9V455.4z"/>
	<path fill="#603713" d="M958,455.4c0,1.7,2.2,3.4,4.8,3.4l0,0c2.7,0,4.8-1.7,4.8-3.4v-42.9c0-2.4-2.2-4.9-4.8-4.9l0,0
		c-2.7,0-4.8,2.6-4.8,4.9V455.4z"/>
	<g>
		<path fill="#D8D8D7" d="M940.1,450h9.8v15.9h-23v-3.1c0,0,1.6-4.2,8.6-4.2c3.3,0,4.6-3.4,4.6-6.9C940.1,451,940.1,450,940.1,450z"
			/>
		<polygon fill="#AFACAA" points="945.3,464 945.3,452.3 949.9,452.3 949.9,464.2 		"/>
		<path fill="#BF2026" d="M950.3,452.9c0,0.1-0.1,0.2-0.2,0.2h-10.5c-0.1,0-0.2-0.1-0.2-0.2v-2.7c0-0.1,0.1-0.2,0.2-0.2h10.5
			c0.1,0,0.2,0.1,0.2,0.2V452.9z"/>
		<path fill="#BF2026" d="M949.9,464.7v-2.8c-5.5,0.4-9-3.1-10.8-5.5c-0.6,1.2-1.6,2-2.9,2.2c-1.5,2.7-5.7,2.9-8.3,2.8
			c-0.8,0.8-1,1.5-1,1.5v3.1h4.6c0,0,3.9-1.6,8.8-4.2C943.1,464.8,947.3,464.7,949.9,464.7z"/>
		<path fill="#8C191C" d="M949.9,465.7c0,0.1-0.1,0.2-0.2,0.2h-22.6c-0.1,0-0.2-0.1-0.2-0.2v-1.5c0-0.1,0.1-0.2,0.2-0.2h22.6
			c0.1,0,0.2,0.1,0.2,0.2V465.7z"/>
		<path fill="#332D27" d="M937.1,460.3c0,0.1,0,0.2-0.1,0.2l-0.6,0.3c-0.1,0-0.2,0-0.2-0.1l-0.8-1.9c0-0.1,0-0.2,0.1-0.2l0.6-0.3
			c0.1,0,0.2,0,0.2,0.1L937.1,460.3z"/>
		<path fill="#332D27" d="M934.8,460.6c0,0.1-0.1,0.2-0.2,0.2l-0.7,0.1c-0.1,0-0.2,0-0.2-0.1l-0.3-1.9c0-0.1,0.1-0.2,0.2-0.2
			l0.7-0.1c0.1,0,0.2,0,0.2,0.1L934.8,460.6z"/>
		<path fill="#332D27" d="M939,458.8c0.1,0.1,0,0.2,0,0.2l-0.5,0.5c-0.1,0.1-0.2,0.1-0.2,0l-1.2-1.3c-0.1-0.1,0-0.2,0-0.2l0.5-0.5
			c0.1-0.1,0.2-0.1,0.2,0L939,458.8z"/>
		<path fill="#332D27" d="M940.7,456.9c0.1,0,0.1,0.1,0,0.2l-0.4,0.6c-0.1,0.1-0.2,0.1-0.2,0.1l-1.7-1c-0.1,0-0.1-0.1,0-0.2l0.4-0.6
			c0.1-0.1,0.2-0.1,0.2-0.1L940.7,456.9z"/>
		<path fill="#332D27" d="M941.4,454.7c0.1,0,0.1,0.1,0.1,0.2l-0.2,0.7c0,0.1-0.1,0.2-0.2,0.1l-1.8-0.6c-0.1,0-0.1-0.1-0.1-0.2
			l0.2-0.7c0-0.1,0.1-0.2,0.2-0.1L941.4,454.7z"/>
		<path fill="#332D27" d="M941.4,452.5c0.1,0,0.1,0.1,0.1,0.2l0,0.7c0,0.1-0.1,0.2-0.1,0.2l-1.8-0.1c-0.1,0-0.1-0.1-0.1-0.2l0-0.7
			c0-0.1,0.1-0.2,0.1-0.2L941.4,452.5z"/>
		<circle fill="#332D27" cx="945.8" cy="456.9" r="2.8"/>
		<circle fill="#F4F5F5" cx="945.8" cy="456.9" r="1.4"/>
	</g>
	<g>
		<path fill="#D8D8D7" d="M967.6,450h-9.8v15.9h23v-3.1c0,0-1.6-4.2-8.6-4.2c-3.3,0-4.6-3.4-4.6-6.9C967.6,451,967.6,450,967.6,450z
			"/>
		<polygon fill="#AFACAA" points="962.4,464 962.4,452.3 957.8,452.3 957.8,464.2 		"/>
		<path fill="#BF2026" d="M957.4,452.9c0,0.1,0.1,0.2,0.2,0.2h10.5c0.1,0,0.2-0.1,0.2-0.2v-2.7c0-0.1-0.1-0.2-0.2-0.2h-10.5
			c-0.1,0-0.2,0.1-0.2,0.2V452.9z"/>
		<path fill="#BF2026" d="M957.8,464.7v-2.8c5.5,0.4,9-3.1,10.8-5.5c0.6,1.2,1.6,2,2.9,2.2c1.5,2.7,5.7,2.9,8.3,2.8
			c0.8,0.8,1,1.5,1,1.5v3.1h-4.6c0,0-3.9-1.6-8.8-4.2C964.7,464.8,960.4,464.7,957.8,464.7z"/>
		<path fill="#8C191C" d="M957.8,465.7c0,0.1,0.1,0.2,0.2,0.2h22.6c0.1,0,0.2-0.1,0.2-0.2v-1.5c0-0.1-0.1-0.2-0.2-0.2H958
			c-0.1,0-0.2,0.1-0.2,0.2V465.7z"/>
		<path fill="#332D27" d="M970.6,460.3c0,0.1,0,0.2,0.1,0.2l0.6,0.3c0.1,0,0.2,0,0.2-0.1l0.8-1.9c0-0.1,0-0.2-0.1-0.2l-0.6-0.3
			c-0.1,0-0.2,0-0.2,0.1L970.6,460.3z"/>
		<path fill="#332D27" d="M972.9,460.6c0,0.1,0.1,0.2,0.2,0.2l0.7,0.1c0.1,0,0.2,0,0.2-0.1l0.3-1.9c0-0.1-0.1-0.2-0.2-0.2l-0.7-0.1
			c-0.1,0-0.2,0-0.2,0.1L972.9,460.6z"/>
		<path fill="#332D27" d="M968.7,458.8c-0.1,0.1,0,0.2,0,0.2l0.5,0.5c0.1,0.1,0.2,0.1,0.2,0l1.2-1.3c0.1-0.1,0-0.2,0-0.2l-0.5-0.5
			c-0.1-0.1-0.2-0.1-0.2,0L968.7,458.8z"/>
		<path fill="#332D27" d="M967,456.9c-0.1,0-0.1,0.1,0,0.2l0.4,0.6c0.1,0.1,0.2,0.1,0.2,0.1l1.7-1c0.1,0,0.1-0.1,0-0.2l-0.4-0.6
			c-0.1-0.1-0.2-0.1-0.2-0.1L967,456.9z"/>
		<path fill="#332D27" d="M966.4,454.7c-0.1,0-0.1,0.1-0.1,0.2l0.2,0.7c0,0.1,0.1,0.2,0.2,0.1l1.8-0.6c0.1,0,0.1-0.1,0.1-0.2
			l-0.2-0.7c0-0.1-0.1-0.2-0.2-0.1L966.4,454.7z"/>
		<path fill="#332D27" d="M966.3,452.5c-0.1,0-0.1,0.1-0.1,0.2l0,0.7c0,0.1,0.1,0.2,0.1,0.2l1.8-0.1c0.1,0,0.1-0.1,0.1-0.2l0-0.7
			c0-0.1-0.1-0.2-0.1-0.2L966.3,452.5z"/>
		<circle fill="#332D27" cx="961.9" cy="456.9" r="2.8"/>
		<circle fill="#F4F5F5" cx="961.9" cy="456.9" r="1.4"/>
	</g>
	<rect x="939.7" y="366.8" fill="#33357F" width="10.5" height="46.2"/>
	<rect x="957.6" y="366.8" fill="#33357F" width="10.5" height="46.2"/>
	<path fill="#603713" d="M977.1,357.1c2.6,0,4.7-3.6,4.7-8l0,0c0-4.4-2.1-8-4.7-8h-45.8c-2.6,0-4.7,3.6-4.7,8l0,0c0,4.4,2.1,8,4.7,8
		H977.1z"/>
	<g>
		<polygon fill="#DDDDDC" points="960,343.5 949.6,343.5 950.3,351.1 957.8,351.1 		"/>
	</g>
	<g>
		<path fill="#6C1E1F" d="M942.9,341c8.7,0,11.3,8.6,11.3,8.6s2.6-8.6,11.3-8.6h16.3c0,0,0,38.1,0,40.9c0,2.8-3,4.9-5.7,4.9
			c-2.7,0-41.2,0-44,0c-2.7,0-5.7-2.1-5.7-4.6c0-2.5,0-41.2,0-41.2H942.9z"/>
	</g>
	<g>
		<path fill="#F27F80" d="M937.9,356.6h7.6c-0.1-1.2-0.9-2.3-2-2.8l0.7-1.1c0-0.1,0-0.2,0-0.2c-0.1,0-0.1,0-0.2,0l-0.7,1.1
			c-0.5-0.2-1-0.3-1.6-0.3c-0.6,0-1.1,0.1-1.6,0.3l-0.7-1.1c0-0.1-0.1-0.1-0.2,0c-0.1,0-0.1,0.1,0,0.2l0.7,1.1
			C938.8,354.3,938,355.4,937.9,356.6z M942.9,355.1c0-0.2,0.2-0.4,0.4-0.4c0.2,0,0.4,0.2,0.4,0.4c0,0.2-0.2,0.4-0.4,0.4
			C943.1,355.5,942.9,355.3,942.9,355.1z M939.7,355.1c0-0.2,0.2-0.4,0.4-0.4c0.2,0,0.4,0.2,0.4,0.4c0,0.2-0.2,0.4-0.4,0.4
			C939.9,355.5,939.7,355.3,939.7,355.1z"/>
	</g>
	<g>
		<polygon fill="#E35151" points="954,381.6 954.4,381.6 954.4,349.6 954,349.6 		"/>
	</g>
	<polygon fill="#983131" points="956.4,345.9 981.8,345.9 981.8,341 966.8,341 	"/>
	<rect x="956.5" y="345.2" fill="#C1494A" width="25.2" height="0.8"/>
	<polygon fill="#983131" points="951.6,345.9 926.4,345.9 926.4,341 943.2,341 	"/>
	<rect x="926.4" y="345.2" fill="#C1494A" width="25" height="0.8"/>
	<g>
		<path fill="#4B1919" d="M954.2,349.6c0,0,7.1-6.8,15.7-8.6c-7.6,0-9,0-9,0S955,344.3,954.2,349.6z"/>
	</g>
	<g>
		<path fill="#4B1919" d="M954.2,349.6c0,0-7.1-6.8-15.7-8.6c7.6,0,9,0,9,0S953.4,344.3,954.2,349.6z"/>
	</g>
	<g>
		<ellipse fill="#F05758" cx="954.2" cy="349.6" rx="0.7" ry="0.8"/>
	</g>
	<g>
		<polygon fill="#F05758" points="954.2,349.8 955.3,353.9 954.2,353.9 953.1,353.9 		"/>
	</g>
	<path fill="#603713" d="M1015.1,282.5c1.3-2.9,4.4-4.6,6.9-3.6l0,0c2.5,1.1,3.4,4.5,2.1,7.4l-24.1,55.6c-1.3,2.9-4.3,4.4-6.8,3.3
		l0,0c-2.5-1.1-3.5-4.3-2.2-7.2L1015.1,282.5z"/>
	<g>
		<g>
			<g>
				<g>
					<path fill="#6C1E1F" d="M1013.2,284.5l-24.4,56.4c-1.4,3.2-0.1,6.8,2.8,8.1l0,0c2.9,1.3,6.4-0.3,7.8-3.4l24.4-56.4
						L1013.2,284.5L1013.2,284.5z"/>
				</g>
				
					<rect x="1012.5" y="285.8" transform="matrix(-0.9177 -0.3972 0.3972 -0.9177 1838.6024 955.6448)" fill="#4B1919" width="11.6" height="3.3"/>
			</g>
		</g>
		<path fill="#983131" d="M993.2,349.3c-0.5-0.1-1-0.2-1.5-0.4c-0.5-0.2-0.9-0.5-1.3-0.8l25.9-59.8l2.8,1.2L993.2,349.3z"/>
		<path fill="#C1494A" d="M990.3,348.1c-0.2-0.2-0.3-0.3-0.5-0.5l25.8-59.6l0.6,0.3L990.3,348.1z"/>
		<path fill="#C1494A" d="M993.9,349.4c-0.2,0-0.5,0-0.7,0l25.9-59.8l0.6,0.3L993.9,349.4z"/>
	</g>
	<path fill="#603713" d="M921,411.5c0,3.2-2.2,6-4.9,6l0,0c-2.7,0-4.9-2.8-4.9-6V351c0-3.2,2.2-5.7,4.9-5.7l0,0
		c2.7,0,4.9,2.6,4.9,5.7V411.5z"/>
	<g>
		<g>
			<g>
				<g>
					<path fill="#6C1E1F" d="M921.9,408.9v-61.4c0-3.5-2.6-6.3-5.8-6.3l0,0c-3.2,0-5.8,2.8-5.8,6.3v61.4H921.9L921.9,408.9z"/>
				</g>
				<rect x="910.3" y="406.6" fill="#4B1919" width="11.6" height="3.3"/>
			</g>
		</g>
		<path fill="#983131" d="M914.6,341.5c0.5-0.1,1-0.2,1.5-0.2s1.1,0.1,1.5,0.2v65.1h-3.1V341.5z"/>
		<path fill="#C1494A" d="M917.7,341.5c0.2,0.1,0.4,0.1,0.7,0.2v64.9h-0.7V341.5z"/>
		<path fill="#C1494A" d="M913.9,341.7c0.2-0.1,0.4-0.2,0.7-0.2v65.1h-0.7V341.7z"/>
	</g>
	<g>
		<path d="M980.8,263.3c1.2,0,2.3,1.2,2.3,2.7v36c0,1.5-1,2.6-2.3,2.4l-24.4-3.5c-1.2-0.2-3.3-0.2-4.5,0l-24.4,3.5
			c-1.2,0.2-2.3-0.9-2.3-2.4v-36c0-1.5,1-2.7,2.3-2.7H980.8z"/>
	</g>
	<path d="M954.2,286.4c0,0,18.2-0.1,29,12.2c0,0-12.6-6.4-29-6.4c-16.4,0-29,6.4-29,6.4C936,286.3,954.2,286.4,954.2,286.4z"/>
	<path fill="#603713" d="M930.8,294.9l2.9-1.5c6.2-2.9,13.1-4.6,20.4-4.6c7.3,0,14.2,1.6,20.4,4.6l2.9,1.5
		c14.5,8.1,24.6,23.4,25.9,41.4H905C906.3,318.4,916.4,303,930.8,294.9"/>
	<path fill="#603713" d="M930.8,294.9l-9.1-15.9c-0.5-0.9-0.4-2.2,0.3-2.8c0.7-0.6,1.7-0.3,2.2,0.6l9.4,16.5"/>
	<path fill="#603713" d="M974.6,293.4l9.4-16.5c0.5-0.9,1.5-1.2,2.3-0.6c0.7,0.6,0.8,1.8,0.3,2.8l-9.1,15.9"/>
	<g>
		<g>
			<path fill="#121212" d="M913.6,309.3c0.4,0.3,2.6,0.1,2.6,1.8c0,4.4,1.7,9.8,2.6,11.5c1,1.7,1.7,3.5,6.8,5
				c4.6,1.4,9.8,1.1,13.3-0.6c2.7-1.3,6.9-4.7,9-9.8c1.7-4.1,2.2-7.9,6.1-7.9c3.9,0,4.3,4.1,6,8.1c2.1,5.1,6.3,8.5,9,9.8
				c3.5,1.7,8.7,2,13.3,0.6c5.1-1.5,5.8-3.4,6.8-5c1-1.7,2.6-7,2.6-11.5c0-1.7,2.2-1.5,2.6-1.8c0.4-0.3,1-5.2,0.6-5.9
				c-0.4-0.7-21.2-1.8-25.8-1.5c-8.2,0.5-9.4,3.4-15.1,3.4c-5.7,0-8.3-2.9-15.2-3.6c-4.6-0.6-25.3,0.8-25.8,1.5
				C912.6,304.2,913.2,309,913.6,309.3z M963.1,306.8c2.6-1.8,7.9-2.2,11.6-2.2s10.1,0.8,11.2,1.5c1.9,1.2,2.8,2.3,2.6,7
				c-0.1,4.7-0.3,9.7-3.7,11.6c-3.5,1.9-9.1,2.9-14.1,1c-5-1.9-7.8-7.3-8.4-10.4C961.5,312.3,960.4,308.6,963.1,306.8z M922.1,305.9
				c1.2-0.7,7.5-1.5,11.2-1.5c3.7,0,9.1,0.5,11.6,2.2c2.6,1.8,1.5,5.5,0.8,8.6c-0.7,3-3.5,8.4-8.4,10.4c-5,1.9-10.7,1-14.1-1
				c-3.5-1.9-3.6-6.9-3.7-11.6C919.3,308.2,920.1,307.1,922.1,305.9z"/>
		</g>
		<path opacity="0.2" fill="#FFFFFF" enable-background="new    " d="M986.7,307.9c0,0-11.4-3.8-22.9,0.3c0,4.8,4.8,9.1,11.7,9.1
			C982.5,317.3,986.7,313.7,986.7,307.9z"/>
		<path opacity="0.2" fill="#FFFFFF" enable-background="new    " d="M933.1,317.3c6.9,0,11.7-4.3,11.7-9.1
			c-11.4-4-22.9-0.3-22.9-0.3C921.9,313.7,926.1,317.3,933.1,317.3z"/>
	</g>
	<g>
		<g>
			<path fill="#202020" d="M917.3,416.1l-10.1,10.1c-0.9,0.9-2.4,0.9-3.3,0L884.7,407c-0.9-0.9-0.9-2.4,0-3.3l10.1-10.1
				c0.9-0.9,2.4-0.9,3.3,0l19.3,19.2C918.2,413.7,918.2,415.2,917.3,416.1z"/>
		</g>
		
			<rect x="892.8" y="396.6" transform="matrix(0.7061 -0.7081 0.7081 0.7061 -25.4079 758.3715)" fill="#FFFFFF" width="16.2" height="26.4"/>
		
			<rect x="884.4" y="400.1" transform="matrix(0.7061 -0.7081 0.7081 0.7061 -21.9471 749.9662)" fill="#FADD60" width="16.2" height="2.6"/>
		
			<rect x="899" y="413.5" transform="matrix(0.7061 -0.7081 0.7081 0.7061 -27.9641 764.5797)" fill="#E9407A" width="16.2" height="5"/>
		
			<rect x="891.3" y="399.9" transform="matrix(0.7061 -0.7081 0.7081 0.7061 -24.7867 756.8628)" fill="#F7AB51" width="16.2" height="16.8"/>
		<circle fill="#FADD60" cx="909.3" cy="410.3" r="1.4"/>
	</g>
	<path fill="#FFFFFF" d="M973.9,319.2c2.4,0,4.3-2.1,4.3-4.7c0-2.6-1.9-4.7-4.3-4.7c-2.4,0-4.3,2.1-4.3,4.7
		C969.6,317.1,971.5,319.2,973.9,319.2"/>
	<path fill="#FFFFFF" d="M933.9,318.2c2.4,0,4.4-2.1,4.4-4.8c0-2.6-2-4.8-4.4-4.8c-2.4,0-4.4,2.1-4.4,4.8
		C929.5,316.1,931.5,318.2,933.9,318.2"/>
</g>
</svg>
