<?xml version="1.0" encoding="utf-8"?>
<!-- Generator: Adobe Illustrator 17.1.0, SVG Export Plug-In . SVG Version: 6.00 Build 0)  -->
<!DOCTYPE svg PUBLIC "-//W3C//DTD SVG 1.1//EN" "http://www.w3.org/Graphics/SVG/1.1/DTD/svg11.dtd">
<svg version="1.1" id="Layer_1" xmlns="http://www.w3.org/2000/svg" xmlns:xlink="http://www.w3.org/1999/xlink" x="0px" y="0px"
	 viewBox="0 0 960 560" enable-background="new 0 0 960 560" xml:space="preserve">
<g>
	<path d="M588.5,485H371.5c-19.3,0-35.1-15.8-35.1-35.1V35.1c0-19.3,15.8-35.1,35.1-35.1h217.1c19.3,0,35.1,15.8,35.1,35.1v414.8
		C623.6,469.2,607.9,485,588.5,485z"/>
	<rect x="358.6" y="45.8" fill="#F3F3F3" width="242.9" height="394"/>
	<rect x="358.6" y="45.8" fill="none" width="242.9" height="394"/>
	<g>
		<g>
			<path fill="#7AC259" d="M414.4,242.9c0-7.2-5-12.9-12.2-12.9c-6.4,0-12.2,5.7-12.2,12.9v53c0,7.2,5,12.9,12.2,12.9
				c6.4,0,12.2-5.7,12.2-12.9V242.9z"/>
			<path fill="#7AC259" d="M574.9,196.3c4.3-5.7,2.9-13.6-2.1-17.9c-5-4.3-12.9-3.6-16.5,2.1l-25.1,35.8c-4.3,5.7-2.9,13.6,2.1,17.9
				c5,4.3,12.9,3.6,16.5-2.1L574.9,196.3z"/>
			<path fill="#7AC259" d="M466,295.2c0-7.2-5-12.9-12.2-12.9c-6.4,0-12.2,5.7-12.2,12.9v53c0,7.2,5,12.9,12.2,12.9
				c6.4,0,12.2-5.7,12.2-12.9V295.2z"/>
			<path fill="#7AC259" d="M505.4,295.2c0-7.2-5-12.9-12.2-12.9c-6.4,0-12.2,5.7-12.2,12.9v53c0,7.2,5,12.9,12.2,12.9
				c6.4,0,12.2-5.7,12.2-12.9V295.2z"/>
			<path fill="#7AC259" d="M509.7,316.6l8.6-0.7c7.2-0.7,12.2-7.2,11.5-14.3l-6.4-81.7l-106,9.3l6.4,81.7
				c0.7,7.2,6.4,12.9,13.6,12.2l8.6-0.7L509.7,316.6z"/>
			<path fill="#7AC259" d="M491.8,172.7l14.3-14.3c0.7-0.7,0-2.1-0.7-2.1c-0.7-0.7-2.1,0-2.1,0.7L489,171.2
				c-7.2-2.9-15-3.6-23.6-3.6c-8.6,0.7-15.8,2.9-22.9,7.2l-14.3-11.5c-0.7-0.7-1.4-0.7-2.1-0.7c-0.7,0.7-0.7,1.4-0.7,2.1l14.3,11.5
				c-15.8,10-25.1,27.9-23.6,47.3l106-8.6C520.5,195.6,508.3,179.8,491.8,172.7z M443.1,201.3c-2.1,0-4.3-1.4-5-4.3
				c0-2.9,1.4-5,4.3-5c2.1,0,4.3,1.4,5,4.3C447.4,198.4,446,200.6,443.1,201.3z M491.8,197c-2.1,0-4.3-1.4-5-4.3c0-2.9,1.4-5,4.3-5
				c2.1,0,4.3,1.4,5,4.3C496.1,194.9,494,197,491.8,197z"/>
			<path fill="#7AC259" d="M561.3,176.9c0,0,4.3-10.7,5.7-14.3c1.4-4.3,2.1-3.6,2.9-2.9c1.4,0.7,1.4,2.9,0.7,5
				c-0.7,2.9-3.6,10-2.1,10.7s0.7-0.7,10-7.9c0,0,2.1-1.4,3.6-0.7c0.7,0.7,0.7,2.1-0.7,4.3c-1.4,2.1-5.7,5-6.4,5.7
				c-0.7,0.7-1.4,2.9,0,4.3"/>
		</g>
	</g>
</g>
<rect x="-1" y="485" opacity="0" fill="#FFFFFF" width="960" height="75"/>
</svg>
