<?xml version="1.0" encoding="utf-8"?>
<!-- Generator: Adobe Illustrator 18.0.0, SVG Export Plug-In . SVG Version: 6.00 Build 0)  -->
<!DOCTYPE svg PUBLIC "-//W3C//DTD SVG 1.1//EN" "http://www.w3.org/Graphics/SVG/1.1/DTD/svg11.dtd">
<svg version="1.1" id="Layer_1" xmlns="http://www.w3.org/2000/svg" xmlns:xlink="http://www.w3.org/1999/xlink" x="0px" y="0px"
	 viewBox="0 0 359 136" enable-background="new 0 0 359 136" xml:space="preserve">
<g>
	<path fill="#D64927" d="M152.6,15.4c0,0,5.5,0.5,10.2,7.8s5.7,8.4,13.7,8.3c8.1,0,15.2,6.4,17.3,12.4s0.5,11.7-2.5,17.2
		c-3.1,5.5-0.3,9.7,1.5,11.4s5.3,7.4,1.8,14.6c-1.8,4.2-3.6,2.7-4.2,6.3c-0.6,3.6,5.4,14.1-7.7,19.6c-4.7,2-9.2,3.8-14.1,1.2
		c-2.2-1.2-4.8-2.5-7.2-1.6c-2.9,1.1-5.2,4.3-8.5,3.7c-3.8-0.7-6.2-5-9.9-5.8c-1.9-0.4-3.8,0.5-5.5,1.2c-2.3,0.9-4.7,1.6-7,0.7
		c-2.4-0.9-4.1-2.3-6.1-3.8c-0.9-0.7-1.8-1.2-2.8-1.6c-1.2-0.6-2.6-0.9-3.7-1.8c-1-0.8-1.9-1.7-2.8-2.7c-1.5-1.9-2.8-4.1-3.5-6.5
		c-1.1-3.6-1.2-8.7,2-11c5.9-4.2-4.9-8.7-4-18.4s5.8-5.9,3.5-18.7c-2.1-10.7,5.2-16.3,15.6-15.8c8.6,0.2,9.8-6.9,9.8-6.9
		C141,13.5,152.6,15.4,152.6,15.4z"/>
	<path fill="#F6C181" d="M173,65.9v19.2l-3.3,3h-33.4l-3.6-3.8V65.9H173z"/>
	<path fill="#F6C181" d="M137.4,35.8l-5.8-9.2c-0.3-0.5-0.3-1.3,0.2-1.6c0.5-0.3,1.1-0.2,1.4,0.4l6.1,9.5c4-1.7,8.4-2.7,13.1-2.7
		c4.7,0,9.1,0.9,13.1,2.7l6.1-9.5c0.3-0.5,1-0.7,1.4-0.4c0.5,0.3,0.5,1.1,0.2,1.6l-5.8,9.2c9.3,4.7,15.8,13.6,16.6,23.9h-63.1
		C121.6,49.4,128.1,40.5,137.4,35.8"/>
	<path fill="#FFFFFF" d="M166.6,50.5c1.7,0,3.1-1.5,3.1-3.3c0-1.9-1.4-3.3-3.1-3.3c-1.7,0-3.1,1.5-3.1,3.3S164.9,50.5,166.6,50.5"/>
	<path fill="#FFFFFF" d="M137.9,50.6c1.8,0,3.2-1.5,3.2-3.4s-1.4-3.4-3.2-3.4s-3.2,1.5-3.2,3.4C134.7,49,136.1,50.6,137.9,50.6"/>
	<path fill="#D64927" d="M142.2,31.4c0,0,0.1,0.6,0,1.5c3.6-1.4,12.1-3.6,22.8-1.1c22.5,4.8,22.9,28.3,22.9,28.3s-1.2,0-5.3,0
		c0-2.4-2.3-22-18.7-21.8c-14.5,0.7-20.3-1.8-22.4-3.3c-0.8,1.3-2.3,2.7-5.3,3.5c-7.1,1.9-13.3,8.2-13,22.2c-5.3,0-6.7,0-6.7,0
		S114.3,33.7,142.2,31.4z"/>
	<path fill="#F6C181" d="M188.1,63.6l22.1-14.9c3-2,5.2-1.4,6.4,0.3l0,0c1.2,1.8,0.9,4-2.1,6.1L192.4,70L188.1,63.6L188.1,63.6z"/>
	<g>
		<path fill="#E7E7E7" d="M198.2,56.2l-10.7,7.2c-1.9,1.3-2.3,3.9-1,5.9l0,0c1.3,2,4,2.6,5.9,1.3l10.7-7.2L198.2,56.2z"/>
	</g>
	<path fill="#F6C181" d="M118.8,70v26.7c0,3.6-1.7,5.1-3.9,5.1l0,0c-2.1,0-3.9-1.5-3.9-5.1V70H118.8L118.8,70z"/>
	<g>
		<path fill="#E7E7E7" d="M119.3,82.5V69.6c0-2.3-1.9-4.1-4.3-4.1l0,0c-2.4,0-4.3,1.9-4.3,4.1v12.9H119.3z"/>
	</g>
	<g>
		<path fill="#053147" d="M165.8,118.2V96.3H156v21.9C156,118.2,165.8,118.2,165.8,118.2z"/>
	</g>
	<g>
		<g>
			<path fill="#171717" d="M166.6,116.4h-11v13.4H175c0,0,0.8-7.2-8.3-7.2C166.6,118.3,166.6,116.4,166.6,116.4z"/>
			<rect x="155.6" y="117.5" fill="#2B2B2B" width="1.6" height="12.4"/>
			<g>
				<path fill="#2B2B2B" d="M160.8,122.7h-0.2C160.7,122.7,160.7,122.7,160.8,122.7z"/>
				<path fill="#2B2B2B" d="M160.8,122.7h5.8c9.1,0,8.3,7.2,8.3,7.2c-0.4,0-0.9,0-1.4,0C173.6,123,162.3,122.7,160.8,122.7z"/>
			</g>
			<rect x="155.6" y="129.5" fill="#0D0D0D" width="19.3" height="1.5"/>
		</g>
		<path fill="#DFDFDF" d="M155.3,117.2h0.1c-0.1,0.7,1.1,0.9,1.3,0.2c0.2,0.2,0.6,0.4,1,0.4c0.3,0,0.4-0.2,0.6-0.4
			c0,0,0.3,0.2,0.3,0.3c0.4,0.1,0.7,0,0.9-0.3c-0.1,0.1,0.5,0.5,0.5,0.5c0.3,0.1,0.6,0.1,0.8-0.1c0.1-0.1,0.2-0.2,0.3-0.3
			c0.2,0.2,0.4,0.3,0.6,0.4c0.1,0,0.2,0,0.4-0.1c0,0,0.2-0.2,0.2-0.3c0.2,0.4,0.9,0.4,1.1,0c0.1,0.5,1.1,0.5,1.3,0
			c0,0.2,0.3,0.3,0.5,0.3s0.4-0.1,0.4-0.3c0.1,0.3,0.8,0.3,0.9,0c0.4,0.3,1-0.3,0.6-0.6c0.2,0,0.4-0.1,0.5-0.3
			c0.1-0.2,0-0.4-0.2-0.4c0.4,0.1,0.5-0.8-0.1-0.8c0.5-0.7-0.7-1.2-0.8-0.7c0.1-0.7-1.3-0.6-1.2,0c-0.1-0.3-0.3-0.5-0.7-0.5
			c-0.2,0-0.7,0.1-0.7,0.4c-0.1-0.3-0.2-0.4-0.6-0.4c-0.4,0-0.7,0.1-0.7,0.6c-0.1-0.3-0.3-0.4-0.6-0.4c-0.2,0-0.4,0-0.5,0.1
			s-0.2,0.2-0.3,0.3c-0.2-0.3-0.4-0.5-0.8-0.5c-0.3,0-0.5,0.2-0.7,0.4c-0.1-0.3-0.4-0.5-0.7-0.5s-0.5,0.1-0.6,0.4
			c-0.2-0.2-0.4-0.3-0.7-0.3s-0.4,0.2-0.5,0.4c-0.2-0.6-1.4-0.6-1.4,0.1c-0.3-0.2-0.6-0.2-0.8,0.1c-0.2,0.3,0,0.5,0.2,0.6
			c-0.3,0.3-0.4,0.6,0,0.9c-0.2,0-0.2,0.3-0.2,0.4C155,117,155.1,117.1,155.3,117.2z"/>
	</g>
	<g>
		<path fill="#053147" d="M139.3,118.2V96.3h9.8v21.9C149.1,118.2,139.3,118.2,139.3,118.2z"/>
	</g>
	<g>
		<g>
			<path fill="#171717" d="M138.5,116.4h11v13.4h-19.3c0,0-0.8-7.2,8.3-7.2C138.5,118.3,138.5,116.4,138.5,116.4z"/>
			<rect x="147.9" y="117.5" fill="#2B2B2B" width="1.6" height="12.4"/>
			<g>
				<path fill="#2B2B2B" d="M144.3,122.7h0.2C144.5,122.7,144.4,122.7,144.3,122.7z"/>
				<path fill="#2B2B2B" d="M144.3,122.7h-5.8c-9.1,0-8.3,7.2-8.3,7.2c0.4,0,0.9,0,1.4,0C131.5,123,142.8,122.7,144.3,122.7z"/>
			</g>
			<rect x="130.2" y="129.5" fill="#0D0D0D" width="19.3" height="1.5"/>
		</g>
		<path fill="#DFDFDF" d="M149.9,117.2h-0.1c0.1,0.7-1.1,0.9-1.3,0.2c-0.2,0.2-0.6,0.4-1,0.4c-0.3,0-0.4-0.2-0.6-0.4
			c0,0-0.3,0.2-0.3,0.3c-0.4,0.1-0.7,0-0.9-0.3c0.1,0.1-0.4,0.5-0.5,0.5c-0.3,0.1-0.6,0.1-0.8-0.1c-0.1-0.1-0.2-0.2-0.3-0.3
			c-0.2,0.2-0.4,0.3-0.6,0.4c-0.1,0-0.3,0-0.4-0.1c0,0-0.2-0.2-0.2-0.3c-0.2,0.4-0.9,0.4-1.1,0c-0.1,0.5-1.1,0.5-1.3,0
			c0,0.2-0.3,0.3-0.5,0.3s-0.4-0.1-0.4-0.3c-0.1,0.3-0.8,0.3-0.9,0c-0.4,0.3-1-0.3-0.6-0.6c-0.2,0-0.4-0.1-0.5-0.3
			c-0.1-0.2,0-0.4,0.2-0.4c-0.4,0.1-0.5-0.8,0.1-0.8c-0.5-0.7,0.7-1.2,0.8-0.7c-0.1-0.7,1.4-0.6,1.2,0c0.1-0.3,0.3-0.5,0.7-0.5
			c0.2,0,0.7,0.1,0.7,0.4c0.1-0.3,0.2-0.4,0.6-0.4c0.4,0,0.7,0.1,0.7,0.6c0.1-0.3,0.3-0.4,0.6-0.4c0.2,0,0.4,0,0.5,0.1
			s0.2,0.2,0.3,0.3c0.2-0.3,0.4-0.5,0.8-0.5c0.3,0,0.5,0.2,0.7,0.4c0.1-0.3,0.4-0.5,0.7-0.5s0.5,0.1,0.6,0.4
			c0.2-0.2,0.4-0.3,0.7-0.3s0.4,0.2,0.5,0.4c0.2-0.6,1.4-0.6,1.4,0.1c0.3-0.2,0.6-0.2,0.8,0.1c0.2,0.3,0,0.5-0.2,0.6
			c0.3,0.3,0.4,0.6,0,0.9c0.2,0,0.2,0.3,0.2,0.4C150.2,117,150,117.1,149.9,117.2z"/>
	</g>
	<path fill="#E7E7E7" d="M143,65.9c0.4,4.9,4.4,8.7,9.4,8.7s9-3.8,9.4-8.7h19.9v32.8h-58.5V65.9H143z"/>
	<path fill="#D15354" d="M146.7,79c1.8-2.9,5.6-0.3,5.6-0.3s3.9-2.5,5.6,0.3c1.8,2.9-1.2,7-5.6,9.7C147.9,86,144.9,81.9,146.7,79z"
		/>
	<g>
		<path fill="#ECECEC" d="M152.4,75.6c5.4,0,10-4.2,10.4-9.6l-2-0.1c-0.3,4.4-4,7.8-8.4,7.8s-8.1-3.4-8.4-7.8l-2,0.1
			C142.4,71.4,147,75.6,152.4,75.6z"/>
	</g>
</g>
<g>
	<path fill="#E0AF79" d="M246.9,78.9c0,3.5-3,6.4-6.7,6.4l0,0c-3.7,0-6.7-2.9-6.7-6.4V51.4c0-3.5,3-6.4,6.7-6.4l0,0
		c3.7,0,6.7,2.9,6.7,6.4V78.9z"/>
	<g>
		<g>
			<path fill="#2B568D" d="M232.9,73.5V49.8c0-4,3.3-6.7,7.4-6.7l0,0c4.1,0,7.4,2.6,7.4,6.7v23.8L232.9,73.5L232.9,73.5z"/>
			<path fill="#5179A5" d="M236.9,43.9v29.6h-4.1V49.8C232.9,46.9,233.8,45.3,236.9,43.9z"/>
			<path fill="#224063" d="M246.9,46.6h-13.3c1.2-2.4,3.7-3.5,6.6-3.5C243.2,43.1,245.7,44.1,246.9,46.6z"/>
			<g>
				<path fill="#5179A5" d="M247.6,49.8v23.8h-4.1V43.7C246.4,44.8,247.6,46.9,247.6,49.8z"/>
				<g>
					<rect x="232.9" y="51.4" fill="#224063" width="14.7" height="4.1"/>
					<rect x="232.9" y="60.4" fill="#224063" width="14.7" height="4.1"/>
					<rect x="232.9" y="69.4" fill="#224063" width="14.7" height="4.1"/>
				</g>
				<g>
					<g>
						<path fill="#315078" d="M246.9,46.6h-3.3v-2.8C245,44.4,246.2,45.1,246.9,46.6z"/>
						<rect x="243.6" y="51.4" fill="#315078" width="4.1" height="4.1"/>
						<rect x="243.6" y="60.4" fill="#315078" width="4.1" height="4.1"/>
						<rect x="243.6" y="69.4" fill="#315078" width="4.1" height="4.1"/>
					</g>
					<g>
						<path fill="#315078" d="M236.9,43.7v2.8h-3.3C234.3,45.1,235.5,44.4,236.9,43.7z"/>
						<rect x="232.9" y="51.4" fill="#315078" width="4.1" height="4.1"/>
						<rect x="232.9" y="60.4" fill="#315078" width="4.1" height="4.1"/>
						<rect x="232.9" y="69.4" fill="#315078" width="4.1" height="4.1"/>
					</g>
				</g>
			</g>
		</g>
		<ellipse fill="#FFFFFF" cx="246.1" cy="71.5" rx="0.7" ry="0.7"/>
	</g>
</g>
<g>
	<path fill="#E0AF79" d="M356.7,28.6c2.7-2.2,3-6.4,0.7-9.2l0,0c-2.3-2.8-6.4-3.3-9.2-1.1L327,35.8c-2.7,2.2-3,6.4-0.7,9.2l0,0
		c2.3,2.8,6.4,3.3,9.2,1.1L356.7,28.6z"/>
	<g>
		<g>
			<path fill="#2B568D" d="M343.7,21.2l-18.4,15.1c-3.1,2.6-3,6.8-0.5,9.9l0,0c2.6,3.1,6.7,4,9.8,1.5L353,32.6L343.7,21.2z"/>
			<path fill="#5179A5" d="M323.4,43.2l22.9-18.8l-2.6-3.1l-18.4,15.1C323.2,38.1,322.5,39.8,323.4,43.2z"/>
			<path fill="#224063" d="M331.8,49.2L323.4,39c-1.1,2.5-0.3,5.1,1.5,7.3C326.8,48.5,329.2,49.8,331.8,49.2z"/>
			<g>
				<path fill="#5179A5" d="M334.8,47.7l18.4-15.1l-2.6-3.1l-23,18.9C330.2,50,332.5,49.5,334.8,47.7z"/>
				<g>
					
						<rect x="325.6" y="37.6" transform="matrix(-0.6354 -0.7722 0.7722 -0.6354 513.8676 321.952)" fill="#224063" width="14.7" height="4.1"/>
					
						<rect x="332.5" y="31.9" transform="matrix(-0.6354 -0.7722 0.7722 -0.6354 529.5908 317.9039)" fill="#224063" width="14.7" height="4.1"/>
					
						<rect x="339.5" y="26.2" transform="matrix(-0.6354 -0.7722 0.7722 -0.6354 545.3577 314.0341)" fill="#224063" width="14.7" height="4.1"/>
				</g>
				<g>
					<g>
						<path fill="#315078" d="M331.8,49.2l-2.1-2.6l-2.2,1.8C329,49.1,330.3,49.5,331.8,49.2z"/>
						
							<rect x="334.3" y="41.7" transform="matrix(-0.6354 -0.7722 0.7722 -0.6354 516.2841 331.3187)" fill="#315078" width="4.1" height="4.1"/>
						
							<rect x="341.3" y="36.1" transform="matrix(-0.6354 -0.7722 0.7722 -0.6354 532.0516 327.4459)" fill="#315078" width="4.1" height="4.1"/>
						
							<rect x="348.2" y="30.3" transform="matrix(-0.6354 -0.7722 0.7722 -0.6354 547.7742 323.4008)" fill="#315078" width="4.1" height="4.1"/>
					</g>
					<g>
						<path fill="#315078" d="M323.3,43.3l2.2-1.8l-2.1-2.6C322.7,40.4,322.9,41.7,323.3,43.3z"/>
						
							<rect x="327.5" y="33.5" transform="matrix(-0.6354 -0.7722 0.7722 -0.6354 511.4265 312.4972)" fill="#315078" width="4" height="4.1"/>
						
							<rect x="334.5" y="27.7" transform="matrix(-0.6354 -0.7722 0.7722 -0.6354 527.3693 308.5801)" fill="#315078" width="4" height="4.1"/>
						
							<rect x="341.4" y="22" transform="matrix(-0.6354 -0.7722 0.7722 -0.6354 543.0919 304.5349)" fill="#315078" width="4" height="4.1"/>
					</g>
				</g>
			</g>
		</g>
		<ellipse fill="#FFFFFF" cx="350.6" cy="32.7" rx="0.7" ry="0.7"/>
	</g>
</g>
<g>
	<path fill="#E0AF79" d="M296.9,43.3c3.5,0,6.4,3,6.4,6.7l0,0c0,3.7-2.9,6.7-6.4,6.7h-27.5c-3.5,0-6.4-3-6.4-6.7l0,0
		c0-3.7,2.9-6.7,6.4-6.7H296.9z"/>
	<path fill="#E0AF79" d="M264.7,114.9c0,2.4,3,4.3,6.7,4.3l0,0c3.7,0,6.7-1.9,6.7-4.3V96.5c0-2.4-3-4.3-6.7-4.3l0,0
		c-3.7,0-6.7,1.9-6.7,4.3V114.9z"/>
	<g>
		<polygon fill="#3F4B54" points="263.8,94 263.8,112.5 265,112.5 265,110.4 265.9,110.4 265.9,112.5 267,112.5 267,110.4 
			267.9,110.4 267.9,112.5 268.9,112.5 268.9,110.4 269.8,110.4 269.8,112.5 270.8,112.5 270.8,110.4 271.7,110.4 271.7,112.5 
			272.8,112.5 272.8,110.4 273.6,110.4 273.6,112.5 274.7,112.5 274.7,110.4 275.6,110.4 275.6,112.5 276.7,112.5 276.7,110.4 
			277.5,110.4 277.5,112.5 278.7,112.5 278.7,94 		"/>
		<rect x="263.3" y="109.7" fill="#54626C" width="15.9" height="2.9"/>
	</g>
	<g>
		<path fill="#599C60" d="M278.8,118.9v11.8h-29.5c0,0-1.9-7.4,2.9-7.4s13.7,1.3,13.7-4.5c-3.3-1.8-4-4.2-4-4.2
			c16.7,0,16.9,0,16.9,0V118.9L278.8,118.9L278.8,118.9z"/>
		<path fill="#AAD17E" d="M278.8,128v-9.1c0,0-8.4-0.7-8.4,4s-9.7,3.6-14.2,3.6s-6.5-0.2-6.5,2.1c21.7,0,29,0,29,0L278.8,128z"/>
		<rect x="249" y="128" fill="#DFF2F6" width="29.9" height="2.7"/>
		<g>
			<path fill="#3B7439" d="M269.4,120.5c0,0.3-0.3,0.5-0.6,0.5h-3c-0.3,0-0.6-0.2-0.6-0.5l0,0c0-0.3,0.3-0.5,0.6-0.5h3
				C269.1,119.9,269.4,120.2,269.4,120.5L269.4,120.5z"/>
			<path fill="#3B7439" d="M267.2,121.5c0,0.3-0.3,0.5-0.6,0.5h-3c-0.3,0-0.6-0.2-0.6-0.5l0,0c0-0.3,0.3-0.5,0.6-0.5h3
				C266.9,120.9,267.2,121.2,267.2,121.5L267.2,121.5z"/>
			<path fill="#3B7439" d="M265,122.5c0,0.3-0.3,0.5-0.6,0.5h-3c-0.3,0-0.6-0.2-0.6-0.5l0,0c0-0.3,0.3-0.5,0.6-0.5h3
				C264.7,121.9,265,122.2,265,122.5L265,122.5z"/>
			<path fill="#3B7439" d="M262.8,123.5c0,0.3-0.3,0.5-0.6,0.5h-3c-0.3,0-0.6-0.2-0.6-0.5l0,0c0-0.3,0.3-0.5,0.6-0.5h3
				C262.5,122.9,262.8,123.2,262.8,123.5L262.8,123.5z"/>
		</g>
		<path fill="#AAD17E" d="M271.5,115.3h-8c0,0,1.6,2.3,3,2.7h5.1v-2.7H271.5z"/>
		<rect x="249" y="130.7" fill="#599C60" width="29.9" height="1.1"/>
		<path fill="#FFFFFF" d="M274.8,120c-1.8,0-3.2,1.4-3.2,3.1s1.4,3.1,3.2,3.1c1.8,0,3.2-1.4,3.2-3.1
			C278.1,121.4,276.6,120,274.8,120z M274.8,124.8c-0.9,0-1.7-0.7-1.7-1.7c0-0.9,0.7-1.7,1.7-1.7c0.9,0,1.7,0.7,1.7,1.7
			C276.5,124.1,275.8,124.8,274.8,124.8z"/>
	</g>
	<path fill="#E0AF79" d="M302.1,114.9c0,2.4-3,4.3-6.7,4.3l0,0c-3.7,0-6.7-1.9-6.7-4.3V96.5c0-2.4,3-4.3,6.7-4.3l0,0
		c3.7,0,6.7,1.9,6.7,4.3V114.9z"/>
	<g>
		<polygon fill="#3F4B54" points="303,94 303,112.5 301.8,112.5 301.8,110.4 300.9,110.4 300.9,112.5 299.9,112.5 299.9,110.4 
			299,110.4 299,112.5 297.9,112.5 297.9,110.4 297,110.4 297,112.5 296,112.5 296,110.4 295.1,110.4 295.1,112.5 294,112.5 
			294,110.4 293.2,110.4 293.2,112.5 292.1,112.5 292.1,110.4 291.2,110.4 291.2,112.5 290.1,112.5 290.1,110.4 289.3,110.4 
			289.3,112.5 288.2,112.5 288.2,94 		"/>
		<rect x="287.6" y="109.7" fill="#54626C" width="15.9" height="2.9"/>
	</g>
	<g>
		<rect x="275.6" y="44.9" fill="#DCDCDB" width="14.4" height="8.9"/>
		<polygon fill="#2B568D" points="275.1,43.2 281.5,47.4 283.3,52 285,47.4 291.3,43.2 313.8,43.2 313.8,93.5 309.2,98.3 
			257.3,98.3 252.7,93.5 252.7,43.2 		"/>
		<g>
			<path fill="#5179A5" d="M313.8,93.5c0-2.2,0-50.3,0-50.3h-4.6v55C311.1,98.3,313.8,95.7,313.8,93.5z"/>
			<rect x="297.9" y="43.2" fill="#5179A5" width="4.6" height="55"/>
			<rect x="286.6" y="46.6" fill="#5179A5" width="4.6" height="51.7"/>
			<rect x="275.3" y="46.6" fill="#5179A5" width="4.6" height="51.7"/>
			<rect x="264" y="43.2" fill="#5179A5" width="4.6" height="55"/>
			<path fill="#5179A5" d="M257.3,43.2h-4.6c0,0,0,47.5,0,50.3s2.2,4.7,4.6,4.7V43.2z"/>
		</g>
		<g>
			<g>
				<g>
					<g>
						<rect x="252.7" y="54.4" fill="#224063" width="61.1" height="4.7"/>
						<g>
							<polygon fill="#224063" points="272.3,43.2 252.7,43.2 252.7,48 272.8,48 							"/>
							<polygon fill="#224063" points="291.7,48 313.8,48 313.8,43.2 291.8,43.2 							"/>
							<rect x="252.7" y="43.2" fill="#315078" width="4.6" height="4.7"/>
							<rect x="264" y="43.2" fill="#315078" width="4.6" height="4.7"/>
							<rect x="297.9" y="43.2" fill="#315078" width="4.6" height="4.7"/>
							<rect x="309.2" y="43.2" fill="#315078" width="4.6" height="4.7"/>
						</g>
						<rect x="252.7" y="54.4" fill="#315078" width="4.6" height="4.7"/>
						<rect x="264" y="54.4" fill="#315078" width="4.6" height="4.7"/>
						<rect x="275.3" y="54.4" fill="#315078" width="4.6" height="4.7"/>
						<rect x="286.6" y="54.4" fill="#315078" width="4.6" height="4.7"/>
						<rect x="297.9" y="54.4" fill="#315078" width="4.6" height="4.7"/>
						<rect x="309.2" y="54.4" fill="#315078" width="4.6" height="4.7"/>
					</g>
					<g>
						<rect x="252.7" y="65.6" fill="#224063" width="61.1" height="4.7"/>
						<rect x="252.7" y="65.6" fill="#315078" width="4.6" height="4.7"/>
						<rect x="264" y="65.6" fill="#315078" width="4.6" height="4.7"/>
						<rect x="275.3" y="65.6" fill="#315078" width="4.6" height="4.7"/>
						<rect x="286.6" y="65.6" fill="#315078" width="4.6" height="4.7"/>
						<rect x="297.9" y="65.6" fill="#315078" width="4.6" height="4.7"/>
						<rect x="309.2" y="65.6" fill="#315078" width="4.6" height="4.7"/>
					</g>
					<g>
						<rect x="252.7" y="76.8" fill="#224063" width="61.1" height="4.7"/>
						<rect x="252.7" y="76.8" fill="#315078" width="4.6" height="4.7"/>
						<rect x="264" y="76.8" fill="#315078" width="4.6" height="4.7"/>
						<rect x="275.3" y="76.8" fill="#315078" width="4.6" height="4.7"/>
						<rect x="286.6" y="76.8" fill="#315078" width="4.6" height="4.7"/>
						<rect x="297.9" y="76.8" fill="#315078" width="4.6" height="4.7"/>
						<rect x="309.2" y="76.8" fill="#315078" width="4.6" height="4.7"/>
					</g>
					<g>
						<rect x="252.7" y="88" fill="#224063" width="61.1" height="4.7"/>
						<rect x="252.7" y="88" fill="#315078" width="4.6" height="4.7"/>
						<rect x="264" y="88" fill="#315078" width="4.6" height="4.7"/>
						<rect x="275.3" y="88" fill="#315078" width="4.6" height="4.7"/>
						<rect x="286.6" y="88" fill="#315078" width="4.6" height="4.7"/>
						<rect x="297.9" y="88" fill="#315078" width="4.6" height="4.7"/>
						<rect x="309.2" y="88" fill="#315078" width="4.6" height="4.7"/>
					</g>
				</g>
			</g>
		</g>
		<line fill="none" stroke="#203954" stroke-linecap="round" stroke-linejoin="round" x1="283.3" y1="52" x2="283.3" y2="97.8"/>
		<g>
			<line fill="none" stroke="#203954" stroke-linecap="round" stroke-linejoin="round" x1="285" y1="48.1" x2="283.3" y2="52"/>
			<line fill="none" stroke="#203954" stroke-linecap="round" stroke-linejoin="round" x1="281.4" y1="48.1" x2="283.3" y2="52"/>
			<g>
				<polygon fill="#203954" points="292.5,43.2 285,47.4 284.5,48.7 291.4,55.5 298.3,43.2 				"/>
				<polygon fill="#203954" points="274,43.2 281.5,47.4 282,48.7 275.1,55.7 268.3,43.2 				"/>
				<polygon fill="#2B568D" points="291.3,43.2 285,47.4 291.4,53.8 297,43.2 				"/>
				<polygon fill="#2B568D" points="275.3,43.2 281.5,47.4 275.1,54 269.5,43.2 				"/>
			</g>
		</g>
		<g>
			<ellipse fill="#FFFFFF" cx="281.4" cy="56.8" rx="0.6" ry="0.6"/>
			<ellipse fill="#FFFFFF" cx="281.4" cy="67.9" rx="0.6" ry="0.6"/>
			<ellipse fill="#FFFFFF" cx="281.4" cy="79" rx="0.6" ry="0.6"/>
			<path fill="#FFFFFF" d="M280.8,90.1c0,0.3,0.3,0.6,0.6,0.6c0.3,0,0.6-0.3,0.6-0.6c0-0.3-0.3-0.6-0.6-0.6
				C281.1,89.5,280.8,89.8,280.8,90.1z"/>
		</g>
	</g>
	<g>
		<path fill="#599C60" d="M288,118.9v11.8h29.5c0,0,1.9-7.4-2.9-7.4s-13.7,1.3-13.7-4.5c3.3-1.8,4-4.2,4-4.2c-16.7,0-16.9,0-16.9,0
			V118.9L288,118.9L288,118.9z"/>
		<path fill="#AAD17E" d="M288,128v-9.1c0,0,8.4-0.7,8.4,4s9.7,3.6,14.2,3.6s6.5-0.2,6.5,2.1c-21.7,0-29,0-29,0L288,128z"/>
		<rect x="288" y="128" fill="#DFF2F6" width="29.9" height="2.7"/>
		<g>
			<path fill="#3B7439" d="M297.4,120.5c0,0.3,0.3,0.5,0.6,0.5h3c0.3,0,0.6-0.2,0.6-0.5l0,0c0-0.3-0.3-0.5-0.6-0.5h-3
				C297.7,119.9,297.4,120.2,297.4,120.5L297.4,120.5z"/>
			<path fill="#3B7439" d="M299.6,121.5c0,0.3,0.3,0.5,0.6,0.5h3c0.3,0,0.6-0.2,0.6-0.5l0,0c0-0.3-0.3-0.5-0.6-0.5h-3
				C299.9,120.9,299.6,121.2,299.6,121.5L299.6,121.5z"/>
			<path fill="#3B7439" d="M301.8,122.5c0,0.3,0.3,0.5,0.6,0.5h3c0.3,0,0.6-0.2,0.6-0.5l0,0c0-0.3-0.3-0.5-0.6-0.5h-3
				C302.1,121.9,301.8,122.2,301.8,122.5L301.8,122.5z"/>
			<path fill="#3B7439" d="M304.1,123.5c0,0.3,0.3,0.5,0.6,0.5h3c0.3,0,0.6-0.2,0.6-0.5l0,0c0-0.3-0.3-0.5-0.6-0.5h-3
				C304.3,122.9,304.1,123.2,304.1,123.5L304.1,123.5z"/>
		</g>
		<path fill="#AAD17E" d="M295.3,115.3h8c0,0-1.6,2.3-3,2.7h-5V115.3L295.3,115.3z"/>
		<rect x="288" y="130.7" fill="#599C60" width="29.9" height="1.1"/>
		<path fill="#FFFFFF" d="M288.8,123.1c0,1.7,1.4,3.1,3.2,3.1c1.8,0,3.2-1.4,3.2-3.1s-1.4-3.1-3.2-3.1
			C290.2,120,288.8,121.4,288.8,123.1z M290.3,123.1c0-0.9,0.7-1.7,1.7-1.7s1.7,0.7,1.7,1.7c0,0.9-0.7,1.7-1.7,1.7
			C291.1,124.8,290.3,124.1,290.3,123.1z"/>
	</g>
</g>
<g>
	<path fill="#433717" d="M262.8,18.1c0,0,2-9,9.2-9.3c2.4,0,3.1,1.8,3.1,1.8s0-2,3.9-2.1s8.5-3.8,7.2-8.5c4.8,1.4,5.1,7.4,5.1,8.2
		c1.9-0.6,2.2-2.9,2.2-2.9s1.9,1.3,1.7,5.6c3.4-0.5,7.7,2.5,8.4,7.1C296.2,17.9,262.8,18.1,262.8,18.1z"/>
	<g>
		<path fill="#E0AF79" d="M268.5,14.3l-5.7-9.1c-0.3-0.5-0.3-1.2,0.2-1.6c0.4-0.3,1.1-0.2,1.4,0.4l6,9.4c3.9-1.7,8.3-2.6,12.9-2.6
			s9,0.9,12.9,2.6l6-9.4c0.3-0.5,1-0.7,1.4-0.4s0.5,1,0.2,1.6l-5.8,9.1c9.1,4.6,15.6,13.4,16.4,23.6h-62.3
			C253,27.7,259.4,18.9,268.5,14.3"/>
		<path fill="#FFFFFF" d="M295.7,28.4c1.5,0,2.7-1.2,2.7-2.7s-1.2-2.7-2.7-2.7s-2.7,1.2-2.7,2.7C293,27.1,294.2,28.4,295.7,28.4"/>
		<path fill="#FFFFFF" d="M270.5,28.5c1.5,0,2.8-1.3,2.8-2.8c0-1.6-1.2-2.8-2.8-2.8c-1.5,0-2.8,1.3-2.8,2.8S268.9,28.5,270.5,28.5"
			/>
	</g>
	<path fill="#433717" d="M302.1,16.6c0,0-7.7,1.1-11.1-1.9c-3.9,3.5-10.6,4.6-17.1,0c-5.9,3.5-9.3,1.7-9.3,1.7s1.2-3.4,8.5-4.9
		c7.3-1.6,15.7-2.6,20.6-0.6C298.6,12.8,299.5,13.6,302.1,16.6z"/>
	<g>
		<g>
			<path fill="#433717" d="M313.1,35.8c0.8,0.4,0.9,2.2-0.1,2.4c0,0-0.2,0-0.2-0.1c0-0.2,0.1-0.3,0.2-0.4c0.1-0.2,0.1-0.5,0.2-0.7
				c0-0.3,0-0.5-0.1-0.8c0-0.1-0.2-0.3-0.2-0.4C313,35.7,313.1,35.8,313.1,35.8L313.1,35.8z"/>
		</g>
		<g>
			<path fill="#433717" d="M314.1,35.8c0.8,0.4,0.9,2.2-0.1,2.4c0,0-0.2,0-0.2-0.1c0-0.2,0.1-0.3,0.2-0.4c0.1-0.2,0.1-0.5,0.2-0.7
				c0-0.3,0-0.5-0.1-0.8c0-0.1-0.2-0.3-0.2-0.4C313.9,35.7,314.1,35.8,314.1,35.8L314.1,35.8z"/>
		</g>
		<g>
			<path fill="#433717" d="M312.1,35.8c0.8,0.4,0.9,2.2-0.1,2.4c0,0-0.2,0-0.2-0.1c0-0.2,0.1-0.3,0.2-0.4c0.1-0.2,0.1-0.5,0.2-0.7
				c0-0.3,0-0.5-0.1-0.8c0-0.1-0.2-0.3-0.2-0.4C311.9,35.7,312,35.8,312.1,35.8L312.1,35.8z"/>
		</g>
		<g>
			<path fill="#433717" d="M311,35.8c0.8,0.4,0.9,2.2-0.1,2.4c0,0-0.2,0-0.2-0.1c0-0.2,0.1-0.3,0.2-0.4c0.1-0.2,0.1-0.5,0.2-0.7
				c0-0.3,0-0.5-0.1-0.8c0-0.1-0.2-0.3-0.2-0.4C310.8,35.7,311,35.8,311,35.8L311,35.8z"/>
		</g>
		<g>
			<path fill="#433717" d="M309.9,35.8c0.8,0.4,0.9,2.2-0.1,2.4c0,0-0.2,0-0.2-0.1c0-0.2,0.1-0.3,0.2-0.4c0.1-0.2,0.1-0.5,0.2-0.7
				c0-0.3,0-0.5-0.1-0.8c0-0.1-0.2-0.3-0.2-0.4C309.8,35.7,309.9,35.8,309.9,35.8L309.9,35.8z"/>
		</g>
		<g>
			<path fill="#433717" d="M308.9,35.8c0.8,0.4,0.9,2.2-0.1,2.4c0,0-0.2,0-0.2-0.1c0-0.2,0.1-0.3,0.2-0.4c0.1-0.2,0.1-0.5,0.2-0.7
				c0-0.3,0-0.5-0.1-0.8c0-0.1-0.2-0.3-0.2-0.4C308.7,35.7,308.8,35.8,308.9,35.8L308.9,35.8z"/>
		</g>
		<g>
			<path fill="#433717" d="M307.8,35.8c0.8,0.4,0.9,2.2-0.1,2.4c0,0-0.2,0-0.2-0.1c0-0.2,0.1-0.3,0.2-0.4c0.1-0.2,0.1-0.5,0.2-0.7
				c0-0.3,0-0.5-0.1-0.8c0-0.1-0.2-0.3-0.2-0.4C307.6,35.7,307.8,35.8,307.8,35.8L307.8,35.8z"/>
		</g>
		<g>
			<path fill="#433717" d="M306.7,35.8c0.8,0.4,0.9,2.2-0.1,2.4c0,0-0.2,0-0.2-0.1c0-0.2,0.1-0.3,0.2-0.4c0.1-0.2,0.1-0.5,0.2-0.7
				c0-0.3,0-0.5-0.1-0.8c0-0.1-0.2-0.3-0.2-0.4C306.5,35.7,306.7,35.8,306.7,35.8L306.7,35.8z"/>
		</g>
		<g>
			<path fill="#433717" d="M305.7,35.8c0.8,0.4,0.9,2.2-0.1,2.4c0,0-0.2,0-0.2-0.1c0-0.2,0.1-0.3,0.2-0.4c0.1-0.2,0.1-0.5,0.2-0.7
				c0-0.3,0-0.5-0.1-0.8c0-0.1-0.2-0.3-0.2-0.4C305.5,35.7,305.6,35.8,305.7,35.8L305.7,35.8z"/>
		</g>
		<g>
			<path fill="#433717" d="M304.6,35.8c0.8,0.4,0.9,2.2-0.1,2.4c0,0-0.2,0-0.2-0.1c0-0.2,0.1-0.3,0.2-0.4c0.1-0.2,0.1-0.5,0.2-0.7
				c0-0.3,0-0.5-0.1-0.8c0-0.1-0.2-0.3-0.2-0.4C304.4,35.7,304.6,35.8,304.6,35.8L304.6,35.8z"/>
		</g>
		<g>
			<path fill="#433717" d="M303.5,35.8c0.8,0.4,0.9,2.2-0.1,2.4c0,0-0.2,0-0.2-0.1c0-0.2,0.1-0.3,0.2-0.4c0.1-0.2,0.1-0.5,0.2-0.7
				c0-0.3,0-0.5-0.1-0.8c0-0.1-0.2-0.3-0.2-0.4C303.3,35.7,303.5,35.8,303.5,35.8L303.5,35.8z"/>
		</g>
		<g>
			<path fill="#433717" d="M302.4,35.8c0.8,0.4,0.9,2.2-0.1,2.4c0,0-0.2,0-0.2-0.1c0-0.2,0.1-0.3,0.2-0.4c0.1-0.2,0.1-0.5,0.2-0.7
				c0-0.3,0-0.5-0.1-0.8c0-0.1-0.2-0.3-0.2-0.4C302.3,35.7,302.4,35.8,302.4,35.8L302.4,35.8z"/>
		</g>
		<g>
			<path fill="#433717" d="M301.4,35.8c0.8,0.4,0.9,2.2-0.1,2.4c0,0-0.2,0-0.2-0.1c0-0.2,0.1-0.3,0.2-0.4c0.1-0.2,0.1-0.5,0.2-0.7
				c0-0.3,0-0.5-0.1-0.8c0-0.1-0.2-0.3-0.2-0.4C301.2,35.7,301.3,35.8,301.4,35.8L301.4,35.8z"/>
		</g>
		<g>
			<path fill="#433717" d="M300.3,35.8c0.8,0.4,0.9,2.2-0.1,2.4c0,0-0.2,0-0.2-0.1c0-0.2,0.1-0.3,0.2-0.4c0.1-0.2,0.1-0.5,0.2-0.7
				c0-0.3,0-0.5-0.1-0.8c0-0.1-0.2-0.3-0.2-0.4C300.1,35.7,300.3,35.8,300.3,35.8L300.3,35.8z"/>
		</g>
		<g>
			<path fill="#433717" d="M299.2,35.8c0.8,0.4,0.9,2.2-0.1,2.4c0,0-0.2,0-0.2-0.1c0-0.2,0.1-0.3,0.2-0.4c0.1-0.2,0.1-0.5,0.2-0.7
				c0-0.3,0-0.5-0.1-0.8c0-0.1-0.2-0.3-0.2-0.4C299.1,35.7,299.2,35.8,299.2,35.8L299.2,35.8z"/>
		</g>
		<g>
			<path fill="#433717" d="M298.2,35.8c0.8,0.4,0.9,2.2-0.1,2.4c0,0-0.2,0-0.2-0.1c0-0.2,0.1-0.3,0.2-0.4c0.1-0.2,0.1-0.5,0.2-0.7
				c0-0.3,0-0.5-0.1-0.8c0-0.1-0.2-0.3-0.2-0.4C298,35.7,298.1,35.8,298.2,35.8L298.2,35.8z"/>
		</g>
		<g>
			<path fill="#433717" d="M297.1,35.8c0.8,0.4,0.9,2.2-0.1,2.4c0,0-0.2,0-0.2-0.1c0-0.2,0.1-0.3,0.2-0.4c0.1-0.2,0.1-0.5,0.2-0.7
				c0-0.3,0-0.5-0.1-0.8c0-0.1-0.2-0.3-0.2-0.4C296.9,35.7,297.1,35.8,297.1,35.8L297.1,35.8z"/>
		</g>
		<g>
			<path fill="#433717" d="M296,35.8c0.8,0.4,0.9,2.2-0.1,2.4c0,0-0.2,0-0.2-0.1c0-0.2,0.1-0.3,0.2-0.4c0.1-0.2,0.1-0.5,0.2-0.7
				c0-0.3,0-0.5-0.1-0.8c0-0.1-0.2-0.3-0.2-0.4C295.8,35.7,296,35.8,296,35.8L296,35.8z"/>
		</g>
		<g>
			<path fill="#433717" d="M295,35.8c0.8,0.4,0.9,2.2-0.1,2.4c0,0-0.2,0-0.2-0.1c0-0.2,0.1-0.3,0.2-0.4c0.1-0.2,0.1-0.5,0.2-0.7
				c0-0.3,0-0.5-0.1-0.8c0-0.1-0.2-0.3-0.2-0.4C294.8,35.7,294.9,35.8,295,35.8L295,35.8z"/>
		</g>
		<g>
			<path fill="#433717" d="M293.9,35.8c0.8,0.4,0.9,2.2-0.1,2.4c0,0-0.2,0-0.2-0.1c0-0.2,0.1-0.3,0.2-0.4c0.1-0.2,0.1-0.5,0.2-0.7
				c0-0.3,0-0.5-0.1-0.8c0-0.1-0.2-0.3-0.2-0.4C293.7,35.7,293.9,35.8,293.9,35.8L293.9,35.8z"/>
		</g>
		<g>
			<path fill="#433717" d="M292.8,35.8c0.8,0.4,0.9,2.2-0.1,2.4c0,0-0.2,0-0.2-0.1c0-0.2,0.1-0.3,0.2-0.4c0.1-0.2,0.1-0.5,0.2-0.7
				c0-0.3,0-0.5-0.1-0.8c0-0.1-0.2-0.3-0.2-0.4C292.6,35.7,292.8,35.8,292.8,35.8L292.8,35.8z"/>
		</g>
		<g>
			<path fill="#433717" d="M291.7,35.8c0.8,0.4,0.9,2.2-0.1,2.4c0,0-0.2,0-0.2-0.1c0-0.2,0.1-0.3,0.2-0.4c0.1-0.2,0.1-0.5,0.2-0.7
				c0-0.3,0-0.5-0.1-0.8c0-0.1-0.2-0.3-0.2-0.4C291.6,35.7,291.7,35.8,291.7,35.8L291.7,35.8z"/>
		</g>
		<g>
			<path fill="#433717" d="M290.7,35.8c0.8,0.4,0.9,2.2-0.1,2.4c0,0-0.2,0-0.2-0.1c0-0.2,0.1-0.3,0.2-0.4c0.1-0.2,0.1-0.5,0.2-0.7
				c0-0.3,0-0.5-0.1-0.8c0-0.1-0.2-0.3-0.2-0.4C290.5,35.7,290.7,35.8,290.7,35.8L290.7,35.8z"/>
		</g>
		<g>
			<path fill="#433717" d="M289.6,35.8c0.8,0.4,0.9,2.2-0.1,2.4c0,0-0.2,0-0.2-0.1c0-0.2,0.1-0.3,0.2-0.4c0.1-0.2,0.1-0.5,0.2-0.7
				c0-0.3,0-0.5-0.1-0.8c0-0.1-0.2-0.3-0.2-0.4C289.4,35.7,289.6,35.8,289.6,35.8L289.6,35.8z"/>
		</g>
		<g>
			<path fill="#433717" d="M288.5,35.8c0.8,0.4,0.9,2.2-0.1,2.4c0,0-0.2,0-0.2-0.1c0-0.2,0.1-0.3,0.2-0.4c0.1-0.2,0.1-0.5,0.2-0.7
				c0-0.3,0-0.5-0.1-0.8c0-0.1-0.2-0.3-0.2-0.4C288.4,35.7,288.5,35.8,288.5,35.8L288.5,35.8z"/>
		</g>
		<g>
			<path fill="#433717" d="M287.5,35.8c0.8,0.4,0.9,2.2-0.1,2.4c0,0-0.2,0-0.2-0.1c0-0.2,0.1-0.3,0.2-0.4c0.1-0.2,0.1-0.5,0.2-0.7
				c0-0.3,0-0.5-0.1-0.8c0-0.1-0.2-0.3-0.2-0.4C287.3,35.7,287.4,35.8,287.5,35.8L287.5,35.8z"/>
		</g>
		<g>
			<path fill="#433717" d="M286.4,35.8c0.8,0.4,0.9,2.2-0.1,2.4c0,0-0.2,0-0.2-0.1c0-0.2,0.1-0.3,0.2-0.4c0.1-0.2,0.1-0.5,0.2-0.7
				c0-0.3,0-0.5-0.1-0.8c0-0.1-0.2-0.3-0.2-0.4C286.2,35.7,286.4,35.8,286.4,35.8L286.4,35.8z"/>
		</g>
		<g>
			<path fill="#433717" d="M285.3,35.8c0.8,0.4,0.9,2.2-0.1,2.4c0,0-0.2,0-0.2-0.1c0-0.2,0.1-0.3,0.2-0.4c0.1-0.2,0.1-0.5,0.2-0.7
				c0-0.3,0-0.5-0.1-0.8c0-0.1-0.2-0.3-0.2-0.4C285.1,35.7,285.3,35.8,285.3,35.8L285.3,35.8z"/>
		</g>
		<g>
			<path fill="#433717" d="M284.2,35.8c0.8,0.4,0.9,2.2-0.1,2.4c0,0-0.2,0-0.2-0.1c0-0.2,0.1-0.3,0.2-0.4c0.1-0.2,0.1-0.5,0.2-0.7
				c0-0.3,0-0.5-0.1-0.8c0-0.1-0.2-0.3-0.2-0.4C284,35.7,284.2,35.8,284.2,35.8L284.2,35.8z"/>
		</g>
		<g>
			<path fill="#433717" d="M253.4,35.8c-0.8,0.4-0.9,2.2,0.1,2.4c0,0,0.2,0,0.2-0.1c0-0.2-0.1-0.3-0.2-0.4c-0.1-0.2-0.1-0.5-0.2-0.7
				c0-0.3,0-0.5,0.1-0.8c0-0.1,0.2-0.3,0.2-0.4C253.6,35.7,253.4,35.8,253.4,35.8L253.4,35.8z"/>
		</g>
		<g>
			<path fill="#433717" d="M252.5,35.8c-0.8,0.4-0.9,2.2,0.1,2.4c0,0,0.2,0,0.2-0.1c0-0.2-0.1-0.3-0.2-0.4c-0.1-0.2-0.1-0.5-0.2-0.7
				c0-0.3,0-0.5,0.1-0.8c0-0.1,0.2-0.3,0.2-0.4C252.6,35.7,252.5,35.8,252.5,35.8L252.5,35.8z"/>
		</g>
		<g>
			<path fill="#433717" d="M254.5,35.8c-0.8,0.4-0.9,2.2,0.1,2.4c0,0,0.2,0,0.2-0.1c0-0.2-0.1-0.3-0.2-0.4c-0.1-0.2-0.1-0.5-0.2-0.7
				c0-0.3,0-0.5,0.1-0.8c0-0.1,0.2-0.3,0.2-0.4C254.7,35.7,254.5,35.8,254.5,35.8L254.5,35.8z"/>
		</g>
		<g>
			<path fill="#433717" d="M255.5,35.8c-0.8,0.4-0.9,2.2,0.1,2.4c0,0,0.2,0,0.2-0.1c0-0.2-0.1-0.3-0.2-0.4c-0.1-0.2-0.1-0.5-0.2-0.7
				c0-0.3,0-0.5,0.1-0.8c0-0.1,0.2-0.3,0.2-0.4C255.7,35.7,255.6,35.8,255.5,35.8L255.5,35.8z"/>
		</g>
		<g>
			<path fill="#433717" d="M256.6,35.8c-0.8,0.4-0.9,2.2,0.1,2.4c0,0,0.2,0,0.2-0.1c0-0.2-0.1-0.3-0.2-0.4c-0.1-0.2-0.1-0.5-0.2-0.7
				c0-0.3,0-0.5,0.1-0.8c0-0.1,0.2-0.3,0.2-0.4C256.8,35.7,256.6,35.8,256.6,35.8L256.6,35.8z"/>
		</g>
		<g>
			<path fill="#433717" d="M257.7,35.8c-0.8,0.4-0.9,2.2,0.1,2.4c0,0,0.2,0,0.2-0.1c0-0.2-0.1-0.3-0.2-0.4c-0.1-0.2-0.1-0.5-0.2-0.7
				c0-0.3,0-0.5,0.1-0.8c0-0.1,0.2-0.3,0.2-0.4C257.9,35.7,257.7,35.8,257.7,35.8L257.7,35.8z"/>
		</g>
		<g>
			<path fill="#433717" d="M258.8,35.8c-0.8,0.4-0.9,2.2,0.1,2.4c0,0,0.2,0,0.2-0.1c0-0.2-0.1-0.3-0.2-0.4c-0.1-0.2-0.1-0.5-0.2-0.7
				c0-0.3,0-0.5,0.1-0.8c0-0.1,0.2-0.3,0.2-0.4C258.9,35.7,258.8,35.8,258.8,35.8L258.8,35.8z"/>
		</g>
		<g>
			<path fill="#433717" d="M259.8,35.8c-0.8,0.4-0.9,2.2,0.1,2.4c0,0,0.2,0,0.2-0.1c0-0.2-0.1-0.3-0.2-0.4c-0.1-0.2-0.1-0.5-0.2-0.7
				c0-0.3,0-0.5,0.1-0.8c0-0.1,0.2-0.3,0.2-0.4C260,35.7,259.9,35.8,259.8,35.8L259.8,35.8z"/>
		</g>
		<g>
			<path fill="#433717" d="M260.9,35.8c-0.8,0.4-0.9,2.2,0.1,2.4c0,0,0.2,0,0.2-0.1c0-0.2-0.1-0.3-0.2-0.4c-0.1-0.2-0.1-0.5-0.2-0.7
				c0-0.3,0-0.5,0.1-0.8c0-0.1,0.2-0.3,0.2-0.4C261.1,35.7,260.9,35.8,260.9,35.8L260.9,35.8z"/>
		</g>
		<g>
			<path fill="#433717" d="M262,35.8c-0.8,0.4-0.9,2.2,0.1,2.4c0,0,0.2,0,0.2-0.1c0-0.2-0.1-0.3-0.2-0.4c-0.1-0.2-0.1-0.5-0.2-0.7
				c0-0.3,0-0.5,0.1-0.8c0-0.1,0.2-0.3,0.2-0.4C262.1,35.7,262,35.8,262,35.8L262,35.8z"/>
		</g>
		<g>
			<path fill="#433717" d="M263,35.8c-0.8,0.4-0.9,2.2,0.1,2.4c0,0,0.2,0,0.2-0.1c0-0.2-0.1-0.3-0.2-0.4c-0.1-0.2-0.1-0.5-0.2-0.7
				c0-0.3,0-0.5,0.1-0.8c0-0.1,0.2-0.3,0.2-0.4C263.2,35.7,263.1,35.8,263,35.8L263,35.8z"/>
		</g>
		<g>
			<path fill="#433717" d="M264.1,35.8c-0.8,0.4-0.9,2.2,0.1,2.4c0,0,0.2,0,0.2-0.1c0-0.2-0.1-0.3-0.2-0.4c-0.1-0.2-0.1-0.5-0.2-0.7
				c0-0.3,0-0.5,0.1-0.8c0-0.1,0.2-0.3,0.2-0.4C264.3,35.7,264.1,35.8,264.1,35.8L264.1,35.8z"/>
		</g>
		<g>
			<path fill="#433717" d="M265.2,35.8c-0.8,0.4-0.9,2.2,0.1,2.4c0,0,0.2,0,0.2-0.1c0-0.2-0.1-0.3-0.2-0.4c-0.1-0.2-0.1-0.5-0.2-0.7
				c0-0.3,0-0.5,0.1-0.8c0-0.1,0.2-0.3,0.2-0.4C265.4,35.7,265.2,35.8,265.2,35.8L265.2,35.8z"/>
		</g>
		<g>
			<path fill="#433717" d="M266.2,35.8c-0.8,0.4-0.9,2.2,0.1,2.4c0,0,0.2,0,0.2-0.1c0-0.2-0.1-0.3-0.2-0.4c-0.1-0.2-0.1-0.5-0.2-0.7
				c0-0.3,0-0.5,0.1-0.8c0-0.1,0.2-0.3,0.2-0.4C266.4,35.7,266.3,35.8,266.2,35.8L266.2,35.8z"/>
		</g>
		<g>
			<path fill="#433717" d="M267.3,35.8c-0.8,0.4-0.9,2.2,0.1,2.4c0,0,0.2,0,0.2-0.1c0-0.2-0.1-0.3-0.2-0.4c-0.1-0.2-0.1-0.5-0.2-0.7
				c0-0.3,0-0.5,0.1-0.8c0-0.1,0.2-0.3,0.2-0.4C267.5,35.7,267.3,35.8,267.3,35.8L267.3,35.8z"/>
		</g>
		<g>
			<path fill="#433717" d="M268.4,35.8c-0.8,0.4-0.9,2.2,0.1,2.4c0,0,0.2,0,0.2-0.1c0-0.2-0.1-0.3-0.2-0.4c-0.1-0.2-0.1-0.5-0.2-0.7
				c0-0.3,0-0.5,0.1-0.8c0-0.1,0.2-0.3,0.2-0.4C268.6,35.7,268.4,35.8,268.4,35.8L268.4,35.8z"/>
		</g>
		<g>
			<path fill="#433717" d="M269.5,35.8c-0.8,0.4-0.9,2.2,0.1,2.4c0,0,0.2,0,0.2-0.1c0-0.2-0.1-0.3-0.2-0.4c-0.1-0.2-0.1-0.5-0.2-0.7
				c0-0.3,0-0.5,0.1-0.8c0-0.1,0.2-0.3,0.2-0.4C269.6,35.7,269.5,35.8,269.5,35.8L269.5,35.8z"/>
		</g>
		<g>
			<path fill="#433717" d="M270.5,35.8c-0.8,0.4-0.9,2.2,0.1,2.4c0,0,0.2,0,0.2-0.1c0-0.2-0.1-0.3-0.2-0.4c-0.1-0.2-0.1-0.5-0.2-0.7
				c0-0.3,0-0.5,0.1-0.8c0-0.1,0.2-0.3,0.2-0.4C270.7,35.7,270.5,35.8,270.5,35.8L270.5,35.8z"/>
		</g>
		<g>
			<path fill="#433717" d="M271.6,35.8c-0.8,0.4-0.9,2.2,0.1,2.4c0,0,0.2,0,0.2-0.1c0-0.2-0.1-0.3-0.2-0.4c-0.1-0.2-0.1-0.5-0.2-0.7
				c0-0.3,0-0.5,0.1-0.8c0-0.1,0.2-0.3,0.2-0.4C271.8,35.7,271.6,35.8,271.6,35.8L271.6,35.8z"/>
		</g>
		<g>
			<path fill="#433717" d="M272.7,35.8c-0.8,0.4-0.9,2.2,0.1,2.4c0,0,0.2,0,0.2-0.1c0-0.2-0.1-0.3-0.2-0.4c-0.1-0.2-0.1-0.5-0.2-0.7
				c0-0.3,0-0.5,0.1-0.8c0-0.1,0.2-0.3,0.2-0.4C272.8,35.7,272.7,35.8,272.7,35.8L272.7,35.8z"/>
		</g>
		<g>
			<path fill="#433717" d="M273.7,35.8c-0.8,0.4-0.9,2.2,0.1,2.4c0,0,0.2,0,0.2-0.1c0-0.2-0.1-0.3-0.2-0.4c-0.1-0.2-0.1-0.5-0.2-0.7
				c0-0.3,0-0.5,0.1-0.8c0-0.1,0.2-0.3,0.2-0.4C273.9,35.7,273.8,35.8,273.7,35.8L273.7,35.8z"/>
		</g>
		<g>
			<path fill="#433717" d="M274.8,35.8c-0.8,0.4-0.9,2.2,0.1,2.4c0,0,0.2,0,0.2-0.1c0-0.2-0.1-0.3-0.2-0.4c-0.1-0.2-0.1-0.5-0.2-0.7
				c0-0.3,0-0.5,0.1-0.8c0-0.1,0.2-0.3,0.2-0.4C275,35.7,274.8,35.8,274.8,35.8L274.8,35.8z"/>
		</g>
		<g>
			<path fill="#433717" d="M275.9,35.8c-0.8,0.4-0.9,2.2,0.1,2.4c0,0,0.2,0,0.2-0.1c0-0.2-0.1-0.3-0.2-0.4c-0.1-0.2-0.1-0.5-0.2-0.7
				c0-0.3,0-0.5,0.1-0.8c0-0.1,0.2-0.3,0.2-0.4C276,35.7,275.9,35.8,275.9,35.8L275.9,35.8z"/>
		</g>
		<g>
			<path fill="#433717" d="M276.9,35.8c-0.8,0.4-0.9,2.2,0.1,2.4c0,0,0.2,0,0.2-0.1c0-0.2-0.1-0.3-0.2-0.4c-0.1-0.2-0.1-0.5-0.2-0.7
				c0-0.3,0-0.5,0.1-0.8c0-0.1,0.2-0.3,0.2-0.4C277.1,35.7,277,35.8,276.9,35.8L276.9,35.8z"/>
		</g>
		<g>
			<path fill="#433717" d="M278,35.8c-0.8,0.4-0.9,2.2,0.1,2.4c0,0,0.2,0,0.2-0.1c0-0.2-0.1-0.3-0.2-0.4c-0.1-0.2-0.1-0.5-0.2-0.7
				c0-0.3,0-0.5,0.1-0.8c0-0.1,0.2-0.3,0.2-0.4C278.2,35.7,278,35.8,278,35.8L278,35.8z"/>
		</g>
		<g>
			<path fill="#433717" d="M279.1,35.8c-0.8,0.4-0.9,2.2,0.1,2.4c0,0,0.2,0,0.2-0.1c0-0.2-0.1-0.3-0.2-0.4c-0.1-0.2-0.1-0.5-0.2-0.7
				c0-0.3,0-0.5,0.1-0.8c0-0.1,0.2-0.3,0.2-0.4C279.3,35.7,279.1,35.8,279.1,35.8L279.1,35.8z"/>
		</g>
		<g>
			<path fill="#433717" d="M280.2,35.8c-0.8,0.4-0.9,2.2,0.1,2.4c0,0,0.2,0,0.2-0.1c0-0.2-0.1-0.3-0.2-0.4c-0.1-0.2-0.1-0.5-0.2-0.7
				c0-0.3,0-0.5,0.1-0.8c0-0.1,0.2-0.3,0.2-0.4C280.3,35.7,280.2,35.8,280.2,35.8L280.2,35.8z"/>
		</g>
		<g>
			<path fill="#433717" d="M281.3,35.8c-0.8,0.4-0.9,2.2,0.1,2.4c0,0,0.2,0,0.2-0.1c0-0.2-0.1-0.3-0.2-0.4c-0.1-0.2-0.1-0.5-0.2-0.7
				c0-0.3,0-0.5,0.1-0.8c0-0.1,0.2-0.3,0.2-0.4C281.4,35.7,281.3,35.8,281.3,35.8L281.3,35.8z"/>
		</g>
		<g>
			<path fill="#433717" d="M282.3,35.8c-0.8,0.4-0.9,2.2,0.1,2.4c0,0,0.2,0,0.2-0.1c0-0.2-0.1-0.3-0.2-0.4c-0.1-0.2-0.1-0.5-0.2-0.7
				c0-0.3,0-0.5,0.1-0.8c0-0.1,0.2-0.3,0.2-0.4C282.5,35.7,282.4,35.8,282.3,35.8L282.3,35.8z"/>
		</g>
		<path fill="#433717" d="M283.3,36c0,0,0.3,0,0.3,0.5s0,1.6-0.3,1.6S283,37,283,36.5S283.3,36,283.3,36z"/>
		<g>
			<g>
				<path fill="#433717" d="M284,30.8c0.3,0,0.7,0.1,1,0.2c0.1,0.1,0.9,0.5,0.7,0.7c-0.1,0.1-0.4,0-0.5,0c-0.3-0.1-0.4-0.4-0.6-0.6
					C284.5,31,284.3,30.9,284,30.8C284,30.9,284,30.8,284,30.8L284,30.8z"/>
			</g>
			<g>
				<path fill="#433717" d="M284.5,31.8c0-0.1,0.3,0,0.3,0c0.2,0.1,0.4,0.2,0.6,0.3c0.1,0.1,0.2,0.1,0.4,0.2
					c0.1,0.1,0.2,0.2,0.2,0.3s-0.1,0.1-0.2,0.1s-0.2-0.1-0.3-0.1c-0.2-0.2-0.4-0.4-0.6-0.5c-0.1-0.1-0.1-0.1-0.2-0.1
					C284.6,31.9,284.5,31.9,284.5,31.8L284.5,31.8z"/>
			</g>
			<g>
				<path fill="#433717" d="M285.7,31.1c0.1-0.1,0.4,0.1,0.5,0.1c0.2,0.1,0.4,0.2,0.6,0.3c0.2,0.1,0.3,0.3,0.5,0.4
					c0.1,0.1,0.1,0.2,0.2,0.3c0,0.1,0.1,0.2,0,0.3c-0.2,0.2-0.5-0.2-0.5-0.3c-0.2-0.2-0.3-0.4-0.5-0.6c-0.1-0.1-0.2-0.2-0.4-0.2
					c-0.1,0-0.1-0.1-0.2-0.1C285.8,31.2,285.7,31.1,285.7,31.1L285.7,31.1z"/>
			</g>
			<g>
				<path fill="#433717" d="M286.2,32c0.2,0,0.3,0.2,0.5,0.3c0.1,0.1,0.3,0.3,0.4,0.4c0.1,0.1,0.1,0.2,0.2,0.3s0.1,0.2,0.2,0.3
					s0.1,0.3,0,0.3s-0.2,0-0.2-0.1c-0.1-0.1-0.1-0.2-0.2-0.3c0-0.1-0.1-0.1-0.1-0.2c0-0.1-0.1-0.2-0.2-0.3s-0.2-0.3-0.3-0.4
					C286.4,32.2,286.4,32.2,286.2,32C286.2,32.2,286.1,32.1,286.2,32C286.1,32,286.1,32,286.2,32z"/>
			</g>
			<g>
				<path fill="#433717" d="M286.3,33.1c0.1,0,0.1,0.1,0.2,0.1c0.1,0.1,0.1,0.1,0.2,0.2c0.1,0.1,0.3,0.5,0,0.5
					c-0.2,0-0.4-0.2-0.4-0.4c0-0.1,0-0.1,0-0.2C286.3,33.3,286.2,33.2,286.3,33.1L286.3,33.1z"/>
			</g>
			<g>
				<path fill="#433717" d="M287.7,33c0-0.1,0.1,0.1,0.2,0.1c0.1,0.1,0.3,0.3,0.4,0.4c0.1,0.1,0.5,0.7,0.4,0.8h-0.3
					c-0.1-0.1-0.1-0.2-0.1-0.3s-0.1-0.3-0.2-0.4c-0.1-0.1-0.1-0.2-0.2-0.3C287.7,33.2,287.7,33.1,287.7,33z"/>
			</g>
			<g>
				<path fill="#433717" d="M287.5,34.2C287.5,34.2,287.6,34.2,287.5,34.2c0.2,0.2,0.2,0.3,0.3,0.4c0,0.1,0.1,0.2,0.1,0.3
					s-0.1,0.2-0.1,0.2h-0.1c-0.3-0.1-0.3-0.4-0.3-0.7c0-0.1,0-0.2,0-0.2C287.4,34.1,287.4,34.1,287.5,34.2z"/>
			</g>
		</g>
		<g>
			<g>
				<path fill="#433717" d="M282.5,30.8c-0.3,0-0.7,0.1-1,0.2c-0.1,0.1-0.9,0.5-0.7,0.7c0.1,0.1,0.4,0,0.5,0
					c0.3-0.1,0.4-0.4,0.6-0.6C282.1,31,282.3,30.9,282.5,30.8C282.6,30.9,282.6,30.8,282.5,30.8L282.5,30.8z"/>
			</g>
			<g>
				<path fill="#433717" d="M282.1,31.8c0-0.1-0.3,0-0.3,0c-0.2,0.1-0.4,0.2-0.6,0.3c-0.1,0.1-0.2,0.1-0.4,0.2
					c-0.1,0.1-0.2,0.2-0.2,0.3s0.1,0.1,0.2,0.1s0.2-0.1,0.3-0.1c0.2-0.2,0.4-0.4,0.6-0.5c0.1-0.1,0.1-0.1,0.2-0.1
					C281.9,31.9,282,31.9,282.1,31.8L282.1,31.8z"/>
			</g>
			<g>
				<path fill="#433717" d="M280.8,31.1c-0.1-0.1-0.4,0.1-0.5,0.1c-0.2,0.1-0.4,0.2-0.6,0.3c-0.2,0.1-0.3,0.3-0.5,0.4
					c-0.1,0.1-0.1,0.2-0.2,0.3c0,0.1-0.1,0.2,0,0.3c0.2,0.2,0.5-0.2,0.5-0.3c0.2-0.2,0.3-0.4,0.5-0.6c0.1-0.1,0.2-0.2,0.4-0.2
					c0.1,0,0.1-0.1,0.2-0.1C280.7,31.2,280.8,31.1,280.8,31.1L280.8,31.1z"/>
			</g>
			<g>
				<path fill="#433717" d="M280.4,32c-0.2,0-0.3,0.2-0.5,0.3c-0.1,0.1-0.3,0.3-0.4,0.4c-0.1,0.1-0.1,0.2-0.2,0.3s-0.1,0.2-0.2,0.3
					s-0.1,0.3,0,0.3s0.2,0,0.2-0.1c0.1-0.1,0.1-0.2,0.2-0.3c0-0.1,0.1-0.1,0.1-0.2c0-0.1,0.1-0.2,0.2-0.3s0.2-0.3,0.3-0.4
					C280.2,32.2,280.2,32.2,280.4,32C280.4,32.2,280.4,32.1,280.4,32C280.5,32,280.4,32,280.4,32z"/>
			</g>
			<g>
				<path fill="#433717" d="M280.2,33.1c-0.1,0-0.1,0.1-0.2,0.1c-0.1,0.1-0.1,0.1-0.2,0.2c-0.1,0.1-0.3,0.5,0,0.5
					c0.2,0,0.4-0.2,0.4-0.4c0-0.1,0-0.1,0-0.2C280.3,33.3,280.3,33.2,280.2,33.1C280.3,33.1,280.3,33.1,280.2,33.1z"/>
			</g>
			<g>
				<path fill="#433717" d="M278.9,33c0-0.1-0.1,0.1-0.2,0.1c-0.1,0.1-0.3,0.3-0.4,0.4c-0.1,0.1-0.5,0.7-0.4,0.8h0.3
					c0.1-0.1,0.1-0.2,0.1-0.3s0.1-0.3,0.2-0.4c0.1-0.1,0.1-0.2,0.2-0.3C278.8,33.2,278.9,33.1,278.9,33z"/>
			</g>
			<g>
				<path fill="#433717" d="M279,34.2L279,34.2c-0.2,0.2-0.2,0.3-0.3,0.4c0,0.1-0.1,0.2-0.1,0.3s0.1,0.2,0.1,0.2h0.1
					c0.3-0.1,0.3-0.4,0.3-0.7c0-0.1,0-0.2,0-0.2C279.2,34.1,279.1,34.1,279,34.2z"/>
			</g>
		</g>
		<path fill="#433717" d="M288.7,35.3c-0.1,0-0.2-0.2-0.2-0.3s0-0.2,0.1-0.2c0.1-0.1,0.2,0.2,0.2,0.3
			C288.8,35.1,288.8,35.3,288.7,35.3z"/>
		<path fill="#433717" d="M277.9,35.3c0.1,0,0.2-0.2,0.2-0.3s0-0.2-0.1-0.2c-0.1-0.1-0.2,0.2-0.2,0.3
			C277.7,35.1,277.7,35.3,277.9,35.3z"/>
	</g>
	<path opacity="0.4" fill="#FFFFFF" enable-background="new    " d="M259.1,25.6c0.1,1.5,0.5,3.5,0.8,4.3c0.2,0.8,0.7,2,2,3.1
		c1.2,1,2.8,2,5,2.3c2.1,0.3,4.7,0.3,6.3-0.2c2.1-0.6,3.3-1.9,4.2-3.2c0.6-0.9,1.3-2.2,1.9-3.6c0.4-0.9,0.6-1.8,0.8-2.6l1.1-4.1
		l-6.6-3.4h-10.2l-4.5,1.5l-0.8,2.5C259.1,22.3,259.1,25.5,259.1,25.6z"/>
	<path opacity="0.4" fill="#FFFFFF" enable-background="new    " d="M307.5,22.3l-0.8-2.5l-4.5-1.5H292l-6.6,3.4l1.1,4.1
		c0.2,0.8,0.5,1.7,0.8,2.6c0.6,1.4,1.3,2.7,1.9,3.6c0.9,1.3,2.1,2.6,4.2,3.2c1.6,0.5,4.2,0.5,6.3,0.2c2.3-0.3,3.9-1.3,5-2.3
		c1.3-1.1,1.8-2.3,2-3.1c0.2-0.8,0.6-2.7,0.8-4.3C307.5,25.5,307.5,22.3,307.5,22.3z"/>
	<path fill="#020202" d="M308.7,21.2c-0.7,0-1.3-0.2-1.3-0.5s0.6-0.5,1.3-0.5c0.7,0,1.3,0.2,1.3,0.5C309.9,21,309.4,21.2,308.7,21.2
		 M287.3,24.9c-0.3-1.1-0.4-2.1-0.3-2.7c0.3-1.8,4.9-3.3,10-3.3c0,0,2.5-0.1,4.6,0.2c2.1,0.3,3.6,1,4.5,2.6c0.4,0.7,0.4,2,0.3,3.3
		c0,0.1,0.1,0.2,0.4,0.2c0.2,0,1.4,0.3,1.6,0.2c0.1,0,0.1-0.2,0.2-0.3c0.4-1.7,2.3-2,2.3-2l-0.3-5.1c-3.4,0-9.6-1-13.3-1
		c-3.7,0-7.3,0.6-9.9,1.2s-4.1,0.5-4.1,0.5s-1.5,0.1-4.1-0.5S273,17,269.3,17c-3.7,0-9.9,1-13.3,1l-0.3,5.1c0,0,1.9,0.2,2.3,2
		c0,0.1,0,0.2,0,0.2c0,0.1,0.1,0.1,0.3,0.1c0.1,0,1.8-0.2,1.8-0.4c0-0.2,0-0.4,0-0.4c-0.1-1.2,0-2.4,0.4-3c0.8-1.6,2.4-2.3,4.5-2.6
		c2.1-0.3,4.6-0.2,4.6-0.2c5.1,0,9.7,1.5,10,3.3c0.1,0.6,0,1.5-0.3,2.6c0,0.1-0.1,0.2,0,0.3c0,0.1,1.6,0.4,1.7,0.4
		c0.1-0.1,0,0,0.2-0.2c0.5-0.8,1.1-1.2,2.1-1.2c1.1,0,1.8,0.5,2.2,1.4C285.6,25.5,287.4,25.2,287.3,24.9 M257.9,21.2
		c-0.7,0-1.3-0.2-1.3-0.5s0.6-0.5,1.3-0.5c0.7,0,1.3,0.2,1.3,0.5C259.2,21,258.6,21.2,257.9,21.2"/>
	<path fill="#FFFFFF" d="M308.7,21.2c0.7,0,1.3-0.2,1.3-0.5s-0.6-0.5-1.3-0.5c-0.7,0-1.3,0.2-1.3,0.5C307.4,21,308,21.2,308.7,21.2"
		/>
	<path fill="#FFFFFF" d="M257.9,21.2c0.7,0,1.3-0.2,1.3-0.5s-0.6-0.5-1.3-0.5c-0.7,0-1.3,0.2-1.3,0.5S257.2,21.2,257.9,21.2"/>
</g>
<g>
	<g>
		<path fill="#78C257" d="M12.2,99.4c0,3.4-2.7,6.1-6.1,6.1S0,102.8,0,99.4V73.8c0-3.4,2.7-6.1,6.1-6.1s6.1,2.7,6.1,6.1V99.4z
			 M71,102l-3.3-39.4L13.4,67l3.3,39.4c0.3,3.6,3.4,6.2,7,5.9l2.3-0.2v12.7c0,3.4,2.7,6.1,6.1,6.1s6.1-2.7,6.1-6.1v-13.7l7.9-0.6
			v14.3c0,3.4,2.7,6.1,6.1,6.1c3.4,0,6.1-2.7,6.1-6.1v-15.3l2.3-0.2l4.4-0.4C68.7,108.7,71.3,105.6,71,102L71,102z M72.6,69.9
			c2.7,2,6.5,1.5,8.6-1.2l13-17.3c2-2.7,1.5-6.5-1.2-8.6c0,0-0.1,0-0.1-0.1l4.8-5.1c0.5-0.4,0.5-1.2,0-1.6c-0.4-0.5-1.2-0.5-1.6,0
			l-5.6,5.3l1.4-7.6c0.2-0.6-0.2-1.3-0.8-1.5c-0.6-0.2-1.3,0.2-1.5,0.8L87,42c-1,0.4-2,1.1-2.7,2l-13,17.3
			C69.3,64,69.9,67.8,72.6,69.9z M25.2,42.1c-7.9,5-12.8,13.5-12,22.8l54.2-4.5c-0.8-9.3-7-16.9-15.6-20.5l3.6-8
			c0.2-0.4,0-0.9-0.4-1.1s-0.9,0-1.1,0.4l-3.6,8.1c-3.7-1.3-7.7-1.8-12-1.5c-4.2,0.3-8.1,1.6-11.6,3.5l-4.9-7.4
			c-0.3-0.4-0.8-0.5-1.2-0.2c-0.4,0.3-0.5,0.8-0.2,1.2L25.2,42.1"/>
	</g>
	<g>
		<path fill="#FFFFFF" d="M51.5,47.2c1.2-0.1,2.4,0.8,2.5,2.1s-0.8,2.4-2.1,2.5c-1.2,0.1-2.4-0.8-2.5-2.1
			C49.3,48.4,50.2,47.3,51.5,47.2z"/>
		<path fill="#FFFFFF" d="M26.8,49.3c1.3-0.1,2.4,0.8,2.5,2.1s-0.8,2.4-2.1,2.5c-1.3,0.1-2.4-0.8-2.5-2.1
			C24.6,50.5,25.5,49.4,26.8,49.3z"/>
	</g>
</g>
</svg>
