<?xml version="1.0" encoding="utf-8"?>
<!-- Generator: Adobe Illustrator 17.1.0, SVG Export Plug-In . SVG Version: 6.00 Build 0)  -->
<!DOCTYPE svg PUBLIC "-//W3C//DTD SVG 1.1//EN" "http://www.w3.org/Graphics/SVG/1.1/DTD/svg11.dtd">
<svg version="1.1" id="Layer_1" xmlns="http://www.w3.org/2000/svg" xmlns:xlink="http://www.w3.org/1999/xlink" x="0px" y="0px"
	 viewBox="0 0 960 560" enable-background="new 0 0 960 560" xml:space="preserve">
<g>
	<polygon fill="#EFAF77" points="589.57,277.986 489.565,277.986 381.804,294.96 381.804,464.882 493.402,483.107 626.791,483.107 	
		"/>
	<g>
		<defs>
			<rect id="SVGID_1_" y="137.672" width="960" height="421.328"/>
		</defs>
		<clipPath id="SVGID_2_">
			<use xlink:href="#SVGID_1_"  overflow="visible"/>
		</clipPath>
		<path clip-path="url(#SVGID_2_)" fill="#3E2723" d="M507.409,384.997c2.785,0.969,4.827-1.11,5.324-3.743
			c0.267-1.405-1.88-2.003-2.147-0.594c-0.267,1.416-0.915,2.774-2.587,2.19C506.642,382.378,506.062,384.529,507.409,384.997"/>
		<path clip-path="url(#SVGID_2_)" fill="#3E2723" d="M519.573,385.531c1.077,0.011,0.587,1.949,0.411,2.547
			c-0.411,1.38,1.74,1.963,2.147,0.591c0.652-2.205,0.324-5.332-2.558-5.364C518.139,383.29,518.139,385.517,519.573,385.531"/>
		<path clip-path="url(#SVGID_2_)" fill="#3E2723" d="M511.537,392.331c-0.047,2.003,1.445,3.163,3.289,3.545
			c1.401,0.288,1.996-1.859,0.591-2.147c-0.814-0.166-1.679-0.364-1.654-1.398C513.796,390.893,511.57,390.897,511.537,392.331"/>
		<path clip-path="url(#SVGID_2_)" fill="#3E2723" d="M525.507,377.867c0.897,0.061,1.365,0.609,1.646,1.405
			c0.476,1.344,2.626,0.767,2.147-0.591c-0.634-1.79-1.866-2.911-3.793-3.04C524.073,375.547,524.084,377.774,525.507,377.867"/>
		<path clip-path="url(#SVGID_2_)" fill="#3E2723" d="M527.856,387.879c-0.209,2.799,3.152,2.597,4.889,1.704
			c1.275-0.659,0.148-2.579-1.124-1.924c-0.141,0.072-1.571,0.63-1.538,0.22C530.187,386.445,527.96,386.456,527.856,387.879"/>
		<path clip-path="url(#SVGID_2_)" fill="#3E2723" d="M539.352,379.102c0.944-0.014,1.758,0.184,2.14,1.164
			c0.519,1.319,2.673,0.746,2.147-0.594c-0.749-1.902-2.244-2.824-4.287-2.796C537.918,376.897,537.915,379.124,539.352,379.102"/>
		<path clip-path="url(#SVGID_2_)" fill="#3E2723" d="M538.639,390.914c0.89,1.762,2.821,2.288,4.669,2.28
			c1.434-0.004,1.434-2.226,0-2.223c-1.074,0.004-2.215-0.126-2.749-1.182C539.914,388.507,537.994,389.635,538.639,390.914"/>
		<path clip-path="url(#SVGID_2_)" fill="#3E2723" d="M531.395,394.015c-0.526,0.656-0.757,1.149-0.843,1.985
			c-0.04,0.389,0.241,0.771,0.551,0.962c0.965,0.598,1.927,0.811,3.055,0.684c1.412-0.159,1.427-2.385,0-2.226
			c-0.76,0.083-1.265,0.036-1.931-0.378c0.184,0.321,0.367,0.641,0.551,0.958c0.061-0.137,0.126-0.274,0.191-0.411
			C533.856,394.48,532.292,392.895,531.395,394.015"/>
		<path clip-path="url(#SVGID_2_)" fill="#3E2723" d="M536.384,383.552c0.151,0.058,0.299,0.112,0.45,0.169
			c1.092,0.919,2.673-0.648,1.574-1.574c-0.645-0.54-1.178-0.764-2.025-0.821C534.95,381.229,534.961,383.455,536.384,383.552"/>
		<path clip-path="url(#SVGID_2_)" fill="#3E2723" d="M533.714,372.635c0.62-0.31,1.246-0.238,1.884,0.209
			c1.11,0.883,2.695-0.681,1.571-1.574c-1.254-0.998-2.497-1.286-4.046-0.782C531.766,370.931,532.345,373.082,533.714,372.635"/>
		<path clip-path="url(#SVGID_2_)" fill="#3E2723" d="M515.056,372.084c-1.113,0.861-1.61,1.794-1.787,3.185
			c-0.184,1.423,2.046,1.405,2.223,0c0.04-0.526,0.267-0.947,0.688-1.264C517.296,373.143,516.19,371.209,515.056,372.084"/>
		<path clip-path="url(#SVGID_2_)" fill="#3E2723" d="M520.438,394.556c-0.115,2.331,2.111,3.055,4.082,2.842
			c1.409-0.151,1.423-2.378,0-2.223c-0.569,0.061-1.902,0.306-1.855-0.62C522.737,393.122,520.51,393.13,520.438,394.556"/>
		<path clip-path="url(#SVGID_2_)" fill="#3E2723" d="M547.96,381.496c0.533,0.627,0.94,1.272,1.311,2.003
			c0.645,1.279,2.565,0.155,1.92-1.124c-0.454-0.897-1.009-1.69-1.657-2.453C548.601,378.83,547.034,380.411,547.96,381.496"/>
		<path clip-path="url(#SVGID_2_)" fill="#3E2723" d="M544.989,372.387c1.553,0.612,3.177,0.645,4.568-0.357
			c1.153-0.832,0.043-2.763-1.124-1.924c-0.951,0.684-1.83,0.537-2.853,0.133C544.243,369.714,543.671,371.868,544.989,372.387"/>
		<path clip-path="url(#SVGID_2_)" fill="#3E2723" d="M540.142,364.969c0.886-0.18,1.679-0.468,2.489-0.854
			c1.297-0.612,0.169-2.529-1.12-1.92c-0.656,0.31-1.257,0.486-1.96,0.627C538.146,363.106,538.741,365.254,540.142,364.969"/>
		<path clip-path="url(#SVGID_2_)" fill="#3E2723" d="M521.332,369.65c1.066,1.65,2.864,1.754,4.669,1.538
			c1.405-0.166,1.423-2.392,0-2.223c-0.811,0.097-2.208,0.396-2.749-0.44C522.478,367.327,520.55,368.44,521.332,369.65"/>
		<path clip-path="url(#SVGID_2_)" fill="#3E2723" d="M539.285,398.236c1.167,0.789,1.812,2.129,2.968,2.965
			c1.164,0.847,2.273-1.088,1.12-1.92c-1.149-0.836-1.765-2.154-2.965-2.965C539.216,395.509,538.103,397.437,539.285,398.236"/>
		<path clip-path="url(#SVGID_2_)" fill="#3E2723" d="M549.765,389.925c0.796,1.762,2.381,2.043,3.995,1.142
			c1.25-0.699,0.13-2.623-1.124-1.924c-0.558,0.335-0.875,0.22-0.951-0.342C551.098,387.497,549.178,388.628,549.765,389.925"/>
		<path clip-path="url(#SVGID_2_)" fill="#3E2723" d="M522.741,402.513c1.12,1.156,2.424,1.639,4.002,1.808
			c1.427,0.151,1.412-2.075,0-2.226c-0.991-0.104-1.74-0.443-2.428-1.156C523.317,399.904,521.743,401.482,522.741,402.513"/>
		<path clip-path="url(#SVGID_2_)" fill="#3E2723" d="M535.065,402.268c0.612,1.466,1.69,2.151,3.3,2.053
			c1.423-0.086,1.434-2.313,0-2.226c-0.45,0.115-0.836-0.022-1.153-0.418C536.668,400.373,534.514,400.942,535.065,402.268"/>
		<path clip-path="url(#SVGID_2_)" fill="#3E2723" d="M531.238,366.414c0.137-0.137,0.274-0.274,0.411-0.411
			c-0.522-0.526-1.048-1.048-1.571-1.574c-0.058,0.054-0.112,0.112-0.166,0.166c-1.012,1.016,0.558,2.59,1.574,1.574
			c0.054-0.058,0.108-0.112,0.162-0.166c1.016-1.02-0.555-2.587-1.571-1.574c-0.137,0.137-0.274,0.274-0.414,0.411
			C528.641,365.848,530.215,367.419,531.238,366.414"/>
		<path clip-path="url(#SVGID_2_)" fill="#3E2723" d="M550.676,367.938c1.441,0.598,2.767,0.71,4.301,0.494
			c1.416-0.202,0.811-2.345-0.594-2.147c-1.131,0.162-2.086-0.065-3.116-0.494C549.941,365.244,549.372,367.395,550.676,367.938"/>
		<path clip-path="url(#SVGID_2_)" fill="#3E2723" d="M554.366,380.681c1.448,0.911,2.986,1.001,4.564,0.36
			c1.311-0.533,0.738-2.684-0.591-2.147c-1.056,0.429-1.859,0.49-2.85-0.133C554.273,377.994,553.156,379.921,554.366,380.681"/>
		<path clip-path="url(#SVGID_2_)" fill="#3E2723" d="M557.401,390.476c-0.029-0.025-0.058-0.05-0.083-0.076
			c0.436,1.362,2.583,0.778,2.143-0.591c-0.331-1.041-0.983-1.491-2.061-1.56C555.967,388.16,555.978,390.386,557.401,390.476"/>
		<path clip-path="url(#SVGID_2_)" fill="#3E2723" d="M547.388,397.276c-0.137,2.468,1.935,3.509,4.031,4.038
			c1.391,0.353,1.981-1.794,0.591-2.147c-1.07-0.27-2.471-0.537-2.396-1.891C549.693,395.842,547.467,395.849,547.388,397.276"/>
		<path clip-path="url(#SVGID_2_)" fill="#3E2723" d="M544.993,407.952c1.214,1.272,2.68,1.113,4.071,0.173
			c1.182-0.796,0.068-2.727-1.124-1.92c-0.382,0.432-0.839,0.49-1.373,0.173C545.573,405.34,544.002,406.914,544.993,407.952"/>
		<path clip-path="url(#SVGID_2_)" fill="#3E2723" d="M556.823,395.249c-0.598,2.579,2.244,3.188,4.107,2.244
			c1.279-0.648,0.151-2.569-1.124-1.92c-0.267,0.122-0.548,0.213-0.836,0.267C559.29,394.445,557.147,393.851,556.823,395.249"/>
		<path clip-path="url(#SVGID_2_)" fill="#3E2723" d="M503.531,373.607c0.839,1.153,2.061,1.355,3.433,1.293
			c1.427-0.065,1.434-2.291,0-2.226c-0.378,0.018-1.246,0.177-1.513-0.191C504.619,371.333,502.684,372.443,503.531,373.607"/>
		<path clip-path="url(#SVGID_2_)" fill="#3E2723" d="M506.667,399.337c1.336,0.238,2.648,0.324,4.006,0.285
			c1.43-0.04,1.434-2.266,0-2.223c-1.156,0.032-2.273-0.004-3.415-0.209C505.857,396.941,505.255,399.085,506.667,399.337"/>
		<path clip-path="url(#SVGID_2_)" fill="#3E2723" d="M501.934,388.325c-0.973,2.684,2.234,3.077,4.089,2.605
			c1.391-0.353,0.8-2.5-0.591-2.143c-0.321,0.079-0.62,0.126-0.947,0.144c-0.112-0.004-0.227-0.004-0.339-0.004
			c-0.411-0.079-0.432-0.083-0.065-0.011C504.571,387.565,502.417,386.985,501.934,388.325"/>
		<path clip-path="url(#SVGID_2_)" fill="#3E2723" d="M499.006,383.227c0.054,0.058,0.108,0.115,0.162,0.177
			c0.076-0.584,0.148-1.167,0.223-1.747c-0.054,0.022-0.108,0.047-0.159,0.072c-1.308,0.587-0.177,2.504,1.12,1.92
			c0.054-0.025,0.108-0.047,0.162-0.072c0.684-0.31,0.666-1.264,0.223-1.747c-0.05-0.058-0.104-0.119-0.158-0.177
			C499.608,380.593,498.037,382.171,499.006,383.227"/>
		<path clip-path="url(#SVGID_2_)" fill="#3E2723" d="M557.895,373.663c1.844,0.09,3.512-0.439,5.242-1.027
			c1.347-0.461,0.771-2.612-0.594-2.147c-1.542,0.526-2.99,1.03-4.647,0.947C556.462,371.368,556.469,373.595,557.895,373.663"/>
		<path clip-path="url(#SVGID_2_)" fill="#3E2723" d="M563.61,388.194c0.598,1.081,1.466,1.542,2.691,1.538
			c1.434,0,1.434-2.226,0-2.223c-0.256-0.148-0.512-0.292-0.771-0.439C564.839,385.816,562.915,386.937,563.61,388.194"/>
		<rect x="7.277" y="448.602" clip-path="url(#SVGID_2_)" fill="#EFAF77" width="243.611" height="29.645"/>
		<path clip-path="url(#SVGID_2_)" fill="#D0D8DC" d="M0,423.897v56.199c0,2.097,1.7,3.793,3.793,3.793h2.796
			c2.093,0,3.793-1.697,3.793-3.793v-56.199c0-2.097-1.7-3.797-3.793-3.797H3.793C1.7,420.1,0,421.8,0,423.897"/>
		<path clip-path="url(#SVGID_2_)" fill="#D0D8DC" d="M0,398.786v49.995h36.839c0-45.373-22.465-52.902-32.311-54.023
			C2.115,394.485,0,396.358,0,398.786"/>
		
			<rect x="55.052" y="394.06" transform="matrix(-0.9043 0.427 -0.427 -0.9043 511.3644 703.1083)" clip-path="url(#SVGID_2_)" fill="#EFAF77" width="243.61" height="29.645"/>
		<path clip-path="url(#SVGID_2_)" fill="#D0D8DC" d="M43.252,428.252l23.996,50.817c0.893,1.895,3.156,2.705,5.051,1.812
			l2.525-1.192c1.895-0.893,2.705-3.156,1.812-5.051l-23.996-50.817c-0.893-1.898-3.156-2.709-5.051-1.812l-2.525,1.192
			C43.17,424.095,42.359,426.357,43.252,428.252"/>
		<path clip-path="url(#SVGID_2_)" fill="#D0D8DC" d="M32.531,405.545l21.348,45.211l33.312-15.732
			c-19.374-41.029-42.902-38.244-52.283-35.052C32.607,400.75,31.494,403.351,32.531,405.545"/>
		<path clip-path="url(#SVGID_2_)" fill="#EFAF77" d="M789.427,485.325h132.881c18.142,0,25.606-8.448,25.606-18.863
			s-7.464-18.866-25.606-18.866H789.427V485.325z"/>
		<path clip-path="url(#SVGID_2_)" fill="#E1AF79" d="M435.084,222.096H302.203c-18.142,0-25.606,8.451-25.606,18.863
			c0,10.418,7.464,18.855,25.606,18.855h132.881V222.096z"/>
		<path clip-path="url(#SVGID_2_)" fill="#C4CBEB" d="M329.434,219.922h234.014c20.43,0,28.582,9.417,28.582,21.038
			c0,11.614-8.152,21.031-28.582,21.031H329.434V219.922z"/>
		<path clip-path="url(#SVGID_2_)" fill="#C4CBEB" d="M615.637,420.741l-147.795-40.02l122.005-38.849l-0.011-64.315H192.839
			c-6.571,0-15.098,6.679-15.098,13.913v76.564c0,24.58,19.925,44.505,44.505,44.505v0.058c-24.58,0-44.505,19.925-44.505,44.501
			v11.269c0,9.644,7.98,15.534,14.828,15.534h433.198L615.637,420.741z"/>
		<path clip-path="url(#SVGID_2_)" fill="#9FA8DA" d="M313.564,264.64v-47.365c0-2.896,2.349-5.245,5.245-5.245h32.53
			c2.896,0,5.245,2.349,5.245,5.245v47.365c0,2.896-2.349,5.245-5.245,5.245h-32.53C315.912,269.885,313.564,267.536,313.564,264.64
			"/>
		<path clip-path="url(#SVGID_2_)" fill="#C4CBEB" d="M895.078,487.253H661.064c-20.43,0-28.582-9.417-28.582-21.039
			c0-11.614,8.152-21.031,28.582-21.031h234.014V487.253z"/>
		<path clip-path="url(#SVGID_2_)" fill="#9FA8DA" d="M910.948,442.535V489.9c0,2.896-2.349,5.245-5.245,5.245h-32.53
			c-2.896,0-5.245-2.349-5.245-5.245v-47.365c0-2.896,2.349-5.245,5.245-5.245h32.53
			C908.599,437.29,910.948,439.639,910.948,442.535"/>
		<path clip-path="url(#SVGID_2_)" d="M297.307,246.944h-48.94c-4.363,0-7.9-3.538-7.9-7.9V145.57c0-4.363,3.538-7.9,7.9-7.9h48.94
			c4.363,0,7.9,3.538,7.9,7.9v93.474C305.207,243.406,301.669,246.944,297.307,246.944"/>
	</g>
	<g>
		<defs>
			<rect id="SVGID_3_" x="245.437" y="147.946" width="54.801" height="88.726"/>
		</defs>
		<clipPath id="SVGID_4_">
			<use xlink:href="#SVGID_3_"  overflow="visible"/>
		</clipPath>
		<rect x="245.437" y="147.942" clip-path="url(#SVGID_4_)" fill="#4527A0" width="54.801" height="88.726"/>
		<polygon clip-path="url(#SVGID_4_)" fill="#D81B60" points="248.464,147.075 242.199,147.944 242.199,200.799 288.628,182.347 		
			"/>
		<polygon clip-path="url(#SVGID_4_)" fill="#FF4081" points="305.207,229.538 240.466,142.207 305.207,142.207 		"/>
	</g>
	<g>
		<defs>
			<rect id="SVGID_5_" y="137.672" width="960" height="421.328"/>
		</defs>
		<clipPath id="SVGID_6_">
			<use xlink:href="#SVGID_5_"  overflow="visible"/>
		</clipPath>
		<path clip-path="url(#SVGID_6_)" fill="#ECEFF1" d="M205.915,415.698h227.122l156.812-74.071l-212.193,26.226L244.642,407.66
			C244.642,407.66,208.945,413.406,205.915,415.698"/>
		<polygon clip-path="url(#SVGID_6_)" fill="#C4CBEB" points="217.938,412.232 433.038,412.232 589.847,341.872 461.966,336.699 
			308.922,371.067 		"/>
		<rect x="336.245" y="302.828" clip-path="url(#SVGID_6_)" fill="#ECEFF1" width="20.397" height="2.226"/>
		<rect x="336.245" y="379.225" clip-path="url(#SVGID_6_)" fill="#ECEFF1" width="20.397" height="2.226"/>
		<rect x="336.245" y="462.299" clip-path="url(#SVGID_6_)" fill="#ECEFF1" width="20.397" height="2.226"/>
		<rect x="342.917" y="277.585" clip-path="url(#SVGID_6_)" fill="#ECEFF1" width="1.855" height="206.35"/>
		<rect x="336.245" y="362.539" clip-path="url(#SVGID_6_)" fill="#C4CBEB" width="20.026" height="16.687"/>
		<rect x="336.245" y="445.594" clip-path="url(#SVGID_6_)" fill="#C4CBEB" width="20.026" height="16.69"/>
		<rect x="336.245" y="286.141" clip-path="url(#SVGID_6_)" fill="#C4CBEB" width="20.026" height="16.687"/>
		<polygon clip-path="url(#SVGID_6_)" fill="#ECEFF1" points="587.688,332.869 533.914,333.611 530.203,355.121 499.424,344.735 
			437.49,399.994 497.94,339.173 527.61,349.926 530.945,327.306 		"/>
		<polygon clip-path="url(#SVGID_6_)" fill="#ECEFF1" points="533.913,431.89 530.206,410.379 499.423,420.762 471.676,396.009 
			468.733,396.938 497.939,426.327 527.609,415.57 530.944,438.194 587.687,432.632 		"/>
		<polygon clip-path="url(#SVGID_6_)" fill="#C4CBEB" points="333.894,430.282 330.184,442.646 342.176,480.472 353.304,478.245 
			349.965,409.269 341.434,409.269 		"/>
		<path clip-path="url(#SVGID_6_)" fill="#ECEFF1" d="M341.917,407.242c0,0-14.5,44.653-14.255,58.919l9.759,1.621l-13.354,0.872
			C324.067,468.654,330.649,430.63,341.917,407.242"/>
		<path clip-path="url(#SVGID_6_)" fill="#ECEFF1" d="M342.67,418.37c0,0-3.689,46.803-0.122,60.619l9.867-0.702l-12.782,3.966
			C339.633,482.252,337.166,443.738,342.67,418.37"/>
		<path clip-path="url(#SVGID_6_)" fill="#3E2723" d="M168.49,404.569c0.85-0.047,1.682-0.144,2.522-0.288
			c1.412-0.241,0.811-2.385-0.591-2.147c-0.648,0.112-1.275,0.177-1.931,0.209C167.063,402.419,167.056,404.645,168.49,404.569"/>
		<path clip-path="url(#SVGID_6_)" fill="#3E2723" d="M161.768,414.379c0.814,1.005,1.866,1.164,3.062,0.782
			c1.362-0.432,0.778-2.583-0.591-2.143l-0.897-0.213C162.438,411.692,160.875,413.277,161.768,414.379"/>
		<path clip-path="url(#SVGID_6_)" fill="#3E2723" d="M178.295,407.955c0.173,0.922-0.342,1.376-0.951,1.884
			c-1.102,0.922,0.483,2.489,1.574,1.574c1.293-1.081,1.834-2.388,1.524-4.049C180.175,405.955,178.032,406.553,178.295,407.955"/>
		<path clip-path="url(#SVGID_6_)" fill="#3E2723" d="M170,419.1c0.584,1.066,1.448,1.578,2.644,1.747
			c1.401,0.195,2.007-1.949,0.591-2.147c-0.551,0.018-0.991-0.223-1.315-0.724C171.232,416.719,169.309,417.843,170,419.1"/>
		<path clip-path="url(#SVGID_6_)" fill="#3E2723" d="M151.839,420.714c-0.27,1.239-0.256,2.262,1.059,2.889
			c0.439,0.209,0.998,0.22,1.347-0.173l0.079-0.086c0.241-0.27,0.439-0.717,0.285-1.084c-0.043-0.101-0.086-0.205-0.13-0.31
			c-0.544-1.301-2.698-0.731-2.143,0.594c0.043,0.101,0.086,0.205,0.13,0.31c0.094-0.364,0.191-0.724,0.285-1.084l-0.076,0.086
			c0.447-0.058,0.897-0.115,1.347-0.173c-0.209,0.007-0.22-0.115-0.036-0.378C154.289,419.907,152.145,419.313,151.839,420.714"/>
		<path clip-path="url(#SVGID_6_)" fill="#3E2723" d="M140.596,419.572c0.31-0.241,0.645-0.432,1.012-0.569
			c1.304-0.587,0.173-2.504-1.124-1.92c-0.551,0.249-0.987,0.548-1.463,0.915C137.89,418.876,139.475,420.44,140.596,419.572"/>
		<path clip-path="url(#SVGID_6_)" fill="#3E2723" d="M149.384,409.114c0.479,0.173,0.901,0.443,1.257,0.814
			c1.056,0.969,2.633-0.602,1.574-1.574c-0.54-0.494-1.041-0.85-1.708-1.16C149.215,406.592,148.084,408.512,149.384,409.114"/>
		<path clip-path="url(#SVGID_6_)" fill="#3E2723" d="M156.291,408.846c-0.313,0.919-0.396,1.805-0.288,2.77
			c0.162,1.409,2.388,1.423,2.226,0c-0.09-0.778-0.047-1.434,0.209-2.18C158.903,408.075,156.752,407.495,156.291,408.846"/>
		<path clip-path="url(#SVGID_6_)" fill="#3E2723" d="M160.037,426.99c-0.014,0-0.025,0.004-0.04,0.004
			c0.31,1.401,2.453,0.807,2.147-0.591c-0.094-0.421-0.256-0.663-0.533-0.987C160.671,424.327,159.104,425.909,160.037,426.99"/>
		<path clip-path="url(#SVGID_6_)" fill="#3E2723" d="M141.95,430.454c0.083,0.328,0.166,0.659,0.249,0.987
			c0.349,1.394,2.497,0.803,2.147-0.591c-0.083-0.328-0.166-0.659-0.249-0.987C143.747,428.473,141.6,429.064,141.95,430.454"/>
		<path clip-path="url(#SVGID_6_)" fill="#3E2723" d="M133.544,436.14c0.306,0.825,0.692,1.214,1.52,1.52
			c1.347,0.497,1.924-1.657,0.591-2.147c0.011,0.011,0.022,0.025,0.036,0.036C135.197,434.212,133.046,434.792,133.544,436.14"/>
		<path clip-path="url(#SVGID_6_)" fill="#3E2723" d="M124.109,438.317c0.058,0.014,0.112,0.029,0.169,0.043
			c0.994-1.034-0.58-2.608-1.574-1.571c-0.439,0.458-0.821,0.861-0.821,1.527C121.886,439.751,124.109,439.751,124.109,438.317"/>
		<path clip-path="url(#SVGID_6_)" fill="#3E2723" d="M121.789,426.764c0.544,0.803,1.218,1.142,2.194,1.045
			c1.416-0.141,1.43-2.367,0-2.226c-0.09,0.022-0.18,0.04-0.274,0.058C122.913,424.459,120.986,425.572,121.789,426.764"/>
		<path clip-path="url(#SVGID_6_)" fill="#3E2723" d="M129.796,419.773c-0.061,1.164,0.436,2.028,1.315,2.767
			c1.092,0.911,2.673-0.652,1.574-1.574c-0.443-0.249-0.663-0.648-0.663-1.192C132.094,418.34,129.868,418.347,129.796,419.773"/>
		<path clip-path="url(#SVGID_6_)" fill="#3E2723" d="M132.803,430.604c-0.086,0.274-0.169,0.551-0.277,0.818
			c0.677-0.09,1.355-0.177,2.032-0.267c0.047,0.177,0.097,0.357,0.144,0.533c0.234-1.401-1.913-2.003-2.147-0.591
			c-0.065,0.396-0.177,0.821,0.083,1.182c0.591,0.825,1.661,0.648,2.032-0.267c0.108-0.267,0.191-0.544,0.281-0.818
			C135.386,429.825,133.235,429.242,132.803,430.604"/>
		<path clip-path="url(#SVGID_6_)" fill="#3E2723" d="M175.934,397.837c0.468,1.088,1.293,1.65,2.396,1.996
			c1.373,0.429,1.956-1.722,0.591-2.147c-0.584-0.126-0.94-0.45-1.066-0.973C177.288,395.398,175.375,396.533,175.934,397.837"/>
		<path clip-path="url(#SVGID_6_)" fill="#3E2723" d="M187.444,408.105c-0.382,1.639,0.508,2.594,2.01,3.098
			c1.365,0.458,1.945-1.693,0.594-2.147l-0.458-0.36C189.915,407.302,187.768,406.708,187.444,408.105"/>
		<path clip-path="url(#SVGID_6_)" fill="#3E2723" d="M176.278,419.279c0.137,1.272,0.555,2.19,1.56,3.012
			c1.102,0.901,2.687-0.666,1.574-1.574c-0.519-0.313-0.821-0.796-0.908-1.437C178.349,417.867,176.123,417.853,176.278,419.279"/>
		<path clip-path="url(#SVGID_6_)" fill="#3E2723" d="M178.295,424.67c-0.27,1.477,0.616,2.161,2.014,2.356
			c1.401,0.195,2.007-1.949,0.591-2.143c-0.465-0.223-0.616-0.097-0.458,0.378C180.698,423.86,178.554,423.262,178.295,424.67"/>
		<path clip-path="url(#SVGID_6_)" fill="#3E2723" d="M191.894,414.384c0.36,1.618,1.448,2.396,3.051,2.547
			c1.427,0.133,1.416-2.093,0-2.226c-0.605-0.05-0.904-0.357-0.904-0.911C193.727,412.392,191.584,412.986,191.894,414.384"/>
		<path clip-path="url(#SVGID_6_)" fill="#3E2723" d="M167.129,392.083c0.05,1.074,0.151,2.143,0.249,3.213
			c0.126,1.416,2.352,1.43,2.226,0c-0.097-1.07-0.198-2.14-0.249-3.213C169.287,390.653,167.064,390.649,167.129,392.083"/>
		<path clip-path="url(#SVGID_6_)" fill="#3E2723" d="M154.767,399.747c-0.058,0.911-0.141,1.816-0.245,2.72
			c-0.166,1.423,2.061,1.409,2.223,0c0.108-0.904,0.187-1.808,0.249-2.72C157.087,398.313,154.861,398.324,154.767,399.747"/>
		<path clip-path="url(#SVGID_6_)" fill="#3E2723" d="M149.328,403.949c-0.065,0.775,0.086,1.344,0.4,2.046
			c0.58,1.308,2.497,0.177,1.92-1.124c-0.032-0.306-0.065-0.616-0.094-0.922C151.673,402.519,149.447,402.53,149.328,403.949"/>
		<path clip-path="url(#SVGID_6_)" fill="#3E2723" d="M133.258,412.852c0.047,0.76,0.238,1.268,0.821,1.776
			c1.074,0.94,2.655-0.627,1.571-1.574c-0.054-0.068-0.112-0.133-0.166-0.202C135.397,411.425,133.171,411.418,133.258,412.852"/>
		<path clip-path="url(#SVGID_6_)" fill="#3E2723" d="M133.258,412.852c0.04,1.048,0.335,1.765,1.066,2.518
			c1.001,1.03,2.572-0.544,1.574-1.574c-0.141-0.313-0.277-0.63-0.414-0.944C135.43,411.421,133.204,411.418,133.258,412.852"/>
		<path clip-path="url(#SVGID_6_)" fill="#3E2723" d="M144.709,435.553c-1.715,2.133-1.477,5.245,1.214,6.445
			c1.297,0.576,2.432-1.34,1.124-1.924c-1.261-0.558-1.668-1.819-0.764-2.947C147.173,436.018,145.606,434.433,144.709,435.553"/>
		<path clip-path="url(#SVGID_6_)" fill="#3E2723" d="M152.829,433.916c0.648,1.61,2.043,1.866,3.592,1.272
			c1.326-0.512,0.753-2.666-0.591-2.147c-0.274,0.13-0.558,0.223-0.854,0.285C154.443,432.01,152.293,432.583,152.829,433.916"/>
		<path clip-path="url(#SVGID_6_)" fill="#3E2723" d="M161.072,431.765h2.226c1.434,0,1.434-2.226,0-2.226h-2.226
			C159.638,429.539,159.638,431.765,161.072,431.765"/>
		<path clip-path="url(#SVGID_6_)" fill="#3E2723" d="M169.725,428.304h1.978c1.437,0,1.437-2.226,0-2.226h-1.978
			C168.291,426.077,168.291,428.304,169.725,428.304"/>
		<path clip-path="url(#SVGID_6_)" fill="#3E2723" d="M149.328,417.054c0.011,0.263,0.04,0.508,0.104,0.764
			c0.086,0.339,0.414,0.728,0.778,0.778l0.18,0.025c1.405,0.198,2.007-1.945,0.591-2.147l-0.18-0.025l0.778,0.778
			c-0.007-0.058-0.018-0.115-0.025-0.173C151.489,415.624,149.263,415.62,149.328,417.054"/>
		<path clip-path="url(#SVGID_6_)" fill="#3E2723" d="M138.488,407.212c0.461,1.138,0.775,2.324,1.236,3.462
			c0.533,1.311,2.684,0.739,2.147-0.591c-0.461-1.138-0.775-2.324-1.236-3.462C140.102,405.31,137.948,405.883,138.488,407.212"/>
		<path clip-path="url(#SVGID_6_)" fill="#3E2723" d="M120.058,416.873c0.443,0.991,0.994,1.844,1.657,2.698
			c0.879,1.131,2.442-0.454,1.574-1.574c-0.544-0.699-0.951-1.441-1.311-2.248C121.395,414.441,119.478,415.576,120.058,416.873"/>
		<path clip-path="url(#SVGID_6_)" fill="#3E2723" d="M127.896,437.036c-0.645,0.659-0.922,1.344-0.821,2.27
			c0.159,1.412,2.385,1.427,2.226,0c0.058-0.231,0.112-0.465,0.169-0.695C130.472,437.583,128.901,436.009,127.896,437.036"/>
		<path clip-path="url(#SVGID_6_)" fill="#3E2723" d="M131.43,446.543c0.367,0.515,0.627,0.771,1.142,1.142
			c1.167,0.839,2.277-1.092,1.124-1.924l-0.346-0.342C132.526,444.262,130.595,445.372,131.43,446.543"/>
		<path clip-path="url(#SVGID_6_)" fill="#3E2723" d="M117.339,451.241c0.31,0.67,0.666,1.171,1.164,1.708
			c0.973,1.059,2.543-0.519,1.571-1.574c-0.371-0.357-0.641-0.775-0.814-1.257C118.661,448.817,116.741,449.948,117.339,451.241"/>
		<path clip-path="url(#SVGID_6_)" fill="#3E2723" d="M115.283,455.955c0.85,0.324,1.47,0.324,2.324,0
			c1.326-0.508,0.749-2.659-0.594-2.147h-1.138C114.53,453.296,113.957,455.447,115.283,455.955"/>
		<path clip-path="url(#SVGID_6_)" fill="#3E2723" d="M108.684,435.282c-0.45,0.973-0.191,1.855,0.911,2.129
			c1.394,0.346,1.985-1.798,0.594-2.143l0.295,0.27v1.124c0.04-0.086,0.079-0.169,0.119-0.256
			C111.202,435.113,109.286,433.982,108.684,435.282"/>
		<path clip-path="url(#SVGID_6_)" fill="#3E2723" d="M110.388,448.825c0.688-0.054,1.351-0.148,2.025-0.288
			c1.405-0.295,0.811-2.439-0.591-2.147c-0.468,0.122-0.947,0.191-1.434,0.209C108.968,446.71,108.957,448.936,110.388,448.825"/>
		<path clip-path="url(#SVGID_6_)" fill="#3E2723" d="M116.569,436.464c1.434,0,1.434-2.226,0-2.226
			S115.135,436.464,116.569,436.464"/>
		<path clip-path="url(#SVGID_6_)" fill="#3E2723" d="M106.802,421.01v0.753c0,1.437,2.226,1.437,2.226,0v-0.259
			c0-1.434-2.226-1.434-2.226,0v0.259c0,1.437,2.226,1.437,2.226,0v-0.753C109.028,419.576,106.802,419.576,106.802,421.01"/>
		<path clip-path="url(#SVGID_6_)" fill="#3E2723" d="M107.353,420.049c-1.427,1.066-2.14,2.392-2.489,4.128
			c-0.281,1.401,1.866,1.996,2.147,0.591c0.22-1.099,0.526-2.097,1.466-2.799C109.611,421.123,108.502,419.188,107.353,420.049"/>
		<path clip-path="url(#SVGID_6_)" fill="#3E2723" d="M153.682,461.984c-0.663,1.264-0.389,2.378,0.249,3.595
			c0.666,1.272,2.587,0.148,1.92-1.12c-0.083-0.45-0.166-0.901-0.249-1.351C156.268,461.836,154.348,460.712,153.682,461.984"/>
		<path clip-path="url(#SVGID_6_)" fill="#3E2723" d="M141.472,472.161c0.771,0.468,1.174,1.027,1.578,1.826
			c0.648,1.282,2.565,0.155,1.92-1.124c-0.562-1.117-1.3-1.971-2.374-2.623C141.368,469.492,140.247,471.415,141.472,472.161"/>
		<path clip-path="url(#SVGID_6_)" fill="#3E2723" d="M137.747,473.129c-0.324,2.129,1.715,2.986,3.498,3.347
			c1.398,0.288,1.996-1.859,0.591-2.143c-0.223-0.047-1.963-0.479-1.942-0.612C140.107,472.319,137.964,471.714,137.747,473.129"/>
		<path clip-path="url(#SVGID_6_)" fill="#3E2723" d="M156.155,471.875c-0.342,0.742-0.472,1.153,0,1.862
			c0.793,1.189,2.72,0.076,1.92-1.12c-0.065-0.101-0.133-0.202-0.202-0.303v1.12c0.068-0.144,0.137-0.292,0.202-0.436
			C158.67,471.702,156.753,470.571,156.155,471.875"/>
		<path clip-path="url(#SVGID_6_)" fill="#3E2723" d="M165.893,465.019c0.018,0.702,0.108,1.344,0.288,2.025
			c0.364,1.387,2.511,0.8,2.143-0.591c-0.159-0.461-0.227-0.94-0.205-1.434C168.08,463.589,165.853,463.582,165.893,465.019"/>
		<path clip-path="url(#SVGID_6_)" fill="#3E2723" d="M167.747,458.22c0.104,0.007,0.205,0.014,0.31,0.022
			c0.133-0.508,0.267-1.016,0.4-1.524c0.108-0.061,0.22-0.126,0.328-0.187c-1.369-0.443-1.949,1.708-0.591,2.147
			c0.537,0.173,0.872,0.223,1.383-0.036c0.497-0.256,0.753-1.056,0.4-1.524c-0.602-0.8-1.254-1.034-2.23-1.124
			C166.317,455.863,166.332,458.09,167.747,458.22"/>
		<path clip-path="url(#SVGID_6_)" fill="#3E2723" d="M141.567,460.636c0.479,1.038,1.236,1.697,2.129,2.378
			c1.142,0.868,2.248-1.066,1.124-1.924c-0.605-0.461-1.016-0.89-1.333-1.578C142.89,458.212,140.973,459.343,141.567,460.636"/>
		<path clip-path="url(#SVGID_6_)" fill="#3E2723" d="M149.991,469.268c0.166-0.166,0.328-0.328,0.494-0.494
			c1.016-1.016-0.558-2.59-1.574-1.574c-0.162,0.166-0.328,0.331-0.494,0.494C147.401,468.709,148.975,470.284,149.991,469.268"/>
		<path clip-path="url(#SVGID_6_)" fill="#3E2723" d="M147.967,457.231c1.409,0.076,2.687,0,4.006-0.533
			c1.311-0.533,0.738-2.687-0.591-2.147c-1.135,0.461-2.201,0.522-3.415,0.454C146.533,454.929,146.541,457.152,147.967,457.231"/>
		<path clip-path="url(#SVGID_6_)" fill="#3E2723" d="M151.133,451.258c1.628,0.27,3.17,0.339,4.795,0
			c1.405-0.292,0.811-2.435-0.591-2.147c-1.228,0.256-2.381,0.205-3.613,0C150.323,448.877,149.721,451.024,151.133,451.258"/>
		<path clip-path="url(#SVGID_6_)" fill="#3E2723" d="M159.093,447.588h0.594c1.437,0,1.437-2.226,0-2.226h-0.097
			c-1.437,0-1.437,2.226,0,2.226h0.097c1.437,0,1.437-2.226,0-2.226h-0.594C157.659,445.362,157.659,447.588,159.093,447.588"/>
		<path clip-path="url(#SVGID_6_)" fill="#3E2723" d="M165.399,446.723c0.047,1.682,0.857,2.871,2.057,3.999
			c1.041,0.987,2.619-0.584,1.574-1.571c-0.742-0.699-1.376-1.326-1.405-2.428C167.582,445.293,165.359,445.286,165.399,446.723"/>
		<path clip-path="url(#SVGID_6_)" fill="#3E2723" d="M171.979,451.354c-0.576,1.106-0.659,2.118-0.36,3.329
			c0.346,1.391,2.493,0.803,2.147-0.591c-0.216-0.555-0.169-1.092,0.133-1.614C174.562,451.207,172.642,450.083,171.979,451.354"/>
		<path clip-path="url(#SVGID_6_)" fill="#3E2723" d="M167.204,471.285c0.728,0.119,1.239,0.407,1.733,0.947
			c0.973,1.059,2.543-0.519,1.574-1.571c-0.76-0.832-1.6-1.337-2.716-1.524C166.393,468.907,165.792,471.05,167.204,471.285"/>
		<path clip-path="url(#SVGID_6_)" fill="#3E2723" d="M166.141,477.381v0.753c0,1.437,2.226,1.437,2.226,0v-0.259
			c0-1.434-2.226-1.434-2.226,0v0.259c0,1.437,2.226,1.437,2.226,0v-0.753C168.367,475.948,166.141,475.948,166.141,477.381"/>
		<path clip-path="url(#SVGID_6_)" fill="#3E2723" d="M154.56,479.311c-0.166,0.576-0.328,1.153-0.494,1.729
			c-0.396,1.383,1.751,1.971,2.143,0.594c0.166-0.58,0.331-1.156,0.497-1.733C157.1,478.518,154.953,477.935,154.56,479.311"/>
		<path clip-path="url(#SVGID_6_)" fill="#3E2723" d="M130.784,477.133v0.494c0,1.437,2.226,1.437,2.226,0v-0.494
			C133.011,475.699,130.784,475.699,130.784,477.133"/>
		<path clip-path="url(#SVGID_6_)" fill="#3E2723" d="M121.429,476.591c-0.169,0.594-0.252,1.164-0.285,1.78
			c-0.079,1.434,2.147,1.427,2.223,0c0-0.411,0.068-0.807,0.209-1.189C123.965,475.799,121.818,475.212,121.429,476.591"/>
		<path clip-path="url(#SVGID_6_)" fill="#3E2723" d="M115.496,476.837c-0.223,0.692-0.31,1.304-0.288,2.028
			c0.04,1.43,2.266,1.434,2.226,0c-0.068-0.504,0.004-0.983,0.209-1.437C118.086,476.059,115.935,475.479,115.496,476.837"/>
		<path clip-path="url(#SVGID_6_)" fill="#3E2723" d="M115.578,472.065c1.434,0,1.434-2.226,0-2.226
			C114.145,469.838,114.145,472.065,115.578,472.065"/>
		<path clip-path="url(#SVGID_6_)" fill="#3E2723" d="M123.689,463.619c1.646,0.414,3.303,0.645,4.993,0.782
			c1.434,0.119,1.419-2.107,0-2.226c-1.491-0.119-2.947-0.335-4.402-0.702C122.889,461.122,122.298,463.269,123.689,463.619"/>
		<path clip-path="url(#SVGID_6_)" fill="#3E2723" d="M128.616,462.272c1.401,0.627,2.623,0.616,4.071,0.112
			c1.347-0.468,0.767-2.619-0.591-2.143c-0.821,0.285-1.495,0.494-2.356,0.112C128.439,459.772,127.308,461.688,128.616,462.272"/>
		<path clip-path="url(#SVGID_6_)" fill="#3E2723" d="M132.639,455.254c1.434,0,1.434-2.226,0-2.226
			S131.205,455.254,132.639,455.254"/>
		<path clip-path="url(#SVGID_6_)" fill="#3E2723" d="M130.369,470.75c0.789,0.612,1.502,0.901,2.515,0.821
			c1.423-0.112,1.434-2.338,0-2.226c-0.313-0.058-0.627-0.112-0.94-0.169C130.823,468.308,129.238,469.871,130.369,470.75"/>
		<path clip-path="url(#SVGID_6_)" fill="#3E2723" d="M50.718,471.99c0.209,0.551,0.349,0.825,0.782,1.232
			c1.038,0.991,2.615-0.584,1.571-1.571c-0.068-0.086-0.137-0.169-0.205-0.252C52.364,470.07,50.21,470.643,50.718,471.99"/>
		<path clip-path="url(#SVGID_6_)" fill="#3E2723" d="M48.262,462.024c0.494,0.249,0.991,0.494,1.484,0.742
			c1.279,0.641,2.406-1.279,1.124-1.92c-0.494-0.249-0.991-0.497-1.484-0.742C48.107,459.462,46.979,461.382,48.262,462.024"/>
		<path clip-path="url(#SVGID_6_)" fill="#3E2723" d="M51.543,459.704c1.434,0,1.434-2.226,0-2.226S50.109,459.704,51.543,459.704"
			/>
		<path clip-path="url(#SVGID_6_)" fill="#3E2723" d="M56.443,474.212c0.461,0.436,0.937,0.811,1.463,1.164
			c1.192,0.803,2.306-1.124,1.124-1.924c-0.375-0.227-0.713-0.497-1.012-0.814C56.973,471.658,55.395,473.229,56.443,474.212"/>
		<path clip-path="url(#SVGID_6_)" fill="#3E2723" d="M89.124,475.774c1.297,0,2.385-0.292,3.53-0.893
			c1.268-0.67,0.144-2.59-1.124-1.924c-0.807,0.429-1.502,0.594-2.406,0.591C87.691,473.548,87.691,475.774,89.124,475.774"/>
		<path clip-path="url(#SVGID_6_)" fill="#3E2723" d="M95.752,469.554c0.576,0.083,1.153,0.166,1.729,0.249
			c1.401,0.202,2.007-1.945,0.591-2.147c-0.576-0.083-1.153-0.166-1.729-0.249C94.942,467.208,94.336,469.352,95.752,469.554"/>
		<path clip-path="url(#SVGID_6_)" fill="#3E2723" d="M101.937,464.817c0.429,0.382,0.764,0.767,1.063,1.257
			c0.742,1.225,2.666,0.108,1.92-1.124c-0.396-0.652-0.839-1.2-1.409-1.708C102.444,462.292,100.863,463.859,101.937,464.817"/>
		<path clip-path="url(#SVGID_6_)" fill="#3E2723" d="M104.405,473.51c0.353,0.05,0.677,0.177,0.969,0.382
			c1.246,0.717,2.367-1.207,1.124-1.92c-0.486-0.281-0.955-0.476-1.502-0.609C103.602,471.024,103.011,473.171,104.405,473.51"/>
		<path clip-path="url(#SVGID_6_)" fill="#3E2723" d="M112.697,471.002c0.335-0.796,0.501-1.646,0.742-2.475
			c0.4-1.38-1.747-1.967-2.147-0.591c-0.241,0.829-0.407,1.679-0.742,2.475C109.995,471.733,112.149,472.302,112.697,471.002"/>
		<path clip-path="url(#SVGID_6_)" fill="#3E2723" d="M112.926,464.003l0.162-0.072c0.684-0.31,0.666-1.268,0.223-1.747
			l-0.159-0.177c-0.973-1.059-2.543,0.519-1.574,1.574c0.054,0.058,0.108,0.115,0.159,0.177c0.076-0.584,0.151-1.167,0.227-1.747
			l-0.162,0.072C110.498,462.67,111.629,464.586,112.926,464.003"/>
		<path clip-path="url(#SVGID_6_)" fill="#46311E" d="M745.629,412.846c7.724,0,13.974,5.609,13.974,12.526
			c0,6.917-6.25,12.526-13.974,12.526c-7.713,0-13.967-5.609-13.967-12.526C731.662,418.455,737.916,412.846,745.629,412.846"/>
		<path clip-path="url(#SVGID_6_)" fill="#46311E" d="M745.629,434.963c7.724,0,13.974,5.609,13.974,12.526
			c0,6.917-6.25,12.519-13.974,12.519c-7.713,0-13.967-5.602-13.967-12.519C731.662,440.572,737.916,434.963,745.629,434.963"/>
		<path clip-path="url(#SVGID_6_)" fill="#46311E" d="M745.629,459.271c7.724,0,13.974,5.609,13.974,12.529
			c0,6.913-6.25,12.522-13.974,12.522c-7.713,0-13.967-5.609-13.967-12.522C731.662,464.88,737.916,459.271,745.629,459.271"/>
		<path clip-path="url(#SVGID_6_)" fill="#46311E" d="M745.629,482.585c7.724,0,13.974,5.609,13.974,12.526
			c0,6.91-6.25,12.519-13.974,12.519c-7.713,0-13.967-5.609-13.967-12.519C731.662,488.194,737.916,482.585,745.629,482.585"/>
		<path clip-path="url(#SVGID_6_)" fill="#46311E" d="M745.629,505.515c7.724,0,13.974,5.605,13.974,12.522
			c0,6.92-6.25,12.526-13.974,12.526c-7.713,0-13.967-5.605-13.967-12.526C731.662,511.121,737.916,505.515,745.629,505.515"/>
		<path clip-path="url(#SVGID_6_)" fill="#423517" d="M748.466,527.61c0,0,12.962,9.352,0,19.835
			c-3.765,2.936,2.295,8.279,2.295,8.279s-3.538-0.461-5.029-2.738c-0.476,3.008,3.685,6.013,3.685,6.013
			s-15.303-1.441-15.955-16.161c0.4-9.687,7.396-7.612,7.313-14.659C744.626,528.18,748.466,527.61,748.466,527.61"/>
		<path clip-path="url(#SVGID_6_)" fill="#EFAF77" d="M757.231,340.742l49.588-16.344c2.958-0.969,5.278-3.783,5.195-6.294
			c-0.079-2.5-2.532-3.754-5.458-2.77l-51.53,16.964c-5.274-17.515-14.504-33.572-27.836-46.904
			c-13.326-13.329-29.385-22.559-46.897-27.829l16.961-51.533c0.969-2.94-0.277-5.386-2.781-5.465
			c-2.507-0.083-5.317,2.244-6.286,5.198l-16.334,49.599c-43.244-9.655-93.711,3.714-133.321,38.597l180.084,180.088
			C753.503,434.443,766.882,383.983,757.231,340.742"/>
		<path clip-path="url(#SVGID_6_)" fill="#FFFFFF" d="M630.698,308.35c-5.364-5.364-5.184-14.208,0.389-19.781
			c5.58-5.58,14.421-5.742,19.778-0.385c5.35,5.35,5.177,14.179-0.404,19.76C644.888,313.516,636.044,313.696,630.698,308.35"/>
		<path clip-path="url(#SVGID_6_)" fill="#FFFFFF" d="M703.733,381.97c-5.494-5.494-5.314-14.604,0.421-20.34
			c5.735-5.735,14.831-5.915,20.332-0.411c5.515,5.515,5.346,14.615-0.393,20.354C718.362,387.305,709.252,387.489,703.733,381.97"
			/>
		<path clip-path="url(#SVGID_6_)" fill="#C58255" d="M628.067,383.497l90.552,90.552c31.334-35.567,45.298-79.892,40.827-119.887
			c-0.512-4.143-1.228-8.257-2.136-12.284c0,0-1.783,75.198-35.881,109.299c-7.99,7.987-13.661-0.872-19.162-6.373
			c-5.303-5.303-44.148-44.148-44.148-44.148s28.986-32.293,7.598-53.677c-21.384-21.384-53.688,7.587-53.688,7.587
			s-38.835-38.835-44.138-44.138c-5.501-5.501-14.359-11.171-6.373-19.158c34.101-34.101,109.299-35.884,109.299-35.884
			c-6.614-1.499-13.408-2.453-20.286-2.886c-37.862-1.931-78.754,12.184-112.001,41.461l90.04,90.04l6.935-5.706
			c0,0-4.471-4.471-16.424-16.42c22.407-22.407,37.336-5.598,37.336-5.598s16.802,14.921-5.602,37.329
			c-11.949-11.949-15.808-15.808-15.808-15.808L628.067,383.497z"/>
		<path clip-path="url(#SVGID_6_)" fill="#46311E" d="M671.398,259.185c4.809-8.152-23.474-24.544-66.131-6.106
			C562.614,271.516,660.112,278.314,671.398,259.185"/>
		<path clip-path="url(#SVGID_6_)" fill="#46311E" d="M752.896,340.682c8.152-4.809,24.544,23.474,6.106,66.127
			C740.564,449.467,733.77,351.969,752.896,340.682"/>
		
			<path clip-path="url(#SVGID_6_)" fill="none" stroke="#423517" stroke-width="0.309" stroke-linecap="round" stroke-miterlimit="10" d="
			M753.967,341.88c-2.796-27.271-18.182-82.518-69.582-77.972"/>
		
			<path clip-path="url(#SVGID_6_)" fill="none" stroke="#423517" stroke-width="0.309" stroke-linecap="round" stroke-miterlimit="10" d="
			M751.518,343.979c4.37-20.105-11.013-77.799-77.097-73.952"/>
		
			<path clip-path="url(#SVGID_6_)" fill="none" stroke="#423517" stroke-width="0.309" stroke-linecap="round" stroke-miterlimit="10" d="
			M750.994,344.505c0.177-8.916-31.994-75-69.931-62.59"/>
		
			<path clip-path="url(#SVGID_6_)" fill="none" stroke="#423517" stroke-width="0.309" stroke-linecap="round" stroke-miterlimit="10" d="
			M752.919,343.629c-7.518-21.853-11.189-46.854-48.601-46.504"/>
		<polygon clip-path="url(#SVGID_6_)" fill="#1B5E20" points="712.807,397.515 649.317,373.526 652.451,371.537 713.856,394.737 		
			"/>
		<polygon clip-path="url(#SVGID_6_)" fill="#1B5E20" points="568.495,339.814 631.982,363.802 628.851,365.791 567.443,342.587 		
			"/>
		<path clip-path="url(#SVGID_6_)" fill="#C2185B" d="M724.473,407.548c-10.339,0.832-24.259-3.332-15.033-12.789
			c4.723-4.845,15.656-5.75,23.729-1.059c8.07,4.69,8.873,2.079,8.873,2.079s5.029,7.915-6.268,9.842L724.473,407.548"/>
		<path clip-path="url(#SVGID_6_)" fill="#D81B60" d="M724.097,405.648c-10.339,0.832-24.259-3.332-15.033-12.789
			c4.726-4.849,15.66-5.75,23.73-1.059c8.07,4.69,8.873,2.079,8.873,2.079s5.029,7.915-6.268,9.842L724.097,405.648"/>
		<path clip-path="url(#SVGID_6_)" fill="#C2185B" d="M729.344,394.215c-7.205-7.461-20.401-13.542-19.738-0.349
			c0.342,6.762,7.947,14.669,17.105,16.485c9.154,1.819,8.03,4.312,8.03,4.312s9.006-2.612,1.805-11.532L729.344,394.215"/>
		<path clip-path="url(#SVGID_6_)" fill="#D81B60" d="M727.805,395.392c-7.205-7.461-20.401-13.542-19.738-0.349
			c0.342,6.762,7.947,14.669,17.101,16.489c9.158,1.819,8.034,4.309,8.034,4.309s9.006-2.608,1.805-11.528L727.805,395.392"/>
		<path clip-path="url(#SVGID_6_)" fill="#C2185B" d="M721.247,400.396c-9.864,1.012-23.042-2.875-14.089-12.432
			c4.59-4.899,15.019-5.991,22.62-1.477c7.601,4.514,8.415,1.906,8.415,1.906s4.647,7.771-6.149,9.889L721.247,400.396"/>
		<path clip-path="url(#SVGID_6_)" fill="#D81B60" d="M720.924,398.517c-9.86,1.012-23.042-2.875-14.089-12.432
			c4.59-4.899,15.019-5.991,22.62-1.477c7.601,4.51,8.415,1.902,8.415,1.902s4.647,7.771-6.149,9.889L720.924,398.517"/>
		<path clip-path="url(#SVGID_6_)" fill="#C2185B" d="M723.636,399.963c-7.205-7.461-20.401-13.542-19.734-0.349
			c0.339,6.762,7.943,14.669,17.101,16.489c9.154,1.819,8.03,4.312,8.03,4.312s9.006-2.612,1.805-11.532L723.636,399.963"/>
		<path clip-path="url(#SVGID_6_)" fill="#D81B60" d="M722.099,401.142c-7.205-7.461-20.401-13.542-19.738-0.349
			c0.342,6.758,7.947,14.669,17.105,16.489c9.154,1.816,8.03,4.309,8.03,4.309s9.006-2.612,1.805-11.528L722.099,401.142"/>
		<path clip-path="url(#SVGID_6_)" fill="#1B5E20" d="M692.616,348.524l0.832-0.656c-0.187,0.108-0.371,0.205-0.558,0.306
			c0.133-0.162,0.267-0.324,0.407-0.486l-0.803,0.688c-14.442,7.183-25.945-14.702-32.945,26.276l0.958,1.171
			C702.068,376.811,682.799,361.324,692.616,348.524"/>
		<path clip-path="url(#SVGID_6_)" fill="#1B5E20" d="M709.165,391.233c-1.427-4.298-4.719-5.933-5.706,4.744
			c-0.508,5.472,5.443,10.696,5.443,10.696s2.853-4.445,1.556-9.943L709.165,391.233"/>
		<path clip-path="url(#SVGID_6_)" fill="#1B5E20" d="M705.638,393.17c-3.419,2.875-6.888,2.525-1.974-6.996
			c2.515-4.881,9.997-6.16,9.997-6.16s-0.115,5.245-4.071,9.201L705.638,393.17"/>
		<path clip-path="url(#SVGID_6_)" fill="#1B5E20" d="M706.463,392.922c-0.778-4.463-3.793-6.564-6.34,3.855
			c-1.308,5.339,3.811,11.377,3.811,11.377s3.476-3.977,3.001-9.604L706.463,392.922"/>
		<polygon clip-path="url(#SVGID_6_)" fill="#1B5E20" points="929.843,308.744 930.055,463.042 927.08,460.826 926.874,308.751 		
			"/>
		<path clip-path="url(#SVGID_6_)" fill="#C2185B" d="M935.06,294.267c4.463,9.363,5.53,23.852-6.593,18.607
			c-6.211-2.691-10.952-12.583-9.446-21.795c1.506-9.212-1.221-9.035-1.221-9.035s5.602-7.518,11.431,2.352L935.06,294.267"/>
		<path clip-path="url(#SVGID_6_)" fill="#D81B60" d="M933.417,295.294c4.463,9.366,5.533,23.856-6.593,18.607
			c-6.211-2.691-10.952-12.583-9.446-21.795c1.506-9.212-1.218-9.035-1.218-9.035s5.602-7.518,11.427,2.352L933.417,295.294"/>
		<path clip-path="url(#SVGID_6_)" fill="#C2185B" d="M920.867,294.468c-4.406,9.392-5.382,23.888,6.708,18.564
			c6.196-2.727,10.872-12.648,9.309-21.853c-1.564-9.204,1.167-9.039,1.167-9.039s-5.652-7.486-11.416,2.421L920.867,294.468"/>
		<path clip-path="url(#SVGID_6_)" fill="#D81B60" d="M922.513,295.486c-4.402,9.392-5.382,23.888,6.708,18.564
			c6.196-2.727,10.872-12.652,9.309-21.853c-1.563-9.204,1.167-9.042,1.167-9.042s-5.652-7.486-11.416,2.424L922.513,295.486"/>
		<path clip-path="url(#SVGID_6_)" fill="#C2185B" d="M929.528,299.829c4.46,8.855,5.526,22.555-6.596,17.595
			c-6.211-2.54-10.948-11.895-9.442-20.61c1.506-8.707-1.218-8.538-1.218-8.538s5.602-7.111,11.427,2.219L929.528,299.829"/>
		<path clip-path="url(#SVGID_6_)" fill="#D81B60" d="M927.885,300.802c4.46,8.855,5.526,22.555-6.596,17.595
			c-6.211-2.543-10.948-11.899-9.442-20.606c1.509-8.711-1.218-8.545-1.218-8.545s5.605-7.108,11.431,2.223L927.885,300.802"/>
		<path clip-path="url(#SVGID_6_)" fill="#C2185B" d="M928.272,297.752c-4.406,9.392-5.382,23.888,6.708,18.564
			c6.196-2.727,10.872-12.652,9.309-21.853c-1.563-9.204,1.167-9.042,1.167-9.042s-5.652-7.486-11.416,2.421L928.272,297.752"/>
		<path clip-path="url(#SVGID_6_)" fill="#D81B60" d="M929.919,298.768c-4.402,9.392-5.382,23.888,6.708,18.564
			c6.196-2.727,10.872-12.648,9.309-21.853c-1.563-9.201,1.167-9.039,1.167-9.039s-5.652-7.486-11.416,2.421L929.919,298.768"/>
		<path clip-path="url(#SVGID_6_)" fill="#1B5E20" d="M891.266,345.068l-0.911-0.54c0.169,0.133,0.328,0.27,0.486,0.407
			c-0.198-0.065-0.4-0.13-0.602-0.205l0.933,0.504c11.856,10.937-4.489,29.483,36.291,21.417l0.749-1.311
			C914.322,326.155,906.724,349.679,891.266,345.068"/>
		<path clip-path="url(#SVGID_6_)" fill="#313322" d="M959.227,384.718l0.771-0.436c-0.166,0.068-0.331,0.126-0.497,0.184
			c0.13-0.119,0.259-0.234,0.4-0.349l-0.753,0.465c-12.857,4.031-19.482-15.527-30.621,17.364l0.641,1.088
			C963.327,409.287,949.454,393.991,959.227,384.718"/>
		<path clip-path="url(#SVGID_6_)" fill="#1B5E20" d="M925.271,314.383c-3.509,2.868-3.862,6.524,6.466,3.642
			c5.296-1.477,8.052-8.898,8.052-8.898s-5.166-1.081-9.842,2.089L925.271,314.383"/>
		<path clip-path="url(#SVGID_6_)" fill="#1B5E20" d="M928.337,316.99c3.905,2.169,4.816,5.533-5.833,4.341
			c-5.458-0.616-9.32-7.147-9.32-7.147s4.943-1.758,10.047,0.522L928.337,316.99"/>
		<path clip-path="url(#SVGID_6_)" fill="#1B5E20" d="M927.811,316.308c-3.891,2.316-4.781,5.886,5.865,4.554
			c5.451-0.684,9.269-7.619,9.269-7.619s-4.953-1.83-10.044,0.616L927.811,316.308"/>
	</g>
</g>
<rect y="485" opacity="0" fill="#FFFFFF" width="960" height="75"/>
</svg>
