<?xml version="1.0" encoding="utf-8"?>
<!-- Generator: Adobe Illustrator 18.0.0, SVG Export Plug-In . SVG Version: 6.00 Build 0)  -->
<!DOCTYPE svg PUBLIC "-//W3C//DTD SVG 1.1//EN" "http://www.w3.org/Graphics/SVG/1.1/DTD/svg11.dtd">
<svg version="1.1" xmlns="http://www.w3.org/2000/svg" xmlns:xlink="http://www.w3.org/1999/xlink" x="0px" y="0px"
	 viewBox="0 0 392.3 287.3" enable-background="new 0 0 392.3 287.3" xml:space="preserve">
<g id="Lacey">
	<path fill="#4D4D4D" d="M274.8,200.7l2.3-0.6c4.7-1.3,9.3-3.6,13.5-6.9c4.2-3.3,7.5-7.2,10-11.5l1.1-2.1c5.2-10.5,5-22.7-1.2-32.3
		l-56.6,44.3C251.5,200.1,263.4,203.1,274.8,200.7"/>
	<path fill="#F6C181" d="M259.6,181.3l27-21.1c2.7-2.1,6.7-1.7,8.9,1.1l6.2,8c1.5,2,1.2,4.8-0.8,6.4l-29.7,23.2
		c-2,1.5-4.8,1.2-6.4-0.8l-6.2-8C256.4,187.4,256.8,183.4,259.6,181.3z"/>
	<g>
		<g>
			<g>
				<path fill="#B3B3B3" d="M156.6,70.9l-14.5-9.5l-23.8,36.3c0,0,7.6,8.2,11.4,2.4c3.8-5.9,6.8-14.2,14-9.5
					c2.5,1.9,4.7,4.3,4.7,4.3c13.5-20.6,13.4-20.5,13.4-20.5L156.6,70.9L156.6,70.9L156.6,70.9z"/>
				<path fill="#808080" d="M145.4,63.5l11.2,7.4c0,0-5.9,10.9-11.7,7.1c-5.8-3.8-12.3,9-15.9,14.6c-3.6,5.5-5,8.1-7.8,6.3
					c17.5-26.7,23.4-35.7,23.4-35.7L145.4,63.5z"/>
				
					<rect x="109.7" y="78.9" transform="matrix(-0.5477 0.8367 -0.8367 -0.5477 271.4471 14.9221)" fill="#4D4D4D" width="43.9" height="3.9"/>
				<path fill="#808080" d="M155.1,82.7l-6.5,9.9c0,0-1.6-3.9-0.9-5.9l4.1-6.2L155.1,82.7L155.1,82.7z"/>
				<rect x="107.4" y="78.5" transform="matrix(-0.5477 0.8367 -0.8367 -0.5477 266.5513 14.4926)" width="43.9" height="1.7"/>
				<path fill="#FFFFFF" d="M150.7,68.4c-2.1-1.4-5-0.7-6.4,1.5c-1.4,2.2-0.9,5.1,1.2,6.5c2.1,1.4,5,0.7,6.4-1.5
					C153.4,72.7,152.8,69.8,150.7,68.4z"/>
			</g>
			<path fill="#E6E6E6" d="M205.5,135.7l16.8-25.6l-54.5-35.7c-2.3-1.5-5.4-0.9-6.9,1.4l-11.3,17.3c-1.5,2.3-0.9,5.4,1.4,6.9
				L205.5,135.7z"/>
		</g>
		<path fill="#888888" d="M168.9,109l6.6-10.1c1.4-2.1,4.2-2.7,6.3-1.3l12.9,8.4c2.1,1.4,2.7,4.2,1.3,6.3l-6.6,10.1
			c-1.4,2.1-4.2,2.7-6.3,1.3l-12.9-8.4C168.1,113.9,167.5,111.1,168.9,109z"/>
	</g>
	<g>
		<g>
			<g>
				<path fill="#B3B3B3" d="M197.5,35.8L190.2,20l39.4-18.3c0,0,7,8.7,0.7,11.7c-6.4,3-15,4.7-11.4,12.5c1.5,2.8,3.5,5.3,3.5,5.3
					c-22.3,10.3-22.2,10.3-22.2,10.3L197.5,35.8L197.5,35.8L197.5,35.8z"/>
				<path fill="#808080" d="M191.8,23.5l5.6,12.2c0,0,11.7-4.3,8.7-10.6c-2.9-6.3,10.7-10.9,16.7-13.7c6-2.8,8.7-3.8,7.3-6.8
					c-28.9,13.4-38.8,18-38.8,18L191.8,23.5z"/>
				
					<rect x="188.9" y="10.6" transform="matrix(0.9072 -0.4207 0.4207 0.9072 14.2946 89.8725)" fill="#4D4D4D" width="43.9" height="3.9"/>
				<path fill="#808080" d="M209.3,35.9l10.7-5c0,0-3.6-2.1-5.7-1.8l-6.7,3.1L209.3,35.9L209.3,35.9z"/>
				<rect x="187.7" y="9.2" transform="matrix(0.9072 -0.4207 0.4207 0.9072 15.249 89.1398)" width="43.9" height="1.7"/>
				<path fill="#FFFFFF" d="M202,31.7c2.4-1.1,3.4-3.8,2.4-6.1c-1.1-2.3-3.8-3.3-6.2-2.2c-2.4,1.1-3.4,3.8-2.4,6.1
					C196.9,31.8,199.7,32.8,202,31.7z"/>
			</g>
			<path fill="#E6E6E6" d="M254.5,93.5l-27.8,12.9l-27.4-59.1c-1.2-2.5-0.1-5.4,2.4-6.6l18.8-8.7c2.5-1.2,5.4-0.1,6.6,2.4
				L254.5,93.5z"/>
		</g>
		<path fill="#888888" d="M233.4,53.4l-11,5.1c-2.3,1-3.2,3.7-2.2,6l6.5,14c1,2.3,3.7,3.2,6,2.2l11-5.1c2.3-1,3.2-3.7,2.2-6l-6.5-14
			C238.3,53.4,235.6,52.4,233.4,53.4z"/>
	</g>
	<g>
		
			<rect x="187.1" y="106.5" transform="matrix(0.7877 -0.616 0.616 0.7877 -19.2978 161.959)" fill="#888888" width="76.6" height="4.9"/>
	</g>
	<g>
		
			<rect x="189.7" y="111.9" transform="matrix(0.7877 -0.616 0.616 0.7877 -21.1376 164.3754)" fill="#807F7F" width="76.6" height="1.8"/>
	</g>
	<path fill="#E2E2E2" d="M268.5,81.7c1.4,1.7,39.1,50,39.1,50l-21.3,16.6L249.7,177l-22,17.2c0,0-38.4-49-39.2-50.2
		c-1.3-1.7-1.3-3.7,0.9-5.4c2.7-2.1,72.2-56.5,73.7-57.7C264.6,79.8,267.1,80,268.5,81.7z"/>
	<path fill="#4D4D4D" d="M300.6,181.7l11.9,4c0.7,0.2,1.4-0.1,1.5-0.7c0.2-0.6-0.2-1.3-0.9-1.5l-11.4-3.8"/>
	<path fill="#4D4D4D" d="M274.8,200.7l1,12c0.1,0.7,0.6,1.3,1.2,1.2c0.6,0,1.1-0.6,1-1.3l-1-12.5"/>
	<path fill="#FFFFFF" d="M289.7,168.7c1.4-1.1,3.4-0.8,4.5,0.6c1.1,1.4,0.9,3.4-0.5,4.5c-1.4,1.1-3.4,0.8-4.5-0.6
		C288.1,171.8,288.4,169.8,289.7,168.7"/>
	<path fill="#FFFFFF" d="M267.2,187.2c1.4-1.1,3.5-0.8,4.6,0.7c1.1,1.5,0.9,3.5-0.5,4.6c-1.4,1.1-3.5,0.8-4.6-0.7
		C265.5,190.4,265.8,188.3,267.2,187.2"/>
	
		<rect x="218.6" y="161.9" transform="matrix(-0.7877 0.616 -0.616 -0.7877 583.1078 129.2387)" fill="#EB2027" width="101.4" height="6.3"/>
	<path fill="#8F8F8F" d="M266.6,160.8"/>
	<path fill="#8F8F8F" d="M272.4,169.3"/>
	<path fill="#999999" d="M219.4,133.5c-1-1.3-0.8-3.2,0.5-4.2l27.6-21.6c1.3-1,3.2-0.8,4.2,0.5l28.2,36c1,1.3,0.8,3.2-0.5,4.2
		L251.7,170c-1.3,1-3.2,0.8-4.2-0.5L219.4,133.5z"/>
	<path fill="#F2F2F2" d="M220.8,135.3c-1-1.3-0.8-3.2,0.5-4.2l27.6-21.6c1.3-1,3.2-0.8,4.2,0.5l28.2,36c1,1.3,0.8,3.2-0.5,4.2
		l-27.6,21.6c-1.3,1-3.2,0.8-4.2-0.5L220.8,135.3z"/>
	<circle fill="#0D72B9" cx="256.8" cy="129.5" r="5.3"/>
	<circle fill="#EC2024" cx="248.4" cy="118.8" r="5.3"/>
	<g>
		<circle fill-rule="evenodd" clip-rule="evenodd" fill="#2A3692" cx="290.3" cy="132.9" r="7.4"/>
		<path fill="#BD202E" d="M285.7,127c3.2-2.5,8-2,10.5,1.3c2.5,3.2,2,8-1.3,10.5c-3.2,2.5-8,2-10.5-1.3
			C281.9,134.2,282.5,129.5,285.7,127z M294.8,138.6c3.1-2.5,3.7-7,1.2-10.2c-2.5-3.1-7-3.7-10.2-1.2c-3.1,2.5-3.7,7-1.2,10.2
			C287.1,140.5,291.6,141,294.8,138.6z"/>
	</g>
	<g>
		<path fill="#FFFFFF" d="M289.3,132.1l-1.2,0.9l-0.1,0.1c-0.2,0.2-0.3,0.4-0.3,0.6c0,0.2,0.1,0.5,0.2,0.7c0.3,0.4,1.1,0.3,1.3,0.1
			l0.7-0.5l0,0c0.1,0,0.1-0.1,0.2,0c0.1,0,0.1,0.1,0.2,0.1c0.1,0.1,0.1,0.1,0.1,0.2c0,0.1,0,0.1-0.1,0.2l-1.3,1l0.4,0.5l1.3-1.1
			c0.2-0.2,0.4-0.4,0.4-0.7c0-0.2-0.1-0.4-0.2-0.7c-0.2-0.2-0.4-0.3-0.6-0.4c-0.3-0.1-0.5,0-0.7,0.1l-0.7,0.6l-0.1,0.1
			c-0.1,0-0.1,0.1-0.2,0c-0.1,0-0.1-0.1-0.2-0.1c-0.1-0.1-0.1-0.1-0.1-0.2c0-0.1,0-0.1,0.1-0.2l1.3-1l0,0l1.7,1.2l0.1,0
			c0.3,0.1,0.6,0.1,0.9-0.1c0.1-0.1,0.3-0.3,0.3-0.4c0.1-0.2,0.1-0.3,0-0.5l-1-2.6l-0.6,0.5l0.9,2.3c0,0.1,0,0.1,0,0.2
			c0,0-0.1,0-0.1,0c0,0-0.1,0-0.1,0l-2.1-1.4L289.3,132.1L289.3,132.1z"/>
		<path fill="#FFFFFF" d="M295.1,130.4l-1.3-1.7l0.6-0.4l1.5,1.9c0.2,0.2,0.3,0.5,0.2,0.7c0,0.2-0.2,0.3-0.4,0.5
			c-0.2,0.1-0.3,0.2-0.6,0.2c-0.2,0-0.4-0.1-0.6-0.2l-1.3-1l-0.2-0.1c0,0-0.1,0-0.1,0c0,0-0.1,0-0.1,0c0,0,0,0.1,0,0.1l1.5,1.9
			l-0.6,0.4l-1.5-1.9c-0.2-0.2-0.2-0.4-0.2-0.6c0-0.2,0.1-0.4,0.3-0.5c0.2-0.1,0.3-0.2,0.5-0.2c0.2,0,0.4,0,0.5,0.1l1.5,1.1l0.1,0.1
			c0,0,0.1,0,0.1,0c0,0,0.1,0,0.1,0c0,0,0-0.1,0-0.1c0,0,0-0.1,0-0.1L295.1,130.4L295.1,130.4z"/>
		<path fill="#FFFFFF" d="M284.9,135.6l2.3,1.6l0.1,0c0.3,0.1,0.6,0.1,0.9-0.1c0.1-0.1,0.3-0.3,0.3-0.4c0.1-0.2,0.1-0.3,0-0.5
			l-1-2.6l-0.6,0.5l0.9,2.3c0,0.1,0,0.1,0,0.2c0,0-0.1,0-0.1,0c0,0-0.1,0-0.1,0l-2.1-1.4L284.9,135.6L284.9,135.6z"/>
	</g>
	<g>
		<g>
			<path fill="#4D4D4D" d="M264.8,261.5L264.8,261.5c1.5-1,3.4-0.6,4.4,0.8l7.3,10.8c1,1.4,0.6,3.3-0.8,4.3l-0.1,0
				c-1.4,1-3.3,0.6-4.3-0.8l-7.3-10.8C263,264.4,263.4,262.4,264.8,261.5z"/>
			<path fill="#4D4D4D" d="M262.7,268.2L262.7,268.2c1.5-1,3.4-0.6,4.4,0.8l7.3,10.8c1,1.4,0.6,3.3-0.8,4.3l-0.1,0
				c-1.4,1-3.3,0.6-4.3-0.8l-7.3-10.8C260.9,271.1,261.3,269.2,262.7,268.2z"/>
			<path fill="#4D4D4D" d="M257.2,270L257.2,270c1.5-1,3.4-0.6,4.4,0.8l7.3,10.8c1,1.4,0.6,3.3-0.8,4.3l-0.1,0
				c-1.4,1-3.3,0.6-4.3-0.8l-7.3-10.8C255.4,272.8,255.8,270.9,257.2,270z"/>
			<path fill="#4D4D4D" d="M251.1,270.8L251.1,270.8c1.5-1,3.4-0.6,4.4,0.8l7.3,10.8c1,1.4,0.6,3.3-0.8,4.3l-0.1,0
				c-1.4,1-3.3,0.6-4.3-0.8l-7.3-10.8C249.3,273.7,249.6,271.8,251.1,270.8z"/>
			<path fill="#808080" d="M241.8,262.9l8.8,12.9c3.6,5.2,8.4,3.2,13.6-0.4c5.2-3.6,8.9-7.3,5.4-12.5l-8.7-12.8L241.8,262.9z"/>
			
				<rect x="268.8" y="271.2" transform="matrix(-0.8277 0.5611 -0.5611 -0.8277 649.6761 344.4257)" fill="#B3B3B3" width="6.3" height="1.4"/>
			
				<rect x="266.2" y="277.2" transform="matrix(-0.8277 0.5611 -0.5611 -0.8277 648.2819 356.905)" fill="#B3B3B3" width="6.3" height="1.4"/>
			
				<rect x="260.4" y="278.6" transform="matrix(-0.8277 0.5612 -0.5612 -0.8277 638.5071 362.6413)" fill="#B3B3B3" width="6.3" height="1.4"/>
			
				<rect x="255.1" y="280.6" transform="matrix(-0.8277 0.5612 -0.5612 -0.8277 629.7594 369.1797)" fill="#B3B3B3" width="6.3" height="1.4"/>
			<path fill="#4D4D4D" d="M259.9,257.4L259.9,257.4c0.7-1.6,2.5-2.4,4.1-1.8l12.1,4.9c1.6,0.6,2.4,2.5,1.7,4l0,0.1
				c-0.6,1.6-2.5,2.4-4,1.7l-12.1-4.9C260,260.8,259.2,259,259.9,257.4z"/>
			
				<rect x="268.4" y="261.4" transform="matrix(-0.3685 0.9296 -0.9296 -0.3685 615.3199 106.2844)" fill="#B3B3B3" width="6.3" height="1.4"/>
			<circle fill="#4D4D4D" cx="261.3" cy="262" r="6.8"/>
		</g>
		<path fill="#E2E2E2" d="M214,199.5l-2.2,1.5c-5.4,3.6-6.8,10.9-3.2,16.3l29.7,44.1c0.9,1.4,2.8,1.7,4.1,0.8l16.7-11.2
			c1.4-0.9,1.7-2.8,0.8-4.1l-29.7-44.1C226.7,197.4,219.4,195.9,214,199.5z"/>
		<g>
			
				<rect x="214.3" y="208.6" transform="matrix(0.8298 -0.5581 0.5581 0.8298 -81.2571 159.9842)" fill="#EC2024" width="14.7" height="9.2"/>
			
				<rect x="212.5" y="210.1" transform="matrix(0.8298 -0.5581 0.5581 0.8298 -80.0779 158.534)" fill="#FFFFFF" width="14.7" height="0.8"/>
			
				<rect x="213.4" y="211.5" transform="matrix(0.8298 -0.5581 0.5581 0.8298 -80.6852 159.2808)" fill="#FFFFFF" width="14.7" height="0.8"/>
			
				<rect x="214.4" y="212.9" transform="matrix(0.8298 -0.5581 0.5581 0.8298 -81.2924 160.0274)" fill="#FFFFFF" width="14.7" height="0.8"/>
			
				<rect x="215.3" y="214.3" transform="matrix(0.8298 -0.5581 0.5581 0.8298 -81.8997 160.7743)" fill="#FFFFFF" width="14.7" height="0.8"/>
			
				<rect x="216.2" y="215.6" transform="matrix(0.8298 -0.5581 0.5581 0.8298 -82.507 161.5211)" fill="#FFFFFF" width="14.7" height="0.8"/>
			
				<rect x="213.6" y="211.2" transform="matrix(-0.8298 0.5581 -0.5581 -0.8298 516.2914 269.1566)" fill="#0D72B9" width="7" height="4.3"/>
		</g>
		
			<rect x="250.3" y="245" transform="matrix(-0.5554 -0.8316 0.8316 -0.5554 177.2849 608.1711)" fill="#F44336" width="1.8" height="23.4"/>
	</g>
	<g>
		<g>
			<path fill="#4D4D4D" d="M366,181.3L366,181.3c-1.3,1.2-1.3,3.2-0.2,4.4l9,9.5c1.2,1.2,3.1,1.3,4.4,0.1l0,0
				c1.2-1.2,1.3-3.1,0.1-4.4l-9-9.5C369.2,180.1,367.3,180.1,366,181.3z"/>
			<path fill="#4D4D4D" d="M373,180.6L373,180.6c-1.3,1.2-1.3,3.2-0.2,4.4l9,9.5c1.2,1.2,3.1,1.3,4.4,0.1l0,0
				c1.2-1.2,1.3-3.1,0.1-4.4l-9-9.5C376.2,179.5,374.3,179.4,373,180.6z"/>
			<path fill="#4D4D4D" d="M375.9,175.6L375.9,175.6c-1.3,1.2-1.3,3.2-0.2,4.4l9,9.5c1.2,1.2,3.1,1.3,4.4,0.1l0,0
				c1.2-1.2,1.3-3.1,0.1-4.4l-9-9.5C379.1,174.5,377.2,174.4,375.9,175.6z"/>
			<path fill="#4D4D4D" d="M378.1,169.8L378.1,169.8c-1.3,1.2-1.3,3.2-0.2,4.4l9,9.5c1.2,1.2,3.1,1.3,4.4,0.1l0,0
				c1.2-1.2,1.3-3.1,0.1-4.4l-9-9.5C381.3,168.7,379.3,168.6,378.1,169.8z"/>
			<path fill="#808080" d="M372.4,159.1l10.7,11.3c4.4,4.6,1.3,8.9-3.3,13.2c-4.6,4.4-9,7.2-13.4,2.6L355.8,175L372.4,159.1z"/>
			
				<rect x="371.6" y="189.8" transform="matrix(0.7259 -0.6878 0.6878 0.7259 -28.3075 309.9503)" fill="#B3B3B3" width="6.3" height="1.4"/>
			
				<rect x="378" y="188.5" transform="matrix(0.7259 -0.6878 0.6878 0.7259 -25.6754 314.0396)" fill="#B3B3B3" width="6.3" height="1.4"/>
			
				<rect x="380.6" y="183.2" transform="matrix(0.7259 -0.6878 0.6878 0.7259 -21.2975 314.3423)" fill="#B3B3B3" width="6.3" height="1.4"/>
			
				<rect x="383.6" y="178.3" transform="matrix(0.7259 -0.6878 0.6878 0.7259 -17.1398 315.0861)" fill="#B3B3B3" width="6.3" height="1.4"/>
			<path fill="#4D4D4D" d="M363.1,175.6L363.1,175.6c-1.8,0.3-2.9,1.9-2.6,3.6l2.2,12.9c0.3,1.7,1.9,2.8,3.6,2.5l0.1,0
				c1.7-0.3,2.8-1.9,2.5-3.6l-2.2-12.9C366.4,176.4,364.8,175.3,363.1,175.6z"/>
			
				<rect x="362.1" y="187.3" transform="matrix(0.9871 -0.1602 0.1602 0.9871 -25.3933 60.9182)" fill="#B3B3B3" width="6.3" height="1.4"/>
			<circle fill="#4D4D4D" cx="367.2" cy="178" r="6.8"/>
		</g>
		<g>
			<path fill="#E2E2E2" d="M317.7,117.1l-1.9,1.8c-4.7,4.5-4.9,11.9-0.4,16.6l36.7,38.5c1.1,1.2,3,1.2,4.2,0.1l14.6-13.9
				c1.2-1.1,1.2-3,0.1-4.2l-36.7-38.5C329.8,112.8,322.4,112.6,317.7,117.1z"/>
			
				<rect x="363.1" y="155.4" transform="matrix(-0.6882 -0.7255 0.7255 -0.6882 493.3596 546.2884)" fill="#F44336" width="1.8" height="23.4"/>
		</g>
	</g>
	
		<rect x="283.8" y="186.4" transform="matrix(-0.7877 0.616 -0.616 -0.7877 633.1388 162.8247)" fill="#F2F2F2" width="9.5" height="8.3"/>
	<path opacity="0.6" fill="#FF9800" d="M272.6,215.7c0.2,0.5,0.4,1,0.7,1.4c1.5,1.9,4.3,2.3,6.2,0.8c1.2-0.9,1.8-2.4,1.7-3.8
		c6.6-1.8,13.1-5,18.9-9.6c5.5-4.3,9.9-9.4,13.2-15c1.2,0.2,2.4-0.1,3.5-0.9c1.9-1.5,2.3-4.3,0.8-6.2c-0.2-0.2-0.3-0.4-0.5-0.5
		c6-15.2,4.4-32.5-5.9-45.6l-79.8,62.4C241.2,211.5,256.9,217.2,272.6,215.7z"/>
	<path opacity="0.7" fill="#FFFFFF" d="M308.2,150.8c0.4-0.3,0.9-0.6,1.4-0.7c2.2-0.7,4.5,0.6,5.2,2.8c0.3,0.8,0.5,1.7,0.7,2.5
		c0.5,2.2-0.9,4.5-3.1,5c-2.2,0.5-4.5-0.9-5-3.1c-0.2-0.7-0.3-1.3-0.5-2C306.3,153.6,306.9,151.8,308.2,150.8z"/>
	<path opacity="0.7" fill="#FFFFFF" d="M309.7,163.4c0.8-0.6,1.8-0.9,2.8-0.9c2.3,0.1,4,2.1,3.9,4.4c-0.8,13.5-7,25.8-16.9,33.5
		c-1.8,1.4-4.4,1.1-5.8-0.7c-1.4-1.8-1.1-4.4,0.7-5.8c7.9-6.2,13.1-16.5,13.7-27.5C308.2,165.2,308.8,164.1,309.7,163.4z"/>
	<path fill="#FFFFFF" d="M275.3,90.3c1.1-0.9,2.8-0.7,3.7,0.4c0.9,1.1,0.7,2.8-0.4,3.7c-14.9,11.7-21.4,23.3-19.1,34.7
		c0.3,1.4-0.6,2.8-2.1,3.1c-1.4,0.3-2.8-0.6-3.1-2.1C251.6,116.6,258.7,103.2,275.3,90.3z"/>
	<path fill="#FFFFFF" d="M266.6,79.2c1.1-0.9,2.8-0.7,3.7,0.4c0.9,1.1,0.7,2.8-0.4,3.7c-14.9,11.7-21.4,23.3-19.1,34.7
		c0.3,1.4-0.6,2.8-2.1,3.1c-1.4,0.3-2.8-0.6-3.1-2.1C242.9,105.5,250,92.2,266.6,79.2z"/>
	
		<rect x="249" y="159.4" transform="matrix(-0.7877 0.616 -0.616 -0.7877 547.9996 138.7343)" fill="#888888" width="2.2" height="8.7"/>
</g>
<g id="Layer_3">
	<path fill="none" stroke="#999999" stroke-width="4" stroke-linecap="round" stroke-miterlimit="10" d="M233.6,121.5
		c0,0,8.9,58.2-36.9,58.1c-11.2,0-21-5.4-28.4-13.5c-7.7-8.4-11.2-21.1-20.2-28.2c-11.8-9.4-35.4-11.8-46.6-0.4
		c0,0-27.9,20.9-15.6,42.1s45.7,6.1,37.7-12.5c-6-14-30-16.3-42.9-16.1c-8.7,0.1-18.5,1.4-26,6.2c-12.5,7.9-14.2,25-21.3,36.9
		c-7,11.6-18.3,15.6-31.4,16.1"/>
</g>
</svg>
