<?xml version="1.0" encoding="utf-8"?>
<!-- Generator: Adobe Illustrator 18.0.0, SVG Export Plug-In . SVG Version: 6.00 Build 0)  -->
<!DOCTYPE svg PUBLIC "-//W3C//DTD SVG 1.1//EN" "http://www.w3.org/Graphics/SVG/1.1/DTD/svg11.dtd">
<svg version="1.1" id="Layer_3" xmlns="http://www.w3.org/2000/svg" xmlns:xlink="http://www.w3.org/1999/xlink" x="0px" y="0px"
	 viewBox="0 0 173 226.2" enable-background="new 0 0 173 226.2" xml:space="preserve">
<g>
	<path fill="#ECBE97" d="M101.5,65.1l5.1-9.3c0.3-0.5,0.1-1.1-0.4-1.4c-0.5-0.3-1.1-0.1-1.4,0.4l-5.1,9.4c-4.3-1.9-9.2-3-14.3-3
		c-5.1,0-10,1.1-14.3,3L66,54.8c-0.3-0.5-0.9-0.7-1.4-0.4c-0.5,0.3-0.7,0.9-0.4,1.4l5.1,9.3c-10,5.2-16.8,15-16.8,26.3h65.8
		C118.3,80.1,111.5,70.3,101.5,65.1z"/>
	<circle fill="#FFFFFF" cx="72.1" cy="77.4" r="3.9"/>
	<circle fill="#FFFFFF" cx="98.7" cy="77.4" r="3.9"/>
	<path fill="#2C2216" d="M84.2,61.4c0,0-2.6,0.3-4.8,3.4c-2.2,3.1-11.2,11.1-19.6,6c-5-3.1-3.7-9.2-1.5-11.3c0.7,3.5,4.1,5,8.9,1.9
		C72.1,58.4,79.8,55.6,84.2,61.4z"/>
	<path fill="#2C2216" d="M84.2,61.4c0,0,2.6,0.3,4.8,3.4c2.2,3.1,11.2,11.1,19.6,6c5-3.1,3.7-9.2,1.5-11.3c-0.7,3.5-4.1,5-8.9,1.9
		C96.4,58.4,88.7,55.6,84.2,61.4z"/>
	<path fill="#2C2216" d="M84.1,86.5c0,0,3.1,4,7.6,4c4.5,0,5.9-1.9,7-3.6c1.1-1.7,0.3-2-0.2-1.8c-3.4,2-4.8-0.5-8.1-2.6
		c-3.3-2.1-6.3,0-6.3,0s-3-2.1-6.3,0c-3.3,2.1-4.8,4.6-8.1,2.6c-0.5-0.3-1.3,0-0.2,1.8c1.1,1.7,2.5,3.6,7,3.6
		C81,90.5,84.1,86.5,84.1,86.5z"/>
	
		<rect x="67.9" y="157" fill="#764F29" stroke="#FFFFFF" stroke-width="0.1842" stroke-miterlimit="10" width="13.2" height="60.1"/>
	
		<rect x="89.7" y="157" fill="#764F29" stroke="#FFFFFF" stroke-width="0.1842" stroke-miterlimit="10" width="13.2" height="60.1"/>
	<g>
		<defs>
			<path id="SVGID_1_" d="M56.4,165.9c0,3.8,3.1,3,6.9,1.3l22.1-8.3l17.8,7.9c6.3,1.8,9.7,3,11.3,1.3V93.1h-58V165.9z"/>
		</defs>
		<clipPath id="SVGID_2_">
			<use xlink:href="#SVGID_1_"  overflow="visible"/>
		</clipPath>
		<g clip-path="url(#SVGID_2_)">
			<rect x="56.2" y="92.5" fill="#263238" width="58.4" height="84.3"/>
			<line fill="none" stroke="#4D4E4E" stroke-width="0.1389" stroke-miterlimit="10" x1="85" y1="112.5" x2="85" y2="176.9"/>
			<polygon fill="#FFFFFF" points="96.1,93 85,112.7 73.9,93 			"/>
			<polygon fill="#4D4D4D" points="85,93 88.7,94.2 85,97.9 81.4,94.2 			"/>
			<polygon fill="#4D4D4D" points="85,112.8 82.6,105.9 85,93.2 87.4,105.9 			"/>
			<path fill="#FFFFFF" d="M87.9,90.8C87,88.8,85,93,85,93h11.3L87.9,90.8z"/>
			<polygon fill="#4D4E4E" points="92.5,93 100.2,93 95.6,99.4 93.3,99.4 95.2,100.6 85,113.1 85,112.7 			"/>
			<polygon opacity="0.2" fill="#191819" enable-background="new    " points="78.8,93 85,110.4 90.9,93 93,93 85,113.1 76.9,93 			
				"/>
			<g>
				<polygon fill="#4D4E4E" points="77.6,93 69.9,93 74.5,99.4 76.7,99.4 74.9,100.6 85,113.1 85,112.7 				"/>
				<polygon fill="#263238" points="78,93 70.5,93 74.9,99.1 77.9,99.1 75.7,100.6 85,112.7 				"/>
			</g>
			<polygon fill="#263238" points="92,93 99.6,93 95.1,99.1 92.1,99.1 94.3,100.6 85,112.7 			"/>
			<circle fill="#4D4E4E" cx="87.8" cy="115.3" r="1.3"/>
			<circle fill="#4D4E4E" cx="87.8" cy="121.5" r="1.3"/>
			<path fill="none" stroke="#4D4E4E" stroke-width="0.1389" stroke-miterlimit="10" d="M104.2,128.5c0,0.6-0.5,1.1-1.1,1.1h-7.6
				c-0.6,0-1.1-0.5-1.1-1.1v-5.8h9.8V128.5z"/>
			<path fill="none" stroke="#4D4E4E" stroke-width="0.1389" stroke-miterlimit="10" d="M65.8,122.6h9.8v5.8c0,0.6-0.5,1.1-1.1,1.1
				h-7.6c-0.6,0-1.1-0.5-1.1-1.1V122.6L65.8,122.6z"/>
			<path opacity="0.1" enable-background="new    " d="M85,96.5c0.4,0,0.7,0.2,0.7,0.5c0,0,0-0.1,0-0.1c0-0.3-0.3-0.6-0.7-0.6
				c-0.4,0-0.7,0.3-0.7,0.6c0,0,0,0.1,0,0.1C84.4,96.7,84.7,96.5,85,96.5z"/>
			<circle fill="#676767" cx="87.3" cy="115.6" r="0.2"/>
			<circle fill="#676767" cx="88.3" cy="115" r="0.2"/>
			<circle fill="#676767" cx="87.2" cy="121.3" r="0.2"/>
			<circle fill="#676767" cx="88.3" cy="121.6" r="0.2"/>
		</g>
	</g>
	<g>
		<path fill="#191819" d="M81.7,224.8v1.4l-6.8,0v-0.6c0,0-2.7-0.5-4.8,0.6c-4.5,0-18.7,0-18.7,0s-0.2-1.5,1.2-1.5
			c1.4,0,0.5-0.7,0.5-0.7l28.6-1L81.7,224.8z"/>
		<path fill="#0E0E0F" d="M80.6,215c0,0-4.2,3.4-11.9,0.5c-5.8,3-8.6,4.7-14.3,5.8c-2.7,0.6-2.4,3.6-2.4,3.6s29.5,0.1,29.7,0
			c0,0,0.4-1.2,0.3-4.8C81.9,216.5,80.6,215,80.6,215z"/>
		<path fill="#141414" d="M63.9,221.8c-3,1.2-5.2,1.4-6-1.1l0,0c3.6-1.1,6.3-2.5,10.8-4.8c7.7,2.9,11.7-0.4,11.7-0.4s0.9,1,1,4.6
			c0.1,3.6-0.5,4.6-0.5,4.6c-0.1,0-3.3,0-3.3,0S73.7,218.7,63.9,221.8z"/>
		
			<line fill="none" stroke="#282827" stroke-width="0.1161" stroke-linecap="round" stroke-linejoin="round" x1="67.3" y1="215.9" x2="69.7" y2="217.5"/>
		
			<line fill="none" stroke="#282827" stroke-width="0.1161" stroke-linecap="round" stroke-linejoin="round" x1="66" y1="216.7" x2="68" y2="218.3"/>
		
			<line fill="none" stroke="#282827" stroke-width="0.1161" stroke-linecap="round" stroke-linejoin="round" x1="64.5" y1="217.4" x2="66.3" y2="219.1"/>
		
			<line fill="none" stroke="#282827" stroke-width="0.1161" stroke-linecap="round" stroke-linejoin="round" x1="63.1" y1="218.1" x2="64.8" y2="219.8"/>
		
			<line fill="none" stroke="#282827" stroke-width="0.1161" stroke-linecap="round" stroke-linejoin="round" x1="61.6" y1="218.9" x2="63.1" y2="220.6"/>
		
			<line fill="none" stroke="#282827" stroke-width="0.1161" stroke-linecap="round" stroke-linejoin="round" x1="60" y1="219.6" x2="61.3" y2="221.3"/>
	</g>
	<g>
		<path fill="#191819" d="M89.5,224.8v1.4l6.8,0v-0.6c0,0,2.7-0.5,4.8,0.6c4.5,0,18.7,0,18.7,0s0.2-1.5-1.2-1.5
			c-1.4,0-0.5-0.7-0.5-0.7l-28.6-1L89.5,224.8z"/>
		<path fill="#0E0E0F" d="M90.5,215c0,0,4.2,3.4,11.9,0.5c5.8,3,8.6,4.7,14.3,5.8c2.7,0.6,2.4,3.6,2.4,3.6s-29.5,0.1-29.7,0
			c0,0-0.4-1.2-0.3-4.8C89.2,216.5,90.5,215,90.5,215z"/>
		<path fill="#141414" d="M107.2,221.8c3,1.2,5.2,1.4,6-1.1l0,0c-3.6-1.1-6.3-2.5-10.8-4.8c-7.7,2.9-11.7-0.4-11.7-0.4s-0.9,1-1,4.6
			s0.5,4.6,0.5,4.6c0,0,3.3,0,3.3,0S97.4,218.7,107.2,221.8z"/>
		
			<line fill="none" stroke="#282827" stroke-width="0.1161" stroke-linecap="round" stroke-linejoin="round" x1="103.8" y1="215.9" x2="101.4" y2="217.5"/>
		
			<line fill="none" stroke="#282827" stroke-width="0.1161" stroke-linecap="round" stroke-linejoin="round" x1="105.1" y1="216.7" x2="103.1" y2="218.3"/>
		
			<line fill="none" stroke="#282827" stroke-width="0.1161" stroke-linecap="round" stroke-linejoin="round" x1="106.6" y1="217.4" x2="104.8" y2="219.1"/>
		
			<line fill="none" stroke="#282827" stroke-width="0.1161" stroke-linecap="round" stroke-linejoin="round" x1="108" y1="218.1" x2="106.3" y2="219.8"/>
		
			<line fill="none" stroke="#282827" stroke-width="0.1161" stroke-linecap="round" stroke-linejoin="round" x1="109.5" y1="218.9" x2="108" y2="220.6"/>
		
			<line fill="none" stroke="#282827" stroke-width="0.1161" stroke-linecap="round" stroke-linejoin="round" x1="111.1" y1="219.6" x2="109.8" y2="221.3"/>
	</g>
	<path fill="none" d="M103.8,155.8"/>
	<polyline fill="#4D4D4D" points="84.3,93.1 78.8,93 79.3,94.4 81.4,94.2 88.7,94.2 91.5,94.4 92,93.1 	"/>
	<g>
		<path fill="#ECBE97" d="M50.2,105.3c-2.5,2.5-6.6,2.5-9.2,0l-37.9-38c-2.5-2.5-2.5-6.6,0-9.2c2.5-2.5,6.6-2.5,9.2,0l37.9,38
			C52.7,98.7,52.7,102.8,50.2,105.3z"/>
		<g>
			<path fill="#263238" d="M6.1,70.5l34.8,34.8c2.6,2.6,6.7,2.6,9.3,0l0,0c2.6-2.6,2.6-6.7,0-9.3L15.4,61.2L6.1,70.5L6.1,70.5z"/>
			
				<rect x="2.8" y="62.6" transform="matrix(0.7073 -0.707 0.707 0.7073 -42.849 25.5148)" fill="#FFFFFF" width="13.1" height="3.9"/>
			<g>
				<circle fill="#4D4E4E" cx="15.5" cy="64.3" r="0.8"/>
			</g>
			<g>
				<circle fill="#4D4E4E" cx="16.8" cy="65.7" r="0.8"/>
			</g>
			<g>
				<circle fill="#4D4E4E" cx="18.2" cy="67.1" r="0.8"/>
			</g>
		</g>
	</g>
	<g>
		<path fill="#ECBE97" d="M120.4,105.2c2.5,2.5,6.6,2.5,9.2,0l37.9-38c2.5-2.5,2.5-6.6,0-9.2c-2.5-2.5-6.6-2.5-9.2,0l-37.9,38
			C117.8,98.5,117.8,102.7,120.4,105.2z"/>
		<g>
			<path fill="#263238" d="M164.4,70.4l-34.8,34.8c-2.6,2.6-6.7,2.6-9.3,0l0,0c-2.6-2.6-2.6-6.7,0-9.3l34.8-34.8L164.4,70.4
				L164.4,70.4z"/>
			
				<rect x="154.6" y="62.4" transform="matrix(-0.7073 -0.7069 0.7069 -0.7073 229.6398 223.837)" fill="#FFFFFF" width="13.1" height="3.9"/>
			<g>
				<circle fill="#4D4E4E" cx="155.1" cy="64.2" r="0.8"/>
			</g>
			<g>
				<circle fill="#4D4E4E" cx="153.7" cy="65.6" r="0.8"/>
			</g>
			<g>
				<circle fill="#4D4E4E" cx="152.3" cy="66.9" r="0.8"/>
			</g>
		</g>
	</g>
	<g>
		<polygon fill="#B4E1E6" points="5.8,19.9 3.5,22.6 2.4,19.3 1.1,20.8 0,12.8 1.9,17.5 3.4,15.7 		"/>
		<polygon fill="#B4E1E6" points="20.4,18.1 16.7,18.1 18.6,15 16.5,15 22.1,8.6 19.7,13.4 22.1,13.4 		"/>
		<polygon fill="#B4E1E6" points="23.6,21.3 25.9,24 27,20.7 28.3,22.1 29.4,14.2 27.5,18.9 26,17.1 		"/>
		<polygon fill="#B4E1E6" points="7.6,18.1 11.4,18.1 9.4,15 11.5,15 5.9,8.6 8.4,13.4 5.9,13.4 		"/>
		<rect x="8.9" y="33.1" fill="#BE272D" width="9.5" height="27.6"/>
		<rect x="16.9" y="33.1" opacity="0.49" fill="#F2805F" width="1.5" height="27.6"/>
		<rect x="9" y="33.1" opacity="0.49" fill="#F2805F" width="1.5" height="27.6"/>
		<rect x="8.9" y="29.5" width="9.5" height="3.6"/>
		<rect x="4.4" y="58.9" width="18.5" height="4.4"/>
		<rect x="15.5" y="26" width="1.2" height="3.6"/>
		<rect x="10.9" y="26" width="1.2" height="3.6"/>
		<path fill="#B3DDEB" d="M4,25.1c0,1.2,1,2.2,2.3,2.2H21c1.3,0,2.3-1,2.3-2.2v-1.5c0-1.2-1-2.2-2.3-2.2H6.3c-1.3,0-2.3,1-2.3,2.2
			V25.1z"/>
		<path fill="#E9EDF0" d="M12.1,24.8"/>
	</g>
	<path fill="#B4E1E6" d="M30.5,22.9C32.6,22.9,68.6,9,68.6,9l-1.8,6.8l16.3-5.4l18.2,5.7l-1.4-8l42.7,14.7l-35.8-7.4l3.8,5.3
		l-27.6-4.5l-26.8,4.6l4.3-4.6L30.5,22.9z"/>
	<g>
		<polygon fill="#B4E1E6" points="167.2,17.7 169.5,20.5 170.6,17.1 171.9,18.6 173,10.6 171.1,15.3 169.6,13.6 		"/>
		<polygon fill="#B4E1E6" points="162.7,9.5 158.9,9.5 160.8,6.3 158.8,6.3 164.3,0 161.9,4.8 164.3,4.8 		"/>
		<rect x="152.3" y="34.5" fill="#BE272D" width="9.5" height="27.6"/>
		<rect x="152.2" y="34.5" opacity="0.49" fill="#F2805F" width="1.5" height="27.6"/>
		<rect x="160.2" y="34.5" opacity="0.49" fill="#F2805F" width="1.5" height="27.6"/>
		<rect x="151.8" y="27.4" width="9.5" height="3.6"/>
		<rect x="153.6" y="23.8" width="1.2" height="3.6"/>
		<rect x="158.2" y="23.8" width="1.2" height="3.6"/>
		<polygon fill="#E9EDF0" points="156.9,19.2 156.9,22.2 151.9,22.2 		"/>
		<polygon fill="#E9EDF0" points="156.9,22.2 156.9,25.2 161.4,22.2 		"/>
		<polygon fill="#E9EDF0" points="161.4,22.2 161.4,19.2 166,22.2 		"/>
		<path fill="#E9EDF0" d="M158.1,22.6"/>
		<polygon fill="#B4E1E6" points="149.8,9.5 153.6,9.5 151.7,6.3 153.7,6.3 148.1,0 150.6,4.8 148.1,4.8 		"/>
		<polygon fill="#B4E1E6" points="146.7,19.1 144.3,21.9 143.2,18.5 141.9,20 140.8,12 142.7,16.7 144.3,15 		"/>
		<rect x="147.7" y="60.3" width="18.5" height="4.4"/>
		<path fill="#B3DDEB" d="M166.2,22.9c0,1.2-1,2.2-2.3,2.2h-14.7c-1.3,0-2.3-1-2.3-2.2v-1.6c0-1.2,1-2.2,2.3-2.2h14.7
			c1.3,0,2.3,1,2.3,2.2V22.9z"/>
	</g>
</g>
</svg>
