<?xml version="1.0" encoding="utf-8"?>
<!-- Generator: Adobe Illustrator 17.1.0, SVG Export Plug-In . SVG Version: 6.00 Build 0)  -->
<!DOCTYPE svg PUBLIC "-//W3C//DTD SVG 1.1//EN" "http://www.w3.org/Graphics/SVG/1.1/DTD/svg11.dtd">
<svg version="1.1" id="Layer_1" xmlns="http://www.w3.org/2000/svg" xmlns:xlink="http://www.w3.org/1999/xlink" x="0px" y="0px"
	 viewBox="0 0 539.1 353.8" enable-background="new 0 0 539.1 353.8" xml:space="preserve">
<g id="skyline">
	<g>
		<polygon fill="#F3F3F3" points="144,187.4 115.2,187.4 115.2,124.8 109.9,124.8 109.9,109.3 104.9,109.3 104.9,89.4 101.7,89.4 
			101.7,72.9 99.9,72.9 99.9,89.4 96.6,89.4 96.6,109.3 91.7,109.3 91.7,124.8 86.4,124.8 86.4,204.9 57.6,204.9 57.6,164.8 
			28.8,164.8 28.8,218.9 0,218.9 0,250.3 28.8,250.3 57.6,250.3 86.4,250.3 115.2,250.3 144,250.3 172.8,250.3 172.8,158.9 
			144,158.9 		"/>
		<polygon fill="#F3F3F3" points="499,219 499,204.9 470.2,204.9 470.2,154.7 458.8,123.1 447.4,154.7 447.4,187.6 393.8,187.6 
			393.8,204.9 379.4,204.9 379.4,158.9 354.7,178.9 354.7,204.9 341.4,204.9 341.4,180.7 314,180.7 314,204.9 309.6,204.9 
			309.6,150.7 289.8,150.7 289.8,204.9 282.4,204.9 282.4,178 253.6,178 253.6,204.9 243.7,204.9 243.7,130.7 214.9,130.7 
			214.9,177.6 202.9,177.6 202.9,148.1 184.7,148.1 184.7,177.6 172.8,177.6 172.8,250.3 214.9,250.3 234.7,250.3 243.3,250.3 
			243.7,250.3 393.8,250.3 447.4,250.3 455.8,250.3 470.2,250.3 499,250.3 539.1,250.3 539.1,219 		"/>
		<rect x="415.5" y="142.1" fill="#F3F3F3" width="18.2" height="45.5"/>
	</g>
</g>
</svg>
