<?xml version="1.0" encoding="utf-8"?>
<!-- Generator: Adobe Illustrator 17.1.0, SVG Export Plug-In . SVG Version: 6.00 Build 0)  -->
<!DOCTYPE svg PUBLIC "-//W3C//DTD SVG 1.1//EN" "http://www.w3.org/Graphics/SVG/1.1/DTD/svg11.dtd">
<svg version="1.1" xmlns="http://www.w3.org/2000/svg" xmlns:xlink="http://www.w3.org/1999/xlink" x="0px" y="0px"
	 viewBox="0 0 506.3 264.7" enable-background="new 0 0 506.3 264.7" xml:space="preserve">
<g id="Layer_1">
	<g>
		<g>
			<path fill="#78C257" d="M18.1,218.1c0,5-4,9-9,9c-5,0-9-4-9-9l0-37.8c0-5,4-9,9-9c5,0,9,4,9,9L18.1,218.1z M104.9,221.9
				l-4.8-58.3l-80.3,6.6l4.8,58.3c0.4,5.3,5.1,9.2,10.4,8.8l3.5-0.3l0,18.7c0,5,4,9,9,9c5,0,9-4,9-9l0-20.2l11.6-1v21.1c0,5,4,9,9,9
				c5,0,9-4,9-9l0-22.6l3.3-0.3l6.5-0.5C101.4,231.8,105.3,227.2,104.9,221.9L104.9,221.9z M107.2,174.4c4,3,9.6,2.2,12.6-1.8
				l19.2-25.6c3-4,2.2-9.7-1.8-12.6c0,0-0.1-0.1-0.1-0.1l7.1-7.5c0.7-0.7,0.7-1.7,0-2.4c-0.7-0.7-1.7-0.7-2.4,0l-8.3,7.9l2.1-11.2
				c0.3-0.9-0.3-1.9-1.2-2.2c-0.9-0.3-1.9,0.3-2.2,1.2l-3.5,13.2c-1.5,0.6-2.9,1.6-4,3l-19.2,25.6
				C102.4,165.8,103.2,171.4,107.2,174.4z M37.3,133.4c-11.6,7.3-18.8,19.9-17.7,33.7l80-6.7c-1.1-13.7-10.4-25-23.1-30.3l5.2-11.8
				c0.3-0.6,0-1.4-0.6-1.6c-0.6-0.3-1.4,0-1.6,0.6l-5.3,11.9c-5.4-1.9-11.4-2.7-17.7-2.2c-6.2,0.5-12,2.3-17.1,5.1l-7.2-10.9
				c-0.4-0.6-1.1-0.7-1.7-0.4c-0.6,0.4-0.7,1.2-0.3,1.7L37.3,133.4"/>
		</g>
		<g>
			<path fill="#FFFFFF" d="M76,141c1.8-0.2,3.5,1.2,3.6,3.1c0.2,1.9-1.2,3.5-3.1,3.6c-1.8,0.1-3.5-1.2-3.6-3.1
				C72.8,142.8,74.2,141.2,76,141z"/>
			<path fill="#FFFFFF" d="M39.6,144c1.9-0.2,3.5,1.2,3.6,3.1c0.2,1.8-1.2,3.5-3.1,3.6c-1.8,0.1-3.5-1.2-3.6-3.1
				C36.3,145.8,37.7,144.2,39.6,144z"/>
		</g>
	</g>
	<path fill="#603713" d="M374,250.8c0,2.2,2.8,4.4,6.2,4.4l0,0c3.4,0,6.2-2.1,6.2-4.4v-55.4c0-3.1-2.8-6.4-6.2-6.4l0,0
		c-3.4,0-6.2,3.3-6.2,6.4V250.8z"/>
	<path fill="#603713" d="M397.1,250.8c0,2.2,2.8,4.4,6.2,4.4l0,0c3.4,0,6.2-2.1,6.2-4.4v-55.4c0-3.1-2.8-6.4-6.2-6.4l0,0
		c-3.4,0-6.2,3.3-6.2,6.4V250.8z"/>
	<g>
		<path fill="#D8D8D7" d="M374,243.8h12.6v20.5h-29.7v-4c0,0,2-5.5,11.1-5.5c4.3,0,5.9-4.4,5.9-8.9C374,245.1,374,243.8,374,243.8z"
			/>
		<polygon fill="#AFACAA" points="380.7,261.8 380.7,246.8 386.6,246.8 386.6,262.1 		"/>
		<path fill="#BF2026" d="M387.1,247.5c0,0.1-0.1,0.2-0.2,0.2h-13.6c-0.1,0-0.2-0.1-0.2-0.2V244c0-0.1,0.1-0.2,0.2-0.2h13.6
			c0.1,0,0.2,0.1,0.2,0.2V247.5z"/>
		<path fill="#BF2026" d="M386.6,262.8v-3.6c-7.1,0.5-11.7-4-13.9-7.1c-0.8,1.5-2.1,2.6-3.8,2.8c-1.9,3.5-7.3,3.8-10.7,3.6
			c-1,1-1.3,1.9-1.3,1.9v4h6c0,0,5-2.1,11.3-5.5C377.8,262.9,383.3,262.7,386.6,262.8z"/>
		<path fill="#8C191C" d="M386.6,264.1c0,0.1-0.1,0.2-0.2,0.2h-29.2c-0.1,0-0.2-0.1-0.2-0.2v-2c0-0.1,0.1-0.2,0.2-0.2h29.2
			c0.1,0,0.2,0.1,0.2,0.2V264.1z"/>
		<path fill="#332D27" d="M370.2,257.1c0,0.1,0,0.2-0.1,0.3l-0.8,0.4c-0.1,0.1-0.3,0-0.3-0.1l-1.1-2.5c0-0.1,0-0.2,0.1-0.3l0.8-0.4
			c0.1,0,0.3,0,0.3,0.1L370.2,257.1z"/>
		<path fill="#332D27" d="M367.1,257.4c0,0.1-0.1,0.2-0.2,0.2l-0.9,0.1c-0.1,0-0.2,0-0.3-0.2l-0.4-2.4c0-0.1,0.1-0.2,0.2-0.2
			l0.9-0.1c0.1,0,0.2,0,0.3,0.2L367.1,257.4z"/>
		<path fill="#332D27" d="M372.6,255.1c0.1,0.1,0,0.2,0,0.3l-0.6,0.6c-0.1,0.1-0.2,0.1-0.3,0l-1.6-1.6c-0.1-0.1,0-0.2,0-0.3l0.6-0.6
			c0.1-0.1,0.2-0.1,0.3,0L372.6,255.1z"/>
		<path fill="#332D27" d="M374.7,252.7c0.1,0.1,0.1,0.2,0,0.3l-0.5,0.8c-0.1,0.1-0.2,0.1-0.3,0.1l-2.2-1.3c-0.1-0.1-0.1-0.2,0-0.3
			l0.5-0.8c0.1-0.1,0.2-0.2,0.3-0.1L374.7,252.7z"/>
		<path fill="#332D27" d="M375.6,249.8c0.1,0,0.1,0.2,0.1,0.3l-0.3,0.8c0,0.1-0.1,0.2-0.2,0.2l-2.3-0.7c-0.1,0-0.1-0.2-0.1-0.3
			l0.3-0.8c0-0.1,0.2-0.2,0.2-0.2L375.6,249.8z"/>
		<path fill="#332D27" d="M375.7,247c0.1,0,0.2,0.1,0.2,0.2l-0.1,0.9c0,0.1-0.1,0.2-0.2,0.2l-2.3-0.2c-0.1,0-0.2-0.1-0.2-0.2
			l0.1-0.9c0-0.1,0.1-0.2,0.2-0.2L375.7,247z"/>
		<circle fill="#332D27" cx="381.4" cy="252.6" r="3.6"/>
		<circle fill="#F4F5F5" cx="381.4" cy="252.6" r="1.7"/>
	</g>
	<g>
		<path fill="#D8D8D7" d="M409.5,243.8h-12.6v20.5h29.7v-4c0,0-2-5.5-11.1-5.5c-4.3,0-5.9-4.4-5.9-8.9
			C409.5,245.1,409.5,243.8,409.5,243.8z"/>
		<polygon fill="#AFACAA" points="402.8,261.8 402.8,246.8 396.9,246.8 396.9,262.1 		"/>
		<path fill="#BF2026" d="M396.4,247.5c0,0.1,0.1,0.2,0.2,0.2h13.6c0.1,0,0.2-0.1,0.2-0.2V244c0-0.1-0.1-0.2-0.2-0.2h-13.6
			c-0.1,0-0.2,0.1-0.2,0.2V247.5z"/>
		<path fill="#BF2026" d="M396.9,262.8v-3.6c7.1,0.5,11.7-4,13.9-7.1c0.8,1.5,2.1,2.6,3.8,2.8c1.9,3.5,7.3,3.8,10.7,3.6
			c1,1,1.3,1.9,1.3,1.9v4h-6c0,0-5-2.1-11.3-5.5C405.7,262.9,400.2,262.7,396.9,262.8z"/>
		<path fill="#8C191C" d="M396.9,264.1c0,0.1,0.1,0.2,0.2,0.2h29.2c0.1,0,0.2-0.1,0.2-0.2v-2c0-0.1-0.1-0.2-0.2-0.2h-29.2
			c-0.1,0-0.2,0.1-0.2,0.2V264.1z"/>
		<path fill="#332D27" d="M413.3,257.1c0,0.1,0,0.2,0.1,0.3l0.8,0.4c0.1,0.1,0.2,0,0.3-0.1l1.1-2.5c0-0.1,0-0.2-0.1-0.3l-0.8-0.4
			c-0.1,0-0.2,0-0.3,0.1L413.3,257.1z"/>
		<path fill="#332D27" d="M416.4,257.4c0,0.1,0.1,0.2,0.2,0.2l0.9,0.1c0.1,0,0.2,0,0.3-0.2l0.4-2.4c0-0.1-0.1-0.2-0.2-0.2l-0.9-0.1
			c-0.1,0-0.2,0-0.3,0.2L416.4,257.4z"/>
		<path fill="#332D27" d="M410.9,255.1c-0.1,0.1,0,0.2,0,0.3l0.6,0.6c0.1,0.1,0.2,0.1,0.3,0l1.6-1.6c0.1-0.1,0-0.2,0-0.3l-0.6-0.6
			c-0.1-0.1-0.2-0.1-0.3,0L410.9,255.1z"/>
		<path fill="#332D27" d="M408.8,252.7c-0.1,0.1-0.1,0.2,0,0.3l0.5,0.8c0.1,0.1,0.2,0.1,0.3,0.1l2.2-1.3c0.1-0.1,0.1-0.2,0-0.3
			l-0.5-0.8c-0.1-0.1-0.2-0.2-0.3-0.1L408.8,252.7z"/>
		<path fill="#332D27" d="M407.9,249.8c-0.1,0-0.2,0.2-0.1,0.3l0.3,0.8c0,0.1,0.1,0.2,0.2,0.2l2.3-0.7c0.1,0,0.1-0.2,0.1-0.3
			l-0.3-0.8c0-0.1-0.2-0.2-0.3-0.2L407.9,249.8z"/>
		<path fill="#332D27" d="M407.8,247c-0.1,0-0.2,0.1-0.2,0.2l0.1,0.9c0,0.1,0.1,0.2,0.2,0.2l2.3-0.2c0.1,0,0.2-0.1,0.2-0.2l-0.1-0.9
			c0-0.1-0.1-0.2-0.2-0.2L407.8,247z"/>
		<circle fill="#332D27" cx="402.1" cy="252.6" r="3.6"/>
		<circle fill="#F4F5F5" cx="402.1" cy="252.6" r="1.7"/>
	</g>
	<rect x="373.5" y="136.4" fill="#33357F" width="13.5" height="59.6"/>
	<rect x="396.6" y="136.4" fill="#33357F" width="13.5" height="59.6"/>
	<path fill="#603713" d="M419.8,122.5c3.4-0.2,5.8-4.9,5.6-10.6l0,0c-0.3-5.7-3.2-10.2-6.6-10l-59.1,2.9c-3.4,0.2-5.8,4.9-5.6,10.6
		l0,0c0.3,5.7,3.2,10.2,6.6,10L419.8,122.5z"/>
	<g>
		<polygon fill="#DDDDDC" points="396.9,105.9 383.6,106.6 384.9,116.3 394.7,115.9 		"/>
	</g>
	<g>
		<path fill="#6C1E1F" d="M374.7,103.8c11.2-0.5,15.2,10.4,15.2,10.4s2.8-11.3,14.1-11.8l21-1c0,0,2.4,49.2,2.6,52.8
			c0.2,3.6-3.5,6.5-7,6.7c-3.5,0.2-53.2,2.6-56.7,2.7c-3.5,0.2-7.5-2.3-7.6-5.6c-0.2-3.3-2.6-53.2-2.6-53.2L374.7,103.8z"/>
	</g>
	<g>
		<path fill="#F27F80" d="M369.3,124.2l9.8-0.5c-0.2-1.6-1.3-2.9-2.7-3.5l0.8-1.4c0.1-0.1,0-0.2,0-0.2c-0.1,0-0.2,0-0.2,0.1
			l-0.9,1.5c-0.6-0.2-1.3-0.3-2.1-0.3c-0.7,0-1.4,0.2-2,0.5l-1-1.4c-0.1-0.1-0.2-0.1-0.2,0c-0.1,0.1-0.1,0.2,0,0.2l1,1.4
			C370.3,121.2,369.4,122.6,369.3,124.2z M375.6,121.9c0-0.3,0.2-0.6,0.5-0.6c0.3,0,0.6,0.2,0.6,0.5c0,0.3-0.2,0.6-0.5,0.6
			C375.9,122.5,375.6,122.3,375.6,121.9z M371.5,122.1c0-0.3,0.2-0.6,0.5-0.6c0.3,0,0.6,0.2,0.6,0.5c0,0.3-0.2,0.6-0.5,0.6
			C371.8,122.7,371.5,122.5,371.5,122.1z"/>
	</g>
	<g>
		<polygon fill="#E35151" points="391.6,155.4 392.1,155.4 390.1,114.2 389.6,114.2 		"/>
	</g>
	<polygon fill="#983131" points="392.4,109.3 425.2,107.7 424.9,101.3 405.6,102.3 	"/>
	
		<rect x="392.6" y="107.5" transform="matrix(0.9988 -4.836707e-02 4.836707e-02 0.9988 -4.7449 19.9042)" fill="#C1494A" width="32.6" height="1"/>
	<polygon fill="#983131" points="386.3,109.6 353.8,111.2 353.5,104.8 375.2,103.7 	"/>
	
		<rect x="353.8" y="109.4" transform="matrix(0.9988 -4.836707e-02 4.836707e-02 0.9988 -4.882 18.0194)" fill="#C1494A" width="32.3" height="1"/>
	<g>
		<path fill="#4B1919" d="M389.8,114.2c0,0,8.8-9.2,19.8-12.1c-9.8,0.5-11.6,0.6-11.6,0.6S390.5,107.2,389.8,114.2z"/>
	</g>
	<g>
		<path fill="#4B1919" d="M389.8,114.2c0,0-9.6-8.3-20.8-10.1c9.8-0.5,11.6-0.6,11.6-0.6S388.5,107.3,389.8,114.2z"/>
	</g>
	<g>
		<path fill="#F05758" d="M389.8,113.1c-0.5,0-0.9,0.5-0.9,1.1c0,0.6,0.5,1,1,1c0.5,0,0.9-0.5,0.9-1.1
			C390.8,113.6,390.3,113.1,389.8,113.1z"/>
	</g>
	<g>
		<polygon fill="#F05758" points="389.9,114.4 391.5,119.6 390.1,119.7 388.7,119.8 		"/>
	</g>
	<path fill="#603713" d="M506,30.8c-0.4-0.5-1.1-0.5-1.6-0.1l-5.7,5l1.6-7.4c0.2-0.6-0.1-1.3-0.8-1.5c-0.6-0.2-1.3,0.1-1.5,0.8
		l-2.6,8.7c-0.7,0.2-1.3,0.6-1.8,1c-0.7,0.4-1.3,1-1.8,1.6l-50.7,59.6c-2.6,3.1-2.6,7.5,0,9.7c2.7,2.3,6.9,1.6,9.6-1.5l50.7-59.6
		c2.6-3.1,2.9-7.7,0.2-10c-0.1-0.1-0.2-0.1-0.3-0.2l4.6-4.6C506.4,32,506.5,31.3,506,30.8z"/>
	<g>
		<g>
			<g>
				<g>
					<path fill="#6C1E1F" d="M488.7,40.8l-51.4,60.4c-2.9,3.4-2.7,8.3,0.5,11l0,0c3.2,2.7,8.1,2.1,11-1.3l51.4-60.4L488.7,40.8
						L488.7,40.8z"/>
				</g>
				
					<rect x="486.4" y="44.1" transform="matrix(-0.7613 -0.6484 0.6484 -0.7613 839.85 401.7532)" fill="#4B1919" width="15" height="4.3"/>
			</g>
		</g>
		<path fill="#983131" d="M439.5,113.2c-0.6-0.3-1.2-0.6-1.7-1.1c-0.5-0.4-1-1-1.3-1.5L491,46.6l3,2.6L439.5,113.2z"/>
		<path fill="#C1494A" d="M436.4,110.7c-0.2-0.3-0.3-0.5-0.4-0.8L490.3,46l0.6,0.6L436.4,110.7z"/>
		<path fill="#C1494A" d="M440.3,113.6c-0.3-0.1-0.6-0.2-0.9-0.3l54.6-64l0.6,0.6L440.3,113.6z"/>
	</g>
	<path fill="#603713" d="M345.9,194.4c-0.2,4.1-3.2,7.6-6.6,7.5l0,0c-3.5-0.2-6.1-3.9-6-8l3.4-78.2c0.2-4.1,3.1-7.3,6.6-7.1l0,0
		c3.5,0.2,6.2,3.6,6,7.7L345.9,194.4z"/>
	<g>
		<g>
			<g>
				<g>
					<path fill="#6C1E1F" d="M347.2,191.1l3.5-79.3c0.2-4.5-3-8.2-7.1-8.4l0,0c-4.1-0.2-7.7,3.3-7.9,7.7l-3.5,79.3L347.2,191.1
						L347.2,191.1z"/>
				</g>
				
					<rect x="332.3" y="187.8" transform="matrix(0.999 4.360237e-02 -4.360237e-02 0.999 8.6031 -14.6346)" fill="#4B1919" width="15" height="4.3"/>
			</g>
		</g>
		<path fill="#983131" d="M341.5,103.6c0.6-0.2,1.3-0.2,2-0.2s1.4,0.2,2,0.4l-3.7,84.1l-4-0.2L341.5,103.6z"/>
		<path fill="#C1494A" d="M345.5,103.8c0.3,0.1,0.6,0.2,0.8,0.4l-3.7,83.7l-0.8,0L345.5,103.8z"/>
		<path fill="#C1494A" d="M340.7,103.9c0.3-0.1,0.6-0.2,0.9-0.3l-3.7,84.1l-0.8,0L340.7,103.9z"/>
	</g>
	<g>
		<path d="M419.3,0c1.6-0.1,3.1,1.3,3.2,3.3l3.9,46.4c0.2,1.9-1,3.4-2.6,3.3l-31.8-1.9c-1.6-0.1-4.2,0.1-5.8,0.5l-31,7.2
			c-1.6,0.4-3-0.9-3.2-2.9L348,9.5c-0.2-1.9,1-3.6,2.6-3.8L419.3,0z"/>
	</g>
	<path d="M387.5,32.6c0,0,23.4-2.1,38.6,12.6c0,0-16.9-6.9-38-5.1c-21.1,1.8-36.6,11.4-36.6,11.4C364,34.5,387.5,32.6,387.5,32.6z"
		/>
	<path fill="#603713" d="M358.4,46.1l3.6-2.3c7.7-4.5,16.4-7.3,25.8-8.1c9.4-0.8,18.4,0.6,26.8,3.7l3.9,1.6
		c19.5,8.8,34.2,27.5,37.8,50.4l-126.7,10.6C329.2,78.9,340.6,58.1,358.4,46.1"/>
	<path fill="#603713" d="M358.4,46.1l-13.4-19.4c-0.8-1.2-0.8-2.8,0.1-3.6c0.8-0.8,2.2-0.6,3,0.6l13.9,20.2"/>
	<path fill="#603713" d="M414.5,39.4l10.4-22.2c0.6-1.3,1.9-1.8,2.8-1.1c1,0.7,1.3,2.2,0.7,3.5l-10,21.4"/>
	<g>
		<g>
			<path fill="#121212" d="M337.7,66.5c0.6,0.4,3.4-0.1,3.6,2c0.5,5.7,3.2,12.4,4.6,14.5c1.4,2,2.6,4.3,9.3,5.7
				c6.1,1.3,12.8,0.3,17-2.2c3.4-2,8.4-6.8,10.5-13.6c1.7-5.4,2-10.4,7-10.8c5-0.4,6,4.7,8.6,9.8c3.2,6.4,9,10.3,12.6,11.6
				c4.6,1.8,11.4,1.6,17.2-0.7c6.4-2.5,7.1-5,8.2-7.2c1.1-2.2,2.6-9.4,2.1-15c-0.2-2.2,2.7-2.1,3.2-2.6c0.5-0.5,0.7-6.7,0.1-7.6
				c-0.6-0.8-27.4,0-33.3,0.8c-10.5,1.5-11.7,5.3-19.1,6c-7.4,0.6-11-2.8-20-3c-5.9-0.2-32.5,3.8-33,4.7
				C335.9,60,337.2,66.2,337.7,66.5z M401.1,57.9c3.1-2.5,9.9-3.7,14.7-4.1c4.8-0.4,13-0.1,14.6,0.7c2.6,1.4,3.8,2.7,4.1,8.8
				c0.3,6.1,0.7,12.5-3.6,15.3c-4.2,2.9-11.5,4.7-18.1,2.8c-6.6-1.9-10.8-8.6-12-12.4C399.7,65.2,397.9,60.5,401.1,57.9z
				 M348.2,61.2c1.4-1.1,9.5-2.8,14.3-3.2c4.8-0.4,11.7-0.4,15.2,1.6c3.6,2,2.6,6.9,2,10.9c-0.6,4-3.5,11.2-9.8,14.2
				c-6.2,3-13.6,2.4-18.3,0.3c-4.7-2.1-5.4-8.5-6.1-14.5C344.9,64.5,345.9,63,348.2,61.2z"/>
		</g>
		<path opacity="0.2" fill="#FFFFFF" enable-background="new    " d="M431.6,56.8c0,0-15.1-3.6-29.4,2.8c0.5,6.2,7.2,11.2,16.1,10.5
			C427.2,69.3,432.3,64.2,431.6,56.8z"/>
		<path opacity="0.2" fill="#FFFFFF" enable-background="new    " d="M363.6,74.7c8.9-0.7,14.6-6.9,14.1-13
			c-15.2-4-29.5,2.1-29.5,2.1C348.9,71.3,354.7,75.4,363.6,74.7z"/>
	</g>
	<path fill="#FFFFFF" d="M416.3,72.7c3.1-0.3,5.3-3.1,5-6.5c-0.3-3.3-3-5.8-6-5.5c-3,0.3-5.3,3.1-5,6.5
		C410.6,70.4,413.3,72.9,416.3,72.7"/>
	<path fill="#FFFFFF" d="M364.9,75.7c3.1-0.3,5.4-3.2,5.2-6.6c-0.3-3.4-3.1-5.9-6.2-5.7c-3.1,0.3-5.5,3.2-5.2,6.6
		C358.9,73.5,361.7,76,364.9,75.7"/>
	<path fill="#603E26" d="M294.7,128.9c-0.5-3.6-1.4-7.2-2.4-10.7c-0.9-2.8-1.6-5.5-2.8-8.2c-0.9-2.1-2.4-8-4.7-8.9
		c1.5,0.6,3.1,1,4.6,1.1c-1.8-2-3.9-3.7-5.6-5.9c-2.1-2.8-4.2-5.6-6.4-8.4c-2.8-3.5-5.5-7.4-9-10.3c-2.2-1.8-4.6-3.4-6.9-5.2
		c-9.5-7.5-24.3-10.8-36.2-10c-11.9,0.3-26.4,4.9-35.1,13.2c-2.1,2-4.3,3.8-6.4,5.8c-3.2,3.2-5.6,7.2-8,11c-1.9,2.9-3.7,5.9-5.6,8.9
		c-1.5,2.4-3.5,4.2-5.1,6.4c1.5-0.3,3.1-0.8,4.5-1.5c-2.3,1.1-3.2,7.1-3.9,9.3c-0.9,2.8-1.4,5.5-2,8.4c-0.8,3.6-1.2,7.2-1.4,10.8
		c-0.3,5.1-0.4,10.4,0.3,15.6c1-1.9,1.1-4.2,2.1-6.2c0,0,1.7,12.4,8.6,19.1c-1.1-3.5-1.4-6.1-1.4-6.1c0.3,2.4,3.5,5.3,5.1,6.8
		c5.6,5.5,12.7,8.5,19.9,11.3c-2-1.5-3.6-3.4-5-5.5c2.9,2.1,6.5,3.8,9.8,5c3.7,1.4,7.7,1.6,11.4,2.4c-1.9-0.8-3.7-2.7-4.8-4.3
		c-0.4-0.5-0.9-1.3-1.3-1.7c1.1,0.3,2.1,1.3,3.1,2c3.5,2.3,6.6,4.3,10.8,5.4c-1.4-1.1-3-2.5-3.8-4.2c2.1,0.2,4.3,1.6,6.3,2.3
		c1.7,0.6,3.6,1.3,5.4,1.6c-0.5-0.7-1.1-1.8-1.1-2.7c1.1,0.3,2.1,1.2,3.1,1.8c1-0.6,1.8-1.7,2.9-2c0.1,0.9-0.4,2-0.9,2.7
		c1.7-0.5,3.5-1.3,5.2-2.1c1.9-0.9,4-2.4,6-2.8c-0.7,1.7-2.1,3.3-3.4,4.5c4-1.4,6.9-3.8,10.2-6.3c0.9-0.7,1.8-1.9,2.9-2.2
		c-0.4,0.4-0.8,1.3-1.2,1.8c-1,1.7-2.7,3.7-4.4,4.7c3.6-1.2,7.6-1.8,11.2-3.4c3.2-1.5,6.7-3.6,9.3-5.9c-1.2,2.2-2.6,4.3-4.5,5.9
		c6.9-3.4,13.7-7,18.8-13c1.4-1.6,4.3-4.9,4.4-7.3c0,0-0.1,2.6-0.9,6.2c6.2-7.3,6.8-19.8,6.8-19.8c1.2,1.9,1.5,4.1,2.7,5.9
		C296.1,139.3,295.5,133.9,294.7,128.9z"/>
	<path fill="#EABC95" d="M248.7,77.3c-6.9-2.8-14.4-4.2-22.3-3.8c-7.9,0.4-15.3,2.4-21.9,5.8l-3.1,1.7c-15.2,9.2-25.5,25.8-26,44.7
		l106.4-4.9c-2.3-18.8-14-34.4-30-42.1L248.7,77.3z"/>
	<path fill="#FFFFFF" d="M250,104.2c3.2-0.1,5.7-2.9,5.6-6.1c-0.1-3.2-2.9-5.7-6.1-5.5c-3.2,0.1-5.7,2.9-5.6,6
		C244,101.9,246.7,104.3,250,104.2"/>
	<path fill="#FFFFFF" d="M205.2,106.2c3.2-0.1,5.7-2.9,5.6-6.1c-0.1-3.2-2.9-5.7-6.1-5.5c-3.2,0.1-5.7,2.9-5.6,6
		C199.2,103.9,201.9,106.4,205.2,106.2"/>
	<path fill="#EABC95" d="M232.1,253.2c0,3.2,1.9,5.9,4.2,5.9c2.3,0,4.2-2.6,4.2-5.9v-66.1c0-3.2-1.9-5.9-4.2-5.9
		c-2.3,0-4.2,2.6-4.2,5.9V253.2z"/>
	<path fill="#EABC95" d="M215.8,253.2c0,3.2,1.9,5.9,4.1,5.9c2.3,0,4.2-2.6,4.2-5.9v-66.1c0-3.2-1.9-5.9-4.2-5.9
		c-2.3,0-4.1,2.6-4.1,5.9V253.2z"/>
	<path fill="#EABC95" d="M184.1,190.7c0,3.1,2.3,5.7,5.1,5.7c2.8,0,5.1-2.5,5.1-5.7v-55.3c0-3.1-2.3-5.7-5.1-5.7
		c-2.8,0-5.1,2.5-5.1,5.7V190.7z"/>
	<path fill="#D0D3D6" d="M184.1,187.6h10.3v-52.2c0-3.1-2.3-5.7-5.1-5.7c-2.8,0-5.1,2.5-5.1,5.7V187.6z"/>
	<path fill="#EABC95" d="M205.9,196.4h43.6c3.1,0,5.7-2.5,5.7-5.7v-60.8h-55v60.8C200.2,193.8,202.8,196.4,205.9,196.4"/>
	<path fill="#D0D3D6" d="M200.2,188.9v-58.9h16.3c8.7,0,11.3,13.2,11.3,13.2s2.6-13.2,11.3-13.2h16.1v58.4L200.2,188.9z"/>
	<rect x="200.1" y="184" fill="#989898" width="55.1" height="4.9"/>
	<rect x="227.5" y="142.7" fill="#FFFFFF" width="0.7" height="46.2"/>
	<path fill="#989898" d="M227.8,143.2c0,0,7.1-11.6,15.6-13.2h-9C234.5,129.9,227.8,131.6,227.8,143.2z"/>
	<path fill="#989898" d="M227.8,143.2c0,0-7.1-11.6-15.6-13.2h9C221.1,129.9,227.8,131.6,227.8,143.2z"/>
	<path fill="#EABC95" d="M249.5,78.1l9.6-18.2c0.5-1,1.6-1.4,2.4-0.8c0.8,0.6,1,1.9,0.5,2.9l-9.3,17.6"/>
	<g>
		<g>
			<path fill="#F07BAF" d="M226.2,255.7c0,0-0.8-4.1-1.8-4.1c0,0-3.4,3.8-8.6,0.3c0,0,0.2-3.9-1.4-2.6c-1.6,1.3-2,2.4-4.2,3.6
				c-2.3,1.2-4,2.4-4.4,2.5c-0.4,0.1-1.1,0.3-1.6,0.3c-0.4,0.1-0.8,0.1-1.2,0.1c-0.8,0-1.6,0.1-2.4,0.2c-1.2,0.1-2.9,0.1-3.9,1
				c-0.6,0.6-0.6,1.6-0.4,2.3c0.6,1.5,2.3,2.3,3.7,2.8c5,1.8,11,1.7,11,1.7l9.3,0c0,0,6,0,6.3-2.4L226.2,255.7z"/>
		</g>
		<g>
			<path fill="#FE4E9E" d="M207.1,262.3c0,0.4,0.1,0.9,0.2,1.3c2.3,0.2,4,0.2,4,0.2l9.1,0c0,0,5.9,0,6.2-2.3l-0.3-4.9
				c-1.9-0.6-4.1-1-6.5-1C212.8,255.6,207.1,258.6,207.1,262.3z"/>
		</g>
		<g>
			<path fill="#DBDBDB" d="M207,258.3c-0.3,0-0.5-0.1-0.7-0.4l-1.2-2.2c-0.2-0.4-0.1-0.8,0.3-1c0.4-0.2,0.8-0.1,1,0.3l1.2,2.2
				c0.2,0.4,0.1,0.8-0.3,1C207.2,258.3,207.1,258.3,207,258.3z"/>
		</g>
		<g>
			<path fill="#DBDBDB" d="M208.9,257.3c-0.3,0-0.5-0.1-0.7-0.4l-1.2-2.2c-0.2-0.4-0.1-0.8,0.3-1c0.4-0.2,0.8-0.1,1,0.3l1.2,2.2
				c0.2,0.4,0.1,0.8-0.3,1C209.2,257.2,209.1,257.3,208.9,257.3z"/>
		</g>
		<g>
			<path fill="#DBDBDB" d="M210.9,256.2c-0.3,0-0.5-0.1-0.7-0.4l-1.2-2.2c-0.2-0.4-0.1-0.8,0.3-1c0.4-0.2,0.8-0.1,1,0.3l1.2,2.2
				c0.2,0.4,0.1,0.8-0.3,1C211.1,256.2,211,256.2,210.9,256.2z"/>
		</g>
		<g>
			<path fill="#DBDBDB" d="M212.8,255.2c-0.3,0-0.5-0.1-0.7-0.4l-1.2-2.2c-0.2-0.4-0.1-0.8,0.3-1c0.4-0.2,0.8-0.1,1,0.3l1.2,2.2
				c0.2,0.4,0.1,0.8-0.3,1C213,255.1,212.9,255.2,212.8,255.2z"/>
		</g>
		<g>
			<path fill="#DBDBDB" d="M226.5,260.6c-0.3-0.4-5.6,0.3-7.1,0.4c-1.5,0.1-6.5,1.2-13.4,1.4c-6.8,0.2-9.9-3.8-10-3.9
				c0,0.3,0.1,0.6,0.2,0.9c0.6,1.5,2.3,2.4,3.7,2.9c5,1.8,11,1.9,11,1.9l9.3,0c0,0,6.1,0,6.4-2.4C226.7,261.7,226.8,261,226.5,260.6
				z"/>
		</g>
	</g>
	<g>
		<g>
			<path fill="#F07BAF" d="M229.9,255.7c0,0,0.8-4.1,1.8-4.1c0,0,3.4,3.8,8.6,0.3c0,0-0.2-3.9,1.4-2.6c1.6,1.3,2,2.4,4.2,3.6
				c2.3,1.2,4,2.4,4.4,2.5c0.4,0.1,1.1,0.3,1.6,0.3c0.4,0.1,0.8,0.1,1.2,0.1c0.8,0,1.6,0.1,2.4,0.2c1.2,0.1,2.9,0.1,3.9,1
				c0.6,0.6,0.6,1.6,0.4,2.3c-0.6,1.5-2.3,2.3-3.7,2.8c-5,1.8-11,1.7-11,1.7l-9.3,0c0,0-6,0-6.3-2.4L229.9,255.7z"/>
		</g>
		<g>
			<path fill="#FE4E9E" d="M249,262.3c0,0.4-0.1,0.9-0.2,1.3c-2.3,0.2-4,0.2-4,0.2l-9.1,0c0,0-5.9,0-6.2-2.3l0.3-4.9
				c1.9-0.6,4.1-1,6.5-1C243.4,255.6,249,258.6,249,262.3z"/>
		</g>
		<g>
			<path fill="#DBDBDB" d="M249.2,258.3c-0.1,0-0.3,0-0.4-0.1c-0.4-0.2-0.5-0.7-0.3-1l1.2-2.2c0.2-0.4,0.7-0.5,1-0.3
				c0.4,0.2,0.5,0.7,0.3,1l-1.2,2.2C249.7,258.1,249.4,258.3,249.2,258.3z"/>
		</g>
		<g>
			<path fill="#DBDBDB" d="M247.2,257.3c-0.1,0-0.3,0-0.4-0.1c-0.4-0.2-0.5-0.7-0.3-1l1.2-2.2c0.2-0.4,0.7-0.5,1-0.3
				c0.4,0.2,0.5,0.7,0.3,1l-1.2,2.2C247.7,257.1,247.5,257.3,247.2,257.3z"/>
		</g>
		<g>
			<path fill="#DBDBDB" d="M245.3,256.2c-0.1,0-0.3,0-0.4-0.1c-0.4-0.2-0.5-0.7-0.3-1l1.2-2.2c0.2-0.4,0.7-0.5,1-0.3
				c0.4,0.2,0.5,0.7,0.3,1l-1.2,2.2C245.8,256.1,245.5,256.2,245.3,256.2z"/>
		</g>
		<g>
			<path fill="#DBDBDB" d="M243.4,255.2c-0.1,0-0.3,0-0.4-0.1c-0.4-0.2-0.5-0.7-0.3-1l1.2-2.2c0.2-0.4,0.7-0.5,1-0.3
				c0.4,0.2,0.5,0.7,0.3,1l-1.2,2.2C243.9,255,243.6,255.2,243.4,255.2z"/>
		</g>
		<g>
			<path fill="#DBDBDB" d="M229.6,260.6c0.3-0.4,5.6,0.3,7.1,0.4c1.5,0.1,6.5,1.2,13.4,1.4c6.8,0.2,9.9-3.8,10-3.9
				c0,0.3-0.1,0.6-0.2,0.9c-0.6,1.5-2.3,2.4-3.7,2.9c-5,1.8-11,1.9-11,1.9l-9.3,0c0,0-6.1,0-6.4-2.4
				C229.5,261.7,229.3,261,229.6,260.6z"/>
		</g>
	</g>
	<path fill="#EABC95" d="M200.2,81.6l-10.6-16.2c-0.6-1-0.5-2.3,0.2-2.9c0.7-0.6,1.8-0.4,2.5,0.6l11,16.8"/>
	<path fill="#603E26" d="M203.8,82.5c0,0,34.7,8.9,45.7-0.4c0,0,5.6,7.9,13.8,9.6c8.2,1.7,15,14.9,15,14.9s-13.8-31.3-26.4-35.8
		c-12.6-4.5-28.4-6.9-35-3.8c-6.5,3-32.2,14.7-37.3,27.5c-5.1,12.8,0,11.2,0,11.2s3.6,6.3,9,8.8C188.6,114.5,176.4,99.4,203.8,82.5z
		"/>
	<rect x="184.1" y="182.6" fill="#989898" width="10.3" height="4.9"/>
	<g>
		<path fill="#EABC95" d="M309.8,94.8c-0.4-0.4-1-0.4-1.3-0.1l-4.8,4.2l1.4-6.2c0.2-0.5-0.1-1.1-0.6-1.2c-0.5-0.2-1.1,0.1-1.2,0.6
			l-2.2,7.3c-0.7,0.2-1.3,0.6-1.8,1.1c-0.1,0.1-0.2,0.1-0.3,0.2l-40.3,38c-2.3,2.2-2.6,5.6-0.6,7.6c1.9,2.1,5.4,2,7.7-0.2l40.3-38
			c2.3-2.2,2.6-5.6,0.6-7.6c-0.2-0.2-0.4-0.4-0.7-0.6l3.9-3.9C310.1,95.8,310.2,95.2,309.8,94.8z"/>
		<path fill="#D0D3D6" d="M303.6,110.4l-7.1-7.5l-38,35.8c-2.3,2.2-2.6,5.6-0.6,7.6c1.9,2.1,5.4,2,7.7-0.2L303.6,110.4z"/>
		
			<rect x="293.2" y="105.9" transform="matrix(-0.686 -0.7276 0.7276 -0.686 424.2018 399.6723)" fill="#989898" width="10.3" height="4.9"/>
	</g>
	<g>
		<path fill="#F07BAF" d="M260.4,218.5l-5.3-29.8h-54.9l-5.1,29.8c0,0.1-0.1,0.2-0.1,0.3c0,1.8,4.9,3.2,10.9,3.2
			c6,0,10.9-1.5,10.9-3.2c0,1.8,4.9,3.2,10.9,3.2s10.9-1.5,10.9-3.2c0,1.8,4.9,3.2,10.9,3.2c6,0,10.9-1.5,10.9-3.2
			C260.4,218.7,260.4,218.6,260.4,218.5z"/>
		<path opacity="0.1" d="M214.4,220.5l-0.1,0.4c0,0,0,0,0,0l0,0c1.6-0.6,2.5-1.3,2.5-2.1v-15.3L214.4,220.5z"/>
		<path opacity="0.1" d="M241.1,220.5l0.1,0.4c0,0,0,0,0,0l0,0c-1.6-0.6-2.5-1.3-2.5-2.1v-15.3L241.1,220.5z"/>
	</g>
	<g>
		<path fill="none" stroke="#989898" stroke-width="6.6764" stroke-miterlimit="10" d="M217.2,166c0,6-4.9,10.9-10.9,10.9"/>
		<path fill="none" stroke="#989898" stroke-width="6.6764" stroke-miterlimit="10" d="M238.3,166c0,6,4.9,10.9,10.9,10.9"/>
	</g>
	<rect x="226.9" y="141.9" fill="#FFFFFF" width="1.9" height="4.8"/>
	<g id="accessory_1_">
		<path fill="#F07BAF" d="M208,76.3c-0.1-1.4-1.2-2.4-2.6-2.4c1.1-0.8,1.4-2.3,0.7-3.5c-0.5-0.8-1.4-1.2-2.3-1.2
			c-0.4,0-0.8,0.1-1.2,0.3c0.6-1.2,0.1-2.7-1.1-3.3c-0.4-0.2-0.8-0.3-1.3-0.3c-0.9,0-1.7,0.5-2.1,1.3c-0.1-1.4-1.3-2.4-2.6-2.3
			c-1.4,0.1-2.4,1.2-2.4,2.6c-0.5-0.7-1.3-1.1-2.2-1.1c-0.4,0-0.9,0.2-1.3,0.4c-1.2,0.7-1.5,2.3-0.8,3.4c-0.4-0.2-0.8-0.3-1.2-0.2
			c-0.9,0-1.7,0.6-2.1,1.4c-0.3,0.6-0.4,1.3-0.2,1.9c0.2,0.6,0.6,1.1,1.2,1.4c-1.4,0.1-2.4,1.3-2.3,2.6c0.1,1.4,1.2,2.4,2.6,2.4
			c-1.1,0.8-1.4,2.3-0.7,3.5c0.5,0.8,1.4,1.2,2.3,1.2c0.4,0,0.8-0.1,1.2-0.3c-0.3,0.6-0.3,1.2-0.1,1.8c0.2,0.6,0.7,1.2,1.3,1.5
			c0.4,0.2,0.8,0.3,1.3,0.3c0.9,0,1.7-0.5,2.1-1.3c0.1,1.4,1.3,2.4,2.6,2.3c1.4-0.1,2.4-1.2,2.4-2.6c0.5,0.7,1.3,1.1,2.2,1.1
			c0.4,0,0.9-0.2,1.3-0.4c0.6-0.4,1-0.9,1.1-1.6c0.1-0.6,0-1.3-0.3-1.8c0.4,0.2,0.8,0.3,1.2,0.2l0,0c0.9,0,1.7-0.6,2.1-1.4
			c0.3-0.6,0.4-1.3,0.2-1.9c-0.2-0.6-0.6-1.1-1.2-1.4C207,78.8,208,77.6,208,76.3z"/>
		<circle fill="#965F2D" cx="196.1" cy="76.8" r="6.5"/>
	</g>
	<g>
		<g opacity="0.1">
			<g>
				<path d="M249.1,131.5h-15.4c0,3.5-2.6,6.3-5.9,6.3c-3.2,0-5.9-2.8-5.9-6.3h-15.4c0,12,9.5,21.7,21.3,21.7c1.3,0,2.6-0.1,3.9-0.4
					c4,4.9,10.1,8,16.9,8l-1.6-1.6l1.6-1.6l-1.6-1.6l1.6-1.6l-1.6-1.6l1.6-1.6l-1.6-1.6l1.6-1.6l-1.6-1.6l1.6-1.6v0
					c-1.3,0-2.5-0.4-3.5-1.1C247.6,140.6,249.1,136.2,249.1,131.5z"/>
			</g>
		</g>
		<path fill="#F07BAF" d="M248.7,156.3l-1.6-1.6l1.6-1.6l-1.6-1.6l1.6-1.6l-1.6-1.6l1.6-1.6l-1.6-1.6l1.6-1.6v0
			c-3.4,0-6.2-2.8-6.2-6.2h-15.7c0,12.1,9.8,21.9,21.9,21.9l-1.6-1.6L248.7,156.3z"/>
		<path opacity="0.1" d="M242.5,137.6h-15.7c0,5.6,2.1,10.7,5.6,14.5c5.5-1.2,10.2-4.6,13.2-9.2
			C243.7,141.8,242.5,139.8,242.5,137.6z"/>
		<g>
			<path fill="#F07BAF" d="M227.9,151.8c-12.1,0-21.9-9.8-21.9-21.9h15.7c0,3.4,2.8,6.2,6.2,6.2c3.4,0,6.2-2.8,6.2-6.2h15.7
				C249.7,142,239.9,151.8,227.9,151.8z"/>
		</g>
		<path opacity="0.1" d="M243.2,136.3c0,0.2-4.7,7.3-12.2,9.3C241,144.4,243.2,136.3,243.2,136.3z"/>
		<path opacity="0.1" d="M217.7,134c0,0.1,2.3,5.4,7.8,6C217.7,140.9,217.7,134,217.7,134z"/>
		<path opacity="0.1" d="M217.2,144.3c-3.2-2.4-6.7-7.5-6.7-14.4l2.3,0C212.7,133.3,213.8,139.9,217.2,144.3z"/>
	</g>
</g>
<g id="Layer_2">
</g>
</svg>
