<?xml version="1.0" encoding="utf-8"?>
<!-- Generator: Adobe Illustrator 18.0.0, SVG Export Plug-In . SVG Version: 6.00 Build 0)  -->
<!DOCTYPE svg PUBLIC "-//W3C//DTD SVG 1.1//EN" "http://www.w3.org/Graphics/SVG/1.1/DTD/svg11.dtd">
<svg version="1.1" id="Layer_1" xmlns="http://www.w3.org/2000/svg" xmlns:xlink="http://www.w3.org/1999/xlink" x="0px" y="0px"
	 viewBox="0 0 700 389.3" enable-background="new 0 0 700 389.3" xml:space="preserve">
<path fill-rule="evenodd" clip-rule="evenodd" fill="#FCF06B" d="M362.4,40.8L347.9,9.9l27.9,26L383,14l2.3,21.7l27.6-22l-10.1,27.9
	l27.7-1.3l-26.1,13.4l25.5,7.8l-25.2,7.6l14.4,17.2l-23.9-7l10.2,31.9L378.8,85L354,109.9l12.7-34L327,88.2l29.9-21.7l-37.3-12.2
	l36-1.1l-19.7-18.7L362.4,40.8z"/>
<path opacity="0.8" fill="#FFFFFF" d="M370.1,47.3l-8-16.6l15.2,13.9l3.8-11.8l1.4,11.7l14.8-12L392,47.6l14.9-0.8l-9.2,7.4
	l12.9,7.9L397,66.2l7.9,9.2l-12.9-3.6l1.8,19.1l-14.5-14.1L366,90.3l6.7-24.1L351.3,73l16-11.8l-20.2-6.4l19.4-0.8l-10.7-10
	L370.1,47.3z"/>
<g>
	<defs>
		<rect id="SVGID_1_" x="29" y="12" width="351.5" height="327.4"/>
	</defs>
	<clipPath id="SVGID_2_">
		<use xlink:href="#SVGID_1_"  overflow="visible"/>
	</clipPath>
	<g clip-path="url(#SVGID_2_)">
		<defs>
			<rect id="SVGID_3_" x="29" y="12" width="142.5" height="57.3"/>
		</defs>
		<clipPath id="SVGID_4_">
			<use xlink:href="#SVGID_3_"  overflow="visible"/>
		</clipPath>
	</g>
	<g clip-path="url(#SVGID_2_)">
		<defs>
			<rect id="SVGID_5_" x="29" y="12" width="351.5" height="327.4"/>
		</defs>
		<clipPath id="SVGID_6_">
			<use xlink:href="#SVGID_5_"  overflow="visible"/>
		</clipPath>
		<g opacity="0.4" clip-path="url(#SVGID_6_)" enable-background="new    ">
			<g>
				<defs>
					<rect id="SVGID_7_" x="700.8" y="28.6" width="60.8" height="47.4"/>
				</defs>
				<clipPath id="SVGID_8_">
					<use xlink:href="#SVGID_7_"  overflow="visible"/>
				</clipPath>
			</g>
		</g>
		<g opacity="0.4" clip-path="url(#SVGID_6_)" enable-background="new    ">
			<g>
				<defs>
					<rect id="SVGID_9_" x="628.6" y="28.6" width="60.8" height="47.4"/>
				</defs>
				<clipPath id="SVGID_10_">
					<use xlink:href="#SVGID_9_"  overflow="visible"/>
				</clipPath>
			</g>
		</g>
	</g>
	<g clip-path="url(#SVGID_2_)">
		<defs>
			<rect id="SVGID_11_" x="29" y="12" width="351.5" height="327.4"/>
		</defs>
		<clipPath id="SVGID_12_">
			<use xlink:href="#SVGID_11_"  overflow="visible"/>
		</clipPath>
	</g>
	<g clip-path="url(#SVGID_2_)">
		<defs>
			<rect id="SVGID_13_" x="29" y="12" width="351.5" height="327.4"/>
		</defs>
		<clipPath id="SVGID_14_">
			<use xlink:href="#SVGID_13_"  overflow="visible"/>
		</clipPath>
		<path clip-path="url(#SVGID_14_)" fill="#7AC157" d="M260.2,274.9c-0.8,5.6-6.1,9.5-11.7,8.7L98.3,261.8
			c-5.6-0.8-9.6-6.1-8.7-11.7l19.5-133.9c0.8-5.6,6.1-9.5,11.7-8.7L271,129.3c5.6,0.8,9.5,6.1,8.7,11.7L260.2,274.9z"/>
		
			<rect x="104.4" y="118" transform="matrix(0.9895 0.1442 -0.1442 0.9895 24.1339 -25.9083)" clip-path="url(#SVGID_14_)" fill="#7AC157" width="172.7" height="71.1"/>
		<path clip-path="url(#SVGID_14_)" fill="#7AC157" d="M198,28.4c-83.7-2-87.2,71-87.2,71l171.3,3.6C282.1,103,280.9,30.3,198,28.4
			 M159.5,73.4c-5.7-0.1-10.2-4.8-10.1-10.5c0.1-5.7,4.8-10.2,10.5-10.1c5.7,0.1,10.2,4.8,10.1,10.5C169.9,69,165.2,73.5,159.5,73.4
			 M234.6,75c-5.7-0.1-10.2-4.8-10.1-10.5c0.1-5.7,4.8-10.2,10.5-10.1c5.7,0.1,10.2,4.8,10.1,10.5C245,70.6,240.3,75.1,234.6,75"/>
		<path clip-path="url(#SVGID_14_)" fill="#7AC157" d="M349.2,51.5c7.2-7.2,18.8-7.2,26,0c7.2,7.2,7.2,18.8,0,26l-58.4,58.4
			c-7.2,7.2-18.8,7.2-26,0c-7.2-7.2-7.2-18.8,0-26L349.2,51.5z"/>
		<path clip-path="url(#SVGID_14_)" fill="#7AC157" d="M64,206.8c-4.4,9.2-15.3,13-24.5,8.7c-9.2-4.4-13-15.3-8.7-24.5l35.6-74.5
			c4.4-9.2,15.3-13,24.5-8.7c9.2,4.4,13,15.3,8.7,24.5L64,206.8z"/>
		<path clip-path="url(#SVGID_14_)" fill="#7AC157" d="M235.3,321c0,10.1-8.2,18.4-18.4,18.4c-10.1,0-18.4-8.2-18.4-18.4l0.1-82.6
			c0-10.1,8.2-18.4,18.4-18.4c10.1,0,18.4,8.2,18.4,18.4L235.3,321z"/>
		<path clip-path="url(#SVGID_14_)" fill="#7AC157" d="M156.6,323.6c-1.8,10-11.4,16.6-21.4,14.7c-10-1.8-16.6-11.4-14.7-21.4
			l15-81.2c1.8-10,11.4-16.6,21.4-14.7c10,1.8,16.6,11.4,14.7,21.4L156.6,323.6z"/>
		<path clip-path="url(#SVGID_14_)" fill="#7AC157" d="M156.1,37.3c0.3,0.4,1.2,0.3,2.1-0.3c0.9-0.6,1.3-1.4,1-1.8l-15.5-22.9
			c-0.3-0.4-1.2-0.3-2.1,0.3c-0.9,0.6-1.3,1.4-1,1.8L156.1,37.3z"/>
		<path clip-path="url(#SVGID_14_)" fill="#7AC157" d="M236.9,39c-0.3,0.4-1.2,0.3-2.1-0.4c-0.8-0.6-1.3-1.5-0.9-1.9l16.5-22.2
			c0.3-0.4,1.3-0.3,2.1,0.4c0.8,0.6,1.3,1.5,0.9,1.9L236.9,39z"/>
	</g>
</g>
<ellipse opacity="0.1" fill-rule="evenodd" clip-rule="evenodd" fill="#231F20" cx="179.7" cy="381.2" rx="63.5" ry="8.1"/>
<ellipse opacity="0.1" fill-rule="evenodd" clip-rule="evenodd" fill="#231F20" cx="536.7" cy="381.2" rx="63.5" ry="8.1"/>
<g>
	<defs>
		<rect id="SVGID_15_" x="380.5" width="279.3" height="347.3"/>
	</defs>
	<clipPath id="SVGID_16_">
		<use xlink:href="#SVGID_15_"  overflow="visible"/>
	</clipPath>
	<g clip-path="url(#SVGID_16_)">
		<defs>
			<rect id="SVGID_17_" x="380.5" width="279.3" height="347.3"/>
		</defs>
		<clipPath id="SVGID_18_">
			<use xlink:href="#SVGID_17_"  overflow="visible"/>
		</clipPath>
		<path clip-path="url(#SVGID_18_)" fill="#BE4F28" d="M529.6,0C513.1,0,503,16.9,503,16.9s-8.4-7.7-18.3-7.3
			c-13.6,0.6-25.8,18.7-24.2,30.1c-23.5-3.5-29,13.5-27.7,22.6c1.3,9.2,9.6,9.7,9.6,9.7s0.7,2.6-9.9,8.1
			c-18,7.2-19.2,21.3-11.3,29.3c2.9,3.3,7.7,6.2,0.9,14.3c-7.7,8.5-9.4,25,5.7,32.3c0,0,8,4.2,3.8,9.2c-12.7,16-5.6,33.4-0.5,36.9
			c5.5,3.8-2.9,17.2-4.5,21.5c-1.7,4.6-3.2,9.7-2.3,14.7c0.4,2.5,1.4,4.8,2.9,6.8c2,2.6,4.8,3,3.4,6.7c-0.8,2.2-2.8,4.2-3,6.7
			c-0.3,4.6,4.6,8,8.2,8.8c3.7,0.9,6.8-0.3,9.9-2.1c0.9,5.6-0.9,18.1,7.7,15.5c3.3-1,5.7-3.1,7.6,1.5c1.5,3.8,1.2,7.8,4.6,10.4
			c3.5,2.6,8.7,2.1,12.4,1c2.9-0.8,5.7-3.4,8.6-3.7c-0.6,14.1,18.9,13.9,23.3,3.1c4,5.9,8.9,9.1,15.8,9.2c4.2,0.1,7.7-1.1,11-4
			c2.1-1.9,3.6-4.9,5.4-7.3c2.5,5,9.3,9.1,14.2,9.4c3.4,0.2,6.2-1.1,8.8-3.4c2.2-1.9,3.1-4.6,4.9-6.7c1.4-1.7,1.2-1.2,2.8,0
			c2.3,1.8,4.6,3.4,7.4,4.3c6.3,2.3,14.4,0.5,16.9-7.2c0.9-2.6,0.7-5.1,2.6-7.2c3-3.4,3.4-1,4.9,1.7c0.8,1.3,1.5,2.3,2.7,3.1
			c4.9,3.1,11.3-0.6,11.8-6.9c0.2-2.2-0.9-3.3,0.7-4.4c1.3-0.9,4.6-0.7,6.1-1.2c4.6-1.5,8-6.3,8.3-11.8c0.1-2.5-0.8-5.4-2-7.4
			c-0.3-0.4-3.2-4.6-3.7-4.2c19.4-14.6-9.1-40.5-0.1-46.7c5.1-3.5,12.1-21-0.5-36.9c-4.2-5,3.8-9.2,3.8-9.2
			c15.1-7.2,13.4-23.8,5.7-32.3c-6.8-8.1-2-11,0.9-14.3c7.9-8,6.7-22.1-11.3-29.3c-10.5-5.5-9.9-8.1-9.9-8.1s8.3-0.5,9.6-9.7
			c1.3-9.2-4.2-26.2-27.7-22.6c0.1-18-19.1-29.3-28.6-28.3c-9.7,1.1-13.9,5.5-13.9,5.5S546.2,0,529.6,0"/>
		<path clip-path="url(#SVGID_18_)" fill="#DBC19C" d="M573.6,41.4c-11-7-23.7-11.7-37.4-13.5c-13.7-1.8-27.2-0.5-39.6,3.3l-5.9,2
			c-29.2,11.2-52.1,36.8-58.8,69.3l185.7,24.6c1.9-33.2-13.5-63.8-38.8-82.2L573.6,41.4z"/>
		<g opacity="0.5" clip-path="url(#SVGID_18_)" enable-background="new    ">
			<g>
				<defs>
					<rect id="SVGID_19_" x="585.2" y="100.5" width="3.4" height="3.4"/>
				</defs>
				<clipPath id="SVGID_20_">
					<use xlink:href="#SVGID_19_"  overflow="visible"/>
				</clipPath>
				<path clip-path="url(#SVGID_20_)" fill="#362B15" d="M587.1,100.5c-0.9-0.1-1.8,0.5-1.9,1.4c-0.1,0.9,0.5,1.8,1.4,1.9
					c0.9,0.1,1.8-0.5,1.9-1.5C588.7,101.5,588.1,100.7,587.1,100.5"/>
			</g>
		</g>
		<g opacity="0.5" clip-path="url(#SVGID_18_)" enable-background="new    ">
			<g>
				<defs>
					<rect id="SVGID_21_" x="592" y="103.1" width="3.4" height="3.4"/>
				</defs>
				<clipPath id="SVGID_22_">
					<use xlink:href="#SVGID_21_"  overflow="visible"/>
				</clipPath>
				<path clip-path="url(#SVGID_22_)" fill="#362B15" d="M593.9,103.1c-0.9-0.1-1.8,0.5-1.9,1.5c-0.1,0.9,0.5,1.8,1.4,1.9
					c0.9,0.1,1.8-0.5,1.9-1.5C595.5,104,594.8,103.2,593.9,103.1"/>
			</g>
		</g>
		<g opacity="0.5" clip-path="url(#SVGID_18_)" enable-background="new    ">
			<g>
				<defs>
					<rect id="SVGID_23_" x="595.1" y="96.2" width="3.4" height="3.4"/>
				</defs>
				<clipPath id="SVGID_24_">
					<use xlink:href="#SVGID_23_"  overflow="visible"/>
				</clipPath>
				<path clip-path="url(#SVGID_24_)" fill="#362B15" d="M597,96.2c-0.9-0.1-1.8,0.5-1.9,1.5c-0.1,0.9,0.5,1.8,1.5,1.9
					c0.9,0.1,1.8-0.5,1.9-1.4C598.6,97.2,597.9,96.3,597,96.2"/>
			</g>
		</g>
		<g opacity="0.5" clip-path="url(#SVGID_18_)" enable-background="new    ">
			<g>
				<defs>
					<rect id="SVGID_25_" x="599" y="106.7" width="3.4" height="3.4"/>
				</defs>
				<clipPath id="SVGID_26_">
					<use xlink:href="#SVGID_25_"  overflow="visible"/>
				</clipPath>
				<path clip-path="url(#SVGID_26_)" fill="#362B15" d="M600.9,106.8c-0.9-0.1-1.8,0.5-1.9,1.5c-0.1,0.9,0.5,1.8,1.5,1.9
					c0.9,0.1,1.8-0.5,1.9-1.4C602.5,107.7,601.8,106.9,600.9,106.8"/>
			</g>
		</g>
		<g opacity="0.5" clip-path="url(#SVGID_18_)" enable-background="new    ">
			<g>
				<defs>
					<rect id="SVGID_27_" x="588.3" y="109.4" width="3.4" height="3.4"/>
				</defs>
				<clipPath id="SVGID_28_">
					<use xlink:href="#SVGID_27_"  overflow="visible"/>
				</clipPath>
				<path clip-path="url(#SVGID_28_)" fill="#362B15" d="M590.2,109.4c-0.9-0.1-1.8,0.5-1.9,1.5c-0.1,0.9,0.5,1.8,1.5,1.9
					c0.9,0.1,1.8-0.5,1.9-1.5C591.7,110.4,591.1,109.5,590.2,109.4"/>
			</g>
		</g>
		<g opacity="0.5" clip-path="url(#SVGID_18_)" enable-background="new    ">
			<g>
				<defs>
					<rect id="SVGID_29_" x="465" y="85.5" width="3.4" height="3.4"/>
				</defs>
				<clipPath id="SVGID_30_">
					<use xlink:href="#SVGID_29_"  overflow="visible"/>
				</clipPath>
				<path clip-path="url(#SVGID_30_)" fill="#362B15" d="M466.9,85.5c-0.9-0.1-1.8,0.5-1.9,1.4c-0.1,0.9,0.5,1.8,1.5,1.9
					c0.9,0.1,1.8-0.5,1.9-1.5C468.5,86.5,467.8,85.7,466.9,85.5"/>
			</g>
		</g>
		<g opacity="0.5" clip-path="url(#SVGID_18_)" enable-background="new    ">
			<g>
				<defs>
					<rect id="SVGID_31_" x="457.8" y="86.2" width="3.4" height="3.4"/>
				</defs>
				<clipPath id="SVGID_32_">
					<use xlink:href="#SVGID_31_"  overflow="visible"/>
				</clipPath>
				<path clip-path="url(#SVGID_32_)" fill="#362B15" d="M459.7,86.2c-0.9-0.1-1.8,0.5-1.9,1.4c-0.1,0.9,0.5,1.8,1.4,1.9
					c0.9,0.1,1.8-0.5,1.9-1.5C461.3,87.2,460.6,86.4,459.7,86.2"/>
			</g>
		</g>
		<g opacity="0.5" clip-path="url(#SVGID_18_)" enable-background="new    ">
			<g>
				<defs>
					<rect id="SVGID_33_" x="456.6" y="78.8" width="3.4" height="3.4"/>
				</defs>
				<clipPath id="SVGID_34_">
					<use xlink:href="#SVGID_33_"  overflow="visible"/>
				</clipPath>
				<path clip-path="url(#SVGID_34_)" fill="#362B15" d="M458.5,78.8c-0.9-0.1-1.8,0.5-1.9,1.5c-0.1,0.9,0.5,1.8,1.5,1.9
					c0.9,0.1,1.8-0.5,1.9-1.4C460.1,79.8,459.4,78.9,458.5,78.8"/>
			</g>
		</g>
		<g opacity="0.5" clip-path="url(#SVGID_18_)" enable-background="new    ">
			<g>
				<defs>
					<rect id="SVGID_35_" x="450.1" y="88" width="3.4" height="3.4"/>
				</defs>
				<clipPath id="SVGID_36_">
					<use xlink:href="#SVGID_35_"  overflow="visible"/>
				</clipPath>
				<path clip-path="url(#SVGID_36_)" fill="#362B15" d="M452,88c-0.9-0.1-1.8,0.5-1.9,1.5c-0.1,0.9,0.5,1.8,1.5,1.9
					c0.9,0.1,1.8-0.5,1.9-1.4C453.5,88.9,452.9,88.1,452,88"/>
			</g>
		</g>
		<g opacity="0.5" clip-path="url(#SVGID_18_)" enable-background="new    ">
			<g>
				<defs>
					<rect id="SVGID_37_" x="459.8" y="93.3" width="3.4" height="3.4"/>
				</defs>
				<clipPath id="SVGID_38_">
					<use xlink:href="#SVGID_37_"  overflow="visible"/>
				</clipPath>
				<path clip-path="url(#SVGID_38_)" fill="#362B15" d="M461.7,93.3c-0.9-0.1-1.8,0.5-1.9,1.5c-0.1,0.9,0.5,1.8,1.4,1.9
					c0.9,0.1,1.8-0.5,1.9-1.5C463.2,94.3,462.6,93.4,461.7,93.3"/>
			</g>
		</g>
		<path clip-path="url(#SVGID_18_)" fill="#FFFFFF" d="M567.5,88.3c5.7,0.7,10.8-3.2,11.6-8.7c0.7-5.6-3.2-10.7-8.9-11.4
			c-5.6-0.7-10.8,3.2-11.5,8.7C557.8,82.4,561.8,87.5,567.5,88.3"/>
		<path clip-path="url(#SVGID_18_)" fill="#FFFFFF" d="M489.3,77.9c5.6,0.7,10.8-3.2,11.5-8.7c0.7-5.6-3.2-10.7-8.9-11.4
			c-5.7-0.8-10.8,3.1-11.6,8.7C479.7,72.1,483.7,77.2,489.3,77.9"/>
		<path clip-path="url(#SVGID_18_)" fill="#DBC19C" d="M570,36.6l18-30.5c1-1.7,3-2.3,4.3-1.2c1.3,1.1,1.6,3.4,0.6,5.1l-17.3,29.3"
			/>
		<path clip-path="url(#SVGID_18_)" fill="#DBC19C" d="M482.7,39.7l-17.3-29.3c-1-1.7-0.8-4,0.6-5.1c1.3-1.1,3.3-0.5,4.3,1.2
			l18,30.5"/>
		<path clip-path="url(#SVGID_18_)" fill="#BE4F28" d="M603.4,60.6c0,0-27.6,8.8-43.6-17.7c-28.3,16.5-58.3,6.8-82.6-6.8
			c10.5-10.5,43.8-30.1,84.9-4.7C582.4,44.1,603.1,57.8,603.4,60.6"/>
		<path clip-path="url(#SVGID_18_)" fill="#DBC19C" d="M507.3,333.9c0,5.7,3.3,10.3,7.3,10.3c4,0,7.3-4.6,7.3-10.3V244
			c0-5.7-3.3-10.3-7.3-10.3c-4,0-7.3,4.6-7.3,10.3V333.9z"/>
		<path clip-path="url(#SVGID_18_)" fill="#221F1F" d="M507.3,334.6c0,3.9,3.3,7.1,7.3,7.1c4,0,7.3-3.2,7.3-7.1v-2.2
			c0.7,1.4,0.8,3.1,0.8,4.8c0,5.4-3.5,10.1-8.1,10.1c-4.6,0-8.1-4.7-8.1-10.1c0-1.8,0.1-3.4,0.8-4.8L507.3,334.6z"/>
		<path clip-path="url(#SVGID_18_)" fill="#808084" d="M511,342.9c0-0.5,0.4-0.9,0.9-0.9c0,0,3,0.1,3,0.9c0,0.7-3,0.9-3,0.9
			C511.4,343.8,511,343.4,511,342.9 M511.9,342.7c-0.1,0-0.3,0.1-0.3,0.2c0,0.1,0.1,0.2,0.3,0.2c0.3,0,1.3-0.1,1.9-0.2
			C513.2,342.8,512.2,342.7,511.9,342.7"/>
		<path clip-path="url(#SVGID_18_)" fill="#808084" d="M514.8,342.9c0-0.7,3-0.9,3-0.9c0.5,0,0.9,0.4,0.9,0.9c0,0.5-0.4,0.8-0.9,0.8
			C517.8,343.8,514.8,343.7,514.8,342.9 M515.9,342.9c0.7,0.1,1.7,0.2,1.9,0.2c0.1,0,0.3-0.1,0.3-0.2c0-0.1-0.1-0.2-0.3-0.2
			C517.6,342.7,516.6,342.8,515.9,342.9"/>
		<path clip-path="url(#SVGID_18_)" fill="#221F1F" d="M515.5,342.9c0,0.4-0.3,0.7-0.7,0.7c-0.4,0-0.7-0.3-0.7-0.7
			c0-0.4,0.3-0.7,0.7-0.7C515.2,342.2,515.5,342.5,515.5,342.9"/>
		<path clip-path="url(#SVGID_18_)" fill="#808084" d="M515.4,342.8c0,0.3-0.2,0.6-0.6,0.6c-0.3,0-0.6-0.2-0.6-0.6
			c0-0.3,0.3-0.6,0.6-0.6C515.1,342.3,515.4,342.5,515.4,342.8"/>
		<rect x="507.1" y="232.8" clip-path="url(#SVGID_18_)" fill="#6F8086" width="15.1" height="46.7"/>
		<rect x="506.9" y="272.4" clip-path="url(#SVGID_18_)" fill="#9EAFB6" width="15.4" height="7"/>
		<path clip-path="url(#SVGID_18_)" fill="#DBC19C" d="M643.2,218.4c3.4,4.4,9.3,5.5,13.2,2.4c4-3,4.4-9.1,1.1-13.4l-59.2-77.2
			c-3.4-4.4-9.3-5.5-13.3-2.4c-4,3-4.4,9-1.1,13.4L643.2,218.4z"/>
		<path clip-path="url(#SVGID_18_)" fill="#DBC19C" d="M396.2,56.8c-4-3.8-10.1-3.9-13.5-0.2c-3.4,3.6-2.9,9.7,1.1,13.4l71,66.5
			c4,3.8,10.1,3.9,13.5,0.2c3.4-3.6,2.9-9.7-1.1-13.4L396.2,56.8z"/>
		<path clip-path="url(#SVGID_18_)" fill="#DBC19C" d="M564.2,333.5c1.4,5.5,5.7,9.2,9.6,8.2c3.9-1,6-6.3,4.6-11.8l-22-87.1
			c-1.4-5.5-5.7-9.2-9.6-8.2c-3.9,1-6,6.3-4.6,11.8L564.2,333.5z"/>
		
			<rect x="544.6" y="233.1" transform="matrix(-0.9696 0.2446 -0.2446 -0.9696 1150.2776 369.9452)" clip-path="url(#SVGID_18_)" fill="#6F8086" width="15.1" height="46.7"/>
		
			<rect x="549.3" y="272.1" transform="matrix(-0.9696 0.2445 -0.2445 -0.9696 1164.4987 406.6222)" clip-path="url(#SVGID_18_)" fill="#9EAFB6" width="15.4" height="7"/>
		<path clip-path="url(#SVGID_18_)" fill="#221F1F" d="M564.3,334.1c1.1,3.8,5.1,5.9,9,4.8c3.9-1.1,6.2-5,5.1-8.8l-0.6-2.1
			c1,1.2,1.6,2.7,2.1,4.4c1.5,5.2-0.6,10.7-5,11.9c-4.5,1.3-9.1-2.3-10.6-7.5c-0.5-1.7-0.8-3.3-0.6-4.8L564.3,334.1z"/>
		<path clip-path="url(#SVGID_18_)" fill="#808084" d="M570.1,341.1c-0.1-0.5,0.1-0.9,0.6-1.1c0,0,2.9-0.7,3.1,0
			c0.2,0.7-2.7,1.6-2.7,1.6C570.7,341.8,570.2,341.6,570.1,341.1 M570.9,340.7c-0.1,0-0.2,0.2-0.2,0.3c0,0.1,0.2,0.2,0.3,0.2
			c0.3-0.1,1.2-0.5,1.8-0.8C572.1,340.4,571.1,340.6,570.9,340.7"/>
		<path clip-path="url(#SVGID_18_)" fill="#808084" d="M573.8,340.1c-0.2-0.7,2.7-1.6,2.7-1.6c0.5-0.1,0.9,0.1,1.1,0.6
			c0.1,0.5-0.1,0.9-0.6,1.1C576.9,340.1,574,340.8,573.8,340.1 M574.9,339.8c0.7,0,1.7-0.2,1.9-0.3c0.1,0,0.2-0.2,0.2-0.3
			c0-0.1-0.2-0.2-0.3-0.2C576.4,339.1,575.5,339.5,574.9,339.8"/>
		<path clip-path="url(#SVGID_18_)" fill="#221F1F" d="M574.5,339.9c0.1,0.4-0.1,0.8-0.5,0.9c-0.4,0.1-0.8-0.1-0.9-0.5
			c-0.1-0.4,0.1-0.8,0.5-0.9C574,339.3,574.4,339.5,574.5,339.9"/>
		<path clip-path="url(#SVGID_18_)" fill="#808084" d="M574.3,339.8c0.1,0.3-0.1,0.6-0.4,0.7c-0.3,0.1-0.6-0.1-0.7-0.4
			c-0.1-0.3,0.1-0.6,0.4-0.7C573.9,339.4,574.2,339.5,574.3,339.8"/>
		<rect x="480" y="126.8" clip-path="url(#SVGID_18_)" fill="#DBC19C" width="96.7" height="47.4"/>
		<path clip-path="url(#SVGID_18_)" fill="#529BBF" d="M528.4,145c-14,0-18-11.4-18.2-18.6h-11.6c-0.5,8.6-1.4,18.5-19.3,18.5v67.8
			c0,0-3.1,14.3-3.1,16.8c0,2.5,0.3,6.3,3.5,6.9c3.2,0.6,7.8,0.8,13.2,1.1c0,0,12,1.9,20.8,1.9c8.8,0,12,0.3,14.5,0.3
			c2.5,0,5.7-0.3,14.5-0.3c8.8,0,20.8-1.9,20.8-1.9c5.5-0.3,10-0.5,13.2-1.1c3.2-0.6,3.5-4.5,3.5-6.9c0-2.5-3.1-16.8-3.1-16.8v-67.8
			c-14.8-0.3-16.3-9.9-16.8-18.5h-12.9C547.5,133.6,542.4,145,528.4,145"/>
		<path clip-path="url(#SVGID_18_)" fill="#67B6D7" d="M547.6,126.3c-0.2,7.2-5.2,18.6-19.2,18.6c-14,0-18-11.4-18.2-18.6h-4.2
			c0,0-0.8,24.6,22.5,24.6c23.3,0,23.3-24.6,23.3-24.6H547.6z"/>
		<path clip-path="url(#SVGID_18_)" fill="#427F95" d="M580.4,231c-0.2,2.2-0.9,4.8-3.5,5.2c-3.2,0.6-7.8,0.8-13.2,1.1
			c0,0-12,1.9-20.8,1.9c-8.8,0-12,0.3-14.5,0.3c-2.5,0-5.7-0.3-14.5-0.3c-8.8,0-20.8-1.9-20.8-1.9c-5.5-0.3-10-0.5-13.2-1.1
			c-3.2-0.6-3.5-4.5-3.5-6.9c0,0,2.6,3.1,5.9,3.4c3.2,0.3,8.3,0.3,11.3,0.7c3,0.3,14.5,2,20.2,2c5.7,0,9.4,0.6,14.4,0.5
			c5.1-0.1,9.7-0.5,14.3-0.5c4.6,0,15.1-1.4,21-2c5.9-0.6,11-0.6,13.2-1.2C578.8,231.7,580.4,231,580.4,231"/>
		<path clip-path="url(#SVGID_18_)" fill="#67B6D7" d="M499,156.1v9.9c0,2,2.6,4.4,4.4,4.4h8.4c1.5,0,4.4-1.7,4.4-4.3v-9.7
			c0-2.5-2.3-4.2-4.2-4.2h-8.5C500.6,152,499,154,499,156.1"/>
		<path clip-path="url(#SVGID_18_)" fill="#C4CB2E" d="M501.5,127.2l0.2,1.4c0,0.2,0.1,0.4,0.2,0.5c0,0.2-0.1,0.3,0,0.5l0.2,1.4
			c0,0.2,0.1,0.4,0.2,0.5c-0.1,0.2-0.1,0.4-0.1,0.6l0.2,1.4c0,0.2,0.1,0.3,0.2,0.5c-0.1,0.2-0.1,0.4-0.1,0.6l0.2,1.4
			c0,0.2,0.1,0.3,0.2,0.5c0,0.1,0,0.3,0,0.5l0.3,1.4c0,0.2,0.1,0.3,0.2,0.4c0,0.1,0,0.3,0,0.5l0.3,1.4c0,0.2,0.1,0.4,0.3,0.5
			c-0.1,0.2-0.1,0.4,0,0.6l0.3,1.4c0,0.2,0.1,0.3,0.2,0.5c-0.1,0.2-0.1,0.4,0,0.6l0.3,1.4c0,0.1,0.1,0.3,0.1,0.4c0,0.1,0,0.3,0,0.4
			l0.3,1.4c0,0.2,0.1,0.3,0.2,0.4c0,0.1,0,0.2,0,0.4l0.4,1.4c0,0.1,0.1,0.3,0.2,0.4c0,0.1,0,0.3,0,0.4l0.4,1.4
			c0.1,0.2,0.1,0.3,0.3,0.4c0,0.2,0,0.4,0,0.5l0.4,1.4c0.1,0.2,0.1,0.3,0.2,0.4c0,0.1,0,0.2,0,0.4l0.4,1.4c0,0.1,0.1,0.3,0.2,0.4
			c0,0.1,0,0.3,0.1,0.4l0.4,1.3c0.1,0.2,0.2,0.4,0.4,0.5c0,0.2,0,0.5,0.1,0.7l0.5,1.3c0.1,0.2,0.2,0.3,0.3,0.4c0,0.1,0,0.2,0.1,0.3
			l0.6,1.3c0.1,0.1,0.1,0.2,0.2,0.3c0,0.1,0,0.3,0.1,0.4l0.6,1.2c0.1,0.2,0.3,0.4,0.5,0.4c0,0.2,0.1,0.3,0.1,0.4l0.7,1.2
			c0.1,0.1,0.2,0.3,0.3,0.3c0,0.1,0.1,0.2,0.1,0.3l0.7,1.1c0.1,0.1,0.2,0.2,0.3,0.3c0,0.1,0.1,0.3,0.2,0.4l0.8,1
			c0.1,0.2,0.3,0.3,0.5,0.3c0,0.2,0.1,0.4,0.2,0.6l0.8,0.9c0.1,0.1,0.3,0.2,0.5,0.2c0,0,0.1,0,0.1,0c0.1,0.1,0.1,0.3,0.2,0.4
			l0.9,0.8c0.1,0.1,0.3,0.2,0.5,0.2c0,0,0.1,0,0.1,0c0.1,0.2,0.2,0.4,0.4,0.5l1,0.6c0.1,0.1,0.2,0.1,0.3,0.1c0.1,0,0.2,0,0.3-0.1
			c0.1,0.2,0.2,0.4,0.4,0.6l1,0.6c0.1,0.1,0.2,0.1,0.3,0.1c0.1,0,0.1,0,0.2,0c0.1,0.2,0.2,0.4,0.4,0.5l1,0.4c0.1,0,0.2,0,0.2,0
			c0.1,0,0.2,0,0.3-0.1c0.1,0.2,0.3,0.4,0.5,0.4l1.1,0.2c0,0,0.1,0,0.1,0c0.1,0,0.2,0,0.4-0.1c0.1,0.1,0.2,0.2,0.4,0.3
			c-0.5,0.5-0.9,1.2-0.9,2c0,0.4,0.1,0.8,0.2,1.1c-0.2,0-0.3,0-0.5,0c-1.6,0-3.5,1.1-3.5,4.1c0,4.9,5.6,9.8,5.9,10l0.4,0.3l0.4-0.3
			c0.2-0.2,5.9-5.1,5.9-10c0-3-1.9-4.1-3.5-4.1c-0.1,0-0.2,0-0.3,0c0.2-0.3,0.2-0.7,0.2-1.1c0-0.8-0.3-1.5-0.8-2
			c0.2,0,0.3-0.1,0.4-0.3c0.1,0.1,0.2,0.1,0.4,0.1c0,0,0.1,0,0.1,0l1.1-0.2c0.2,0,0.4-0.2,0.5-0.4c0.1,0.1,0.2,0.1,0.3,0.1
			c0.1,0,0.2,0,0.2,0l1-0.4c0.2-0.1,0.4-0.3,0.5-0.5c0.1,0,0.1,0,0.2,0c0.1,0,0.2,0,0.3-0.1l1-0.6c0.2-0.1,0.3-0.3,0.4-0.6
			c0.1,0,0.2,0.1,0.3,0.1c0.1,0,0.2,0,0.3-0.1l1-0.6c0.2-0.1,0.3-0.3,0.4-0.5c0,0,0.1,0,0.1,0c0.2,0,0.3-0.1,0.5-0.2l0.9-0.8
			c0.1-0.1,0.2-0.2,0.2-0.4c0,0,0.1,0,0.1,0c0.2,0,0.4-0.1,0.5-0.2l0.8-0.9c0.1-0.2,0.2-0.4,0.2-0.6c0.2,0,0.4-0.1,0.5-0.3l0.8-1
			c0.1-0.1,0.1-0.2,0.2-0.4c0.1-0.1,0.2-0.2,0.3-0.3l0.7-1.1c0.1-0.1,0.1-0.2,0.1-0.3c0.1-0.1,0.2-0.2,0.3-0.3l0.7-1.2
			c0.1-0.1,0.1-0.3,0.1-0.4c0.2-0.1,0.4-0.2,0.5-0.4l0.6-1.2c0.1-0.1,0.1-0.3,0.1-0.4c0.1-0.1,0.2-0.2,0.2-0.3l0.6-1.3
			c0.1-0.1,0.1-0.2,0.1-0.3c0.1-0.1,0.2-0.2,0.3-0.4l0.5-1.3c0.1-0.2,0.1-0.5,0.1-0.7c0.2-0.1,0.3-0.3,0.4-0.5l0.4-1.3
			c0-0.1,0.1-0.3,0.1-0.4c0.1-0.1,0.2-0.2,0.2-0.4l0.4-1.4c0-0.1,0.1-0.2,0.1-0.4c0.1-0.1,0.2-0.2,0.2-0.4l0.4-1.4
			c0.1-0.2,0.1-0.4,0-0.5c0.1-0.1,0.2-0.3,0.3-0.4l0.4-1.4c0-0.1,0-0.3,0-0.4c0.1-0.1,0.2-0.2,0.2-0.4l0.4-1.4c0-0.1,0-0.2,0-0.4
			c0.1-0.1,0.2-0.2,0.2-0.4l0.3-1.4c0-0.1,0-0.3,0-0.4c0.1-0.1,0.1-0.2,0.1-0.4l0.3-1.4c0-0.2,0-0.4,0-0.6c0.1-0.1,0.2-0.3,0.2-0.5
			l0.3-1.4c0-0.2,0-0.4,0-0.6c0.1-0.1,0.2-0.3,0.3-0.5l0.3-1.4c0-0.2,0-0.3,0-0.5c0.1-0.1,0.2-0.3,0.2-0.4l0.3-1.4
			c0-0.2,0-0.3,0-0.5c0.1-0.1,0.2-0.3,0.2-0.4l0.2-1.4c0-0.2,0-0.4-0.1-0.6c0.1-0.1,0.2-0.3,0.2-0.5l0.2-1.4c0-0.2,0-0.4-0.1-0.6
			c0.1-0.1,0.2-0.3,0.2-0.5l0.2-1.4c0-0.2,0-0.4,0-0.5c0.1-0.1,0.2-0.3,0.2-0.5l0.2-1.5c0.1-0.5-0.2-1-0.6-1.1
			c-0.4-0.1-0.8,0.3-0.9,0.8l-0.2,1.4c0,0.2,0,0.4,0,0.5c-0.1,0.1-0.2,0.3-0.2,0.5l-0.2,1.4c0,0.2,0,0.4,0.1,0.5
			c-0.1,0.1-0.2,0.3-0.2,0.4l-0.2,1.4c0,0.2,0,0.5,0.1,0.6c-0.1,0.1-0.2,0.3-0.2,0.4l-0.2,1.4c0,0.2,0,0.3,0,0.5
			c-0.1,0.1-0.2,0.3-0.2,0.4l-0.3,1.4c0,0.2,0,0.3,0,0.5c-0.1,0.1-0.2,0.3-0.2,0.4l-0.3,1.4c0,0.2,0,0.4,0,0.6
			c-0.1,0.1-0.2,0.3-0.3,0.5l-0.3,1.4c0,0.2,0,0.4,0,0.6c-0.1,0.1-0.2,0.3-0.2,0.5l-0.3,1.4c0,0.1,0,0.3,0,0.4
			c-0.1,0.1-0.1,0.2-0.1,0.3l-0.3,1.4c0,0.1,0,0.2,0,0.3c-0.1,0.1-0.2,0.2-0.2,0.4l-0.4,1.4c0,0.1,0,0.3,0,0.4
			c-0.1,0.1-0.1,0.2-0.2,0.3l-0.4,1.4c0,0.2,0,0.4,0,0.5c-0.1,0.1-0.2,0.3-0.3,0.4l-0.4,1.4c0,0.1,0,0.2,0,0.3
			c-0.1,0.1-0.2,0.2-0.2,0.4l-0.4,1.4c0,0.1,0,0.3,0,0.4c-0.1,0.1-0.2,0.2-0.2,0.3l-0.4,1.3c-0.1,0.2-0.1,0.4,0,0.6
			c-0.1,0.1-0.3,0.2-0.3,0.4l-0.5,1.3c0,0.1-0.1,0.2-0.1,0.3c-0.1,0.1-0.2,0.2-0.3,0.3l-0.6,1.3c0,0.1-0.1,0.3-0.1,0.4
			c-0.1,0.1-0.2,0.2-0.2,0.3l-0.6,1.2c-0.1,0.1-0.1,0.3-0.1,0.4c-0.2,0-0.4,0.2-0.5,0.4l-0.7,1.2c-0.1,0.1-0.1,0.2-0.1,0.3
			c-0.1,0.1-0.2,0.1-0.3,0.3l-0.7,1.1c-0.1,0.1-0.1,0.2-0.1,0.3c-0.1,0-0.2,0.1-0.3,0.2l-0.8,1c-0.1,0.1-0.2,0.3-0.2,0.5
			c-0.2,0-0.3,0.1-0.5,0.2l-0.8,0.9c-0.1,0.1-0.1,0.2-0.2,0.3c-0.2,0-0.4,0-0.6,0.2l-0.9,0.8c-0.1,0.1-0.2,0.3-0.3,0.4
			c-0.2,0-0.3,0-0.5,0.1l-1,0.6c-0.2,0.1-0.3,0.3-0.4,0.6c-0.2-0.1-0.4-0.1-0.6,0l-1,0.6c-0.2,0.1-0.3,0.3-0.3,0.4
			c-0.1-0.1-0.3-0.1-0.5,0l-1,0.4c-0.2,0.1-0.3,0.2-0.4,0.4c-0.1-0.1-0.3-0.1-0.5-0.1l-1.1,0.2c-0.2,0-0.3,0.1-0.4,0.3
			c-0.1-0.1-0.3-0.1-0.5-0.1l-1.1,0.2c-0.1,0-0.3,0.1-0.4,0.2c-0.1-0.1-0.2-0.2-0.4-0.2l-1.1-0.2c-0.2,0-0.3,0-0.5,0.1
			c-0.1-0.1-0.2-0.2-0.4-0.3l-1.1-0.2c-0.2,0-0.3,0-0.5,0.1c-0.1-0.2-0.2-0.3-0.4-0.4l-1-0.4c-0.2-0.1-0.3-0.1-0.5,0
			c-0.1-0.2-0.2-0.4-0.4-0.4l-1-0.6c-0.2-0.1-0.4-0.1-0.6,0c-0.1-0.2-0.2-0.5-0.4-0.6l-1-0.6c-0.1-0.1-0.3-0.1-0.5-0.1
			c-0.1-0.2-0.1-0.3-0.3-0.4l-0.9-0.8c-0.2-0.1-0.4-0.2-0.5-0.2c0-0.1-0.1-0.2-0.2-0.3l-0.8-0.9c-0.1-0.1-0.3-0.2-0.5-0.2
			c0-0.2-0.1-0.4-0.2-0.5l-0.8-1c-0.1-0.1-0.2-0.2-0.3-0.2c0-0.1-0.1-0.2-0.1-0.3l-0.7-1.1c-0.1-0.1-0.2-0.2-0.3-0.3
			c0-0.1-0.1-0.2-0.1-0.3l-0.7-1.2c-0.1-0.2-0.3-0.3-0.5-0.4c0-0.1,0-0.3-0.1-0.4l-0.6-1.2c-0.1-0.1-0.1-0.2-0.2-0.3
			c0-0.1,0-0.3-0.1-0.4l-0.6-1.3c-0.1-0.1-0.2-0.3-0.3-0.3c0-0.1,0-0.2-0.1-0.3l-0.5-1.3c-0.1-0.2-0.2-0.3-0.3-0.4
			c0-0.2,0-0.4,0-0.6l-0.4-1.3c-0.1-0.1-0.1-0.2-0.2-0.3c0-0.1,0-0.3,0-0.4l-0.4-1.4c0-0.2-0.1-0.3-0.2-0.4c0-0.1,0-0.2,0-0.3
			l-0.4-1.4c-0.1-0.2-0.2-0.3-0.3-0.4c0-0.2,0-0.4,0-0.5l-0.4-1.4c0-0.1-0.1-0.2-0.2-0.3c0-0.1,0-0.3,0-0.4l-0.4-1.4
			c0-0.2-0.1-0.3-0.2-0.4c0-0.1,0-0.2,0-0.3l-0.3-1.4c0-0.1-0.1-0.2-0.1-0.3c0-0.1,0-0.3,0-0.4l-0.3-1.4c0-0.2-0.1-0.3-0.2-0.5
			c0.1-0.2,0.1-0.4,0-0.6l-0.3-1.4c0-0.2-0.1-0.4-0.3-0.5c0.1-0.2,0.1-0.4,0.1-0.6l-0.3-1.4c0-0.2-0.1-0.3-0.2-0.4
			c0-0.1,0-0.3,0-0.5l-0.3-1.4c0-0.2-0.1-0.3-0.2-0.4c0-0.1,0-0.3,0-0.5l-0.2-1.4c0-0.2-0.1-0.3-0.2-0.4c0.1-0.2,0.1-0.4,0.1-0.6
			l-0.2-1.4c0-0.2-0.1-0.3-0.2-0.4c0.1-0.2,0.1-0.3,0.1-0.5l-0.2-1.4c0-0.2-0.1-0.4-0.2-0.5c0.1-0.2,0.1-0.3,0-0.5l-0.2-1.4
			c-0.1-0.5-0.5-0.9-0.9-0.8C501.7,126.3,501.4,126.7,501.5,127.2 M502.6,128.5c0,0.1,0,0.1,0,0.2c-0.1,0-0.1,0-0.2,0
			c-0.1,0-0.1,0.1-0.2,0.1c0,0,0-0.1,0-0.1l-0.2-1.4c0-0.2,0.1-0.4,0.2-0.4c0.1,0,0.2,0.1,0.2,0.3L502.6,128.5z M502.4,129.5
			C502.4,129.5,502.4,129.5,502.4,129.5c0.1,0,0.1,0,0.2,0c0.1,0,0.1-0.1,0.2-0.1c0,0,0,0.1,0,0.2l0.2,1.4c0,0.1,0,0.1,0,0.2
			c-0.1,0-0.2,0-0.3,0c-0.1,0-0.1,0-0.2,0.1c0,0,0-0.1,0-0.1l-0.2-1.4C502.4,129.6,502.4,129.5,502.4,129.5 M502.7,132
			C502.7,132,502.8,132,502.7,132c0.1,0,0.2,0,0.2,0c0.1,0,0.1,0,0.2-0.1c0,0,0,0.1,0,0.1l0.2,1.4c0,0.1,0,0.2,0,0.3
			c-0.1,0-0.2,0-0.3,0c0,0-0.1,0-0.1,0c0,0,0-0.1,0-0.1l-0.2-1.4C502.7,132.1,502.7,132,502.7,132 M503.1,134.5
			C503.1,134.5,503.1,134.5,503.1,134.5c0.1,0,0.2,0,0.3,0c0,0,0.1,0,0.1,0c0,0,0,0.1,0,0.1l0.2,1.4v0.1c-0.1,0-0.2,0-0.2,0
			c-0.1,0-0.1,0.1-0.2,0.1l-0.2-1.4C503.1,134.6,503.1,134.5,503.1,134.5 M503.7,138.5l-0.2-1.4c0,0,0,0,0-0.1c0,0,0,0,0,0
			c0.1,0,0.1,0,0.2,0c0.1,0,0.1-0.1,0.2-0.1l0.2,1.4c0,0,0,0,0,0.1c-0.1,0-0.2,0-0.2,0C503.9,138.4,503.8,138.4,503.7,138.5
			 M504.6,140.9c-0.1,0-0.1,0-0.2,0c-0.1,0-0.1,0-0.2,0.1c0,0,0-0.1-0.1-0.2l-0.3-1.4c0,0,0,0,0-0.1h0c0.1,0,0.1,0,0.2,0
			c0.1,0,0.1-0.1,0.2-0.1l0.3,1.4C504.6,140.7,504.6,140.8,504.6,140.9 M505.1,143.3c-0.1,0-0.2,0-0.2,0c-0.1,0-0.1,0.1-0.2,0.1
			c0,0,0-0.1,0-0.1l-0.3-1.4c0-0.1,0-0.2,0-0.3c0.1,0,0.1,0,0.2,0c0.1,0,0.1-0.1,0.2-0.1c0,0,0.1,0.1,0.1,0.2l0.3,1.4
			C505.1,143.2,505.1,143.2,505.1,143.3 M504.9,144.2L504.9,144.2c0.1,0,0.1,0,0.2,0c0.1,0,0.1-0.1,0.2-0.1c0,0,0,0.1,0,0.1l0.3,1.3
			c-0.1,0-0.2,0-0.3,0c0,0-0.1,0-0.1,0.1l-0.2-1.2C504.8,144.3,504.8,144.2,504.9,144.2 M506.2,150l-0.3-1.2c0.1,0,0.1,0,0.2,0
			c0.1,0,0.2-0.1,0.2-0.2l0.3,1.2c-0.1,0-0.2,0-0.3,0.1C506.3,149.9,506.2,149.9,506.2,150 M505.3,146.6
			C505.3,146.6,505.3,146.6,505.3,146.6c0.1,0,0.2,0,0.3,0c0.1,0,0.1-0.1,0.2-0.1l0.3,1.2c-0.1,0-0.1,0-0.2,0.1
			c-0.1,0-0.1,0.1-0.2,0.1L505.3,146.6z M507.2,152.2c-0.1,0-0.1,0-0.2,0.1c-0.1,0-0.1,0.1-0.2,0.1c0,0,0,0,0-0.1l-0.4-1.4
			c0.1,0,0.2,0,0.3-0.1c0.1,0,0.1-0.1,0.2-0.1l0.4,1.2C507.2,152,507.2,152.1,507.2,152.2 M530.6,180.3c0,1-0.7,1.7-1.6,1.7
			c-0.9,0-1.6-0.8-1.6-1.7c0-1,0.7-1.7,1.6-1.7C529.9,178.6,530.6,179.4,530.6,180.3 M550.7,152l0.3-1.2c0.1,0.1,0.1,0.1,0.2,0.1
			c0.1,0,0.2,0.1,0.2,0.1l-0.4,1.4c0,0,0,0,0,0.1c-0.1,0-0.1-0.1-0.2-0.1c-0.1,0-0.1-0.1-0.2-0.1C550.7,152.1,550.7,152,550.7,152
			 M553.1,144.4l-0.2,1.2c0,0-0.1-0.1-0.1-0.1c-0.1,0-0.2-0.1-0.3,0l0.3-1.3c0,0,0-0.1,0-0.1c0.1,0,0.1,0.1,0.2,0.1
			c0.1,0,0.1,0,0.2,0h0C553.1,144.2,553.1,144.3,553.1,144.4 M552.6,146.6l-0.3,1.2c-0.1-0.1-0.1-0.1-0.2-0.1c-0.1,0-0.1,0-0.2,0
			l0.3-1.2c0.1,0,0.1,0.1,0.2,0.1C552.4,146.6,552.5,146.6,552.6,146.6C552.6,146.6,552.6,146.6,552.6,146.6 M552,148.8l-0.3,1.2
			c-0.1,0-0.1-0.1-0.2-0.1c-0.1,0-0.2-0.1-0.3-0.1l0.3-1.2c0.1,0.1,0.1,0.1,0.2,0.2C551.9,148.7,552,148.8,552,148.8 M552.8,143.1
			l0.3-1.4c0-0.1,0-0.1,0.1-0.2c0,0,0.1,0.1,0.2,0.1c0.1,0,0.1,0,0.2,0c0,0.1,0,0.2,0,0.3l-0.3,1.4c0,0,0,0.1,0,0.1
			c0,0-0.1-0.1-0.2-0.1c-0.1,0-0.1,0-0.2,0C552.8,143.2,552.8,143.2,552.8,143.1 M553.4,140.9c0-0.1,0-0.2,0-0.3l0.3-1.4
			c0.1,0,0.1,0.1,0.2,0.1c0.1,0,0.1,0,0.2,0h0v0.1l-0.3,1.4c0,0.1,0,0.1-0.1,0.2c-0.1,0-0.1-0.1-0.2-0.1
			C553.5,140.9,553.4,140.9,553.4,140.9 M554.9,133.7c0,0-0.1,0-0.1,0c-0.1,0-0.2,0-0.3,0c0-0.1,0-0.2,0-0.3l0.2-1.4
			c0,0,0-0.1,0-0.1c0.1,0,0.1,0.1,0.2,0.1c0,0,0.1,0,0.1,0c0,0,0,0,0.1,0c0,0.1,0,0.1,0,0.2l-0.2,1.4
			C555,133.7,554.9,133.7,554.9,133.7 M555.3,131.2c0,0-0.1-0.1-0.1-0.1c-0.1,0-0.2,0-0.3,0c0-0.1,0-0.1,0-0.2l0.2-1.4
			c0-0.1,0-0.1,0.1-0.2c0.1,0,0.1,0.1,0.2,0.1c0,0,0.1,0,0.1,0c0,0,0,0,0,0c0,0.1,0,0.1,0,0.2l-0.2,1.4
			C555.3,131.2,555.3,131.2,555.3,131.2 M554.9,134.7l-0.2,1.4c-0.1,0-0.1-0.1-0.2-0.1c-0.1,0-0.2,0-0.2,0c0,0,0,0,0-0.1l0.2-1.4
			c0,0,0-0.1,0-0.1c0,0,0.1,0,0.1,0c0.1,0,0.1,0,0.2,0c0,0,0,0,0.1,0C554.9,134.5,554.9,134.6,554.9,134.7 M554.4,137L554.4,137
			l-0.3,1.5c-0.1,0-0.1-0.1-0.2-0.1c-0.1,0-0.2,0-0.2,0c0,0,0,0,0-0.1l0.3-1.4c0.1,0,0.1,0.1,0.2,0.1C554.3,137,554.3,137,554.4,137
			C554.4,137,554.4,137,554.4,137 M555.9,127.2l-0.2,1.4c0,0.1,0,0.1,0,0.2c-0.1,0-0.1-0.1-0.2-0.1c-0.1,0-0.1,0-0.2,0
			c0-0.1,0-0.1,0-0.2l0.2-1.4c0-0.2,0.1-0.3,0.2-0.3C555.8,126.8,555.9,126.9,555.9,127.2 M550.8,153.2l-0.4,1.3
			c-0.1-0.1-0.1-0.1-0.2-0.2c-0.1,0-0.1-0.1-0.2-0.1l0.4-1.3c0,0,0,0,0-0.1c0.1,0.1,0.1,0.1,0.2,0.1c0.1,0,0.1,0.1,0.2,0.1
			C550.8,153.1,550.8,153.2,550.8,153.2 M549.8,156.6c-0.1,0-0.1-0.1-0.2-0.1c-0.1,0-0.2-0.1-0.3-0.1l0.4-1.2
			c0.1,0.1,0.1,0.1,0.2,0.2c0.1,0,0.1,0.1,0.2,0.1L549.8,156.6z M549,158.8c0,0.1-0.1,0.1-0.1,0.2c0,0,0,0-0.1-0.1
			c-0.1,0-0.1-0.1-0.2-0.1c0-0.1-0.1-0.2,0-0.4l0.4-1.2c0,0.1,0.1,0.1,0.2,0.1c0.1,0,0.2,0.1,0.3,0.1L549,158.8z M548.1,161.1
			c-0.1-0.1-0.1-0.1-0.2-0.2c-0.1-0.1-0.2-0.1-0.2-0.1l0.5-1.2c0-0.1,0.1-0.1,0.1-0.1c0,0,0.1,0.1,0.1,0.1c0,0,0.1,0,0.1,0
			c0,0.1,0.1,0.3,0,0.4L548.1,161.1z M547.2,163c0-0.1-0.1-0.1-0.1-0.1c-0.1-0.1-0.2-0.1-0.3-0.1l0.5-1.1c0,0.1,0.1,0.2,0.2,0.2
			c0.1,0,0.1,0.1,0.2,0.1L547.2,163z M546.2,165.1c0,0.1-0.1,0.1-0.1,0.1c0-0.1-0.1-0.2-0.2-0.3c0,0-0.1-0.1-0.1-0.1
			c0-0.1,0-0.2,0-0.2l0.5-1.1c0,0.1,0.1,0.1,0.2,0.2c0.1,0.1,0.2,0.1,0.3,0.1v0L546.2,165.1z M545.1,167c0-0.1-0.1-0.2-0.1-0.2
			c-0.1-0.1-0.1-0.1-0.2-0.2l0.6-1.2c0,0,0.1-0.1,0.1-0.1c0.1,0.1,0.1,0.2,0.2,0.3c0,0,0,0,0,0c0,0.1,0,0.2-0.1,0.3L545.1,167z
			 M543.9,168.8c0-0.1,0-0.1-0.1-0.2c-0.1-0.1-0.2-0.2-0.3-0.2l0.6-1c0,0.1,0.1,0.2,0.2,0.3c0.1,0.1,0.1,0.1,0.2,0.1L543.9,168.8z
			 M542.6,170.5c-0.1,0.1-0.1,0.1-0.2,0.1c0,0,0-0.1-0.1-0.1c0,0,0-0.1-0.1-0.1c0-0.1,0-0.3,0.1-0.4l0.7-0.9c0,0.1,0.1,0.2,0.2,0.3
			c0.1,0.1,0.1,0.1,0.2,0.2c0,0,0,0,0,0L542.6,170.5z M540.9,172.3c0-0.1,0-0.2-0.1-0.3c0,0,0-0.1-0.1-0.1c0-0.1,0-0.2,0.1-0.3
			l0.8-0.9c0,0,0.1-0.1,0.1-0.1c0,0,0,0,0.1,0c0,0.1,0,0.1,0.1,0.2c0,0,0,0,0,0.1c0,0.2,0,0.3-0.1,0.4l-0.8,0.9
			C541,172.3,540.9,172.3,540.9,172.3 M539.1,173.7C539.1,173.7,539.1,173.6,539.1,173.7c-0.1-0.2-0.1-0.2-0.1-0.3
			c0-0.1,0-0.3,0.1-0.4l0.9-0.8c0,0,0.1,0,0.1,0c0,0,0,0,0,0c0,0.1,0.1,0.3,0.1,0.4c0,0,0,0,0,0c0,0.1,0,0.2-0.1,0.3l-0.9,0.8
			C539.3,173.8,539.2,173.7,539.1,173.7 M537.3,174.2l1-0.6c0,0,0,0,0.1,0c0,0,0.1,0,0.1,0.1c0,0.1,0,0.2,0.1,0.2c0,0,0,0,0,0
			c0,0.2,0,0.3-0.2,0.4l-1,0.6c-0.1,0-0.2,0-0.3-0.2C537.1,174.5,537.2,174.3,537.3,174.2 M535.2,175.9c-0.1-0.2,0-0.5,0.1-0.5
			l1-0.6c0,0,0,0,0.1,0c0.1,0,0.2,0.1,0.2,0.2c0.1,0.2,0,0.5-0.1,0.5l-1,0.6C535.4,176.2,535.3,176.1,535.2,175.9 M533.3,176.8
			c-0.1-0.2,0-0.4,0.2-0.5l1-0.4h0c0.1,0,0.2,0.1,0.2,0.2c0,0.2,0,0.4-0.2,0.5l-1.1,0.4C533.4,177.1,533.3,177,533.3,176.8
			 M531.3,177.5c0-0.1,0-0.1,0-0.2c0-0.1,0-0.2,0-0.2c0-0.1,0.1-0.2,0.2-0.2l1.1-0.3h0c0.1,0,0.2,0.1,0.2,0.3c0,0.2-0.1,0.4-0.2,0.4
			l-1.1,0.2C531.4,177.6,531.3,177.6,531.3,177.5 M530,177.9c-0.2-0.1-0.5-0.2-0.7-0.2v0v0c0-0.2,0.1-0.4,0.2-0.4l1.1-0.2h0
			c0.1,0,0.1,0,0.2,0.1c0,0.1,0,0.2,0,0.3c0,0.1,0,0.1,0,0.2c0,0.1-0.1,0.2-0.2,0.2L530,177.9z M526.1,182.6c1.1,0,2,0.5,2.2,1
			l0.5,1.2l0.5-1.2c0.2-0.5,1.1-1,2.2-1c0.7,0,2.4,0.3,2.4,2.9c0,3.6-3.9,7.6-5.1,8.7c-1.2-1.1-5.1-5.1-5.1-8.7
			C523.8,182.9,525.4,182.6,526.1,182.6 M527.9,177.9l-0.6-0.1c-0.1,0-0.1-0.1-0.2-0.2c0-0.1,0-0.1,0-0.2c0-0.1,0-0.2,0-0.3
			c0-0.1,0.1-0.1,0.1-0.1l1.1,0.2c0.1,0,0.2,0.2,0.2,0.4v0v0C528.4,177.7,528.2,177.8,527.9,177.9 M525.2,176.9
			c0-0.2,0.1-0.3,0.2-0.3l1.1,0.3c0.1,0,0.1,0.1,0.2,0.2c0,0.1,0,0.2,0,0.2c0,0.1,0,0.2,0,0.2c0,0.1-0.1,0.1-0.2,0.1l-1.1-0.2
			C525.3,177.4,525.2,177.2,525.2,176.9 M523.2,176.1c0-0.2,0.1-0.2,0.2-0.2l1.1,0.4c0.1,0,0.2,0.3,0.2,0.5c0,0.2-0.2,0.3-0.2,0.2
			l-1-0.4C523.2,176.6,523.1,176.4,523.2,176.1 M521.3,175c0-0.1,0.1-0.2,0.2-0.2c0,0,0,0,0.1,0l1,0.6c0.1,0.1,0.2,0.3,0.1,0.5
			c-0.1,0.2-0.2,0.2-0.3,0.2l-1-0.6C521.3,175.4,521.2,175.2,521.3,175 M519.3,173.9C519.3,173.9,519.3,173.9,519.3,173.9
			c0.1-0.1,0.1-0.2,0.1-0.3c0,0,0.1-0.1,0.1-0.1c0,0,0,0,0.1,0l1,0.6c0.1,0.1,0.2,0.3,0.1,0.5c-0.1,0.2-0.2,0.2-0.3,0.2l-1-0.6
			C519.4,174.3,519.3,174.1,519.3,173.9 M517.6,172.6C517.6,172.6,517.6,172.6,517.6,172.6c0.1-0.1,0.1-0.3,0.2-0.4c0,0,0,0,0.1,0
			c0,0,0.1,0,0.1,0l0.9,0.8c0.1,0.1,0.1,0.2,0.1,0.4c0,0.1-0.1,0.1-0.1,0.2c0,0,0,0.1,0,0.1c-0.1,0.1-0.1,0.1-0.2,0l-0.9-0.8
			C517.6,172.8,517.6,172.7,517.6,172.6 M515.9,170.9C516,170.9,516,170.9,515.9,170.9c0.1-0.1,0.1-0.2,0.1-0.2c0,0,0,0,0.1,0
			c0,0,0.1,0,0.1,0.1l0.8,0.9c0.1,0.1,0.1,0.2,0.1,0.3c0,0-0.1,0.1-0.1,0.1c-0.1,0.1-0.1,0.2-0.1,0.3c-0.1,0-0.1,0-0.2,0l-0.8-0.9
			C515.9,171.3,515.9,171.1,515.9,170.9 M514.5,169.5C514.5,169.5,514.5,169.5,514.5,169.5c0.1-0.1,0.1-0.1,0.2-0.2
			c0.1-0.1,0.1-0.2,0.2-0.3l0.7,0.9c0.1,0.1,0.1,0.3,0.1,0.4c0,0-0.1,0.1-0.1,0.1c0,0,0,0.1-0.1,0.1c-0.1,0-0.1,0-0.2-0.1
			L514.5,169.5z M513.4,167.8c0.1,0,0.1-0.1,0.2-0.1c0.1-0.1,0.1-0.2,0.2-0.3l0.6,1c-0.1,0.1-0.2,0.1-0.3,0.2c0,0.1-0.1,0.1-0.1,0.2
			L513.4,167.8z M512.3,166c0-0.1-0.1-0.2-0.1-0.3c0,0,0,0,0.1,0c0.1-0.1,0.2-0.2,0.2-0.3c0,0,0.1,0,0.1,0.1l0.6,1.2
			c-0.1,0-0.2,0.1-0.2,0.2c-0.1,0.1-0.1,0.1-0.1,0.2L512.3,166z M511.1,163.9L511.1,163.9c0.1,0,0.2-0.1,0.3-0.1
			c0.1,0,0.1-0.1,0.2-0.2l0.5,1.1c0,0.1,0,0.2,0,0.2c0,0-0.1,0.1-0.1,0.1c-0.1,0.1-0.1,0.2-0.2,0.3c0,0-0.1-0.1-0.1-0.1L511.1,163.9
			z M510.2,161.9c0.1,0,0.1-0.1,0.2-0.1c0.1-0.1,0.1-0.1,0.2-0.2l0.5,1.1c-0.1,0-0.2,0.1-0.3,0.1c-0.1,0-0.1,0.1-0.1,0.1
			L510.2,161.9z M509.3,159.6c0,0,0.1,0,0.1,0c0.1,0,0.1-0.1,0.1-0.1c0,0,0.1,0.1,0.1,0.1l0.5,1.2c-0.1,0-0.2,0.1-0.2,0.1
			c-0.1,0.1-0.1,0.1-0.2,0.2l-0.5-1.1C509.2,159.8,509.2,159.7,509.3,159.6 M508.4,157.5c0.1,0,0.2,0,0.3-0.1c0.1,0,0.1-0.1,0.2-0.1
			l0.4,1.2c0,0.1,0,0.3,0,0.4c-0.1,0-0.1,0.1-0.2,0.1c0,0,0,0-0.1,0.1c0,0-0.1-0.1-0.1-0.2L508.4,157.5z M508.1,156.6l-0.4-1.2
			c0.1,0,0.1,0,0.2-0.1c0.1,0,0.1-0.1,0.2-0.2l0.4,1.2c-0.1,0-0.2,0-0.3,0.1C508.2,156.5,508.2,156.5,508.1,156.6 M507.1,153.1
			c0.1,0,0.2,0,0.2-0.1c0.1,0,0.1-0.1,0.2-0.1c0,0,0,0,0,0.1l0.4,1.3c-0.1,0-0.1,0-0.2,0.1c-0.1,0-0.1,0.1-0.2,0.2l-0.4-1.3
			C507.1,153.2,507.1,153.1,507.1,153.1"/>
	</g>
</g>
</svg>
