<?xml version="1.0" encoding="utf-8"?>
<!-- Generator: Adobe Illustrator 18.0.0, SVG Export Plug-In . SVG Version: 6.00 Build 0)  -->
<!DOCTYPE svg PUBLIC "-//W3C//DTD SVG 1.1//EN" "http://www.w3.org/Graphics/SVG/1.1/DTD/svg11.dtd">
<svg version="1.1" xmlns="http://www.w3.org/2000/svg" xmlns:xlink="http://www.w3.org/1999/xlink" x="0px" y="0px"
	 viewBox="0 0 168.3 229.7" enable-background="new 0 0 168.3 229.7" xml:space="preserve">
<g id="Layer_2">
	<ellipse display="none" opacity="0.5" fill="#B0B0B0" cx="59.6" cy="226.9" rx="59.6" ry="6.7"/>
	<ellipse fill="none" stroke="#E0E0E0" stroke-width="17" stroke-miterlimit="10" cx="134.5" cy="148.8" rx="25.3" ry="33.2"/>
	<path fill="#E0E0E0" d="M107.2,71.8H12c-6.6,0-12,5.4-12,12V205c0,6.5,3.1,12.2,7.9,15.9c4.5,5,25.8,8.8,51.4,8.8
		c19.6,0,36.6-2.2,45.6-5.5c8.3-2.5,14.4-10.1,14.4-19.2V83.8C119.2,77.2,113.8,71.8,107.2,71.8z"/>
	<ellipse fill="#E0E0E0" cx="59.7" cy="76.3" rx="56.3" ry="9.7"/>
	<ellipse opacity="0.2" fill="#5B503E" cx="59.6" cy="78.6" rx="50.8" ry="7.8"/>
	<path opacity="0.2" fill="none" stroke="#FFFFFF" stroke-width="4" stroke-linecap="round" stroke-miterlimit="10" d="M113.4,82.8
		c0,4.3-24.1,7.8-53.9,7.8S5.7,87.1,5.7,82.8"/>
</g>
<g id="Layer_1">
	<g>
		<path fill="#78C557" d="M35.5,142.4c0-2.6-2.1-4.7-4.7-4.7c-2.6,0-4.7,2.1-4.7,4.7l0,19.5c0,2.6,2.1,4.7,4.7,4.7
			c2.6,0,4.7-2.1,4.7-4.7L35.5,142.4z"/>
		<path fill="#78C557" d="M97.9,125.4c1.6-2,1.2-5-0.9-6.5c-2-1.6-5-1.2-6.5,0.9l-9.9,13.2c-1.6,2-1.2,5,0.9,6.5
			c2,1.6,5,1.2,6.5-0.9L97.9,125.4z"/>
		<path fill="#78C557" d="M55.3,161.8c0-2.6-2.1-4.7-4.7-4.7c-2.6,0-4.7,2.1-4.7,4.7l0,19.5c0,2.6,2.1,4.7,4.7,4.7
			c2.6,0,4.7-2.1,4.7-4.7L55.3,161.8z"/>
		<path fill="#78C557" d="M70.6,161.8c0-2.6-2.1-4.7-4.7-4.7c-2.6,0-4.7,2.1-4.7,4.7l0,19.5c0,2.6,2.1,4.7,4.7,4.7
			c2.6,0,4.7-2.1,4.7-4.7L70.6,161.8z"/>
		<path fill="#78C557" d="M72.5,169.5l3.4-0.3c2.7-0.2,4.8-2.6,4.5-5.4l-2.5-30.1l-41.4,3.4l2.5,30.1c0.2,2.7,2.6,4.8,5.4,4.5
			l3.4-0.3L72.5,169.5z"/>
		<path fill="#78C557" d="M65.5,116.6l5.6-5.2c0.1-0.3,0-0.7-0.3-0.8c-0.3-0.1-0.7,0-0.8,0.3l-5.6,5.2c-2.8-1-5.9-1.4-9.1-1.2
			c-3.2,0.2-6.2,1.2-8.8,2.6l-5.6-4.2c-0.2-0.3-0.6-0.4-0.9-0.2c-0.3,0.2-0.4,0.6-0.2,0.9l5.5,4.2c-6,3.7-9.8,10.2-9.3,17.3
			l41.3-3.2C76.8,125.2,72,119.3,65.5,116.6 M46.7,127.1c-1,0.1-1.8-0.6-1.9-1.6c-0.1-1,0.6-1.8,1.6-1.9c1-0.1,1.8,0.6,1.9,1.6
			C48.4,126.2,47.6,127,46.7,127.1 M65.5,125.6c-1,0.1-1.8-0.6-1.9-1.6c-0.1-0.9,0.6-1.8,1.6-1.9c1-0.1,1.8,0.7,1.9,1.6
			C67.2,124.7,66.4,125.6,65.5,125.6"/>
		<path fill="#78C557" d="M92.5,118.3c0,0,1.7-3.8,2.3-5.3c0.6-1.5,0.8-1.3,1.3-1.2c0.5,0.2,0.5,0.9,0.2,2c-0.4,1-1.3,3.7-0.9,3.8
			c0.5,0.2,0.4-0.2,3.8-2.8c0,0,0.9-0.6,1.3-0.2c0.4,0.4,0.4,0.9-0.2,1.6c-0.6,0.7-2.3,1.7-2.4,2.1c-0.2,0.4-0.5,0.9,0.1,1.6"/>
	</g>
	<path display="none" opacity="0.2" fill="#FFFFFF" d="M17.4,210.9L17.4,210.9c-3.9,0-7.2-3.2-7.2-7.2v-105c0-3.9,3.2-7.2,7.2-7.2
		l0,0c3.9,0,7.2,3.2,7.2,7.2v105C24.5,207.7,21.3,210.9,17.4,210.9z"/>
	<path opacity="0.5" fill="#DDDACE" enable-background="new    " d="M58.6,67.1c0.2,0.6,0.4,2,1.4,1.5c0.5-0.3,0.6-1,0.6-1.5
		c-0.1-1.2-0.2-2.3-0.2-3.5c0-1.2,0.2-2.4,0.5-3.5c0.5-2.2,1.4-4.4,2.6-6.4c0.9-1.4,2-2.7,3.1-4c1.9-2,4.2-3.7,6-5.8
		c1.7-2.1,1.3-4-0.4-5.9c-2.4-2.7-5.7-4.6-8.5-7c-3.9-3.3-5.7-7.1-0.1-10.2c4.8-2.7,9.9-4.8,9.4-11C72.3,2,60.1-2.6,53.1,1.6
		c-6.2,3.7,0.5,7.1,2,10.9c1.9,4.8-4.4,5.9-5.8,9.7c-2.1,5.8,4.3,9.2,8.3,12.5c1.3,1.1,2.8,2.1,4.1,3.2c1.6,1.4,2.4,2.7,1,4.5
		c-1.7,2.1-3.8,3.8-5.3,6c-1.8,2.9-2.1,6.1-1.6,9.2C56.3,61,57.6,64,58.6,67.1z"/>
</g>
</svg>
