<?xml version="1.0" encoding="utf-8"?>
<!-- Generator: Adobe Illustrator 18.0.0, SVG Export Plug-In . SVG Version: 6.00 Build 0)  -->
<!DOCTYPE svg PUBLIC "-//W3C//DTD SVG 1.1//EN" "http://www.w3.org/Graphics/SVG/1.1/DTD/svg11.dtd">
<svg version="1.1" id="Layer_1" xmlns="http://www.w3.org/2000/svg" xmlns:xlink="http://www.w3.org/1999/xlink" x="0px" y="0px"
	 viewBox="0 0 600 600" enable-background="new 0 0 600 600" xml:space="preserve">
<g>
	<g>
		<defs>
			<rect id="SVGID_1_" y="91" width="600" height="418"/>
		</defs>
		<clipPath id="SVGID_2_">
			<use xlink:href="#SVGID_1_"  overflow="visible"/>
		</clipPath>
		<path clip-path="url(#SVGID_2_)" fill="#212121" d="M591.6,122c0,0-14.5,108.9-0.4,178.8c14.5,69.9,6.4,153.1,6.4,153.1L0,454.7
			c0,0-6.4-96.5,69.5-96.9c76,0,182.5-0.4,233.1-130.6c11.3-41,4.8-104.9,4.8-104.9s-1.6-19.3,29.3-26.5
			c42.6-9.6,224.6-5.6,249.6,11.7C594,111.9,591.6,122,591.6,122"/>
	</g>
	<g>
		<defs>
			<rect id="SVGID_3_" y="91" width="600" height="418"/>
		</defs>
		<clipPath id="SVGID_4_">
			<use xlink:href="#SVGID_3_"  overflow="visible"/>
		</clipPath>
		<path clip-path="url(#SVGID_4_)" fill="#DBDBDB" d="M495.9,272.3c22.1,0,40.2,17.3,40.2,39c0,21.7-18.1,39-40.2,39
			c-22.1,0-40.2-17.3-40.2-39C455.7,290,473.8,272.7,495.9,272.3"/>
	</g>
	<g>
		<defs>
			<rect id="SVGID_5_" y="91" width="600" height="418"/>
		</defs>
		<clipPath id="SVGID_6_">
			<use xlink:href="#SVGID_5_"  overflow="visible"/>
		</clipPath>
		<path clip-path="url(#SVGID_6_)" fill="#F4F4F4" d="M360.1,216c0,2.4-2,4.4-4.4,4.4h-51.8c-2.4,0-4.4-2-4.4-4.4v-13.3
			c0-2.4,2-4.4,4.4-4.4h51.8c2.4,0,4.4,2,4.4,4.4V216z"/>
	</g>
	<g>
		<defs>
			<rect id="SVGID_8_" y="91" width="600" height="418"/>
		</defs>
		<clipPath id="SVGID_9_">
			<use xlink:href="#SVGID_8_"  overflow="visible"/>
		</clipPath>
		<path clip-path="url(#SVGID_9_)" fill="#F4F4F4" d="M344,265.8c-0.8,2.4-3.2,3.6-5.6,3.2l-49.8-13.3c-2.4-0.8-4-3.2-3.2-5.6
			l3.6-12.9c0.8-2.4,3.2-3.6,5.6-3.2l49.8,13.3c2.4,0.8,4,3.2,3.2,5.6L344,265.8z"/>
	</g>
	<g>
		<defs>
			<rect id="SVGID_10_" y="91" width="600" height="418"/>
		</defs>
		<clipPath id="SVGID_11_">
			<use xlink:href="#SVGID_10_"  overflow="visible"/>
		</clipPath>
		<path clip-path="url(#SVGID_11_)" fill="#F4F4F4" d="M315.1,316.9c-1.2,2-4,2.8-6.4,1.6L264,292.8c-2-1.2-2.8-4-1.6-6l6.8-11.3
			c1.2-2,4-2.8,6.4-1.6l44.6,25.7c2,1.2,2.8,4,1.6,6L315.1,316.9z"/>
	</g>
	<g>
		<defs>
			<rect id="SVGID_12_" y="91" width="600" height="418"/>
		</defs>
		<clipPath id="SVGID_13_">
			<use xlink:href="#SVGID_12_"  overflow="visible"/>
		</clipPath>
		<path clip-path="url(#SVGID_13_)" fill="#F4F4F4" d="M273.3,358.7c-2,1.6-4.8,1.6-6.4,0l-35.8-36.2c-1.6-1.6-1.6-4.4,0-6.4l10-9.2
			c2-1.6,4.8-1.6,6.4,0l35.8,36.2c1.6,1.6,1.6,4.4,0,6.4L273.3,358.7z"/>
	</g>
	<g>
		<defs>
			<rect id="SVGID_14_" y="91" width="600" height="418"/>
		</defs>
		<clipPath id="SVGID_15_">
			<use xlink:href="#SVGID_14_"  overflow="visible"/>
		</clipPath>
		<path clip-path="url(#SVGID_15_)" fill="#F4F4F4" d="M221.4,388c-2.4,1.2-4.8,0.4-6-1.6l-24.5-44.2c-1.2-2-0.4-4.8,2-6l12.1-6.4
			c2.4-1.2,4.8-0.4,6,1.6l24.5,44.2c1.2,2,0.4,4.8-2,6L221.4,388z"/>
	</g>
	<g>
		<defs>
			<rect id="SVGID_16_" y="91" width="600" height="418"/>
		</defs>
		<clipPath id="SVGID_17_">
			<use xlink:href="#SVGID_16_"  overflow="visible"/>
		</clipPath>
		<path clip-path="url(#SVGID_17_)" fill="#F4F4F4" d="M163.6,403.3c-2.4,0.4-4.8-0.8-5.6-3.2l-11.7-49c-0.4-2.4,0.8-4.8,3.6-5.2
			l13.3-2.8c2.4-0.4,4.8,0.8,5.6,3.2l11.7,49c0.4,2.4-0.8,4.8-3.6,5.2L163.6,403.3z"/>
	</g>
	<g>
		<defs>
			<rect id="SVGID_18_" y="91" width="600" height="418"/>
		</defs>
		<clipPath id="SVGID_19_">
			<use xlink:href="#SVGID_18_"  overflow="visible"/>
		</clipPath>
		<path clip-path="url(#SVGID_19_)" fill="#F4F4F4" d="M103.3,402.5c-2.4,0-4.4-2-4.4-4.8l2.4-50.2c0-2.4,2.4-4.4,4.8-4.4l13.7,0.4
			c2.4,0,4.4,2,4.4,4.8l-2.4,50.2c0,2.4-2.4,4.4-4.8,4.4L103.3,402.5z"/>
	</g>
	<g>
		<defs>
			<rect id="SVGID_20_" y="91" width="600" height="418"/>
		</defs>
		<clipPath id="SVGID_21_">
			<use xlink:href="#SVGID_20_"  overflow="visible"/>
		</clipPath>
		<path clip-path="url(#SVGID_21_)" fill="#727272" d="M316.3,395.6c-9.2,0-16.9,7.2-16.9,16.5s7.6,16.5,16.9,16.5
			s16.9-7.2,16.9-16.5C333.2,402.9,325.5,395.6,316.3,395.6 M316.3,420.6c-4.8,0-8.8-4-8.8-8.4c0-4.8,4-8.4,8.8-8.4
			c4.8,0,8.8,4,8.8,8.4C325.1,416.9,321.1,420.6,316.3,420.6"/>
	</g>
	<g>
		<defs>
			<rect id="SVGID_22_" y="91" width="600" height="418"/>
		</defs>
		<clipPath id="SVGID_23_">
			<use xlink:href="#SVGID_22_"  overflow="visible"/>
		</clipPath>
		<path clip-path="url(#SVGID_23_)" fill="#727272" d="M385.4,395.6c-9.2,0-16.9,7.2-16.9,16.5s7.6,16.5,16.9,16.5
			s16.9-7.2,16.9-16.5C402.3,402.9,394.6,395.6,385.4,395.6 M385.4,420.6c-4.8,0-8.8-4-8.8-8.4c0-4.8,4-8.4,8.8-8.4
			c4.8,0,8.8,4,8.8,8.4S390.2,420.6,385.4,420.6"/>
	</g>
	<g>
		<defs>
			<rect id="SVGID_24_" y="91" width="600" height="418"/>
		</defs>
		<clipPath id="SVGID_25_">
			<use xlink:href="#SVGID_24_"  overflow="visible"/>
		</clipPath>
		<path clip-path="url(#SVGID_25_)" fill="#EDEDED" d="M367.3,191.5h-6.8v-8.8h6.8V191.5z M367.3,173.8h-6.8V165h6.8V173.8z
			 M367.3,155.7h-6.8v-8.4l6.8-1.2l0.4,1.6L367.3,155.7z M366.5,138h-6.8c0-3.2,0.4-6.4,0.8-9.6l6.8,1.2
			C366.9,132.4,366.5,135.2,366.5,138 M580.7,129.6c-2.8-0.8-6-1.2-8.8-1.6l1.2-6.4c2.8,0.4,6,1.2,8.8,1.6L580.7,129.6z M563,126.4
			c-3.2-0.4-6-1.2-8.8-1.6l1.2-6.4c2.8,0.4,6,0.8,9.2,1.6L563,126.4z M544.9,123.2c-3.2-0.4-6-0.8-8.8-1.2l0.8-6.4
			c2.8,0.4,6,0.8,9.2,1.2L544.9,123.2z M370.1,122.8l-6-3.6c2-3.2,4.4-5.6,7.6-7.2l3.2,6C372.9,118.8,371.3,120.4,370.1,122.8
			 M526.9,120.8c-3.2-0.4-6-0.8-9.2-1.2l0.8-6.8c2.8,0.4,6,0.8,9.2,1.2L526.9,120.8z M508.8,119.2c-3.2-0.4-6-0.4-9.2-0.8l0.4-6.8
			c2.8,0.4,6,0.4,9.2,0.8L508.8,119.2z M490.7,117.5c-3.2-0.4-6-0.4-9.2-0.4l0.4-6.8c2.8,0,6,0.4,9.2,0.4L490.7,117.5z M472.2,116.3
			c-3.2,0-6-0.4-9.2-0.4l0.4-6.8c2.8,0,6,0.4,9.2,0.4L472.2,116.3z M452.9,115.9c-4,0-7.6,0-11.7,0.4v-6.8c3.6,0,7.6-0.4,11.7-0.4
			V115.9z M428,116.7c-3.2,0-6-0.4-9.2-0.4l0.4-6.8c2.8,0,6,0.4,9.2,0.4L428,116.7z M409.5,115.9c-3.2,0-6.4,0-9.2,0v-6.8
			c2.8,0,6,0,9.2,0V115.9z M382.2,115.9l-0.4-6.8c0.4,0,0.8,0,1.2,0h8v6.8h-8C383,115.9,382.6,115.9,382.2,115.9"/>
	</g>
	<g>
		<defs>
			<rect id="SVGID_26_" y="91" width="600" height="418"/>
		</defs>
		<clipPath id="SVGID_27_">
			<use xlink:href="#SVGID_26_"  overflow="visible"/>
		</clipPath>
		<path clip-path="url(#SVGID_27_)" fill="#727272" d="M348.8,177c0,2.4-2,4.4-4.4,4.4l-22.1,0.8c-2.4,0-4.8-2-4.8-4.4l-1.6-49
			c0-2.4,2-4.4,4.4-4.4l22.1-0.8c2.4,0,4.8,2,4.8,4.4L348.8,177z"/>
	</g>
	<g>
		<defs>
			<rect id="SVGID_28_" y="91" width="600" height="418"/>
		</defs>
		<clipPath id="SVGID_29_">
			<use xlink:href="#SVGID_28_"  overflow="visible"/>
		</clipPath>
		<path clip-path="url(#SVGID_29_)" fill="#EDEDED" d="M597.2,503.3c0,2.4-2,4.4-4.4,4.4L4.8,509c-2.4,0-4.4-2-4.4-4.4v-45.4
			c0-2.4,2-4.4,4.4-4.4l587.9-0.8c2.4,0,4.4,2,4.4,4.4V503.3L597.2,503.3z"/>
	</g>
	<g>
		<defs>
			<rect id="SVGID_30_" y="91" width="600" height="418"/>
		</defs>
		<clipPath id="SVGID_31_">
			<use xlink:href="#SVGID_30_"  overflow="visible"/>
		</clipPath>
	</g>
</g>
<g>
	<g>
		<g>
			<defs>
				<path id="SVGID_32_" d="M496.7,242.5c-37.4,0-67.9,30.5-67.9,67.9s30.5,67.9,67.9,67.9s67.9-30.5,67.9-67.9
					C564.6,272.7,534.1,242.5,496.7,242.5z"/>
			</defs>
			<clipPath id="SVGID_33_">
				<use xlink:href="#SVGID_32_"  overflow="visible"/>
			</clipPath>
			<g clip-path="url(#SVGID_33_)">
				
					<image overflow="visible" opacity="0.7" enable-background="new    " width="37" height="36" xlink:href="3B86398B26A2D820.png"  transform="matrix(3.9101 0 0 3.9071 425.3779 250.0051)">
				</image>
				<g>
					<circle fill="#FFFFFF" cx="496.7" cy="310.4" r="33"/>
				</g>
			</g>
		</g>
		<g>
			<defs>
				<path id="SVGID_34_" d="M496.7,242.5c-37.4,0-67.9,30.5-67.9,67.9s30.5,67.9,67.9,67.9s67.9-30.5,67.9-67.9
					C564.6,272.7,534.1,242.5,496.7,242.5z"/>
			</defs>
			<clipPath id="SVGID_35_">
				<use xlink:href="#SVGID_34_"  overflow="visible"/>
			</clipPath>
			<g clip-path="url(#SVGID_35_)">
				<path fill="#DF332A" d="M496.7,218c-27.7,0-52.6,12.1-69.5,31.3l43.8,75.6l0,0c-2.4-4.4-4-9.6-4-14.9
					c0-16.5,13.3-29.7,29.7-29.7h87.2C571.5,244.1,537.3,218,496.7,218z"/>
				<path fill="#4DB246" d="M416.7,356.3c13.7,24.1,37,39.4,61.9,44.2l43.8-75.6l0,0c-2.4,4.4-6,8-10.9,10.9
					c-14.1,8-32.6,3.2-40.6-10.9l-43.8-75.6C401.9,278.3,396.7,321.3,416.7,356.3z"/>
				<path fill="#FCC90A" d="M576.7,356.3c13.7-24.1,15.7-51.4,7.2-76h-87.2l0,0c5.2,0,10,1.2,14.9,4c14.1,8,19.3,26.5,10.9,40.6
					L479,400.5C516.4,408.1,556.2,391.2,576.7,356.3z"/>
			</g>
		</g>
		<g>
			<defs>
				<path id="SVGID_36_" d="M496.7,242.5c-37.4,0-67.9,30.5-67.9,67.9s30.5,67.9,67.9,67.9s67.9-30.5,67.9-67.9
					C564.6,272.7,534.1,242.5,496.7,242.5z"/>
			</defs>
			<clipPath id="SVGID_37_">
				<use xlink:href="#SVGID_36_"  overflow="visible"/>
			</clipPath>
			
				<linearGradient id="SVGID_38_" gradientUnits="userSpaceOnUse" x1="130" y1="541.7" x2="130" y2="541.7" gradientTransform="matrix(4.0188 0 0 -4.0188 0 2502.2771)">
				<stop  offset="0" style="stop-color:#36803F"/>
				<stop  offset="1" style="stop-color:#36803F;stop-opacity:0.25"/>
			</linearGradient>
			<path opacity="0.5" clip-path="url(#SVGID_37_)" fill="url(#SVGID_38_)" enable-background="new    " d="M522.4,325.3"/>
		</g>
		<g>
			<defs>
				<path id="SVGID_39_" d="M496.7,242.5c-37.4,0-67.9,30.5-67.9,67.9s30.5,67.9,67.9,67.9s67.9-30.5,67.9-67.9
					C564.6,272.7,534.1,242.5,496.7,242.5z"/>
			</defs>
			<clipPath id="SVGID_40_">
				<use xlink:href="#SVGID_39_"  overflow="visible"/>
			</clipPath>
			<g opacity="0.4" clip-path="url(#SVGID_40_)">
				
					<radialGradient id="SVGID_41_" cx="85.3747" cy="549.2196" r="20.3619" gradientTransform="matrix(4.0188 0 0 -4.0188 0 2502.2771)" gradientUnits="userSpaceOnUse">
					<stop  offset="0.6621" style="stop-color:#4F1E0B;stop-opacity:0"/>
					<stop  offset="0.9697" style="stop-color:#4F1E0B;stop-opacity:0.8649"/>
					<stop  offset="1" style="stop-color:#4F1E0B;stop-opacity:0.95"/>
				</radialGradient>
				<path fill="url(#SVGID_41_)" d="M409.5,310.4c0,37.4-30.1,67.5-67.5,67.5c-37.4,0-67.5-30.1-67.5-67.5s30.1-67.5,67.5-67.5
					C379.4,242.9,409.5,273.1,409.5,310.4z"/>
			</g>
		</g>
	</g>
	<g>
		<circle fill="#EDEDEE" cx="496.7" cy="310.4" r="30.1"/>
	</g>
	<g>
		<g>
			<circle id="SVGID_7_" fill="#F1F1F2" cx="496.7" cy="310.4" r="30.1"/>
		</g>
	</g>
	<path fill="#008FCC" d="M522,310.4c0,14.1-11.3,25.3-25.3,25.3s-25.3-11.3-25.3-25.3s11.3-25.3,25.3-25.3
		C510.8,285.1,522,296.4,522,310.4z"/>
</g>
</svg>
