<?xml version="1.0" encoding="utf-8"?>
<!-- Generator: Adobe Illustrator 18.0.0, SVG Export Plug-In . SVG Version: 6.00 Build 0)  -->
<!DOCTYPE svg PUBLIC "-//W3C//DTD SVG 1.1//EN" "http://www.w3.org/Graphics/SVG/1.1/DTD/svg11.dtd">
<svg version="1.1" id="Layer_2" xmlns="http://www.w3.org/2000/svg" xmlns:xlink="http://www.w3.org/1999/xlink" x="0px" y="0px"
	 viewBox="141.2 70.8 305 231.1" enable-background="new 141.2 70.8 305 231.1" xml:space="preserve">
<g id="accessory">
	<path fill="#D6272E" d="M300.7,84.7c0-1.8-1.5-3.3-3.3-3.3h-5.8c-1.8,0-3.3,1.5-3.3,3.3v51.7c0,1.8,1.5,3.3,3.3,3.3h5.8
		c1.8,0,3.3-1.5,3.3-3.3V84.7z"/>
	<path fill="#5772B7" d="M255.3,122.5c0,0-110.5,31.7-114,123.7c29.6,0,67.1,0.3,67.1,0.3l57.6-121.1L255.3,122.5z"/>
	<path fill="#D6272E" d="M332.2,122.5c0,0,110.6,31.3,114,123.3c-31.7,0-67,0-67,0l-57.6-120.4L332.2,122.5z"/>
	<path fill="#FDE20F" d="M294.3,116c0,0-23.9-0.6-39,6.5c-51.7,39.7-47,124.1-47,124.1l84.6,1h3l84.6-1c0,0,4.7-84.4-47-124.1
		C318.2,115.3,294.3,116,294.3,116"/>
	<path fill="#289247" d="M293.7,245.1H141.2c0,0,3.3,56.8,152.5,56.8c149.2,0,152.5-56.8,152.5-56.8H293.7L293.7,245.1z"/>
	<path fill="#5772B7" d="M254.5,70.8c-16.3,0-30.8,4.1-40,10.5c9.3,6.4,23.7,10.5,40,10.5s30.8-4.1,40-10.5
		C285.3,74.9,270.8,70.8,254.5,70.8z"/>
	<path fill="#5772B7" d="M334.6,70.8c16.3,0,30.8,4.1,40,10.5c-9.2,6.4-23.7,10.5-40,10.5c-16.3,0-30.8-4.1-40-10.5
		C303.8,74.9,318.3,70.8,334.6,70.8z"/>
</g>
</svg>
