<?xml version="1.0" encoding="utf-8"?>
<!-- Generator: Adobe Illustrator 18.1.0, SVG Export Plug-In . SVG Version: 6.00 Build 0)  -->
<svg version="1.1" id="status_bar" xmlns="http://www.w3.org/2000/svg" xmlns:xlink="http://www.w3.org/1999/xlink" x="0px" y="0px"
	 width="436.3px" height="366.3px" viewBox="0 0 436.3 366.3" enable-background="new 0 0 436.3 366.3" xml:space="preserve">
<g>
	<path fill="#989898" d="M118.8,15.5c-1.1-2.9-4.4-5-8.7-3.4c-3.8,1.4-6.2,5.5-7,9.4l-0.1,0.5l-11.3-1.1l0.2-1.2
		c1.3-8.7,7.6-15.3,15.2-18c11.2-4,20.5,0.2,23.7,9c3.3,9.2-5.4,20.1-4.3,28.1l-10.6,3.8C112,31.5,121.2,22,118.8,15.5z M118.1,54.1
		c-1.4-3.9,0.6-8.3,4.7-9.8c3.8-1.4,8.4,0.7,9.8,4.6c1.5,4.1-0.7,8.5-4.5,9.9C124,60.3,119.6,58.3,118.1,54.1z"/>
</g>
<g>
	<path fill="#989898" d="M324.5,24.2c0-2.3-1.7-4.6-5.1-4.7c-3-0.1-5.8,2.2-7.3,4.6l-0.2,0.3l-7.5-3.8l0.5-0.8
		c3.2-5.7,9.3-8.6,15.3-8.5c8.8,0.2,14.2,5.6,14,12.5c-0.1,7.2-9,12.5-10.4,18.4l-8.4-0.2C315.5,33.4,324.4,29.3,324.5,24.2z
		 M313.8,50.8c0.1-3.1,2.6-5.6,5.9-5.6c3,0.1,5.6,2.7,5.6,5.8c-0.1,3.3-2.8,5.7-5.8,5.7C316.2,56.6,313.7,54,313.8,50.8z"/>
</g>
<g>
	<path fill="#989898" d="M409.6,78.4c1.3-2.1,4.1-2.7,6.3-1.3c2,1.3,2.7,4.2,1.3,6.3c-1.4,2.2-4.3,2.7-6.3,1.4
		C408.7,83.3,408.2,80.6,409.6,78.4z M428.1,64.9c1-1.6,0.8-3.9-1.5-5.3c-2-1.3-4.8-1-6.9,0l-0.3,0.1l-3.5-5.8l0.7-0.4
		c4.6-2.5,9.9-1.9,13.9,0.8c5.9,3.8,7.2,9.8,4.2,14.4c-3.2,4.8-11.4,4.7-14.8,8l-5.6-3.6C418.1,67.4,425.8,68.3,428.1,64.9z"/>
</g>
<g>
	<path fill="#989898" d="M15.9,81.3c-1.4-1.5-4-2-6.2,0.1c-2,1.8-2.5,4.9-2,7.5l0.1,0.3l-7.2,2.1l-0.2-0.8
		C-1,84.8,1.2,79.2,5.3,75.6c5.9-5.3,12.6-5,16.8-0.4c4.3,4.8,1.7,13.7,4.4,18.3l-5.6,5C15.7,92.8,19,84.7,15.9,81.3z M25.2,105.2
		c-1.8-2-1.7-5.3,0.5-7.2c2-1.8,5.3-1.7,7.1,0.4c2,2.2,1.7,5.4-0.3,7.2C30.3,107.5,27.1,107.3,25.2,105.2z"/>
</g>
<g>
	<path fill="#EAC398" d="M262.6,66.1l12.5-22.8c0.7-1.2,0.2-2.7-1-3.4c-1.2-0.7-2.7-0.2-3.4,1l-12.6,23c-10.6-4.7-22.5-7.3-35-7.3
		c-12.5,0-24.4,2.6-35,7.3l-12.6-23c-0.7-1.2-2.2-1.6-3.4-1c-1.2,0.7-1.6,2.2-1,3.4l12.5,22.8c-24.5,12.7-41.1,36.8-41.1,64.4h161.1
		C303.6,102.8,287.1,78.8,262.6,66.1z"/>
	<circle fill="#FFFFFF" cx="190.6" cy="96.1" r="9.6"/>
	<circle fill="#FFFFFF" cx="255.6" cy="96.1" r="9.6"/>
	<rect x="180.4" y="220.4" fill="#EAC398" width="35" height="106.2"/>
	<rect x="230.2" y="220.5" fill="#EAC398" width="35" height="106.2"/>
	<path fill="#EAC398" d="M149.7,155.5c3.3-7.6-0.6-16.6-8.6-20L80,109c-8.1-3.5-17.2-0.2-20.5,7.4c-3.3,7.6,0.6,16.5,8.6,20
		l61.1,26.5C137.2,166.4,146.4,163.1,149.7,155.5z"/>
	<g>
		<polygon fill="#C4CBEB" points="180.4,230 180.4,306.7 182.7,309 196.1,295.6 209.6,309 215.4,303.1 215.4,230 		"/>
		<polygon fill="#C4CBEB" points="230.2,230.1 230.2,302.8 236.4,309 249.8,295.6 263.3,309 265.2,307 265.2,230.1 		"/>
	</g>
	<g>
		<g>
			<rect x="155.9" y="133.8" fill="#EAC398" width="134.6" height="142.7"/>
			<path fill="#754C24" d="M275.1,193.5c-41.4,0-75-26.7-75-59.7h-27.5v33.7c0,14.2-6.3,27.3-16.7,37.6v80.8h134.6v-92.4H275.1z"/>
			<g>
				<polygon fill="#754C24" points="155.9,299.4 169.3,285.9 155.9,272.5 				"/>
				
					<rect x="173.2" y="276.4" transform="matrix(-0.7071 -0.7071 0.7071 -0.7071 109.7178 617.3065)" fill="#754C24" width="19" height="19"/>
				
					<rect x="200.1" y="276.4" transform="matrix(-0.7071 -0.7071 0.7071 -0.7071 155.5501 636.2908)" fill="#754C24" width="19" height="19"/>
				
					<rect x="226.9" y="276.4" transform="matrix(-0.7071 -0.7071 0.7071 -0.7071 201.3827 655.2753)" fill="#754C24" width="19" height="19"/>
				
					<rect x="253.8" y="276.4" transform="matrix(-0.7071 -0.7071 0.7071 -0.7071 247.215 674.2597)" fill="#754C24" width="19" height="19"/>
				<polygon fill="#754C24" points="290.1,272.5 276.7,285.9 290.1,299.4 290.4,299 290.4,272.8 				"/>
			</g>
		</g>
	</g>
	<path fill="#E6E6E6" d="M276.7,85c0,3.8-23.2,15.4-51.9,15.4S172.9,88.9,172.9,85c0-3.8,23.2-12.6,51.9-12.6S276.7,81.2,276.7,85z"
		/>
	<path fill="#EAC398" d="M276.7,85c0,3.8-23.2,8.1-51.9,8.1s-51.9-4.2-51.9-8.1c0-3.8,23.2-12.6,51.9-12.6S276.7,81.2,276.7,85z"/>
	<g>
		<defs>
			<path id="SVGID_1_" d="M275,193.5c-41.4,0-75-26.7-75-59.7h-27.5v33.7c0,14.2-6.3,27.3-16.7,37.6v67.4v13.4v13.4l13.4-13.4
				l13.4,13.4l13.4-13.4l13.4,13.4l13.4-13.4l13.4,13.4l13.4-13.4l13.4,13.4l13.4-13.4l13.4,13.4l0.3-0.3v-13.1v-13.1v-79.3H275z"/>
		</defs>
		<clipPath id="SVGID_2_">
			<use xlink:href="#SVGID_1_"  overflow="visible"/>
		</clipPath>
		<path clip-path="url(#SVGID_2_)" fill="none" d="M265.6,261"/>
		<circle clip-path="url(#SVGID_2_)" fill="#FFDCB1" cx="198" cy="351.1" r="15.2"/>
		<circle clip-path="url(#SVGID_2_)" fill="#FFDCB1" cx="248.3" cy="351.1" r="15.2"/>
		<path clip-path="url(#SVGID_2_)" fill="#58391B" d="M230.7,182.1l-3.8,4.1c-1.3,1.4-1.8,3.3-1.4,5.2l1.2,5.3
			c0.6,2.6,2.9,4.4,5.6,4.4h1.9c0.6,0,1.2,0.1,1.8,0.3l3.3,1.1c2,0.6,4.1,0.2,5.6-1.2l3.1-2.8c1.2-1.1,1.8-2.6,1.8-4.2v-5.4
			c0-2.5-1.7-4.8-4.1-5.5l-9.3-2.7C234.4,179.9,232.1,180.6,230.7,182.1z"/>
		<path clip-path="url(#SVGID_2_)" fill="#58391B" d="M208.6,248.8l4.9-4.1c1.7-1.4,2.3-3.3,1.8-5.2l-1.6-5.3
			c-0.8-2.6-3.7-4.4-7.2-4.4l-2.5,0c-0.8,0-1.5-0.1-2.3-0.3l-4.3-1.1c-2.5-0.6-5.3-0.2-7.2,1.2l-4,2.8c-1.5,1.1-2.4,2.6-2.4,4.2
			l0,5.4c0,2.5,2.1,4.8,5.3,5.5l11.9,2.7C203.8,251,206.7,250.4,208.6,248.8z"/>
		<path clip-path="url(#SVGID_2_)" fill="#58391B" d="M254.7,239l-4.6,3.9c-1.1,1-1.8,2.4-1.8,3.9v4c0,2.8,2.3,5.1,5.1,5.1h0.8
			c2.3,0,4.3-1.6,4.9-3.8l0.4-1.5c0.5-2.1,2.3-3.6,4.5-3.8l1-0.1c2.8-0.3,4.9-2.8,4.6-5.6l0-0.1c-0.3-3-3.2-5.1-6.2-4.4l-6.4,1.4
			C256.1,238.1,255.3,238.5,254.7,239z"/>
		<path clip-path="url(#SVGID_2_)" fill="#58391B" d="M232.8,225.4c-0.5,0.5-0.8,1.3-0.8,2c0,1.7,0.1,4.6,1.1,4.6
			c1,0,4.9-1.3,7.4-2.2c1.2-0.4,2-1.6,2-2.8v-2.8c0-1.3-0.8-2.5-2.1-2.9l-1-0.3c-1.1-0.3-2.3-0.1-3.1,0.8L232.8,225.4z"/>
		<path clip-path="url(#SVGID_2_)" fill="#58391B" d="M167.6,204.8c0,1.3,0.7,2.6,1.8,3.3c3.2,2.1,9.7,6.3,9.9,5.9
			c0.3-0.6,5.6-8.6,5.6-8.7c0-0.1-1.9-3.1-3.5-5.6c-1.2-1.9-3.7-2.4-5.5-1.2l-0.7,0.5c-0.9,0.6-1.9,0.8-2.9,0.6l-0.1,0
			c-2.4-0.4-4.7,1.4-4.7,3.9V204.8z"/>
		<path clip-path="url(#SVGID_2_)" fill="#58391B" d="M280.1,217.4c0,1.3,0.7,2.6,1.8,3.3c3.2,2.1,9.7,6.3,9.9,5.9
			c0.3-0.6,5.6-8.6,5.6-8.7c0-0.1-1.9-3.1-3.5-5.6c-1.2-1.9-3.7-2.4-5.5-1.2l-0.7,0.5c-0.9,0.6-1.9,0.8-2.9,0.6l-0.1,0
			c-2.4-0.4-4.7,1.4-4.7,3.9V217.4z"/>
		<path clip-path="url(#SVGID_2_)" fill="#58391B" d="M182.5,294.2c2.3-0.5,4.2-2.1,5.1-4.2c2.5-6.3,7.9-12.5,6.6-19.2
			s-16.8-6.6-16.9-6.6c-0.1,0-4.6,4.4-8.4,8c-2.8,2.7-2.9,7.2-0.1,10l1,1c1.3,1.3,2,3,2.1,4.8l0,0.1c0.1,4.3,4.1,7.5,8.4,6.7
			L182.5,294.2z"/>
		<path clip-path="url(#SVGID_2_)" fill="#58391B" d="M215.7,186.7c-0.6-0.4-1.2-0.9-1.7-1.3c-0.6-0.5-1.5-0.7-2.3-0.5l-7.9,1.8
			c-1.3,0.3-2.2,1.5-2.1,2.8l0.4,6.7c0,0.6,0.2,1.1,0.6,1.6c1.2,1.5,3.8,4.7,4.5,4.4c0.5-0.2,3.9-1.8,6.5-2.9c1.5-0.7,2.1-2.6,1.1-4
			l0,0c-0.7-1.1-0.6-2.6,0.4-3.5l0.7-0.7C217.3,189.8,217.1,187.7,215.7,186.7z"/>
		<path clip-path="url(#SVGID_2_)" fill="#58391B" d="M216.8,267.7c0.2,0.7,0.5,1.4,0.6,2c0.2,0.8,0.8,1.4,1.5,1.7l7.4,3.2
			c1.2,0.5,2.7,0.1,3.4-1l3.6-5.6c0.3-0.5,0.5-1,0.4-1.6c-0.1-1.9-0.4-6-1.1-6.2c-0.5-0.1-4.2-0.9-7-1.4c-1.7-0.3-3.2,0.9-3.3,2.6
			l0,0.1c-0.1,1.4-1.1,2.5-2.4,2.6l-1,0.1C217.3,264.3,216.2,266.1,216.8,267.7z"/>
		<path clip-path="url(#SVGID_2_)" fill="#58391B" d="M283.9,262c-0.5,0.6-1,1.2-1.3,1.6c-0.5,0.6-0.8,1.4-0.6,2.2l1.3,8
			c0.2,1.3,1.4,2.3,2.7,2.3h6.7c0.6,0,1.1-0.2,1.6-0.5c1.5-1.1,4.9-3.6,4.7-4.2c-0.2-0.5-1.5-4-2.6-6.7c-0.6-1.6-2.5-2.2-3.9-1.4
			l0,0c-1.2,0.7-2.7,0.4-3.5-0.6l-0.6-0.8C287.1,260.6,285,260.6,283.9,262z"/>
		<path clip-path="url(#SVGID_2_)" fill="#58391B" d="M190.6,166.2L190.6,166.2c0,1.2,0.7,2.2,1.7,2.6l1.6,0.7
			c1.3,0.5,2.8,0.1,3.5-1.2l0.3-0.5c0.2-0.4,0.4-0.9,0.4-1.4v-0.6c0-1.8-1.6-3.1-3.3-2.7l-1.9,0.4
			C191.5,163.7,190.6,164.9,190.6,166.2z"/>
		<path clip-path="url(#SVGID_2_)" fill="#58391B" d="M155,243.4l1.9,3c0.4,0.6,1.1,1,1.8,1h0c1.4,0,2.5-1.4,2-2.7l-0.5-1.7
			c-0.3-0.9-1.1-1.5-2-1.5h-3.5v0.8C154.6,242.7,154.7,243,155,243.4z"/>
		<path clip-path="url(#SVGID_2_)" fill="#58391B" d="M266.7,257.5l1.9,3c0.4,0.6,1.1,1,1.8,1h0c1.4,0,2.5-1.4,2-2.7l-0.5-1.7
			c-0.3-0.9-1.1-1.5-2-1.5h-3.5v0.8C266.4,256.8,266.5,257.2,266.7,257.5z"/>
		<path clip-path="url(#SVGID_2_)" fill="#58391B" d="M259.2,279.8l1.9,3c0.4,0.6,1.1,1,1.8,1h0c1.4,0,2.5-1.4,2-2.7l-0.5-1.7
			c-0.3-0.9-1.1-1.5-2-1.5h-3.5v0.8C258.8,279.1,259,279.5,259.2,279.8z"/>
		<path clip-path="url(#SVGID_2_)" fill="#58391B" d="M190.3,210.5l1.9,3c0.4,0.6,1.1,1,1.8,1h0c1.4,0,2.5-1.4,2-2.7l-0.5-1.7
			c-0.3-0.9-1.1-1.5-2-1.5h-3.5v0.8C189.9,209.8,190.1,210.2,190.3,210.5z"/>
		<path clip-path="url(#SVGID_2_)" fill="#58391B" d="M153.1,273.8l1.9,3c0.4,0.6,1.1,1,1.8,1h0c1.4,0,2.5-1.4,2-2.7l-0.5-1.7
			c-0.3-0.9-1.1-1.5-2-1.5h-3.5v0.8C152.8,273.1,152.9,273.5,153.1,273.8z"/>
		<path clip-path="url(#SVGID_2_)" fill="#58391B" d="M265.5,204.8l1.9,3c0.4,0.6,1.1,1,1.8,1h0c1.4,0,2.5-1.4,2-2.7l-0.5-1.7
			c-0.3-0.9-1.1-1.5-2-1.5h-3.5v0.8C265.2,204.1,265.3,204.5,265.5,204.8z"/>
	</g>
	<g>
		
			<rect x="338.5" y="108.6" transform="matrix(-0.5224 -0.8527 0.8527 -0.5224 466.7672 490.5513)" fill="#CCB79D" width="64.6" height="12"/>
		<g>
			<path fill="#CCB79D" d="M389.7,130.3c4.2-2.6,9.7-1.3,12.3,2.9c2.6,4.2,1.2,9.7-3,12.3c-3,1.8-6-0.4-8.6,1.2
				c-2.6,1.6-2,5.3-4.9,7.1c-4.2,2.6-9.7,1.3-12.3-2.9c-2.6-4.2-1.3-9.7,2.9-12.3c3-1.8,6.6-1.7,9.3,0
				C385.3,135.4,386.8,132.2,389.7,130.3z"/>
		</g>
		<g>
			<path fill="#CCB79D" d="M351.8,98.8c-4.2,2.6-9.7,1.3-12.3-2.9c-2.6-4.2-1.2-9.7,3-12.3c3-1.8,6,0.4,8.6-1.2
				c2.6-1.6,2-5.3,4.9-7.1c4.2-2.6,9.7-1.3,12.3,2.9c2.6,4.2,1.3,9.7-2.9,12.3c-3,1.8-6.6,1.7-9.3,0C356.3,93.7,354.7,97,351.8,98.8
				z"/>
		</g>
	</g>
	<path fill="#EAC398" d="M297.5,156.7c-4-7.2-1-16.5,6.6-20.8l58.2-32.3c7.7-4.3,17.1-1.9,21.2,5.3c4,7.2,1,16.5-6.6,20.8
		l-58.2,32.3C311,166.3,301.5,163.9,297.5,156.7z"/>
	<path fill="#754C24" d="M265.3,325.8l2.4-5.1h-40l2.4,5.9v21.5c0,6.6,5.3,11.9,11.9,11.9h23.2h24.5c5.8,0,10.4-4.7,10.4-10.4v-2.9
		c0-5.8-4.7-10.4-10.4-10.4h-13.9C270,336.3,265.3,331.6,265.3,325.8z"/>
	<path fill="#CCB79D" d="M142.5,130.5h161.1c0-6.8-1-13.3-2.9-19.5H145.4C143.5,117.2,142.5,123.7,142.5,130.5z"/>
	<path fill="#754C24" d="M180.3,325.8l-2.4-5.1h40l-2.4,5.9v21.5c0,6.6-5.3,11.9-11.9,11.9h-23.2h-24.5c-5.8,0-10.4-4.7-10.4-10.4
		v-2.9c0-5.8,4.7-10.4,10.4-10.4h13.9C175.6,336.3,180.3,331.6,180.3,325.8z"/>
	<g>
		
			<line fill="none" stroke="#917050" stroke-width="7.4679" stroke-linecap="round" stroke-linejoin="round" stroke-miterlimit="10" stroke-dasharray="7.4679,14.9358" x1="227.8" y1="326.6" x2="267.7" y2="326.6"/>
		
			<path fill="none" stroke="#917050" stroke-width="7.4679" stroke-linecap="round" stroke-linejoin="round" stroke-miterlimit="10" d="
			M265.2,326.8l-4.7,6.6c-0.7,1-0.2,2.4,0.9,2.8l0.4,0.1c1.1,0.4,2.3-0.4,2.4-1.5L265.2,326.8z"/>
		
			<path fill="none" stroke="#917050" stroke-width="7.4679" stroke-linecap="round" stroke-linejoin="round" stroke-miterlimit="10" d="
			M265.2,326.8l3.8,7.1c0.6,1.1,2.1,1.3,2.9,0.4l0.3-0.3c0.8-0.8,0.7-2.2-0.3-2.8L265.2,326.8z"/>
	</g>
	<g>
		
			<line fill="none" stroke="#917050" stroke-width="7.4679" stroke-linecap="round" stroke-linejoin="round" stroke-miterlimit="10" stroke-dasharray="7.4679,14.9358" x1="217.8" y1="326.6" x2="177.8" y2="326.6"/>
		
			<path fill="none" stroke="#917050" stroke-width="7.4679" stroke-linecap="round" stroke-linejoin="round" stroke-miterlimit="10" d="
			M180.4,326.8l4.7,6.6c0.7,1,0.2,2.4-0.9,2.8l-0.4,0.1c-1.1,0.4-2.3-0.4-2.4-1.5L180.4,326.8z"/>
		
			<path fill="none" stroke="#917050" stroke-width="7.4679" stroke-linecap="round" stroke-linejoin="round" stroke-miterlimit="10" d="
			M180.4,326.8l-3.8,7.1c-0.6,1.1-2.1,1.3-2.9,0.4l-0.3-0.3c-0.8-0.8-0.7-2.2,0.3-2.8L180.4,326.8z"/>
	</g>
</g>
</svg>
