<?xml version="1.0" encoding="utf-8"?>
<!-- Generator: Adobe Illustrator 18.0.0, SVG Export Plug-In . SVG Version: 6.00 Build 0)  -->
<!DOCTYPE svg PUBLIC "-//W3C//DTD SVG 1.1//EN" "http://www.w3.org/Graphics/SVG/1.1/DTD/svg11.dtd">
<svg version="1.1" id="Layer_1" xmlns="http://www.w3.org/2000/svg" xmlns:xlink="http://www.w3.org/1999/xlink" x="0px" y="0px"
	 viewBox="0 0 798 664.9" enable-background="new 0 0 798 664.9" xml:space="preserve">
<path fill="#404041" d="M203.9,634.5c0,6.3,6.8,11.5,15.1,11.5l0,0c8.4,0,15.1-5.1,15.1-11.5V453.7c0-6.3-6.8-11.5-15.1-11.5l0,0
	c-8.4,0-15.1,5.1-15.1,11.5V634.5z"/>
<path fill="#404041" d="M165.1,572.1c-3.2,4.2-0.5,11.7,6.1,16.8l0,0c6.6,5.1,14.6,5.8,17.8,1.6L281.2,471
	c3.2-4.2,0.5-11.7-6.1-16.8l0,0c-6.6-5.1-14.6-5.8-17.8-1.6L165.1,572.1z"/>
<path fill="#F6CA70" d="M270.1,162.3c-1.6,2.6-5.1,3.4-7.7,1.8l0,0c-2.6-1.6-3.4-5.1-1.8-7.7l86.2-137.6c1.6-2.6,5.1-3.4,7.7-1.8
	l0,0c2.6,1.6,3.4,5.1,1.8,7.7L270.1,162.3z"/>
<path fill="#F6CA70" d="M261.6,146.4c2.1,2.3,1.9,5.8-0.4,7.9l0,0c-2.3,2.1-5.8,1.9-7.9-0.4L145,32.9c-2.1-2.3-1.9-5.8,0.4-7.9l0,0
	c2.3-2.1,5.8-1.9,7.9,0.4L261.6,146.4z"/>
<g>
	<path fill="#F6CA70" d="M28.2,117.5c-6.7-6.2-17.3-5.5-23.6,1.4l0,0c-6.3,6.9-6,17.5,0.7,23.7L123.9,251c6.7,6.2,17.3,5.5,23.6-1.4
		l0,0c6.3-6.9,6-17.5-0.7-23.7L28.2,117.5z"/>
	<g>
		
			<linearGradient id="SVGID_1_" gradientUnits="userSpaceOnUse" x1="62.4027" y1="499.3417" x2="62.4027" y2="342.8283" gradientTransform="matrix(-0.6746 0.7382 -0.7382 -0.6746 444.1535 436.0692)">
			<stop  offset="0" style="stop-color:#DE91A2"/>
			<stop  offset="1" style="stop-color:#9D76B3"/>
		</linearGradient>
		<path fill="url(#SVGID_1_)" d="M20.2,158.7l103.1,94.2c7.4,6.7,19,6,26-1.7l0,0c7-7.7,6.7-19.3-0.7-26.1L45.6,130.9L20.2,158.7z"
			/>
	</g>
	
		<rect x="23" y="140.9" transform="matrix(-0.6746 0.7382 -0.7382 -0.6746 182.8491 225.2224)" fill="#DE91A2" width="37.6" height="24.1"/>
	<path fill="#FFFFFF" d="M50.4,145.1c1-1.1,0.9-2.8-0.2-3.8c-1.1-1-2.8-0.9-3.8,0.2c-1,1.1-0.9,2.8,0.2,3.8
		C47.7,146.3,49.4,146.2,50.4,145.1z"/>
</g>
<g>
	<path fill="#F6CA70" d="M521.4,202.9c8.2-3.9,11.7-13.9,7.6-22.4l0,0c-4-8.5-13.9-12.2-22.2-8.3L361.5,241
		c-8.2,3.9-11.7,13.9-7.7,22.4l0,0c4,8.5,14,12.2,22.2,8.3L521.4,202.9z"/>
	<g>
		
			<linearGradient id="SVGID_2_" gradientUnits="userSpaceOnUse" x1="438.9682" y1="519.2714" x2="438.9682" y2="362.758" gradientTransform="matrix(-0.4282 -0.9037 0.9037 -0.4282 211.8036 816.2527)">
			<stop  offset="0" style="stop-color:#DE91A2"/>
			<stop  offset="1" style="stop-color:#9D76B3"/>
		</linearGradient>
		<path fill="url(#SVGID_2_)" d="M485.7,179.9l-126.2,59.8c-9,4.3-12.7,15.3-8.3,24.7l0,0c4.4,9.4,15.4,13.5,24.4,9.2l126.2-59.8
			L485.7,179.9z"/>
	</g>
	
		<rect x="464.2" y="190.3" transform="matrix(-0.4282 -0.9037 0.9037 -0.4282 506.9984 725.5176)" fill="#DE91A2" width="37.6" height="24.1"/>
	<path fill="#FFFFFF" d="M474.9,194.1c0.6,1.3,2.2,1.9,3.6,1.3c1.3-0.6,1.9-2.2,1.3-3.6c-0.6-1.3-2.2-1.9-3.6-1.3
		C474.8,191.2,474.2,192.8,474.9,194.1z"/>
</g>
<g id="Layer_2">
	<g>
		<path fill="#EABC95" d="M224.2,213.4c-7.5,0.5-13.9,8-13.3,16.6l0,0c0.6,8.6,8,15.1,15.4,14.6l209.7-14.4
			c7.5-0.5,13-7.9,12.4-16.5l0,0c-0.6-8.6-7.1-15.2-14.6-14.7L224.2,213.4z"/>
		<path fill="#ACBFDB" d="M325.5,238.4l109.9-7.5c8.3-0.6,15.2-8.6,14.6-17.9l0,0c-0.6-9.3-8.6-16.3-16.9-15.8l-109.9,7.5
			L325.5,238.4L325.5,238.4z"/>
		
			<rect x="306.8" y="215.9" transform="matrix(6.831633e-02 0.9977 -0.9977 6.831633e-02 524.7219 -119.1182)" fill="#9BABC5" width="38.7" height="10.9"/>
	</g>
</g>
<path d="M240.4,363c17-19.9,27.3-51.4,26.1-86.4c-2.1-58.5-35.7-104.7-75.1-103.3c-18.3,0.7-34.7,11.5-46.7,28.8
	c-0.7,7-1.2,14-1.5,21c-0.7,17.5-0.8,36,0.8,53.7c2.4-6.6,2.8-14.4,5.2-21.1c0,0,4.5,42.8,21.6,66.4c-2.8-12-3.6-21-3.6-21
	c0.7,8.2,8.8,18.6,12.7,23.9c14.1,19.4,31.8,30.3,49.8,40.2c-5.1-5.3-9.1-11.9-12.5-19.3C224,352.8,232.5,358.6,240.4,363z"/>
<path d="M392.8,180.9c-1.1-8-2.7-16.1-4.9-23.9c-1.8-6.3-3.3-12.2-5.7-18.3c-1.9-4.7-4.9-17.9-9.8-20c3.1,1.3,6.6,2.3,9.7,2.6
	c-3.7-4.6-8.1-8.3-11.7-13.3c-4.5-6.3-8.8-12.7-13.2-18.9c-5.8-8-11.4-16.6-18.7-23.1c-4.6-4.1-9.6-7.8-14.3-11.8
	c-19.7-17-50.9-24.7-75.8-23.3c-24.9,0.3-55.4,10.3-73.9,28.6c-4.4,4.4-9.1,8.4-13.5,12.8c-6.8,7-11.8,16-17,24.4
	c-4,6.5-7.8,13.2-11.9,19.8c-3.2,5.3-7.3,9.3-10.7,14.1c3.1-0.6,6.5-1.7,9.5-3.3c-4.8,2.5-6.9,15.9-8.4,20.7c-2,6.2-3,12.2-4.4,18.7
	c-1.6,7.9-2.7,16.1-3.2,24.2c-0.7,11.3-0.9,23.3,0.3,34.8c2.1-4.3,2.5-9.4,4.6-13.7c0,0,3.5,27.7,17.8,42.9
	c-2.3-7.7-2.9-13.6-2.9-13.6c0.6,5.3,7.3,12,10.5,15.4c11.8,12.4,26.6,19.4,41.7,25.7c-4.3-3.4-7.6-7.6-10.4-12.4
	c6,4.7,13.6,8.6,20.6,11.4c7.7,3.1,16.2,3.7,24,5.7c-3.9-1.9-7.6-6.1-10.1-9.7c-0.8-1.2-1.9-3-2.7-3.9c2.4,0.6,4.4,3.1,6.4,4.5
	c7.4,5.2,13.9,9.8,22.5,12.3c-3-2.6-6.3-5.7-8-9.5c4.4,0.5,8.9,3.6,13.1,5.2c3.7,1.4,7.6,2.9,11.3,3.7c-1-1.6-2.3-4-2.3-6
	c2.3,0.7,4.3,2.8,6.4,4c2-1.4,3.9-3.6,6.1-4.5c0.2,2-0.9,4.4-1.8,6.1c3.6-1.1,7.4-2.9,11-4.5c4.1-1.9,8.4-5.3,12.7-6.2
	c-1.5,3.8-4.5,7.2-7.3,10c8.4-3.1,14.6-8.2,21.6-13.9c1.9-1.6,3.7-4.1,6.1-4.9c-0.8,0.9-1.7,2.8-2.5,4c-2.2,3.8-5.6,8.3-9.4,10.4
	c7.6-2.5,16-3.7,23.5-7.4c6.7-3.3,14.1-7.8,19.7-12.9c-2.5,5-5.5,9.5-9.5,13.1c14.6-7.4,28.9-15.4,39.7-28.6
	c3-3.6,9.2-10.8,9.4-16.1c0,0-0.2,5.9-1.9,13.8c13.2-16.1,14.6-44,14.6-44c2.4,4.2,3.1,9.2,5.5,13.3
	C395.4,204.1,394.3,192.1,392.8,180.9z"/>
<path d="M288,361.3c-18.4-18.6-30.9-49.3-32.2-84.3c-2.1-58.5,28.1-107,67.5-108.4c18.3-0.7,35.4,9,48.6,25.4
	c1.2,6.9,2.2,13.9,3,20.8c1.9,17.4,3.4,35.9,3,53.6c-2.9-6.5-3.8-14.2-6.7-20.7c0,0-1.4,43.1-16.8,67.8c1.9-12.2,2.1-21.2,2.1-21.2
	c-0.1,8.2-7.4,19.2-10.9,24.7c-12.7,20.3-29.5,32.5-46.8,43.7c4.7-5.6,8.2-12.5,11.1-20.1C303.6,349.9,295.5,356.4,288,361.3z"/>
<g>
	
		<linearGradient id="SVGID_3_" gradientUnits="userSpaceOnUse" x1="247.9017" y1="472.1581" x2="247.9017" y2="226.7052" gradientTransform="matrix(0.9929 0.1187 -0.1187 0.9929 43.0274 -26.9419)">
		<stop  offset="0" style="stop-color:#DE91A2"/>
		<stop  offset="1" style="stop-color:#9D76B3"/>
	</linearGradient>
	<path fill="url(#SVGID_3_)" d="M323.5,473c-0.7,5.5-5.7,9.4-11.1,8.7l-70.1-8.4l-9-15.9l-8.2,13.8l-71.3-8.5
		c-5.5-0.7-9.4-5.7-8.7-11.1l26.9-225.3c0.7-5.5,5.7-9.4,11.1-8.7l158.7,19c5.5,0.7,9.4,5.7,8.7,11.1L323.5,473z"/>
	<path fill="#FFFFFF" d="M264.2,274.3c1.5,0.2,2.5,1.5,2.3,3c-0.2,1.5-1.5,2.5-3,2.3c-1.5-0.2-2.5-1.5-2.4-3
		C261.4,275.2,262.7,274.1,264.2,274.3z"/>
	<path fill="#FFFFFF" d="M261.4,297.3c-1.5-0.2-2.8,0.9-3,2.3c-0.2,1.5,0.9,2.8,2.4,3c1.5,0.2,2.8-0.9,3-2.3
		S262.9,297.5,261.4,297.3z"/>
	<path fill="#FFFFFF" d="M258.7,320.4c1.5,0.2,2.5,1.5,2.3,3c-0.2,1.5-1.5,2.5-3,2.3c-1.5-0.2-2.5-1.5-2.4-3
		C255.9,321.3,257.2,320.2,258.7,320.4z"/>
	<path fill="#FFFFFF" d="M255.9,343.4c1.5,0.2,2.5,1.5,2.3,3c-0.2,1.5-1.5,2.5-3,2.3c-1.5-0.2-2.5-1.5-2.4-3
		C253.1,344.3,254.5,343.2,255.9,343.4z"/>
	<path fill="#FFFFFF" d="M253.2,366.5c-1.5-0.2-2.8,0.9-3,2.3c-0.2,1.5,0.9,2.8,2.4,3c1.5,0.2,2.8-0.9,3-2.3
		C255.7,368,254.6,366.6,253.2,366.5z"/>
	<path fill="#FFFFFF" d="M250.4,389.5c-1.5-0.2-2.8,0.9-3,2.3c-0.2,1.5,0.9,2.8,2.4,3c1.5,0.2,2.8-0.9,3-2.3
		C252.9,391,251.9,389.7,250.4,389.5z"/>
	<path fill="#FFFFFF" d="M247.7,412.5c1.5,0.2,2.5,1.5,2.3,3c-0.2,1.5-1.5,2.5-3,2.3c-1.5-0.2-2.5-1.5-2.4-3
		C244.9,413.4,246.2,412.3,247.7,412.5z"/>
	<path fill="#FFFFFF" d="M244.9,435.6c-1.5-0.2-2.8,0.9-3,2.3c-0.2,1.5,0.9,2.8,2.4,3c1.5,0.2,2.8-0.9,3-2.3
		C247.4,437.1,246.4,435.7,244.9,435.6z"/>
	<path fill="#FFFFFF" d="M242.2,458.6c-1.5-0.2-2.8,0.9-3,2.4s0.9,2.8,2.4,3c1.5,0.2,2.8-0.9,3-2.3S243.6,458.8,242.2,458.6z"/>
	<polygon fill="#846396" points="265.7,249.5 297.3,266.7 306,232.9 291.8,231.1 265.8,243.1 263.4,247.2 263.4,247.2 257.2,256.5 
		253.4,246 253.4,246 252,241.4 229.6,223.6 215.3,222.1 217.3,258.7 250.6,247.8 255.8,260.9 232.3,457.4 234.1,457.6 257.6,261.2 
			"/>
	<polygon fill="#FABB73" points="263.2,248.4 265.7,244 291.6,231.2 229.8,223.8 251.9,242.4 253.3,247.3 257,258.4 	"/>
	<polygon fill="#9D76B3" points="265.8,243.9 294.4,261.2 301.8,232.4 291.8,231.1 	"/>
	<polygon fill="#9D76B3" points="229.6,223.6 219.4,222.5 221.2,254.1 251.9,242.4 	"/>
	<g>
		
			<rect x="189.4" y="272.2" transform="matrix(0.9929 0.1187 -0.1187 0.9929 36.0154 -22.5387)" fill="#9D76B3" stroke="#846396" stroke-width="0.6546" stroke-linecap="round" stroke-linejoin="round" width="35.6" height="37.7"/>
		<polygon fill="#9D76B3" stroke="#846396" stroke-width="0.6546" stroke-linecap="round" stroke-linejoin="round" points="
			227.6,287.1 207.2,290.7 188.3,282.4 189.9,268.8 229.2,273.5 		"/>
	</g>
	<g>
		
			<rect x="282.9" y="283.4" transform="matrix(0.9929 0.1187 -0.1187 0.9929 38.0038 -33.5608)" fill="#9D76B3" stroke="#846396" stroke-width="0.6546" stroke-linecap="round" stroke-linejoin="round" width="35.6" height="37.7"/>
		<polygon fill="#9D76B3" stroke="#846396" stroke-width="0.6546" stroke-linecap="round" stroke-linejoin="round" points="
			321.1,298.3 300.8,301.9 281.8,293.6 283.5,280 322.7,284.7 		"/>
	</g>
	<polygon fill="#00B8F1" points="247.1,353 244.3,352.6 255.9,255.6 256.7,257.7 258.7,255.2 	"/>
	
		<rect x="243.8" y="352.8" transform="matrix(0.9929 0.1187 -0.1187 0.9929 43.7059 -26.6572)" fill="#929497" width="3.6" height="1.5"/>
	
		<ellipse transform="matrix(0.9929 0.1187 -0.1187 0.9929 44.479 -26.5189)" fill="none" stroke="#929497" stroke-miterlimit="10" cx="244.8" cy="360.1" rx="4.5" ry="5.9"/>
	<g>
		<path fill="#E6E7E8" d="M259.1,370.5c0.4-3.3-2-6.3-5.2-6.7l-19.1-2.3c-3.3-0.4-6.3,2-6.7,5.2l-3.7,31.2c-0.4,3.3,2,6.3,5.2,6.7
			l19.1,2.3c3.3,0.4,6.3-2,6.7-5.2L259.1,370.5z"/>
	</g>
	<g>
		<defs>
			<path id="SVGID_4_" d="M255.6,368.5c0.3-2.5-1.5-4.7-3.9-5l-14.3-1.7c-2.5-0.3-4.7,1.5-5,3.9l-2.8,23.3c-0.3,2.5,1.5,4.7,3.9,5
				l14.3,1.7c2.5,0.3,4.7-1.5,5-3.9L255.6,368.5z"/>
		</defs>
		<clipPath id="SVGID_5_">
			<use xlink:href="#SVGID_4_"  overflow="visible"/>
		</clipPath>
		<g clip-path="url(#SVGID_5_)">
			<path d="M239.3,393.5c1.5-1.2,2.6-3.4,2.9-5.9c0.5-4.2-1.4-8-4.3-8.3c-1.3-0.2-2.6,0.4-3.7,1.6c-0.1,0.5-0.2,1-0.3,1.5
				c-0.2,1.3-0.5,2.6-0.5,3.9c0.3-0.5,0.4-1,0.6-1.5c0,0-0.2,3.1,0.8,5c-0.1-0.9,0-1.6,0-1.6c0,0.6,0.4,1.4,0.6,1.9
				c0.8,1.6,2,2.5,3.1,3.5c-0.3-0.4-0.5-1-0.7-1.5C238.2,392.6,238.8,393.1,239.3,393.5z"/>
			<path d="M242.7,393.9c-1.1-1.6-1.7-3.9-1.4-6.5c0.5-4.2,3.2-7.4,6.1-7.1c1.3,0.2,2.5,1,3.2,2.4c0,0.5,0,1,0,1.5
				c-0.1,1.3-0.2,2.6-0.4,3.9c-0.1-0.5-0.1-1.1-0.3-1.6c0,0-0.6,3.1-2,4.7c0.3-0.9,0.4-1.5,0.4-1.5c-0.1,0.6-0.8,1.3-1.1,1.7
				c-1.1,1.3-2.5,2-3.9,2.6c0.4-0.4,0.7-0.8,1-1.3C244,393.2,243.3,393.6,242.7,393.9z"/>
			<path d="M252.3,382c0-0.6,0-1.2-0.1-1.8c-0.1-0.5-0.1-0.9-0.2-1.4c-0.1-0.4-0.2-1.3-0.5-1.6c0.2,0.1,0.4,0.2,0.7,0.3
				c-0.2-0.4-0.5-0.7-0.7-1.1c-0.3-0.5-0.5-1-0.7-1.5c-0.3-0.6-0.6-1.3-1.1-1.9c-0.3-0.4-0.6-0.7-0.9-1c-1.2-1.4-3.4-2.4-5.2-2.5
				c-1.8-0.3-4.1,0.1-5.7,1.2c-0.4,0.3-0.8,0.5-1.1,0.8c-0.6,0.4-1,1-1.5,1.6c-0.4,0.4-0.7,0.9-1.1,1.3c-0.3,0.3-0.6,0.6-0.9,0.9
				c0.2,0,0.5-0.1,0.7-0.1c-0.4,0.1-0.7,1.1-0.8,1.4c-0.2,0.4-0.4,0.8-0.5,1.3c-0.2,0.6-0.4,1.1-0.5,1.7c-0.2,0.8-0.3,1.7-0.4,2.5
				c0.2-0.3,0.3-0.6,0.5-0.9c0,0-0.1,2,0.8,3.3c-0.1-0.6-0.1-1-0.1-1c0,0.4,0.4,0.9,0.6,1.2c0.7,1,1.7,1.7,2.7,2.3
				c-0.3-0.3-0.5-0.6-0.6-1c0.4,0.4,0.9,0.8,1.4,1.1c0.5,0.3,1.1,0.5,1.7,0.7c-0.3-0.2-0.5-0.5-0.6-0.8c0-0.1-0.1-0.2-0.2-0.3
				c0.2,0.1,0.3,0.3,0.4,0.4c0.5,0.5,0.9,0.9,1.5,1.1c-0.2-0.2-0.4-0.5-0.5-0.8c0.3,0.1,0.6,0.4,0.9,0.5c0.2,0.1,0.5,0.3,0.8,0.4
				c-0.1-0.1-0.1-0.3-0.1-0.5c0.2,0.1,0.3,0.3,0.4,0.4c0.2-0.1,0.3-0.2,0.5-0.3c0,0.1-0.1,0.3-0.2,0.4c0.3,0,0.6-0.1,0.8-0.2
				c0.3-0.1,0.7-0.3,1-0.3c-0.2,0.3-0.4,0.5-0.6,0.6c0.6-0.1,1.1-0.4,1.7-0.8c0.2-0.1,0.3-0.3,0.5-0.3c-0.1,0.1-0.2,0.2-0.2,0.3
				c-0.2,0.3-0.5,0.5-0.8,0.6c0.6-0.1,1.2-0.1,1.8-0.3c0.5-0.2,1.1-0.4,1.6-0.7c-0.2,0.3-0.5,0.6-0.8,0.8c1.1-0.4,2.3-0.8,3.2-1.6
				c0.3-0.2,0.8-0.7,0.9-1.1c0,0-0.1,0.4-0.3,1c1.1-1,1.6-3,1.6-3c0.1,0.3,0.1,0.7,0.2,1C252.3,383.8,252.3,382.9,252.3,382z"/>
			<path fill="#F6CA70" d="M247.4,373.1l-0.5-0.4c-1-0.8-2.1-1.4-3.3-1.5c-1.2-0.1-2.5,0.1-3.6,0.7l-0.5,0.3c-2.7,1.6-4.9,5-5.6,9.2
				l16.8,2C250.9,379.1,249.6,375.3,247.4,373.1"/>
			<path fill="#F6CA70" d="M243.7,379.3c-0.1,0.2-0.4,0.2-0.6,0l0,0c-0.2-0.1-0.2-0.4,0-0.6l7.8-9c0.1-0.2,0.4-0.2,0.6,0l0,0
				c0.2,0.1,0.2,0.4,0,0.6L243.7,379.3z"/>
			<path fill="#F6CA70" d="M243.2,378.1c0.1,0.2,0.1,0.4-0.1,0.6l0,0c-0.2,0.1-0.4,0.1-0.6-0.1l-6.5-10c-0.1-0.2-0.1-0.4,0.1-0.6
				l0,0c0.2-0.1,0.4-0.1,0.6,0.1L243.2,378.1z"/>
			<circle fill="#FFFFFF" cx="238.6" cy="376.8" r="1.1"/>
			<circle fill="#FFFFFF" cx="247" cy="377.8" r="1.1"/>
			<path d="M239.4,373.6c0,0,5.7,3.3,8,1.4c0,0,0.7,2.1,2,2.8c1.4,0.7,2,4.1,2,4.1s-1.2-8.1-3.3-9.6c-2-1.5-4.7-2.6-5.9-2.1
				c-1.2,0.5-6.2,2.6-7.5,5.5c-1.4,3-0.4,2.7-0.4,2.7s0.4,1.7,1.2,2.4C235.5,380.9,234,376.8,239.4,373.6z"/>
			
				<linearGradient id="SVGID_6_" gradientUnits="userSpaceOnUse" x1="246.4792" y1="401.5954" x2="246.4792" y2="383.6503" gradientTransform="matrix(0.9929 0.1187 -0.1187 0.9929 43.0274 -26.9419)">
				<stop  offset="0" style="stop-color:#DE91A2"/>
				<stop  offset="1" style="stop-color:#9D76B3"/>
			</linearGradient>
			<path fill="url(#SVGID_6_)" d="M246.7,401.2c0,0.4-0.4,0.7-0.8,0.6l-5.1-0.6l-0.7-1.2l-0.6,1l-5.2-0.6c-0.4,0-0.7-0.4-0.6-0.8
				l2-16.5c0-0.4,0.4-0.7,0.8-0.6l11.6,1.4c0.4,0,0.7,0.4,0.6,0.8L246.7,401.2z"/>
			<g>
				<path fill="#F6CA70" d="M230.6,394.9c-0.1,0.7,0.4,1.3,1.1,1.3l0,0c0.7,0.1,1.3-0.4,1.4-1.1l1.4-11.7c0.1-0.7-0.4-1.3-1.1-1.3
					l0,0c-0.7-0.1-1.3,0.4-1.4,1.1L230.6,394.9z"/>
				<path fill="#F6CA70" d="M248.3,397c-0.1,0.7,0.4,1.3,1.1,1.3l0,0c0.7,0.1,1.3-0.4,1.4-1.1l1.4-11.7c0.1-0.7-0.4-1.3-1.1-1.3l0,0
					c-0.7-0.1-1.3,0.4-1.4,1.1L248.3,397z"/>
			</g>
			<g>
				
					<linearGradient id="SVGID_7_" gradientUnits="userSpaceOnUse" x1="237.5814" y1="394.918" x2="237.5814" y2="383.4753" gradientTransform="matrix(0.9929 0.1187 -0.1187 0.9929 43.0274 -26.9419)">
					<stop  offset="0" style="stop-color:#DE91A2"/>
					<stop  offset="1" style="stop-color:#9D76B3"/>
				</linearGradient>
				<path fill="url(#SVGID_7_)" d="M233.4,393.6l1.2-10.1c0.1-0.7-0.5-1.4-1.2-1.5l0,0c-0.8-0.1-1.4,0.4-1.5,1.1l-1.2,10.1
					L233.4,393.6z"/>
			</g>
			<g>
				
					<linearGradient id="SVGID_8_" gradientUnits="userSpaceOnUse" x1="255.3959" y1="394.918" x2="255.3959" y2="383.4753" gradientTransform="matrix(0.9929 0.1187 -0.1187 0.9929 43.0274 -26.9419)">
					<stop  offset="0" style="stop-color:#DE91A2"/>
					<stop  offset="1" style="stop-color:#9D76B3"/>
				</linearGradient>
				<path fill="url(#SVGID_8_)" d="M251.1,395.7l1.2-10.1c0.1-0.7-0.5-1.4-1.2-1.5l0,0c-0.8-0.1-1.4,0.4-1.5,1.1l-1.2,10.1
					L251.1,395.7z"/>
			</g>
			<circle fill="#FFFFFF" cx="242.3" cy="386.9" r="0.2"/>
			<path fill="#FFFFFF" d="M242.2,388.4c-0.1,0-0.2,0.1-0.2,0.2c0,0.1,0.1,0.2,0.2,0.2c0.1,0,0.2-0.1,0.2-0.2
				C242.3,388.5,242.3,388.4,242.2,388.4z"/>
			<circle fill="#FFFFFF" cx="241.9" cy="390.2" r="0.2"/>
			<circle fill="#FFFFFF" cx="241.7" cy="391.9" r="0.2"/>
			<path fill="#FFFFFF" d="M241.6,393.4c-0.1,0-0.2,0.1-0.2,0.2c0,0.1,0.1,0.2,0.2,0.2c0.1,0,0.2-0.1,0.2-0.2
				C241.7,393.5,241.7,393.4,241.6,393.4z"/>
			<path fill="#FFFFFF" d="M241.4,395.1c-0.1,0-0.2,0.1-0.2,0.2c0,0.1,0.1,0.2,0.2,0.2c0.1,0,0.2-0.1,0.2-0.2
				C241.5,395.2,241.5,395.1,241.4,395.1z"/>
			<circle fill="#FFFFFF" cx="241.1" cy="397" r="0.2"/>
			<path fill="#FFFFFF" d="M241,398.5c-0.1,0-0.2,0.1-0.2,0.2c0,0.1,0.1,0.2,0.2,0.2c0.1,0,0.2-0.1,0.2-0.2
				C241.1,398.6,241.1,398.5,241,398.5z"/>
			<path fill="#FFFFFF" d="M240.8,400.1c-0.1,0-0.2,0.1-0.2,0.2c0,0.1,0.1,0.2,0.2,0.2c0.1,0,0.2-0.1,0.2-0.2
				C240.9,400.3,240.9,400.2,240.8,400.1z"/>
			<polygon fill="#846396" points="242.5,384.9 244.8,386.1 245.4,383.6 244.4,383.5 242.5,384.4 242.3,384.7 242.3,384.7 
				241.9,385.4 241.6,384.6 241.6,384.6 241.5,384.3 239.8,383 238.8,382.9 238.9,385.5 241.4,384.7 241.7,385.7 240,400.1 
				240.2,400.1 241.9,385.7 			"/>
			<polygon fill="#FABB73" points="242.3,384.8 242.5,384.5 244.4,383.5 239.8,383 241.5,384.3 241.6,384.7 241.8,385.5 			"/>
			<polygon fill="#9D76B3" points="242.5,384.5 244.6,385.7 245.1,383.6 244.4,383.5 			"/>
			<polygon fill="#9D76B3" points="239.8,383 239.1,382.9 239.2,385.2 241.5,384.3 			"/>
			<g>
				
					<rect x="236.9" y="386.5" transform="matrix(0.9929 0.1187 -0.1187 0.9929 47.7318 -25.5335)" fill="#9D76B3" stroke="#846396" stroke-width="0.6546" stroke-linecap="round" stroke-linejoin="round" width="2.6" height="2.8"/>
				<polygon fill="#9D76B3" stroke="#846396" stroke-width="0.6546" stroke-linecap="round" stroke-linejoin="round" points="
					239.7,387.6 238.2,387.9 236.8,387.3 236.9,386.3 239.8,386.6 				"/>
			</g>
			<g>
				
					<rect x="243.7" y="387.3" transform="matrix(0.9929 0.1187 -0.1187 0.9929 47.8772 -26.3393)" fill="#9D76B3" stroke="#846396" stroke-width="0.6546" stroke-linecap="round" stroke-linejoin="round" width="2.6" height="2.8"/>
				<polygon fill="#9D76B3" stroke="#846396" stroke-width="0.6546" stroke-linecap="round" stroke-linejoin="round" points="
					246.5,388.4 245,388.7 243.7,388.1 243.8,387.1 246.6,387.4 				"/>
			</g>
			
				<rect x="230.8" y="391.7" transform="matrix(0.9929 0.1187 -0.1187 0.9929 48.2437 -24.7824)" fill="#DE91A2" width="2.7" height="1.8"/>
			
				<rect x="248.4" y="393.8" transform="matrix(0.9929 0.1187 -0.1187 0.9929 48.6193 -26.8644)" fill="#DE91A2" width="2.7" height="1.8"/>
			<path fill="#FFFFFF" d="M231.4,392.2c-0.1,0-0.2,0.1-0.2,0.2c0,0.1,0.1,0.2,0.2,0.2c0.1,0,0.2-0.1,0.2-0.2
				C231.6,392.3,231.5,392.2,231.4,392.2z"/>
			<path fill="#FFFFFF" d="M250.6,394.5c-0.1,0-0.2,0.1-0.2,0.2c0,0.1,0.1,0.2,0.2,0.2c0.1,0,0.2-0.1,0.2-0.2
				C250.8,394.6,250.7,394.5,250.6,394.5z"/>
			<polygon fill="#00B8F1" points="241.1,392.4 240.9,392.4 241.8,385.3 241.8,385.5 242,385.3 			"/>
			
				<rect x="240.9" y="392.4" transform="matrix(0.9929 0.1187 -0.1187 0.9929 48.2941 -25.8346)" fill="#929497" width="0.3" height="0.1"/>
			
				<ellipse transform="matrix(0.9929 0.1187 -0.1187 0.9929 48.3506 -25.8245)" fill="none" stroke="#929497" stroke-miterlimit="10" cx="240.9" cy="392.9" rx="0.3" ry="0.4"/>
		</g>
	</g>
</g>
<g>
	<path d="M166.4,570.6l-38.3,34.5c-4.7,4.2-7,9.8-7,9.8l10.8,12l4.5-4.1c0,0-5.8,2.7,18.5,29.7c4.3,4.8,9.1,10.1,9.1,10.1l3.7-3.3
		c1.5-1.4,1.8-3.6,0.7-5.4c-5-7.8-17-28.9-8.7-36.4l27.6-24.8L166.4,570.6z"/>
	<path fill="#A87C4F" d="M167.5,569.3L128,605.4c-4.7,4.3-6.9,9.8-6.9,9.8l10.9,12l4.5-4.2c0,0-5.8,2.7,18.7,29.5
		c4.4,4.8,9.1,10,9.1,10l5.3-4.8c1.5-1.4,1.8-3.7,0.7-5.4c-5-7.8-18.9-27.3-10.6-34.8l28-25.6L167.5,569.3z"/>
	<path d="M137.6,621.2c-0.3-1.6-10.2-14.9-10.4-15.2c-4.1,4.1-6.1,8.9-6.1,8.9l10.8,12l4.3-3.9c-0.8,1-2.1,6.3,18.7,29.4
		c4.3,4.8,9.1,10.1,9.1,10.1l1.3-1.1C158.2,653.6,140,635.1,137.6,621.2z"/>
</g>
<path fill="#F6CA70" d="M306.5,70.1l-7-4.6c-14.9-9.1-31.3-13.8-48.4-13.2c-17.1,0.6-33.1,6.5-47.4,16.6l-6.6,5.1
	c-32.9,27.5-54.9,78.3-55.9,136.7l230.8-8.3C366.9,144.3,341.4,95.2,306.5,70.1"/>
<g>
	<path d="M233.9,600.6v51.5c0,6.3-2.6,11.7-2.6,11.7h-16.2l0-6.1c0,0,1.9,6.1-34.4,6.1c-6.5,0-13.5,0-13.5,0v-4.9
		c0-2.1,1.5-3.8,3.5-4.1c9.1-1.5,32.9-6.6,32.9-17.8v-37.2L233.9,600.6z"/>
	<path fill="#A87C4F" d="M233.9,598.6v53.5c0,6.3-2.6,11.7-2.6,11.7h-16.2l0-6.1c0,0,1.9,6.1-34.4,6.1c-6.5,0-13.5,0-13.5,0v-7.1
		c0-2.1,1.5-3.8,3.5-4.1c9.1-1.5,32.9-4.5,32.9-15.7V599L233.9,598.6z"/>
	<path d="M215.5,655.8c1.3-0.8,17.9-2.4,18.3-2.4c-0.3,5.8-2.6,10.5-2.6,10.5h-16.2l0-5.8c-0.2,1.3-3.2,5.8-34.4,5.8
		c-6.5,0-13.5,0-13.5,0v-1.7C177.7,662.1,203.6,663.3,215.5,655.8z"/>
</g>
<g>
	<path fill="#EABC95" d="M581.7,635.1V488.2c0-7-5.7-12.6-12.6-12.6h-2.8c-7,0-12.6,5.7-12.6,12.6v146.9c0,7,5.7,12.6,12.6,12.6h2.8
		C576.1,647.7,581.7,642.1,581.7,635.1z"/>
</g>
<path fill="#FFFFFF" d="M211.1,138.4c0.3,8.4-6.2,15.4-14.6,15.7c-8.4,0.3-15.4-6.2-15.7-14.6c-0.3-8.3,6.2-15.4,14.6-15.7
	C203.8,123.6,210.8,130.1,211.1,138.4z"/>
<path fill="#FFFFFF" d="M327.2,134.3c0.3,8.4-6.2,15.4-14.6,15.7c-8.3,0.3-15.4-6.2-15.7-14.6c-0.3-8.3,6.2-15.4,14.6-15.7
	C319.9,119.4,326.9,125.9,327.2,134.3z"/>
<path d="M199.8,93.5c0,0,84.1,32.7,110.6,1.8c0,0,13.6,27.1,33.4,33.3c19.8,6.2,36.4,51.6,36.4,51.6S346.5,73.2,315.9,57
	c-30.5-16.2-68.8-25.2-84.6-15.4c-15.8,9.8-77.7,47.7-90,90.7c-12.3,43,0.2,38,0.2,38s8.8,21.6,21.8,30.3
	C163.4,200.7,133.9,148.8,199.8,93.5z"/>
<g>
	<path fill="#333A42" d="M582.7,616.9V333.4h-30.1v283.5H582.7z"/>
</g>
<g>
	<path fill="#EABC95" d="M497.5,635.1V488.2c0-7,5.7-12.6,12.6-12.6h2.8c7,0,12.6,5.7,12.6,12.6v146.9c0,7-5.7,12.6-12.6,12.6h-2.8
		C503.1,647.7,497.5,642.1,497.5,635.1z"/>
</g>
<g>
	<path fill="#333A42" d="M496.5,616.9V333.4h30.1v283.5H496.5z"/>
</g>
<g>
	<path fill="#5D646D" d="M494.5,621.3v-10.6h34v10.6H494.5z"/>
</g>
<g>
	<path fill="#5D646D" d="M550.7,621.3v-10.6h34v10.6H550.7z"/>
</g>
<g>
	<g>
		<path fill="#352215" d="M531.2,647.1V662h-22.6l-1.7-3.2v-1.3l14.1,0.6C521,658.2,529.7,653.1,531.2,647.1z"/>
	</g>
	<g>
		<path fill="#352215" d="M452.4,653.8c0.8,5.6,14.2,18.8,46.3,5.1c6.5-2.3,26.9,6.4,32-6.9c1.4-3.5,0-9.7,0-9.7l-78.4,9.5
			L452.4,653.8z"/>
	</g>
	<g>
		<path fill="#4C301B" d="M527,634.8c-2.4,3.1-11.4,11.5-31-1c-18,14.7-29.3,15.6-40,15.2c-0.4,0-2.8-0.2-4.1,2.1
			c-2.3,8.1,17.2,16.8,46.4,4.3c8.2-2.9,26.4,4.5,31.2-7c2.3-5.6,0.5-10.6-0.8-13L527,634.8z"/>
	</g>
	<g>
		<path fill="#604329" d="M496,633.8c19,10.6,28.6,3.2,31.1,0.7c0.4-0.4,0.9-0.4,1.2,0.2c1.3,1.9,4.2,6.7,4.6,10.6
			c0.2,2.2-0.1,8.2-1.7,10.7c-11.2,0-11.2,0-11.2,0h-7.3c0,0-6.7-15.3-27.1-5.4c-2.4-4-1.5-8.5-0.9-8.8v0
			C488.4,639.5,492.1,636.9,496,633.8z"/>
	</g>
	<g>
		<path fill="#875E33" d="M494.6,642.2c-0.2,0-0.3-0.1-0.4-0.2l-4-3.7c-0.3-0.2-0.3-0.6,0-0.9c0.2-0.3,0.6-0.3,0.9,0l4,3.7
			c0.3,0.2,0.3,0.6,0,0.9C494.9,642.1,494.7,642.2,494.6,642.2L494.6,642.2z"/>
	</g>
	<g>
		<path fill="#875E33" d="M491.4,644.3c-0.2,0-0.3-0.1-0.5-0.2l-3.5-3.9c-0.2-0.3-0.2-0.7,0-0.9c0.3-0.2,0.7-0.2,0.9,0l3.5,3.9
			c0.2,0.3,0.2,0.7,0,0.9C491.7,644.2,491.6,644.3,491.4,644.3L491.4,644.3z"/>
	</g>
	<g>
		<path fill="#875E33" d="M487.9,645.8c-0.2,0-0.4-0.1-0.5-0.3l-2.5-4c-0.2-0.3-0.1-0.7,0.2-0.9c0.3-0.2,0.7-0.1,0.9,0.2l2.5,4
			c0.2,0.3,0.1,0.7-0.2,0.9C488.1,645.8,488,645.8,487.9,645.8L487.9,645.8z"/>
	</g>
	<g>
		<path fill="#875E33" d="M484.5,647.6c-0.3,0-0.5-0.1-0.6-0.4l-1.7-4.3c-0.1-0.3,0-0.7,0.3-0.8c0.3-0.1,0.7,0,0.8,0.3l1.7,4.3
			c0.1,0.3,0,0.7-0.3,0.8C484.7,647.6,484.6,647.6,484.5,647.6L484.5,647.6z"/>
	</g>
	<g>
		<path fill="#875E33" d="M481.2,648.8c-0.3,0-0.5-0.2-0.6-0.4l-1.5-3.9c-0.1-0.3,0-0.7,0.4-0.8c0.3-0.1,0.7,0,0.8,0.4l1.5,3.9
			c0.1,0.3,0,0.7-0.4,0.8C481.3,648.7,481.3,648.8,481.2,648.8L481.2,648.8z"/>
	</g>
	<g>
		<path fill="#875E33" d="M498.2,639.9c-0.1,0-0.3,0-0.4-0.1l-4.8-3.5c-0.3-0.2-0.3-0.6-0.1-0.9c0.2-0.3,0.6-0.3,0.9-0.1l4.8,3.5
			c0.3,0.2,0.3,0.6,0.1,0.9C498.6,639.8,498.4,639.9,498.2,639.9L498.2,639.9z"/>
	</g>
	<g>
		<path fill="#875E33" d="M502.1,654.6c0,0.2,0.2,0.4,0.4,0.4l1.7-0.1c0.2,0,0.4-0.2,0.4-0.4l0,0c0-0.2-0.2-0.4-0.4-0.4l-1.7,0.1
			C502.2,654.2,502,654.4,502.1,654.6L502.1,654.6z"/>
	</g>
	<g>
		<path fill="#875E33" d="M506.9,655.5c0,0.2,0.2,0.4,0.4,0.4l1.7,0c0.2,0,0.4-0.2,0.4-0.4l0,0c0-0.2-0.2-0.4-0.4-0.4l-1.7,0
			C507.1,655.1,506.9,655.3,506.9,655.5L506.9,655.5z"/>
	</g>
	<g>
		<path fill="#875E33" d="M497.5,655.6c0.1,0.2,0.3,0.3,0.5,0.2l1.6-0.6c0.2-0.1,0.3-0.3,0.2-0.5l0,0c-0.1-0.2-0.3-0.3-0.5-0.2
			l-1.6,0.6C497.6,655.2,497.5,655.4,497.5,655.6L497.5,655.6z"/>
	</g>
	<g>
		<path fill="#875E33" d="M493.3,657.3c0.1,0.2,0.3,0.3,0.5,0.2l1.6-0.6c0.2-0.1,0.3-0.3,0.2-0.5l0,0c-0.1-0.2-0.3-0.3-0.5-0.2
			l-1.6,0.6C493.4,656.9,493.3,657.1,493.3,657.3L493.3,657.3z"/>
	</g>
	<g>
		<path fill="#875E33" d="M489.1,658.7c0.1,0.2,0.3,0.3,0.5,0.2l1.6-0.5c0.2-0.1,0.3-0.3,0.3-0.5l0,0c-0.1-0.2-0.3-0.3-0.5-0.2
			l-1.6,0.5C489.1,658.3,489,658.5,489.1,658.7L489.1,658.7z"/>
	</g>
	<g>
		<path fill="#875E33" d="M483.7,660c0,0.2,0.3,0.3,0.5,0.3l1.6-0.4c0.2,0,0.3-0.2,0.3-0.5l0,0c0-0.2-0.2-0.3-0.5-0.3l-1.6,0.4
			C483.8,659.6,483.7,659.8,483.7,660L483.7,660z"/>
	</g>
	<g>
		<path fill="#875E33" d="M478.3,660.8c0,0.2,0.2,0.4,0.4,0.3l1.7-0.2c0.2,0,0.4-0.2,0.3-0.4l0,0c0-0.2-0.2-0.4-0.4-0.3l-1.7,0.2
			C478.4,660.4,478.2,660.6,478.3,660.8L478.3,660.8z"/>
	</g>
	<g>
		<path fill="#875E33" d="M472.4,661c0,0.2,0.2,0.4,0.4,0.4l1.7,0c0.2,0,0.4-0.2,0.4-0.4l0,0c0-0.2-0.2-0.4-0.4-0.4l-1.7,0
			C472.6,660.6,472.4,660.8,472.4,661L472.4,661z"/>
	</g>
	<g>
		<path fill="#875E33" d="M465.8,660.2c0,0.2,0.1,0.4,0.3,0.5l1.6,0.3c0.2,0,0.4-0.1,0.5-0.3l0,0c0-0.2-0.1-0.4-0.3-0.4l-1.6-0.3
			C466.1,659.9,465.9,660,465.8,660.2L465.8,660.2z"/>
	</g>
	<g>
		<path fill="#875E33" d="M460.5,658.5c-0.1,0.2,0,0.4,0.2,0.5l1.6,0.6c0.2,0.1,0.4,0,0.5-0.2l0,0c0.1-0.2,0-0.4-0.2-0.5l-1.6-0.6
			C460.8,658.2,460.6,658.3,460.5,658.5L460.5,658.5z"/>
	</g>
	<g>
		<path fill="#875E33" d="M455.6,655.7c-0.1,0.2-0.1,0.4,0.1,0.5l1.4,0.9c0.2,0.1,0.4,0.1,0.5-0.1l0,0c0.1-0.2,0.1-0.4-0.1-0.5
			l-1.4-0.9C455.9,655.5,455.7,655.5,455.6,655.7L455.6,655.7z"/>
	</g>
</g>
<g>
	<g>
		<path fill="#352215" d="M548.7,647.1V662h22.6l1.7-3.2v-1.3l-14.1,0.6C559,658.2,550.3,653.1,548.7,647.1z"/>
	</g>
	<g>
		<path fill="#352215" d="M627.6,653.8c-0.8,5.6-14.2,18.8-46.3,5.1c-6.5-2.3-26.9,6.4-32-6.9c-1.4-3.5,0-9.7,0-9.7l78.4,9.5
			L627.6,653.8z"/>
	</g>
	<g>
		<path fill="#4C301B" d="M553,634.8c2.4,3.1,11.4,11.5,31-1c18,14.7,29.3,15.6,40,15.2c0.4,0,2.8-0.2,4.1,2.1
			c2.3,8.1-17.2,16.8-46.4,4.3c-8.2-2.9-26.4,4.5-31.2-7c-2.3-5.6-0.5-10.6,0.8-13L553,634.8z"/>
	</g>
	<g>
		<path fill="#604329" d="M584,633.8c-19,10.6-28.6,3.2-31.1,0.7c-0.4-0.4-0.9-0.4-1.2,0.2c-1.3,1.9-4.2,6.7-4.6,10.6
			c-0.2,2.2,0.1,8.2,1.7,10.7c11.2,0,11.2,0,11.2,0h7.3c0,0,6.7-15.3,27.1-5.4c2.4-4,1.5-8.5,0.9-8.8v0
			C591.6,639.5,587.9,636.9,584,633.8z"/>
	</g>
	<g>
		<path fill="#875E33" d="M585.4,642.2c0.2,0,0.3-0.1,0.4-0.2l4-3.7c0.3-0.2,0.3-0.6,0-0.9c-0.2-0.3-0.6-0.3-0.9,0l-4,3.7
			c-0.3,0.2-0.3,0.6,0,0.9C585.1,642.1,585.2,642.2,585.4,642.2L585.4,642.2z"/>
	</g>
	<g>
		<path fill="#875E33" d="M588.6,644.3c0.2,0,0.3-0.1,0.5-0.2l3.5-3.9c0.2-0.3,0.2-0.7,0-0.9c-0.3-0.2-0.7-0.2-0.9,0l-3.5,3.9
			c-0.2,0.3-0.2,0.7,0,0.9C588.3,644.2,588.4,644.3,588.6,644.3L588.6,644.3z"/>
	</g>
	<g>
		<path fill="#875E33" d="M592.1,645.8c0.2,0,0.4-0.1,0.5-0.3l2.5-4c0.2-0.3,0.1-0.7-0.2-0.9c-0.3-0.2-0.7-0.1-0.9,0.2l-2.5,4
			c-0.2,0.3-0.1,0.7,0.2,0.9C591.9,645.8,592,645.8,592.1,645.8L592.1,645.8z"/>
	</g>
	<g>
		<path fill="#875E33" d="M595.5,647.6c0.3,0,0.5-0.1,0.6-0.4l1.7-4.3c0.1-0.3,0-0.7-0.3-0.8c-0.3-0.1-0.7,0-0.8,0.3l-1.7,4.3
			c-0.1,0.3,0,0.7,0.3,0.8C595.3,647.6,595.4,647.6,595.5,647.6L595.5,647.6z"/>
	</g>
	<g>
		<path fill="#875E33" d="M598.8,648.8c0.3,0,0.5-0.2,0.6-0.4l1.5-3.9c0.1-0.3,0-0.7-0.4-0.8c-0.3-0.1-0.7,0-0.8,0.4l-1.5,3.9
			c-0.1,0.3,0,0.7,0.4,0.8C598.7,648.7,598.7,648.8,598.8,648.8L598.8,648.8z"/>
	</g>
	<g>
		<path fill="#875E33" d="M581.8,639.9c0.1,0,0.3,0,0.4-0.1l4.8-3.5c0.3-0.2,0.3-0.6,0.1-0.9c-0.2-0.3-0.6-0.3-0.9-0.1l-4.8,3.5
			c-0.3,0.2-0.3,0.6-0.1,0.9C581.4,639.8,581.6,639.9,581.8,639.9L581.8,639.9z"/>
	</g>
	<g>
		<path fill="#875E33" d="M577.9,654.6c0,0.2-0.2,0.4-0.4,0.4l-1.7-0.1c-0.2,0-0.4-0.2-0.4-0.4l0,0c0-0.2,0.2-0.4,0.4-0.4l1.7,0.1
			C577.8,654.2,577.9,654.4,577.9,654.6L577.9,654.6z"/>
	</g>
	<g>
		<path fill="#875E33" d="M573,655.5c0,0.2-0.2,0.4-0.4,0.4l-1.7,0c-0.2,0-0.4-0.2-0.4-0.4l0,0c0-0.2,0.2-0.4,0.4-0.4l1.7,0
			C572.9,655.1,573,655.3,573,655.5L573,655.5z"/>
	</g>
	<g>
		<path fill="#875E33" d="M582.5,655.6c-0.1,0.2-0.3,0.3-0.5,0.2l-1.6-0.6c-0.2-0.1-0.3-0.3-0.2-0.5l0,0c0.1-0.2,0.3-0.3,0.5-0.2
			l1.6,0.6C582.4,655.2,582.5,655.4,582.5,655.6L582.5,655.6z"/>
	</g>
	<g>
		<path fill="#875E33" d="M586.6,657.3c-0.1,0.2-0.3,0.3-0.5,0.2l-1.6-0.6c-0.2-0.1-0.3-0.3-0.2-0.5l0,0c0.1-0.2,0.3-0.3,0.5-0.2
			l1.6,0.6C586.6,656.9,586.7,657.1,586.6,657.3L586.6,657.3z"/>
	</g>
	<g>
		<path fill="#875E33" d="M590.9,658.7c-0.1,0.2-0.3,0.3-0.5,0.2l-1.6-0.5c-0.2-0.1-0.3-0.3-0.3-0.5l0,0c0.1-0.2,0.3-0.3,0.5-0.2
			l1.6,0.5C590.9,658.3,591,658.5,590.9,658.7L590.9,658.7z"/>
	</g>
	<g>
		<path fill="#875E33" d="M596.3,660c0,0.2-0.3,0.3-0.5,0.3l-1.6-0.4c-0.2,0-0.3-0.2-0.3-0.5l0,0c0-0.2,0.2-0.3,0.5-0.3l1.6,0.4
			C596.2,659.6,596.3,659.8,596.3,660L596.3,660z"/>
	</g>
	<g>
		<path fill="#875E33" d="M601.7,660.8c0,0.2-0.2,0.4-0.4,0.3l-1.7-0.2c-0.2,0-0.4-0.2-0.3-0.4l0,0c0-0.2,0.2-0.4,0.4-0.3l1.7,0.2
			C601.6,660.4,601.8,660.6,601.7,660.8L601.7,660.8z"/>
	</g>
	<g>
		<path fill="#875E33" d="M607.6,661c0,0.2-0.2,0.4-0.4,0.4l-1.7,0c-0.2,0-0.4-0.2-0.4-0.4l0,0c0-0.2,0.2-0.4,0.4-0.4l1.7,0
			C607.4,660.6,607.6,660.8,607.6,661L607.6,661z"/>
	</g>
	<g>
		<path fill="#875E33" d="M614.1,660.2c0,0.2-0.1,0.4-0.3,0.5l-1.6,0.3c-0.2,0-0.4-0.1-0.5-0.3l0,0c0-0.2,0.1-0.4,0.3-0.4l1.6-0.3
			C613.9,659.9,614.1,660,614.1,660.2L614.1,660.2z"/>
	</g>
	<g>
		<path fill="#875E33" d="M619.5,658.5c0.1,0.2,0,0.4-0.2,0.5l-1.6,0.6c-0.2,0.1-0.4,0-0.5-0.2l0,0c-0.1-0.2,0-0.4,0.2-0.5l1.6-0.6
			C619.2,658.2,619.4,658.3,619.5,658.5L619.5,658.5z"/>
	</g>
	<g>
		<path fill="#875E33" d="M624.4,655.7c0.1,0.2,0.1,0.4-0.1,0.5l-1.4,0.9c-0.2,0.1-0.4,0.1-0.5-0.1l0,0c-0.1-0.2-0.1-0.4,0.1-0.5
			l1.4-0.9C624.1,655.5,624.3,655.5,624.4,655.7L624.4,655.7z"/>
	</g>
</g>
<path fill="#C7974F" d="M442.8,94.3c0,0,0.4-31.7,18.4-49.5c11.9-11,21.7-9.3,21.7-9.3s19.5-31,59.2-35.2
	c29.2-1.9,45.1,7.7,45.1,7.7l-11.5,8.7c0,0,39.9,9.9,50.7,35.4c-12.5-4.5-12.5-4.5-12.5-4.5s13.6,25.2,16.1,38.6
	C601,61.6,442.8,94.3,442.8,94.3"/>
<path fill="#EABC95" d="M482.5,53.3L460.3,9.2c-1.3-2.6-1-6.1,0.7-7.7c1.7-1.6,4.2-0.8,5.5,1.8l23.1,45.9
	c15.3-8.2,32.2-12.7,50-12.7c17.8,0,34.8,4.6,50,12.8l23.2-45.8c1.3-2.6,3.8-3.4,5.5-1.8c1.7,1.6,2.1,5.1,0.7,7.7l-22.3,44.1
	c35.4,22.5,60.1,65.3,63.2,115.1l-241-0.3C422.2,118.4,447.1,75.8,482.5,53.3"/>
<path fill="#FFFFFF" d="M588.8,116.5c7.2,0,13-6,13-13.5c0-7.5-5.8-13.5-13-13.5c-7.2,0-13,6-13,13.5
	C575.8,110.4,581.6,116.4,588.8,116.5"/>
<path fill="#FFFFFF" d="M490.6,116.7c7.4,0,13.3-6.2,13.3-13.9c0-7.7-5.9-13.9-13.3-13.9c-7.4,0-13.4,6.2-13.4,13.9
	C477.3,110.5,483.2,116.7,490.6,116.7"/>
<g>
	<path fill="#C7974F" d="M497.6,47c0,0,13.1,21.2,45.5,5c46.7-23.3,88.1,33.4,88.1,33.4s-19.6-47.6-63-54.9
		c-43.4-7.3-103.5,4.9-125.9,63.3C454.7,86.4,485.8,81.2,497.6,47z"/>
</g>
<path fill="#EABC95" d="M795.1,58.7c4.7-5.8,3.6-15.6-3.1-21l0,0c-6.7-5.4-16.5-4.5-21.2,1.3L638.4,202.2
	c-4.7,5.8-3.1,14.9,3.6,20.4l0,0c6.7,5.4,16,5.1,20.7-0.7L795.1,58.7z"/>
<path fill="#ACBFDB" d="M707.8,115.7l-69.4,85.6c-5.2,6.4-4.1,17,3.2,22.9l0,0c7.2,5.9,17.9,4.8,23.1-1.6L734,137L707.8,115.7
	L707.8,115.7z"/>
<rect x="700.5" y="122.3" transform="matrix(-0.7766 -0.63 0.63 -0.7766 1198.2926 680.4342)" fill="#9BABC5" width="38.7" height="10.9"/>
<g>
	<path fill="#C7974F" d="M632.8,158.8c-1,0-1.9,0.6-1.9,1.4c0,0.8,0.8,1.4,1.9,1.4c1,0,1.9-0.6,1.9-1.4
		C634.7,159.4,633.8,158.8,632.8,158.8z"/>
	<path fill="#C7974F" d="M621.3,158.8c-1,0-1.9,0.6-1.9,1.4c0,0.8,0.8,1.4,1.9,1.4c1,0,1.9-0.6,1.9-1.4
		C623.1,159.4,622.3,158.8,621.3,158.8z"/>
	<path fill="#C7974F" d="M631.8,149.4c-0.5,0-1,0.3-1,0.7c0,0.4,0.4,0.7,1,0.7c0.5,0,1-0.3,1-0.7
		C632.8,149.7,632.4,149.4,631.8,149.4z"/>
	<path fill="#C7974F" d="M621.3,149.4c-0.5,0-1,0.3-1,0.7c0,0.4,0.4,0.7,1,0.7c0.5,0,1-0.3,1-0.7
		C622.3,149.7,621.8,149.4,621.3,149.4z"/>
	<path fill="#C7974F" d="M626.9,154.3c-0.8,0-1.4,0.5-1.4,1s0.6,1,1.4,1c0.8,0,1.4-0.5,1.4-1S627.7,154.3,626.9,154.3z"/>
	<path fill="#C7974F" d="M644.5,158.8c-1,0-1.9,0.6-1.9,1.4c0,0.8,0.8,1.4,1.9,1.4c1,0,1.9-0.6,1.9-1.4
		C646.3,159.4,645.5,158.8,644.5,158.8z"/>
	<path fill="#C7974F" d="M655.9,159c-0.9,0-1.6,0.5-1.6,1.2c0,0.6,0.7,1.2,1.6,1.2c0.9,0,1.6-0.5,1.6-1.2
		C657.5,159.5,656.7,159,655.9,159z"/>
	<path fill="#C7974F" d="M643.5,149.4c-0.6,0-1,0.3-1,0.7c0,0.4,0.4,0.7,1,0.7c0.5,0,1-0.3,1-0.7
		C644.5,149.7,644.1,149.4,643.5,149.4z"/>
	<path fill="#C7974F" d="M651.8,149.4c-0.5,0-1,0.3-1,0.7c0,0.4,0.4,0.7,1,0.7c0.5,0,1-0.3,1-0.7
		C652.8,149.7,652.4,149.4,651.8,149.4z"/>
	<path fill="#C7974F" d="M637.9,144.6c-0.4,0-0.7,0.2-0.7,0.5c0,0.3,0.3,0.5,0.7,0.5c0.4,0,0.7-0.2,0.7-0.5
		C638.5,144.9,638.2,144.6,637.9,144.6z"/>
	<ellipse fill="#C7974F" cx="647.9" cy="145.1" rx="0.7" ry="0.5"/>
	<path fill="#C7974F" d="M626,144.6c-0.4,0-0.7,0.2-0.7,0.5c0,0.3,0.3,0.5,0.7,0.5c0.4,0,0.7-0.2,0.7-0.5
		C626.7,144.8,626.4,144.6,626,144.6z"/>
	<path fill="#C7974F" d="M614.2,144.6c-0.4,0-0.7,0.2-0.7,0.5c0,0.3,0.3,0.5,0.7,0.5c0.4,0,0.7-0.2,0.7-0.5
		C614.9,144.8,614.6,144.6,614.2,144.6z"/>
	<ellipse fill="#C7974F" cx="602.4" cy="145.1" rx="0.7" ry="0.5"/>
	<path fill="#C7974F" d="M590.6,144.6c-0.4,0-0.7,0.2-0.7,0.5c0,0.3,0.3,0.5,0.7,0.5c0.4,0,0.7-0.2,0.7-0.5
		C591.3,144.8,591,144.6,590.6,144.6z"/>
	<path fill="#C7974F" d="M578.8,144.5c-0.4,0-0.7,0.2-0.7,0.5c0,0.3,0.3,0.5,0.7,0.5c0.4,0,0.7-0.2,0.7-0.5
		C579.5,144.8,579.2,144.5,578.8,144.5z"/>
	<path fill="#C7974F" d="M567,144.5c-0.4,0-0.7,0.2-0.7,0.5c0,0.3,0.3,0.5,0.7,0.5c0.4,0,0.7-0.2,0.7-0.5
		C567.7,144.8,567.4,144.5,567,144.5z"/>
	<path fill="#C7974F" d="M555.2,144.5c-0.4,0-0.7,0.2-0.7,0.5c0,0.3,0.3,0.5,0.7,0.5c0.4,0,0.7-0.2,0.7-0.5
		C555.9,144.7,555.5,144.5,555.2,144.5z"/>
	<path fill="#C7974F" d="M543.3,144.5c-0.4,0-0.7,0.2-0.7,0.5c0,0.3,0.3,0.5,0.7,0.5c0.4,0,0.7-0.2,0.7-0.5
		C544,144.7,543.7,144.5,543.3,144.5z"/>
	<path fill="#C7974F" d="M439.5,144.4c-0.4,0-0.7,0.2-0.7,0.5c0,0.3,0.3,0.5,0.7,0.5c0.4,0,0.7-0.2,0.7-0.5
		C440.2,144.6,439.9,144.4,439.5,144.4z"/>
	<ellipse fill="#C7974F" cx="427.9" cy="144.9" rx="0.7" ry="0.5"/>
	<ellipse fill="#C7974F" cx="451.3" cy="144.9" rx="0.7" ry="0.5"/>
	<path fill="#C7974F" d="M463.2,144.4c-0.4,0-0.7,0.2-0.7,0.5c0,0.3,0.3,0.5,0.7,0.5c0.4,0,0.7-0.2,0.7-0.5
		C463.9,144.6,463.5,144.4,463.2,144.4z"/>
	<path fill="#C7974F" d="M475,144.4c-0.4,0-0.7,0.2-0.7,0.5c0,0.3,0.3,0.5,0.7,0.5c0.4,0,0.7-0.2,0.7-0.5
		C475.7,144.6,475.4,144.4,475,144.4z"/>
	<path fill="#C7974F" d="M486.8,144.4c-0.4,0-0.7,0.2-0.7,0.5c0,0.3,0.3,0.5,0.7,0.5c0.4,0,0.7-0.2,0.7-0.5
		C487.5,144.7,487.2,144.4,486.8,144.4z"/>
	<path fill="#C7974F" d="M498.6,144.4c-0.4,0-0.7,0.2-0.7,0.5c0,0.3,0.3,0.5,0.7,0.5c0.4,0,0.7-0.2,0.7-0.5
		C499.3,144.7,499,144.4,498.6,144.4z"/>
	<ellipse fill="#C7974F" cx="510.4" cy="145" rx="0.7" ry="0.5"/>
	<path fill="#C7974F" d="M522.2,144.5c-0.4,0-0.7,0.2-0.7,0.5c0,0.3,0.3,0.5,0.7,0.5c0.4,0,0.7-0.2,0.7-0.5
		C522.9,144.7,522.6,144.5,522.2,144.5z"/>
	<path fill="#C7974F" d="M534,144.5c-0.4,0-0.7,0.2-0.7,0.5c0,0.3,0.3,0.5,0.7,0.5c0.4,0,0.7-0.2,0.7-0.5
		C534.7,144.7,534.4,144.5,534,144.5z"/>
	<path fill="#C7974F" d="M638.6,154.3c-0.8,0-1.4,0.5-1.4,1s0.6,1,1.4,1c0.8,0,1.4-0.5,1.4-1S639.4,154.3,638.6,154.3z"/>
	<path fill="#C7974F" d="M650.8,154.3c-0.8,0-1.4,0.5-1.4,1c0,0.6,0.6,1,1.4,1c0.8,0,1.4-0.5,1.4-1
		C652.3,154.8,651.6,154.3,650.8,154.3z"/>
	<path fill="#C7974F" d="M615.8,154.3c-0.8,0-1.4,0.5-1.4,1s0.6,1,1.4,1c0.8,0,1.4-0.5,1.4-1C617.2,154.8,616.6,154.3,615.8,154.3z"
		/>
	<path fill="#C7974F" d="M610.1,158.8c-1,0-1.9,0.6-1.9,1.4c0,0.8,0.8,1.4,1.9,1.4c1,0,1.9-0.6,1.9-1.4
		C612,159.4,611.2,158.8,610.1,158.8z"/>
	<path fill="#C7974F" d="M598.6,158.7c-1,0-1.9,0.6-1.9,1.4c0,0.8,0.8,1.4,1.9,1.4c1,0,1.9-0.6,1.9-1.4
		C600.5,159.4,599.6,158.7,598.6,158.7z"/>
	<path fill="#C7974F" d="M609.2,149.3c-0.5,0-1,0.3-1,0.7c0,0.4,0.4,0.7,1,0.7c0.5,0,1-0.3,1-0.7
		C610.1,149.7,609.7,149.3,609.2,149.3z"/>
	<path fill="#C7974F" d="M598.6,149.3c-0.5,0-1,0.3-1,0.7c0,0.4,0.4,0.7,1,0.7c0.6,0,1-0.3,1-0.7
		C599.6,149.7,599.2,149.3,598.6,149.3z"/>
	<path fill="#C7974F" d="M604.2,154.3c-0.8,0-1.4,0.5-1.4,1c0,0.6,0.6,1,1.4,1c0.8,0,1.4-0.5,1.4-1
		C605.6,154.7,605,154.3,604.2,154.3z"/>
	<path fill="#C7974F" d="M593.1,154.3c-0.8,0-1.4,0.5-1.4,1c0,0.6,0.6,1,1.4,1c0.8,0,1.4-0.5,1.4-1
		C594.5,154.7,593.9,154.3,593.1,154.3z"/>
	<path fill="#C7974F" d="M587.4,158.7c-1,0-1.9,0.6-1.9,1.4c0,0.8,0.8,1.4,1.9,1.4c1,0,1.9-0.6,1.9-1.4
		C589.3,159.3,588.5,158.7,587.4,158.7z"/>
	<path fill="#C7974F" d="M575.9,158.7c-1,0-1.9,0.6-1.9,1.4c0,0.8,0.8,1.4,1.9,1.4c1,0,1.9-0.6,1.9-1.4
		C577.8,159.3,577,158.7,575.9,158.7z"/>
	<path fill="#C7974F" d="M586.5,149.3c-0.6,0-1,0.3-1,0.7c0,0.4,0.4,0.7,1,0.7c0.5,0,1-0.3,1-0.7C587.5,149.6,587,149.3,586.5,149.3
		z"/>
	<path fill="#C7974F" d="M575.9,149.3c-0.5,0-1,0.3-1,0.7c0,0.4,0.4,0.7,1,0.7c0.5,0,1-0.3,1-0.7
		C576.9,149.6,576.5,149.3,575.9,149.3z"/>
	<path fill="#C7974F" d="M581.5,154.2c-0.8,0-1.4,0.5-1.4,1c0,0.6,0.6,1,1.4,1c0.8,0,1.4-0.5,1.4-1S582.3,154.2,581.5,154.2z"/>
	<path fill="#C7974F" d="M570.4,154.2c-0.8,0-1.4,0.5-1.4,1c0,0.6,0.6,1,1.4,1c0.8,0,1.4-0.5,1.4-1S571.2,154.2,570.4,154.2z"/>
	<path fill="#C7974F" d="M564.8,158.7c-1,0-1.9,0.6-1.9,1.4c0,0.8,0.8,1.4,1.9,1.4c1,0,1.9-0.6,1.9-1.4
		C566.6,159.3,565.8,158.7,564.8,158.7z"/>
	<path fill="#C7974F" d="M553.2,158.7c-1,0-1.9,0.6-1.9,1.4c0,0.8,0.8,1.4,1.9,1.4c1,0,1.9-0.6,1.9-1.4
		C555.1,159.3,554.3,158.7,553.2,158.7z"/>
	<path fill="#C7974F" d="M563.8,149.3c-0.5,0-1,0.3-1,0.7c0,0.4,0.4,0.7,1,0.7c0.5,0,1-0.3,1-0.7
		C564.8,149.6,564.3,149.3,563.8,149.3z"/>
	<path fill="#C7974F" d="M553.3,149.3c-0.6,0-1,0.3-1,0.7c0,0.4,0.4,0.7,1,0.7c0.5,0,1-0.3,1-0.7
		C554.2,149.6,553.8,149.3,553.3,149.3z"/>
	<path fill="#C7974F" d="M558.8,154.2c-0.8,0-1.4,0.5-1.4,1s0.6,1,1.4,1c0.8,0,1.4-0.5,1.4-1C560.3,154.7,559.6,154.2,558.8,154.2z"
		/>
	<path fill="#C7974F" d="M547.7,154.2c-0.8,0-1.4,0.5-1.4,1s0.6,1,1.4,1c0.8,0,1.4-0.5,1.4-1S548.5,154.2,547.7,154.2z"/>
	<path fill="#C7974F" d="M542.1,158.7c-1,0-1.9,0.6-1.9,1.4c0,0.8,0.8,1.4,1.9,1.4c1,0,1.9-0.6,1.9-1.4
		C543.9,159.3,543.1,158.7,542.1,158.7z"/>
	<path fill="#C7974F" d="M530.6,158.7c-1,0-1.9,0.6-1.9,1.4c0,0.8,0.8,1.4,1.9,1.4c1,0,1.9-0.6,1.9-1.4
		C532.4,159.3,531.6,158.7,530.6,158.7z"/>
	<path fill="#C7974F" d="M541.1,149.3c-0.5,0-1,0.3-1,0.7c0,0.4,0.4,0.7,1,0.7c0.5,0,1-0.3,1-0.7
		C542.1,149.6,541.6,149.3,541.1,149.3z"/>
	<path fill="#C7974F" d="M530.6,149.2c-0.5,0-1,0.3-1,0.7c0,0.4,0.4,0.7,1,0.7c0.5,0,1-0.3,1-0.7
		C531.6,149.6,531.1,149.2,530.6,149.2z"/>
	<path fill="#C7974F" d="M536.2,154.2c-0.8,0-1.4,0.5-1.4,1c0,0.6,0.6,1,1.4,1c0.8,0,1.4-0.5,1.4-1
		C537.6,154.6,537,154.2,536.2,154.2z"/>
	<path fill="#C7974F" d="M525,154.2c-0.8,0-1.4,0.5-1.4,1s0.6,1,1.4,1c0.8,0,1.4-0.5,1.4-1C526.5,154.6,525.8,154.2,525,154.2z"/>
	<path fill="#C7974F" d="M519.4,158.6c-1,0-1.9,0.6-1.9,1.4c0,0.8,0.8,1.4,1.9,1.4c1,0,1.9-0.6,1.9-1.4
		C521.3,159.3,520.4,158.6,519.4,158.6z"/>
	<path fill="#C7974F" d="M507.9,158.6c-1,0-1.9,0.6-1.9,1.4c0,0.8,0.8,1.4,1.9,1.4c1,0,1.9-0.6,1.9-1.4
		C509.7,159.2,508.9,158.6,507.9,158.6z"/>
	<ellipse fill="#C7974F" cx="518.4" cy="149.9" rx="1" ry="0.7"/>
	<path fill="#C7974F" d="M507.9,149.2c-0.6,0-1,0.3-1,0.7c0,0.4,0.4,0.7,1,0.7c0.5,0,1-0.3,1-0.7
		C508.9,149.5,508.4,149.2,507.9,149.2z"/>
	<path fill="#C7974F" d="M513.5,154.2c-0.8,0-1.4,0.5-1.4,1s0.6,1,1.4,1c0.8,0,1.4-0.5,1.4-1C514.9,154.6,514.3,154.2,513.5,154.2z"
		/>
	<path fill="#C7974F" d="M502.4,154.1c-0.8,0-1.4,0.5-1.4,1c0,0.6,0.6,1,1.4,1c0.8,0,1.4-0.5,1.4-1
		C503.8,154.6,503.2,154.1,502.4,154.1z"/>
	<path fill="#C7974F" d="M496.7,158.6c-1,0-1.9,0.6-1.9,1.4c0,0.8,0.8,1.4,1.9,1.4c1,0,1.9-0.6,1.9-1.4
		C498.6,159.2,497.7,158.6,496.7,158.6z"/>
	<path fill="#C7974F" d="M485.2,158.6c-1,0-1.9,0.6-1.9,1.4c0,0.8,0.8,1.4,1.9,1.4c1,0,1.9-0.6,1.9-1.4
		C487.1,159.2,486.2,158.6,485.2,158.6z"/>
	<path fill="#C7974F" d="M495.7,149.2c-0.5,0-1,0.3-1,0.7c0,0.4,0.4,0.7,1,0.7c0.5,0,1-0.3,1-0.7
		C496.7,149.5,496.3,149.2,495.7,149.2z"/>
	<path fill="#C7974F" d="M485.2,149.2c-0.6,0-1,0.3-1,0.7c0,0.4,0.4,0.7,1,0.7c0.5,0,1-0.3,1-0.7
		C486.2,149.5,485.8,149.2,485.2,149.2z"/>
	<path fill="#C7974F" d="M490.8,154.1c-0.8,0-1.4,0.5-1.4,1c0,0.6,0.6,1,1.4,1c0.8,0,1.4-0.5,1.4-1
		C492.2,154.6,491.6,154.1,490.8,154.1z"/>
	<path fill="#C7974F" d="M479.7,154.1c-0.8,0-1.4,0.5-1.4,1s0.6,1,1.4,1c0.8,0,1.4-0.5,1.4-1C481.1,154.6,480.5,154.1,479.7,154.1z"
		/>
	<path fill="#C7974F" d="M474,158.6c-1,0-1.9,0.6-1.9,1.4c0,0.8,0.8,1.4,1.9,1.4c1,0,1.9-0.6,1.9-1.4
		C475.9,159.2,475.1,158.6,474,158.6z"/>
	<path fill="#C7974F" d="M462.5,158.6c-1,0-1.9,0.6-1.9,1.4c0,0.8,0.8,1.4,1.9,1.4c1,0,1.9-0.6,1.9-1.4
		C464.4,159.2,463.5,158.6,462.5,158.6z"/>
	<path fill="#C7974F" d="M473.1,149.2c-0.5,0-1,0.3-1,0.7c0,0.4,0.4,0.7,1,0.7c0.6,0,1-0.3,1-0.7C474,149.5,473.6,149.2,473.1,149.2
		z"/>
	<path fill="#C7974F" d="M462.5,149.2c-0.5,0-1,0.3-1,0.7c0,0.4,0.4,0.7,1,0.7c0.5,0,1-0.3,1-0.7
		C463.5,149.5,463.1,149.2,462.5,149.2z"/>
	<path fill="#C7974F" d="M468.1,154.1c-0.8,0-1.4,0.5-1.4,1c0,0.6,0.6,1,1.4,1c0.8,0,1.4-0.5,1.4-1S468.9,154.1,468.1,154.1z"/>
	<path fill="#C7974F" d="M457,154.1c-0.8,0-1.4,0.5-1.4,1c0,0.6,0.6,1,1.4,1c0.8,0,1.4-0.5,1.4-1S457.8,154.1,457,154.1z"/>
	<path fill="#C7974F" d="M451.4,158.6c-1,0-1.9,0.6-1.9,1.4c0,0.8,0.8,1.4,1.9,1.4c1,0,1.9-0.6,1.9-1.4
		C453.2,159.2,452.4,158.6,451.4,158.6z"/>
	<path fill="#C7974F" d="M439.8,158.5c-1,0-1.9,0.6-1.9,1.4c0,0.8,0.8,1.4,1.9,1.4c1,0,1.9-0.6,1.9-1.4
		C441.7,159.2,440.9,158.5,439.8,158.5z"/>
	<path fill="#C7974F" d="M450.4,149.1c-0.5,0-1,0.3-1,0.7c0,0.4,0.4,0.7,1,0.7c0.5,0,1-0.3,1-0.7
		C451.4,149.5,450.9,149.1,450.4,149.1z"/>
	<path fill="#C7974F" d="M439.8,149.1c-0.6,0-1,0.3-1,0.7c0,0.4,0.4,0.7,1,0.7c0.5,0,1-0.3,1-0.7
		C440.8,149.4,440.4,149.1,439.8,149.1z"/>
	<path fill="#C7974F" d="M445.4,154.1c-0.8,0-1.4,0.5-1.4,1c0,0.6,0.6,1,1.4,1c0.8,0,1.4-0.5,1.4-1
		C446.9,154.5,446.2,154.1,445.4,154.1z"/>
	<path fill="#C7974F" d="M430,158.5c-1,0-1.9,0.6-1.9,1.4c0,0.8,0.8,1.4,1.9,1.4c1,0,1.9-0.6,1.9-1.4
		C431.8,159.1,431,158.5,430,158.5z"/>
	<path fill="#C7974F" d="M421.9,158.9c-0.7,0-1.3,0.4-1.3,0.9c0,0.5,0.6,0.9,1.3,0.9c0.7,0,1.3-0.4,1.3-0.9
		C423.1,159.4,422.6,158.9,421.9,158.9z"/>
	<path fill="#C7974F" d="M430,149.1c-0.5,0-1,0.3-1,0.7c0,0.4,0.4,0.7,1,0.7c0.5,0,1-0.3,1-0.7C431,149.4,430.5,149.1,430,149.1z"/>
	<path fill="#C7974F" d="M435.6,154.1c-0.8,0-1.4,0.5-1.4,1s0.6,1,1.4,1c0.8,0,1.4-0.5,1.4-1C437,154.5,436.3,154.1,435.6,154.1z"/>
	<path fill="#C7974F" d="M424.9,154.3c-0.6,0-1,0.3-1,0.7c0,0.4,0.4,0.7,1,0.7c0.5,0,1-0.3,1-0.7
		C425.9,154.7,425.5,154.3,424.9,154.3z"/>
</g>
<g>
	<ellipse fill="#E2E2E1" cx="545" cy="359.7" rx="2.8" ry="3.3"/>
	<path fill="#EABC95" d="M617.8,185.4l-0.1,94.6l-9.8,15l-135.5-0.2l-10.9-18.6l0.1-91L617.8,185.4z"/>
	<path fill="#ACBFDB" d="M566.2,185.4l-21,16l-6.1,16.9l-6-16.8l-21-16.1l-55.7-0.1l-0.3,227.5c0,12.2,9.9,22.1,22.1,22.1l122.6,0.2
		c12.2,0,22.1-9.9,22.1-22.1l0.3-227.5L566.2,185.4z"/>
	<polygon fill="#728BAF" points="508.8,216.4 532.6,208.4 538.4,221.7 538.1,434.8 539.7,434.8 539.9,221.8 545.7,208.3 
		571.5,215.3 574.9,185.4 566.2,185.3 545.2,201.4 543.5,206.2 543.5,206.2 539.2,216.9 534.9,206.2 534.9,206.2 533.2,201.4 
		512.2,185.2 503.4,185.3 	"/>
	<polygon fill="#9BABC5" points="545.3,201.3 571.5,215.3 574.9,185.4 566.2,185.3 	"/>
	<ellipse fill="#E2E2E1" cx="545" cy="232.4" rx="2.8" ry="3.3"/>
	<ellipse fill="#E2E2E1" cx="544.9" cy="271.2" rx="2.8" ry="3.3"/>
	<ellipse fill="#E2E2E1" cx="544.9" cy="310.1" rx="2.8" ry="3.3"/>
	<ellipse fill="#E2E2E1" cx="544.8" cy="348.9" rx="2.8" ry="3.3"/>
	<ellipse fill="#E2E2E1" cx="544.8" cy="387.7" rx="2.8" ry="3.3"/>
	<path fill="#9BABC5" d="M601.4,277.8l-12,4.2c-1.4,0.5-2.9,0.5-4.3,0l-12-4.2c-1.3-0.5-2.2-1.6-2.2-3l0-26l32.6,0l0,26
		C603.6,276.2,602.7,277.4,601.4,277.8z"/>
</g>
<polygon fill="#9BABC5" points="512.2,185.2 503.4,185.3 508.1,216.8 533.2,201.4 "/>
<g>
	<path opacity="0.4" fill="#FFFFFF" enable-background="new    " d="M450,100.5c0.5,5.7,1.9,12.9,2.8,15.8c0.9,3,2.4,7.4,7.3,11.6
		c4.3,3.7,10.1,7.4,18.5,8.5c7.8,1,17.4,1,23.3-0.7c7.6-2.2,12-6.9,15.4-11.7c2.2-3.1,5-7.9,7.1-13.1c1.3-3.2,2.2-6.7,3-9.7l3.9-15
		l-24.3-12.5l-37.6,0l-16.5,5.7l-3,9.2C450.1,88.5,450,100.1,450,100.5z"/>
	<path opacity="0.4" fill="#FFFFFF" enable-background="new    " d="M628.1,88.7l-3-9.2l-16.5-5.7l-37.6,0l-24.3,12.4l3.9,15
		c0.8,2.9,1.7,6.4,3,9.7c2.1,5.2,4.9,10,7,13.1c3.3,4.8,7.7,9.5,15.3,11.8c5.9,1.7,15.6,1.8,23.3,0.8c8.4-1,14.2-4.7,18.6-8.4
		c4.9-4.2,6.5-8.6,7.3-11.6c0.9-2.9,2.3-10.1,2.8-15.8C628.1,100.3,628.1,88.7,628.1,88.7z"/>
	<path fill="#263238" d="M632.4,84.5c-2.6,0-4.6-0.8-4.6-1.8c0-1,2.1-1.8,4.6-1.8c2.6,0,4.6,0.8,4.6,1.8
		C637,83.7,634.9,84.5,632.4,84.5 M554,98.1c-1-4.1-1.5-7.7-1.1-9.9c1-6.6,18.1-12.1,36.8-12.1c0,0,9.2-0.3,17,0.9
		c7.8,1.1,13.4,3.7,16.5,9.5c1.4,2.6,1.6,7.3,1.2,12.2c0,0.5,0.5,0.7,1.4,0.8c0.8,0.1,5.3,1,5.9,0.8c0.4-0.1,0.5-0.8,0.6-1.2
		c1.5-6.4,8.4-7.3,8.4-7.3l-1.2-18.7c-12.4,0-35.2-3.8-48.9-3.8c-13.7,0-26.9,2.1-36.5,4.2c-9.6,2.1-14.9,1.8-14.9,1.8
		s-5.4,0.3-14.9-1.8c-9.6-2.2-22.8-4.3-36.4-4.3c-13.7,0-36.5,3.7-48.9,3.7l-1.2,18.7c0,0,6.9,0.9,8.4,7.3c0,0.2,0.1,0.6,0.2,0.8
		c0,0.3,0.6,0.4,1,0.3c0.5-0.2,6.5-0.7,6.6-1.4c0.1-0.7-0.1-1.3-0.1-1.3c-0.2-4.5,0-8.7,1.3-11.1c3.1-5.8,8.7-8.3,16.5-9.5
		c7.8-1.1,17-0.8,17-0.8c18.7,0,35.8,5.6,36.8,12.2c0.3,2.2-0.1,5.6-1,9.4c-0.1,0.5-0.2,0.8-0.1,1.1c0.2,0.4,6.1,1.7,6.4,1.5
		c0.3-0.2,0.2,0,0.7-0.9c1.7-2.8,4-4.3,7.8-4.3c4.2,0,6.5,1.7,8.2,5C547.5,100.5,554.3,99.2,554,98.1 M445.7,84.3
		c-2.6,0-4.6-0.8-4.6-1.8c0-1,2.1-1.8,4.6-1.8c2.6,0,4.6,0.8,4.6,1.8C450.3,83.5,448.2,84.3,445.7,84.3"/>
</g>
<g>
	<path fill="#6F8084" d="M781.6,78.6c0.5-0.6,0.4-1.4-0.1-1.9L756,56c-0.6-0.4-1.4-0.3-1.9,0.3l-5.9,7.3c-0.5,0.6-0.4,1.4,0.1,1.9
		l25.5,20.7c0.5,0.4,1.4,0.3,1.9-0.2L781.6,78.6L781.6,78.6z"/>
	<path fill="#D1C5A6" stroke="#FFFFFF" d="M758.7,78.7c4.2,3.4,10.3,2.7,13.6-1.4c3.4-4.2,2.7-10.3-1.4-13.6
		c-4.2-3.4-10.2-2.7-13.6,1.4C753.9,69.2,754.6,75.3,758.7,78.7z"/>
	<path fill="#707070" d="M762.7,74.9c-0.2,0.2-0.6,0.2-0.9,0l0,0c-0.3-0.2-0.4-0.6-0.2-0.9l2.6-3.2c0.2-0.2,0.6-0.2,0.9,0l0,0
		c0.3,0.2,0.4,0.6,0.2,0.9L762.7,74.9z"/>
	<path fill="#707070" d="M760,67.6c-0.2-0.2-0.2-0.6,0-0.9l0,0c0.2-0.3,0.6-0.4,0.9-0.2l4.2,3.4c0.2,0.2,0.2,0.6,0,0.9l0,0
		c-0.2,0.3-0.6,0.4-0.9,0.2L760,67.6z"/>
	<path fill="#707070" d="M764.2,71.9c0.6,0.5,1.5,0.4,1.9-0.2c0.5-0.6,0.4-1.5-0.2-1.9c-0.6-0.5-1.5-0.4-1.9,0.2
		C763.5,70.6,763.6,71.4,764.2,71.9z"/>
</g>
</svg>
