<?xml version="1.0" encoding="utf-8"?>
<!-- Generator: Adobe Illustrator 18.0.0, SVG Export Plug-In . SVG Version: 6.00 Build 0)  -->
<!DOCTYPE svg PUBLIC "-//W3C//DTD SVG 1.1//EN" "http://www.w3.org/Graphics/SVG/1.1/DTD/svg11.dtd">
<svg version="1.1" id="content" xmlns="http://www.w3.org/2000/svg" xmlns:xlink="http://www.w3.org/1999/xlink" x="0px" y="0px"
	 viewBox="92 53 138.8 120" enable-background="new 92 53 138.8 120" xml:space="preserve">
<path display="none" fill="#FFFFFF" d="M204.6,151.4l-4.6,0.7c-0.7,0.1-1.4,0.5-1.8,1c-0.7,0.7-1.5,1.4-2.2,2.1
	c-1.3,1.2-2.7,2.4-4.2,3.3c-0.6,0.4-1.2,0.8-1.9,1.2l-36.2,26.6v-16.5c0,0,47.2-23.9,47.3-23.9c1.9-0.9,4.2-2.4,6.5-2.3
	c2.1,0,3.4,1.9,2.4,3.8C208.9,149,206.6,151.1,204.6,151.4z"/>
<path display="none" fill="#EAEAEA" d="M173.7,151.4l4.6,0.7c0.7,0.1,1.4,0.5,1.8,1c0.7,0.7,1.5,1.4,2.2,2.1
	c1.3,1.2,2.7,2.4,4.2,3.3c0.6,0.4,1.2,0.8,1.9,1.2l36.2,26.6v-16.5c0,0-47.2-23.9-47.3-23.9c-1.9-0.9-4.2-2.4-6.5-2.3
	c-2.1,0-3.4,1.9-2.4,3.8C169.5,149,171.8,151.1,173.7,151.4z"/>
<path display="none" fill="#FFFFFF" d="M188,156.1c0.5,0.6,1.1,1.2,1.8,1.9l37.1,28.8V169c-0.7-0.3-1.3-0.7-1.9-1
	c-1.6-0.9-3.3-1.7-5-2.6c-2.3-1.2-4.5-2.4-6.8-3.5c-2.4-1.3-4.9-2.6-7.3-3.8c-2.2-1.2-4.5-2.4-6.7-3.5l-8-4c-0.6-0.3-1.3-0.6-2-0.8
	l0,0c-0.7-0.2-1.4,0.2-1.7,0.8l0,0C186.5,152.4,186.7,154.5,188,156.1z"/>
<g>
	<path fill="#082061" d="M180,53c-1.3,7.1-8.1,12.5-18.3,12.5c-10.2,0-17-5.5-18.3-12.5L92,66.8l5.5,30.7l0,0l21.9,0.1v72.8
		c0,0,17.8,2.6,41.9,2.6c24.2,0,42.7-0.9,42.7-0.9l-0.5-73.2l21.7,0.3l0,0l5.5-30.7L180,53z"/>
	<g opacity="0.5">
		<g>
			<defs>
				<rect id="SVGID_7_" x="138.6" y="53.7" width="45.6" height="15.9"/>
			</defs>
			<clipPath id="SVGID_1_">
				<use xlink:href="#SVGID_7_"  overflow="visible"/>
			</clipPath>
			<path clip-path="url(#SVGID_1_)" fill="#EFEFEF" d="M184.1,54.5l-1.1-0.2c0-0.2,0.1-0.4,0.1-0.6l1.1,0.2
				C184.2,54.1,184.2,54.3,184.1,54.5z"/>
			<path clip-path="url(#SVGID_1_)" fill="#EFEFEF" d="M183.6,56.4l-1.1-0.3c0-0.1,0.1-0.2,0.1-0.4l1.1,0.3
				C183.7,56.2,183.7,56.3,183.6,56.4z M184,54.9l-0.5-0.2l-0.6-0.1l0-0.1l0.5,0.2L184,54.9l-0.5-0.2L184,54.9z"/>
			<path clip-path="url(#SVGID_1_)" fill="#EFEFEF" d="M161,69.6c-0.1,0-0.3,0-0.4,0v0c-0.4,0-0.8,0-1.2,0l0.1-1.1
				c0.4,0,0.8,0,1.1,0l0,0.4l0-0.4c0.1,0,0.3,0,0.4,0L161,69.6z M162.2,69.6V69l0-0.6l0,0V69V69.6V69V69.6z M162.6,69.6l0-1.1
				c0.4,0,0.8,0,1.1,0l0,0.2l0-0.2c0.1,0,0.3,0,0.4,0l0.1,1.1c-0.1,0-0.3,0-0.4,0l0,0C163.4,69.6,163,69.6,162.6,69.6z M159.1,69.5
				L159.1,69.5l0.1-1.1L159.1,69.5z M165.4,69.4l0-0.5l-0.1-0.6l0.1,0l0,0.6L165.4,69.4l0-0.5L165.4,69.4z M157.9,69.4
				c-0.1,0-0.3,0-0.4,0l0,0c-0.4,0-0.8-0.1-1.2-0.2l0.2-1.1c0.4,0.1,0.8,0.1,1.1,0.2l-0.1,0.6l0.1-0.6c0.1,0,0.3,0,0.4,0L157.9,69.4
				z M165.8,69.4l-0.1-1.1c0.4,0,0.8-0.1,1.1-0.1c0.1,0,0.3,0,0.4-0.1l0.2,1.1c-0.1,0-0.3,0-0.4,0.1l-0.1-0.6l0.1,0.6
				C166.6,69.3,166.2,69.3,165.8,69.4z M155.9,69.1L155.9,69.1l0.1-0.6l0.1-0.5l-0.1,0.5l0.1-0.5l-0.1,0.5L155.9,69.1z M168.5,69
				l-0.1-0.5l-0.1-0.6l0.1,0l0.1,0.6L168.5,69l-0.1-0.5L168.5,69z M168.9,68.9l-0.2-1.1c0.4-0.1,0.8-0.2,1.1-0.2
				c0.1,0,0.2-0.1,0.4-0.1l0.3,1.1c-0.1,0-0.3,0.1-0.4,0.1l-0.1-0.5l0.1,0.5C169.7,68.8,169.3,68.8,168.9,68.9z M154.8,68.9
				c-0.1,0-0.3-0.1-0.4-0.1l0,0c-0.4-0.1-0.8-0.2-1.2-0.3l0.3-1.1c0.4,0.1,0.7,0.2,1.1,0.3l-0.1,0.5l0.1-0.5c0.1,0,0.2,0.1,0.4,0.1
				L154.8,68.9z M152.8,68.4L152.8,68.4l0.3-1.1L152.8,68.4z M171.6,68.2l-0.1-0.5l-0.2-0.6l0,0l0.2,0.5L171.6,68.2l-0.1-0.5
				L171.6,68.2z M172,68.1l-0.3-1.1c0.4-0.1,0.7-0.2,1.1-0.4v0c0.1,0,0.2-0.1,0.4-0.1l0.4,1c-0.1,0-0.2,0.1-0.4,0.1l-0.2-0.6
				l0.2,0.6C172.7,67.9,172.3,68,172,68.1z M151.7,68.1c-0.1,0-0.3-0.1-0.4-0.1l0.2-0.6l-0.2,0.6c-0.4-0.1-0.7-0.3-1.1-0.4l0.4-1
				c0.3,0.1,0.7,0.3,1.1,0.4l0,0c0.1,0,0.2,0.1,0.4,0.1L151.7,68.1z M149.9,67.3L149.9,67.3l0.2-0.5l0.2-0.5l-0.2,0.5l0.2-0.5
				l-0.2,0.5L149.9,67.3z M174.6,67.1l-0.5-1L174.6,67.1L174.6,67.1z M174.9,66.9l-0.5-1c0.3-0.2,0.7-0.4,1-0.5l0.1,0.2l-0.1-0.2
				c0.1-0.1,0.2-0.1,0.3-0.2l0.6,0.9c-0.1,0.1-0.2,0.1-0.3,0.2l0,0C175.6,66.5,175.3,66.7,174.9,66.9z M148.8,66.8
				c-0.1-0.1-0.2-0.1-0.4-0.2l0,0c-0.4-0.2-0.7-0.4-1-0.6l0.6-1c0.3,0.2,0.7,0.4,1,0.6l0,0c0.1,0.1,0.2,0.1,0.3,0.2L148.8,66.8z
				 M147,65.9L147,65.9l0.3-0.5L147,65.9z M177.3,65.5L177,65l-0.4-0.4l0,0L177,65L177.3,65.5L177,65L177.3,65.5z M147.3,65.4
				l0.3-0.5L147.3,65.4z M177.6,65.2l-0.7-0.9c0.3-0.2,0.6-0.5,0.9-0.7l0,0c0.1-0.1,0.2-0.2,0.3-0.2l0.8,0.8
				c-0.1,0.1-0.2,0.2-0.3,0.3l-0.5-0.6l0.5,0.6C178.3,64.7,177.9,65,177.6,65.2z M146,65.2c-0.1-0.1-0.2-0.2-0.3-0.2l0.6-0.8
				l-0.6,0.8c-0.3-0.2-0.6-0.5-0.9-0.7l0.7-0.9c0.3,0.2,0.6,0.5,0.9,0.7l0,0c0.1,0.1,0.2,0.1,0.3,0.2L146,65.2z M144.5,64l0.3-0.4
				L144.5,64l0.3-0.4l0.4-0.5l0,0l-0.4,0.4L144.5,64z M179.7,63.4l-0.4-0.4l-0.4-0.4l0,0l0.4,0.4L179.7,63.4l-0.4-0.4L179.7,63.4z
				 M143.6,63.1c-0.1-0.1-0.2-0.2-0.3-0.3l0,0c-0.3-0.3-0.6-0.6-0.8-0.9l0.8-0.7c0.2,0.3,0.5,0.6,0.8,0.8l-0.3,0.3l0.3-0.3
				c0.1,0.1,0.2,0.2,0.3,0.3L143.6,63.1z M180,63l-0.8-0.7c0.2-0.3,0.5-0.6,0.7-0.9c0.1-0.1,0.1-0.2,0.2-0.3l0.9,0.7
				c-0.1,0.1-0.2,0.2-0.2,0.3l-0.4-0.3l0.4,0.3C180.5,62.4,180.3,62.8,180,63z M142.2,61.7L142.2,61.7l0.9-0.7L142.2,61.7z
				 M181.7,60.8l-0.4-0.3l-0.5-0.3l0,0l0.5,0.3L181.7,60.8l-0.4-0.3L181.7,60.8z M141.5,60.7c-0.1-0.1-0.2-0.2-0.2-0.3l0,0l0,0
				c-0.2-0.3-0.4-0.7-0.6-1l1-0.6c0.2,0.3,0.4,0.6,0.6,1v0c0.1,0.1,0.1,0.2,0.2,0.3L141.5,60.7z M181.9,60.5l-1-0.6
				c0.2-0.3,0.4-0.7,0.5-1l1,0.5C182.3,59.8,182.1,60.1,181.9,60.5z M182.4,59.4l-1-0.5c0.1-0.1,0.1-0.2,0.2-0.3l1,0.5
				C182.6,59.2,182.5,59.3,182.4,59.4z M140.4,59L140.4,59l0.5-0.3l0.5-0.3l-0.5,0.3l0.5-0.2l-0.5,0.2L140.4,59z M183.1,58l-0.5-0.2
				l-0.5-0.2l0-0.1l0.5,0.2L183.1,58l-0.5-0.2L183.1,58z M139.9,57.9c-0.1-0.1-0.1-0.2-0.2-0.4l0.4-0.2l-0.4,0.2
				c-0.2-0.4-0.3-0.7-0.4-1.1l1-0.4c0.1,0.4,0.3,0.7,0.4,1l0,0c0,0.1,0.1,0.2,0.2,0.3L139.9,57.9z M183.2,57.6l-1-0.4
				c0.1-0.3,0.3-0.7,0.4-1.1l1.1,0.3C183.5,56.8,183.4,57.2,183.2,57.6z M139.2,56.1l0.5-0.2L139.2,56.1l0.5-0.2l0.5-0.2l0,0
				l-0.5,0.2L139.2,56.1z M138.8,54.9c0-0.1-0.1-0.3-0.1-0.4l0.5-0.1l-0.5,0.1l0,0l1.1-0.2l0,0c0,0.1,0.1,0.2,0.1,0.4L138.8,54.9z"
				/>
			<path clip-path="url(#SVGID_1_)" fill="#EFEFEF" d="M138.7,54.5c0-0.2-0.1-0.4-0.1-0.6l1.1-0.2c0,0.2,0.1,0.4,0.1,0.6L138.7,54.5
				z"/>
		</g>
	</g>
	<g opacity="0.5">
		<g>
			<defs>
				<rect id="SVGID_9_" x="95.5" y="65.5" width="6.7" height="32.2"/>
			</defs>
			<clipPath id="SVGID_2_">
				<use xlink:href="#SVGID_9_"  overflow="visible"/>
			</clipPath>
			
				<rect x="101.4" y="96.8" transform="matrix(0.1737 0.9848 -0.9848 0.1737 179.9274 -19.6597)" clip-path="url(#SVGID_2_)" fill="#EFEFEF" width="0.6" height="1.1"/>
			<path clip-path="url(#SVGID_2_)" fill="#EFEFEF" d="M101,96.8L101,96.8l1.1-0.2L101,96.8z M100.8,95.6l-0.1-0.4l1.1-0.2l0.1,0.4
				L100.8,95.6z"/>
			<path clip-path="url(#SVGID_2_)" fill="#EFEFEF" d="M100.7,95.2l-0.2-1.2l1.1-0.2l0.2,1.2L100.7,95.2z M100.4,93.6L100.4,93.6
				l1.1-0.2L100.4,93.6z M100.2,92.4l-0.3-1.6l1.1-0.2l0.2,1.2l-0.5,0.1l0.5-0.1l0.1,0.4L100.2,92.4z M99.9,90.4L99.9,90.4l1.1-0.2
				L99.9,90.4z M99.7,89.2l-0.3-1.6l1.1-0.2l0.2,1.2l-0.6,0.1l0.6-0.1l0.1,0.4L99.7,89.2z M99.3,87.2L99.3,87.2l1.1-0.2L99.3,87.2z
				 M99.1,86l-0.3-1.6l1.1-0.2l0.2,1.2l-0.5,0.1l0.5-0.1l0.1,0.4L99.1,86z M98.8,84L98.8,84l1.1-0.2L98.8,84z M98.5,82.8l-0.3-1.6
				l1.1-0.2l0.2,1.2L99,82.3l0.6-0.1l0.1,0.4L98.5,82.8z M98.2,80.8L98.2,80.8l1.1-0.2L98.2,80.8z M98,79.6l-0.3-1.6l1.1-0.2L99,79
				l-0.5,0.1L99,79l0.1,0.4L98,79.6z M97.6,77.5L97.6,77.5l1.1-0.2L97.6,77.5z M97.4,76.3l-0.1-0.4l0.6-0.1l-0.6,0.1l-0.2-1.2
				l1.1-0.2l0.3,1.6L97.4,76.3z M97.1,74.3L97.1,74.3l1.1-0.2L97.1,74.3z M96.8,73.1l-0.1-0.4l0.6-0.1l-0.6,0.1l-0.2-1.2l1.1-0.2
				l0.2,1.2l0,0l0.1,0.4L96.8,73.1z M96.5,71.1L96.5,71.1l1.1-0.2L96.5,71.1z M96.3,69.9l-0.1-0.4l0.6-0.1l-0.6,0.1L96,68.3l1.1-0.2
				l0.2,1.2l0,0l0.1,0.4L96.3,69.9z M95.9,67.9L95.9,67.9l1.1-0.2L95.9,67.9z M95.7,66.7l-0.1-0.4l1.1-0.2l0.1,0.4L95.7,66.7z"/>
			
				<rect x="95.8" y="65.4" transform="matrix(0.1739 0.9848 -0.9848 0.1739 144.3574 -40.204)" clip-path="url(#SVGID_2_)" fill="#EFEFEF" width="0.6" height="1.1"/>
		</g>
	</g>
	<g opacity="0.5">
		<g>
			<defs>
				<rect id="SVGID_11_" x="220.7" y="67.2" width="7" height="32.4"/>
			</defs>
			<clipPath id="SVGID_3_">
				<use xlink:href="#SVGID_11_"  overflow="visible"/>
			</clipPath>
			
				<rect x="220.7" y="99" transform="matrix(0.9834 0.1812 -0.1812 0.9834 21.6552 -38.4544)" clip-path="url(#SVGID_3_)" fill="#EFEFEF" width="1.1" height="0.6"/>
			<path clip-path="url(#SVGID_3_)" fill="#EFEFEF" d="M221.9,98.7l-1.1-0.2v0L221.9,98.7z M222.2,97.5l-1.1-0.2l0.1-0.4l1.1,0.2
				L222.2,97.5z"/>
			<path clip-path="url(#SVGID_3_)" fill="#EFEFEF" d="M222.2,97.1l-1.1-0.2l0.2-1.2l1.1,0.2L222.2,97.1z M222.5,95.5l-1.1-0.2l0,0
				L222.5,95.5z M222.7,94.2l-1.1-0.2l0.1-0.4l0.5,0.1l-0.5-0.1l0.2-1.2l1.1,0.2L222.7,94.2z M223.1,92.2L222,92v0L223.1,92.2z
				 M223.3,91l-1.1-0.2l0.3-1.6l1.1,0.2l-0.2,1.2l-0.6-0.1l0.6,0.1L223.3,91z M223.7,89l-1.1-0.2l0,0L223.7,89z M223.9,87.8
				l-1.1-0.2l0.1-0.4l0.5,0.1l-0.5-0.1l0.2-1.2l1.1,0.2l-0.2,1.2l0,0L223.9,87.8z M224.3,85.8l-1.1-0.2l0,0L224.3,85.8z M224.5,84.6
				l-1.1-0.2l0.1-0.4l0.5,0.1l-0.5-0.1l0.2-1.2l1.1,0.2L224.5,84.6z M224.9,82.5l-1.1-0.2v0L224.9,82.5z M225.1,81.3l-1.1-0.2
				l0.1-0.4l0.5,0.1l-0.5-0.1l0.2-1.2l1.1,0.2L225.1,81.3z M225.5,79.3l-1.1-0.2v0L225.5,79.3z M225.7,78.1l-1.1-0.2l0.1-0.4
				l0.5,0.1l-0.5-0.1l0.2-1.2l1.1,0.2L225.7,78.1z M226.1,76.1l-1.1-0.2v0L226.1,76.1z M226.3,74.9l-1.1-0.2l0.1-0.4l0.5,0.1
				l-0.5-0.1l0.2-1.2l1.1,0.2L226.3,74.9z M226.7,72.9l-1.1-0.2v0L226.7,72.9z M226.9,71.6l-1.1-0.2l0.1-0.4l0.5,0.1l-0.5-0.1
				l0.2-1.2l1.1,0.2L226.9,71.6z M227.3,69.6l-1.1-0.2v0L227.3,69.6z M227.5,68.4l-1.1-0.2l0.1-0.4l1.1,0.2L227.5,68.4z"/>
			
				<rect x="226.5" y="67.3" transform="matrix(0.9835 0.1809 -0.1809 0.9835 15.976 -39.9588)" clip-path="url(#SVGID_3_)" fill="#EFEFEF" width="1.1" height="0.6"/>
		</g>
	</g>
	<rect x="92" y="53" fill="none" width="138.8" height="120"/>
	<rect x="92" y="53" fill="none" width="138.8" height="120"/>
</g>
<g>
	<path opacity="0.6" fill-rule="evenodd" clip-rule="evenodd" fill="#E54059" d="M138.5,138.7c0,0,1.5-2.2,2.6-4.6
		c1.1-2.4,4-4.9,10.1-6.5c10.8-2.9,14.4-2.9,17.7-13.7c3.3-10.8,6.1-12.7,11.7-12.1c0,0,3.3,0.1,4.5,3.4c0,0-0.7-6.6-11-5.1
		c-12.6,2.7-28.4,15.2-32,26C142.2,126.2,136.9,136.2,138.5,138.7z"/>
	<path opacity="0.9" fill-rule="evenodd" clip-rule="evenodd" fill="#E54059" d="M140.5,133.6c-0.2,0.3-0.5,5.7-2.2,5.3
		c-1.7-0.4,0.6-7.7,0.6-7.7s2.5-18.5,12.2-31.2c9.6-12.7,19.3-18.1,23.2-18c3.3-0.2,7.6,1,7.6,4.7c-1-2-3-3-3-3s-4.9-2.3-8.8,1.9
		c-3.9,4.2-4,5.9-4.9,12c-0.8,5.5-0.3,16.8-8.4,22.4C148.7,125.6,144.3,126.1,140.5,133.6z"/>
</g>
</svg>
