<?xml version="1.0" encoding="utf-8"?>
<!-- Generator: Adobe Illustrator 18.0.0, SVG Export Plug-In . SVG Version: 6.00 Build 0)  -->
<!DOCTYPE svg PUBLIC "-//W3C//DTD SVG 1.1//EN" "http://www.w3.org/Graphics/SVG/1.1/DTD/svg11.dtd">
<svg version="1.1" id="Layer_1" xmlns="http://www.w3.org/2000/svg" xmlns:xlink="http://www.w3.org/1999/xlink" x="0px" y="0px"
	 viewBox="0 0 821.9 507.5" enable-background="new 0 0 821.9 507.5" xml:space="preserve">
<path opacity="0.1" fill="#070707" d="M120.9,338.3c-5.7-15.8-17.1-27.9-31.1-34.8l-23.6-65.7l-52.8,18.9
	c-8.8,3.1-8.2,28.8,0.1,63.9C0.6,337-3.9,359.4,3.7,380.4c7.5,21,25.1,35.4,45.4,39.8c16.2,33.1,32.3,53.8,41.2,50.7l52.8-18.9
	l-24-67C125.4,370.8,126.6,354.2,120.9,338.3z"/>
<path opacity="0.1" fill-rule="evenodd" clip-rule="evenodd" fill="#010101" d="M85.5,203.3L85.5,203.3
	c5.1-21.8,17.7-76.1,28.5-117.9c8.6-33.1,13.8-45.1,25.8-53.5c15.5-9.3,36.2-5.2,71.4,2.4c34.2,7.4,192.9,44,192.9,44
	S563,115,597,123.4c35.1,8.6,55.4,14,65.3,29.1c7.2,12.8,6.6,25.9-0.2,59.4c-8.6,42.3-21.1,96.6-26,118.5l0,0c0,0.1,0,0.1,0,0.2
	c0,0.1,0,0.1,0,0.2h0c-5.1,21.8-17.7,76.1-28.5,117.9c-8.6,33.1-13.8,45.1-25.8,53.5c-15.5,9.3-36.2,5.2-71.4-2.4
	c-34.2-7.4-192.9-44-192.9-44s-158.7-36.7-192.7-45c-35.1-8.6-55.4-14-65.3-29.1c-7.2-12.8-6.6-25.9,0.2-59.4
	c8.6-42.3,21.1-96.6,26-118.5h0c0-0.1,0-0.1,0-0.2C85.5,203.4,85.5,203.4,85.5,203.3"/>
<path fill-rule="evenodd" clip-rule="evenodd" fill="#444444" d="M113.9,187.7L113.9,187.7c5.1-21.8,17.7-76.1,28.5-117.9
	c8.6-33.1,13.8-45.1,25.8-53.5c15.5-9.3,36.2-5.2,71.4,2.4c34.2,7.4,192.9,44,192.9,44s158.7,36.7,192.7,45
	c35.1,8.6,55.4,14,65.3,29.1c7.2,12.8,6.6,25.9-0.2,59.4c-8.6,42.3-21.1,96.6-26,118.5v0c0,0.1,0,0.1,0,0.2c0,0.1,0,0.1,0,0.2h0
	c-5.1,21.8-17.7,76.1-28.5,117.9c-8.6,33.1-13.8,45.1-25.8,53.5c-15.5,9.3-36.2,5.2-71.4-2.4c-34.2-7.4-192.9-44-192.9-44
	s-158.7-36.7-192.7-45c-35.1-8.6-55.4-14-65.3-29.1c-7.2-12.8-6.6-25.9,0.2-59.4c8.6-42.3,21.1-96.6,26-118.5h0c0-0.1,0-0.1,0-0.2
	C113.9,187.9,113.9,187.8,113.9,187.7"/>
<path fill="#1A1A1A" d="M426.6,89.1c-2-0.5-3.3-2.5-2.8-4.5c0.5-2,2.5-3.3,4.5-2.8c2,0.5,3.3,2.5,2.8,4.5
	C430.6,88.3,428.6,89.5,426.6,89.1"/>
<path fill="#4E4F4F" d="M425.5,85c0.2-1,1.3-1.7,2.3-1.5c1,0.2,1.7,1.3,1.5,2.3c-0.2,1-1.3,1.7-2.3,1.5
	C425.9,87.1,425.3,86,425.5,85"/>
<rect x="240.2" y="7.9" transform="matrix(-0.2249 0.9744 -0.9744 -0.2249 725.4597 -67.282)" fill="#FFFFFF" width="298.7" height="494"/>
<rect x="106.5" y="56.8" transform="matrix(-0.976 -0.2176 0.2176 -0.976 714.1658 581.5557)" fill="none" width="565.2" height="389.3"/>
<g>
	<defs>
		
			<rect id="SVGID_1_" x="230.4" y="136.2" transform="matrix(-0.976 -0.2176 0.2176 -0.976 709.8582 598.3643)" width="314.9" height="247.9"/>
	</defs>
	<clipPath id="SVGID_2_">
		<use xlink:href="#SVGID_1_"  overflow="visible"/>
	</clipPath>
	<g clip-path="url(#SVGID_2_)">
		<defs>
			
				<rect id="SVGID_3_" x="230.4" y="136.2" transform="matrix(-0.976 -0.2176 0.2176 -0.976 709.8564 598.3641)" width="314.9" height="247.9"/>
		</defs>
		<clipPath id="SVGID_4_">
			<use xlink:href="#SVGID_3_"  overflow="visible"/>
		</clipPath>
		<path clip-path="url(#SVGID_4_)" fill="#164C9C" d="M418.8,315.9c-2.3-0.5-3.7-2.7-3.2-5l10.4-47.4c2.4-11.2,8.2-14.3,14.1-13
			c5.9,1.3,9.8,6.5,7.3,17.7L437,315.6c-0.5,2.3-2.7,3.7-5,3.2L418.8,315.9z"/>
		
			<rect x="417.1" y="317.3" transform="matrix(-0.9768 -0.2141 0.2141 -0.9768 771.2018 723.8164)" clip-path="url(#SVGID_4_)" fill="#EC2A4A" width="15.5" height="5.7"/>
		<path clip-path="url(#SVGID_4_)" fill="#164C9C" d="M422.9,337.5l-3.9-0.8c-2.7-0.6-4.4-3.3-3.8-6l2-9.2l13.7,3l-2,9.2
			C428.3,336.3,425.6,338.1,422.9,337.5"/>
		<path clip-path="url(#SVGID_4_)" fill="#EC2A4A" d="M429.2,324l-1.7,7.9c-0.6,2.7-3.3,4.4-6,3.8l-3.9-0.8
			c-0.7-0.1-1.3-0.4-1.8-0.8c0.7,1.2,1.8,2.1,3.3,2.5l3.9,0.8c2.7,0.6,5.4-1.1,6-3.8l2-9.2L429.2,324z"/>
		
			<line clip-path="url(#SVGID_4_)" fill="none" stroke="#010101" stroke-width="1.698" stroke-linecap="round" stroke-linejoin="round" stroke-miterlimit="10" x1="222.7" y1="284.2" x2="302.3" y2="301.7"/>
		
			<ellipse transform="matrix(-0.2141 0.9768 -0.9768 -0.2141 559.6989 121.5616)" clip-path="url(#SVGID_4_)" fill="none" stroke="#010101" stroke-width="2.069" stroke-linecap="round" stroke-linejoin="round" stroke-miterlimit="10" cx="230.9" cy="285.9" rx="8.8" ry="3"/>
		
			<line clip-path="url(#SVGID_4_)" fill="none" stroke="#010101" stroke-width="3.397" stroke-linecap="round" stroke-linejoin="round" stroke-miterlimit="10" x1="299.6" y1="301" x2="316.4" y2="304.7"/>
		
			<line clip-path="url(#SVGID_4_)" fill="none" stroke="#010101" stroke-width="1.698" stroke-linecap="round" stroke-linejoin="round" stroke-miterlimit="10" x1="336.7" y1="309.2" x2="416.2" y2="326.6"/>
		
			<ellipse transform="matrix(-0.2142 0.9768 -0.9768 -0.2142 722.5 40.5814)" clip-path="url(#SVGID_4_)" fill="none" stroke="#010101" stroke-width="2.069" stroke-linecap="round" stroke-linejoin="round" stroke-miterlimit="10" cx="344.9" cy="310.9" rx="8.8" ry="3"/>
		
			<line clip-path="url(#SVGID_4_)" fill="none" stroke="#010101" stroke-width="3.397" stroke-linecap="round" stroke-linejoin="round" stroke-miterlimit="10" x1="413.6" y1="326" x2="430.4" y2="329.6"/>
		
			<rect x="344.4" y="309.2" transform="matrix(-0.2142 0.9768 -0.9768 -0.2142 769.3619 16.9772)" clip-path="url(#SVGID_4_)" fill="#EC2A4A" width="66.9" height="17.6"/>
		
			<rect x="317.5" y="303.3" transform="matrix(-0.2142 0.9768 -0.9768 -0.2142 730.9508 36.0883)" clip-path="url(#SVGID_4_)" fill="#EC2A4A" width="66.9" height="17.6"/>
		
			<rect x="342.6" y="237.3" transform="matrix(0.9768 0.2142 -0.2142 0.9768 63.4346 -74.774)" clip-path="url(#SVGID_4_)" fill="#FDC480" width="68.4" height="36.1"/>
		<polygon clip-path="url(#SVGID_4_)" fill="#DDDDDC" points="388.2,239.4 383.2,241.2 378.7,246.7 374.7,265 393.4,269.1 
			399.4,241.8 		"/>
		<polygon clip-path="url(#SVGID_4_)" fill="#DDDDDC" points="373.1,236.1 362,233.6 356,260.9 374.7,265 378.7,246.7 377,239.8 		
			"/>
		<polygon clip-path="url(#SVGID_4_)" fill="#A5A5A8" points="377.8,251.5 377.5,251.5 378.6,246.2 378.8,246.4 379,246.3 		"/>
		<path clip-path="url(#SVGID_4_)" fill="#7F7F7F" d="M381.1,247.1c0.3,0.1,0.5,0.3,0.4,0.5c0,0.2-0.3,0.3-0.6,0.3
			c-0.3-0.1-0.5-0.3-0.4-0.5C380.6,247.2,380.8,247,381.1,247.1"/>
		<path clip-path="url(#SVGID_4_)" fill="#7F7F7F" d="M380.6,249.2c0.3,0.1,0.5,0.3,0.4,0.5c0,0.2-0.3,0.3-0.6,0.3
			c-0.3-0.1-0.5-0.3-0.4-0.5C380.1,249.3,380.3,249.2,380.6,249.2"/>
		<path clip-path="url(#SVGID_4_)" fill="#164C9C" d="M392.3,240.3l-14.6,11.2l-8.2-16.2l-29.6-6.5c0,0-13.4,61-14,64
			c-0.6,2.9,1.8,5.8,4.2,6.3c2.4,0.5,71.4,15.6,74,16.2c2.7,0.6,5.2-1.1,5.9-4.3c0.7-3.2,14-63.8,14-63.8L392.3,240.3z"/>
		<path clip-path="url(#SVGID_4_)" fill="#989899" d="M392.1,240.4l-13.3,10.2l-0.2,0.1c0,0,0,0,0,0l-1,0.8l-0.5-1
			c0,0-0.1-0.1-0.1-0.2l-7.1-14.1l0-0.1c-0.2-0.3-0.5-0.7-0.9-1l-3.7-0.8c-0.2,0.3-0.3,0.6-0.1,1l10.7,20.3c0.3,0.6,1.1,0.8,1.6,0.4
			l18.3-14c0.3-0.2,0.4-0.6,0.3-0.9l-3.8-0.8C392.3,240.3,392.2,240.4,392.1,240.4"/>
		<g opacity="0.5" clip-path="url(#SVGID_4_)" enable-background="new    ">
			<g>
				<defs>
					
						<rect id="SVGID_5_" x="366.7" y="238.5" transform="matrix(-0.9761 -0.2175 0.2175 -0.9761 682.1276 558.3942)" width="10.2" height="6.3"/>
				</defs>
				<clipPath id="SVGID_6_">
					<use xlink:href="#SVGID_5_"  overflow="visible"/>
				</clipPath>
				<polygon clip-path="url(#SVGID_6_)" fill="#6B6C6C" points="377.2,240.7 366.5,243.7 366.5,242.1 376.6,239.5 377,239.8 				"/>
			</g>
		</g>
		<polygon clip-path="url(#SVGID_4_)" fill="#D1D2D2" points="377,239.8 366,243.1 365,233.6 373.3,235.4 		"/>
		<g opacity="0.5" clip-path="url(#SVGID_4_)" enable-background="new    ">
			<g>
				<defs>
					
						<rect id="SVGID_7_" x="382" y="241.7" transform="matrix(-0.976 -0.2176 0.2176 -0.976 711.8814 568.2902)" width="10.4" height="6.4"/>
				</defs>
				<clipPath id="SVGID_8_">
					<use xlink:href="#SVGID_7_"  overflow="visible"/>
				</clipPath>
				<polygon clip-path="url(#SVGID_8_)" fill="#6B6C6C" points="382.6,241.9 391,249.1 391.9,247.6 384.1,241 383.2,241.2 				"/>
			</g>
		</g>
		<polygon clip-path="url(#SVGID_4_)" fill="#D1D2D2" points="383.2,241.2 391.7,248.8 396.9,240.6 388.4,238.7 		"/>
		<path clip-path="url(#SVGID_4_)" fill="#454546" d="M379.8,254.7c0,0-2.9,17.5,7.8,26.6c10.4-2.1,13.5-7,13.5-7s-8.6-7.4-6.4-23
			C381.3,254.5,379.8,254.7,379.8,254.7"/>
		<path clip-path="url(#SVGID_4_)" fill="#7A7A7A" d="M383.8,277c-6.2-9.4-4-22.3-4-22.3s1.5-0.2,14.9-3.3
			c-1.4,9.5,1.3,15.9,3.6,19.5C396.1,272.8,391.6,275.6,383.8,277"/>
		<path clip-path="url(#SVGID_4_)" fill="#353635" d="M394.4,258.3c0,0-8.3,3.5-14.9,2.1c0-2.6,0.1-2.8,0.1-2.8l14.8-2.5
			L394.4,258.3z"/>
		<path clip-path="url(#SVGID_4_)" fill="#454546" d="M381.3,271.8c-0.7-1.9-1.1-3.7-1.4-5.5c2.7-0.2,7.3-1.1,14.9-4.6
			c0.3,1.7,0.8,3.3,1.3,4.7C393.9,267.9,388.8,270.8,381.3,271.8"/>
		<path clip-path="url(#SVGID_4_)" fill="#454546" d="M402.2,276.1c0.1,0,0.3,0,0.4-0.1c0.1-0.2,0.1-0.4-0.1-0.6l-1.5-1.2
			c-0.2-0.1-0.4-0.1-0.6,0c-0.1,0.2-0.1,0.4,0,0.6l1.5,1.2C402,276.1,402.1,276.1,402.2,276.1"/>
		<path clip-path="url(#SVGID_4_)" fill="#454546" d="M401.4,277.1c0.1,0,0.3,0,0.4-0.1c0.1-0.2,0.1-0.4-0.1-0.6l-1.5-1.2
			c-0.2-0.1-0.4-0.1-0.6,0c-0.1,0.2-0.1,0.4,0.1,0.6l1.5,1.2C401.3,277.1,401.3,277.1,401.4,277.1"/>
		<path clip-path="url(#SVGID_4_)" fill="#454546" d="M400.3,277.9c0.1,0,0.3,0,0.4-0.1c0.1-0.2,0.1-0.4-0.1-0.6l-1.5-1.2
			c-0.2-0.1-0.4-0.1-0.6,0.1c-0.1,0.2-0.1,0.4,0.1,0.6l1.5,1.2C400.2,277.9,400.3,277.9,400.3,277.9"/>
		<path clip-path="url(#SVGID_4_)" fill="#454546" d="M399.2,278.8c0.1,0,0.3,0,0.4-0.1c0.1-0.2,0.1-0.4,0-0.6l-1.5-1.2
			c-0.2-0.1-0.4-0.1-0.6,0c-0.1,0.2-0.1,0.4,0,0.6l1.5,1.2C399.1,278.7,399.2,278.8,399.2,278.8"/>
		<path clip-path="url(#SVGID_4_)" fill="#454546" d="M398.2,279.6c0.1,0,0.3,0,0.4-0.1c0.1-0.2,0.1-0.4-0.1-0.6l-1.5-1.2
			c-0.2-0.1-0.4-0.1-0.6,0c-0.1,0.2-0.1,0.4,0,0.6l1.5,1.2C398.1,279.6,398.1,279.6,398.2,279.6"/>
		<path clip-path="url(#SVGID_4_)" fill="#454546" d="M396.6,280.5c0.1,0,0.3,0,0.4-0.1c0.2-0.2,0.2-0.4,0-0.6l-1.3-1.4
			c-0.2-0.2-0.4-0.2-0.6,0c-0.2,0.2-0.2,0.4,0,0.6l1.3,1.4C396.4,280.5,396.5,280.5,396.6,280.5"/>
		<path clip-path="url(#SVGID_4_)" fill="#454546" d="M395,281.3c0.1,0,0.2,0,0.3-0.1c0.2-0.1,0.2-0.4,0.1-0.6l-1.2-1.5
			c-0.1-0.2-0.4-0.2-0.6-0.1c-0.2,0.1-0.2,0.4-0.1,0.6l1.2,1.5C394.8,281.2,394.9,281.3,395,281.3"/>
		<path clip-path="url(#SVGID_4_)" fill="#454546" d="M393.5,282c0.1,0,0.2,0,0.3-0.1c0.2-0.1,0.2-0.4,0.1-0.5l-1.1-1.6
			c-0.1-0.2-0.4-0.2-0.5-0.1c-0.2,0.1-0.2,0.4-0.1,0.5l1.1,1.6C393.3,281.9,393.4,281.9,393.5,282"/>
		<path clip-path="url(#SVGID_4_)" fill="#454546" d="M392,282.3c0.1,0,0.2,0,0.3-0.1c0.2-0.1,0.2-0.4,0.1-0.5l-1.1-1.6
			c-0.1-0.2-0.4-0.2-0.6-0.1c-0.2,0.1-0.2,0.4-0.1,0.5l1.1,1.6C391.8,282.2,391.9,282.3,392,282.3"/>
		<path clip-path="url(#SVGID_4_)" fill="#454546" d="M390.7,282.8c0.1,0,0.2,0,0.3-0.1c0.2-0.1,0.2-0.4,0.1-0.5l-1.1-1.6
			c-0.1-0.2-0.4-0.2-0.5-0.1c-0.2,0.1-0.2,0.4-0.1,0.5l1.1,1.6C390.5,282.7,390.6,282.8,390.7,282.8"/>
		<path clip-path="url(#SVGID_4_)" fill="#454546" d="M389.2,283.2c0.1,0,0.2,0,0.3-0.1c0.2-0.1,0.2-0.4,0.1-0.5l-1.2-1.6
			c-0.1-0.2-0.4-0.2-0.6-0.1c-0.2,0.1-0.2,0.4-0.1,0.6l1.2,1.6C389,283.1,389.1,283.2,389.2,283.2"/>
		<path clip-path="url(#SVGID_4_)" fill="#454546" d="M373.9,253.3c0,0-4.7,17.1-18.2,20.9c-8.6-6.2-9.3-12-9.3-12
			s10.9-3.1,15.4-18.2C372.6,252.6,373.9,253.3,373.9,253.3"/>
		<path clip-path="url(#SVGID_4_)" fill="#7A7A7A" d="M360.9,271.9c9.5-6,13-18.6,13-18.6s-1.3-0.8-12.2-9.3
			c-2.7,9.2-7.8,13.9-11.4,16.3C351.6,263,354.5,267.5,360.9,271.9"/>
		<path clip-path="url(#SVGID_4_)" fill="#353635" d="M359.1,250.5c0,0,6.1,6.6,12.7,8.1c1.1-2.4,1.1-2.6,1.1-2.6l-12.4-8.5
			L359.1,250.5z"/>
		<path clip-path="url(#SVGID_4_)" fill="#454546" d="M365.3,268.3c1.4-1.4,2.6-2.9,3.6-4.5c-2.4-1.3-6.2-4.1-11.6-10.4
			c-1,1.4-2.1,2.7-3.1,3.7C355.5,259.5,359,264.2,365.3,268.3"/>
		<path clip-path="url(#SVGID_4_)" fill="#454546" d="M344.6,263.5c-0.1,0-0.3-0.1-0.3-0.3c-0.1-0.2,0.1-0.4,0.3-0.5l1.9-0.5
			c0.2-0.1,0.4,0.1,0.5,0.3c0.1,0.2-0.1,0.4-0.3,0.5l-1.9,0.5C344.7,263.5,344.7,263.5,344.6,263.5"/>
		<path clip-path="url(#SVGID_4_)" fill="#454546" d="M344.9,264.7c-0.1,0-0.3-0.1-0.3-0.3c-0.1-0.2,0.1-0.4,0.3-0.5l1.9-0.5
			c0.2-0.1,0.4,0.1,0.5,0.3c0.1,0.2-0.1,0.4-0.3,0.5l-1.9,0.5C345,264.7,345,264.7,344.9,264.7"/>
		<path clip-path="url(#SVGID_4_)" fill="#454546" d="M345.5,265.9c-0.1,0-0.3-0.1-0.3-0.3c-0.1-0.2,0.1-0.4,0.3-0.5l1.9-0.5
			c0.2-0.1,0.4,0.1,0.5,0.3c0.1,0.2-0.1,0.4-0.3,0.5l-1.9,0.5C345.7,265.9,345.6,265.9,345.5,265.9"/>
		<path clip-path="url(#SVGID_4_)" fill="#454546" d="M346.1,267.1c-0.1,0-0.3-0.1-0.3-0.3c-0.1-0.2,0.1-0.4,0.3-0.5l1.9-0.5
			c0.2-0.1,0.4,0.1,0.5,0.3c0.1,0.2-0.1,0.4-0.3,0.5l-1.9,0.5C346.3,267.2,346.2,267.2,346.1,267.1"/>
		<path clip-path="url(#SVGID_4_)" fill="#454546" d="M346.8,268.4c-0.1,0-0.3-0.1-0.3-0.3c-0.1-0.2,0.1-0.4,0.3-0.5l1.9-0.5
			c0.2-0.1,0.4,0.1,0.5,0.3c0.1,0.2-0.1,0.4-0.3,0.5l-1.9,0.5C346.9,268.4,346.8,268.4,346.8,268.4"/>
		<path clip-path="url(#SVGID_4_)" fill="#454546" d="M347.9,269.9c-0.1,0-0.2-0.1-0.3-0.2c-0.1-0.2,0-0.4,0.2-0.5l1.8-0.7
			c0.2-0.1,0.4,0,0.5,0.2c0.1,0.2,0,0.4-0.2,0.5l-1.8,0.7C348,269.9,347.9,269.9,347.9,269.9"/>
		<path clip-path="url(#SVGID_4_)" fill="#454546" d="M349,271.2c-0.1,0-0.2-0.1-0.3-0.2c-0.1-0.2,0-0.4,0.2-0.5l1.7-0.9
			c0.2-0.1,0.4,0,0.5,0.2c0.1,0.2,0,0.4-0.2,0.5l-1.7,0.9C349.2,271.2,349.1,271.2,349,271.2"/>
		<path clip-path="url(#SVGID_4_)" fill="#454546" d="M350,272.4c-0.1,0-0.2-0.1-0.3-0.2c-0.1-0.2-0.1-0.4,0.1-0.5l1.7-1
			c0.2-0.1,0.4-0.1,0.5,0.1c0.1,0.2,0.1,0.4-0.1,0.5l-1.7,1C350.2,272.4,350.1,272.5,350,272.4"/>
		<path clip-path="url(#SVGID_4_)" fill="#454546" d="M351.2,273.3c-0.1,0-0.2-0.1-0.3-0.2c-0.1-0.2-0.1-0.4,0.1-0.5l1.7-1
			c0.2-0.1,0.4-0.1,0.5,0.1c0.1,0.2,0.1,0.4-0.1,0.5l-1.7,1C351.4,273.4,351.3,273.4,351.2,273.3"/>
		<path clip-path="url(#SVGID_4_)" fill="#454546" d="M352.3,274.4c-0.1,0-0.2-0.1-0.3-0.2c-0.1-0.2-0.1-0.4,0.1-0.5l1.7-1
			c0.2-0.1,0.4-0.1,0.5,0.1c0.1,0.2,0.1,0.4-0.1,0.5l-1.7,1C352.5,274.4,352.4,274.4,352.3,274.4"/>
		<path clip-path="url(#SVGID_4_)" fill="#454546" d="M353.4,275.3c-0.1,0-0.2-0.1-0.3-0.2c-0.1-0.2,0-0.4,0.2-0.5l1.7-0.9
			c0.2-0.1,0.4,0,0.5,0.2c0.1,0.2,0,0.4-0.2,0.5l-1.7,0.9C353.6,275.4,353.5,275.4,353.4,275.3"/>
		<path clip-path="url(#SVGID_4_)" fill="#5E5F5F" d="M387.4,238.5c0.2,0.6,0.2,1.3,0.1,2c-0.6,2.9-4.4,4.5-8.5,3.6
			c-4.1-0.9-6.8-4-6.2-6.8c0.1-0.6,0.5-1.2,0.9-1.7l-18.4-4c-0.2,0.6-0.4,1.2-0.5,1.8c-2.2,10,7.4,20.6,21.5,23.7
			c14,3.1,27.2-2.5,29.4-12.6c0.1-0.6,0.2-1.2,0.3-1.9L387.4,238.5z"/>
		<path clip-path="url(#SVGID_4_)" fill="#454546" d="M362.6,250.7l12-8.9c-1.3-1.2-1.9-2.7-1.8-4.2l-18.1,1.2
			C355.5,243.2,358.4,247.4,362.6,250.7"/>
		<path clip-path="url(#SVGID_4_)" fill="#454546" d="M391.6,256.9c5.1-1.3,9.3-3.9,11.8-7.5l-16-8.6c-0.4,1.4-1.5,2.4-3,3
			L391.6,256.9z"/>
		<path clip-path="url(#SVGID_4_)" fill="#454546" d="M376.2,257c2,0.4,4,0.7,6,0.8l-0.9-13.4c-0.7,0-1.5-0.1-2.3-0.2
			c-0.6-0.1-1.3-0.3-1.8-0.6l-6.7,11.7C372.3,256,374.2,256.5,376.2,257"/>
		<path clip-path="url(#SVGID_4_)" fill="#FDC480" d="M302.1,302.8c-0.9,3.9,1.3,7.5,4.8,8.3c3.5,0.8,6.9-1.6,7.8-5.6l15.2-69.4
			c0.9-3.9-1.2-7.7-4.7-8.5c-3.5-0.8-7,1.8-7.8,5.8L302.1,302.8z"/>
		<path clip-path="url(#SVGID_4_)" fill="#FDC480" d="M429.1,182.7l-3.9-2.9c-8.4-5.9-18.2-10.3-29-12.7
			c-10.8-2.4-21.6-2.5-31.7-0.6l-4.8,1c-23.8,5.9-43.3,22.7-50.3,45.8l146.2,32.1C458.9,221.5,448.2,198,429.1,182.7"/>
		<path clip-path="url(#SVGID_4_)" fill="#FDC480" d="M429.1,182.7l18.1-17.8c1.1-1.1,1.2-2.7,0.3-3.7c-0.9-1-2.5-0.9-3.5,0.1
			l-18.8,18.5"/>
		<path clip-path="url(#SVGID_4_)" fill="#FDC480" d="M364.5,166.5l-9.3-24.7c-0.5-1.4-2-2.1-3.2-1.6c-1.2,0.5-1.8,2.1-1.2,3.5
			l8.9,23.8"/>
		<path clip-path="url(#SVGID_4_)" fill="#FFFFFF" d="M358.4,202c-3.5-0.8-5.6-4.4-4.8-8.1c0.8-3.7,4.3-6.1,7.8-5.4
			c3.5,0.8,5.6,4.4,4.8,8.1C365.3,200.4,361.9,202.8,358.4,202"/>
		<path clip-path="url(#SVGID_4_)" fill="#FFFFFF" d="M417.1,213.4c-3.6-0.8-5.8-4.5-4.9-8.4c0.8-3.8,4.4-6.3,8-5.5
			c3.6,0.8,5.8,4.5,4.9,8.4C424.3,211.7,420.7,214.2,417.1,213.4"/>
		<path clip-path="url(#SVGID_4_)" fill="#164C9C" d="M401.3,136.1c-31.6-6.9-62.1,9.7-68.1,37.1l114.4,25.1
			C453.6,170.9,432.9,143,401.3,136.1"/>
		<path clip-path="url(#SVGID_4_)" fill="#EC2A4A" d="M444.6,199.5L336,175.7c-3.5-0.8-5.8-4.3-5-7.8l1.6-7.2c0.8-3.5,4.3-5.8,7.8-5
			l108.6,23.8c3.5,0.8,5.8,4.3,5,7.8l-1.6,7.2C451.6,198,448.1,200.2,444.6,199.5"/>
		<g opacity="0.2" clip-path="url(#SVGID_4_)" enable-background="new    ">
			<g>
				<defs>
					
						<rect id="SVGID_9_" x="333.3" y="185.4" transform="matrix(-0.976 -0.2176 0.2176 -0.976 723.4204 485.5176)" width="110.3" height="35.1"/>
				</defs>
				<clipPath id="SVGID_10_">
					<use xlink:href="#SVGID_9_"  overflow="visible"/>
				</clipPath>
				<path clip-path="url(#SVGID_10_)" fill="#41C4DA" d="M424.2,228.4l-32.9-12.7c-3.5-1.3-7.1-2.1-10.8-2.4l-35.1-2.3
					c-7.9-0.5-13.4-7.9-11.7-15.6l1.9-8.8c1.5-6.9,8.4-11.3,15.3-9.8l82.6,18.1c6.9,1.5,11.3,8.4,9.8,15.3l-1.9,8.8
					C439.7,226.9,431.5,231.2,424.2,228.4"/>
			</g>
		</g>
		<g clip-path="url(#SVGID_4_)" enable-background="new    ">
			<g>
				<defs>
					
						<rect id="SVGID_11_" x="329.8" y="181.9" transform="matrix(-0.976 -0.2176 0.2176 -0.976 723.4163 485.5211)" width="117.3" height="42.1"/>
				</defs>
				<clipPath id="SVGID_12_">
					<use xlink:href="#SVGID_11_"  overflow="visible"/>
				</clipPath>
				<path clip-path="url(#SVGID_12_)" fill="none" stroke="#010101" stroke-width="3.936" stroke-miterlimit="10" d="M424.2,228.4
					l-32.9-12.7c-3.5-1.3-7.1-2.1-10.8-2.4l-35.1-2.3c-7.9-0.5-13.4-7.9-11.7-15.6l1.9-8.8c1.5-6.9,8.4-11.3,15.3-9.8l82.6,18.1
					c6.9,1.5,11.3,8.4,9.8,15.3l-1.9,8.8C439.7,226.9,431.5,231.2,424.2,228.4z"/>
			</g>
		</g>
		
			<rect x="317.7" y="179.5" transform="matrix(-0.9768 -0.2142 0.2142 -0.9768 604.1444 445.0942)" clip-path="url(#SVGID_4_)" fill="#020202" width="16.9" height="20.6"/>
		
			<rect x="442.1" y="206.8" transform="matrix(-0.9768 -0.2142 0.2142 -0.9768 844.2048 525.6155)" clip-path="url(#SVGID_4_)" fill="#020202" width="16.9" height="20.6"/>
		<path clip-path="url(#SVGID_4_)" fill="#164C9C" d="M304.4,290.8c-2.3-0.5-3.7-2.7-3.2-5l10.4-47.4c2.4-11.2,8.2-14.3,14.1-13
			c5.9,1.3,9.8,6.5,7.3,17.7l-10.4,47.4c-0.5,2.3-2.7,3.7-5,3.2L304.4,290.8z"/>
		
			<rect x="302.7" y="292.2" transform="matrix(-0.9768 -0.2141 0.2141 -0.9768 550.4268 649.7541)" clip-path="url(#SVGID_4_)" fill="#EC2A4A" width="15.5" height="5.7"/>
		<path clip-path="url(#SVGID_4_)" fill="#164C9C" d="M308.5,312.4l-3.9-0.8c-2.7-0.6-4.4-3.3-3.8-6l2-9.2l13.7,3l-2,9.2
			C313.9,311.3,311.2,313,308.5,312.4"/>
		<path clip-path="url(#SVGID_4_)" fill="#EC2A4A" d="M314.8,299l-1.7,7.9c-0.6,2.7-3.3,4.4-6,3.8l-3.9-0.8
			c-0.7-0.1-1.3-0.4-1.8-0.8c0.7,1.2,1.8,2.1,3.3,2.5l3.9,0.8c2.7,0.6,5.4-1.1,6-3.8l2-9.2L314.8,299z"/>
		<path clip-path="url(#SVGID_4_)" fill="#164C9C" d="M391.6,381c1.2-5.4-2.2-10.8-7.7-12l-27.5-6l-2.2,10l37.3,8.2L391.6,381z"/>
		<polygon clip-path="url(#SVGID_4_)" fill="#EC2A4A" points="364.2,379.8 364.8,377.6 376.9,382.6 390.6,385.6 391.3,382 
			354.1,373.9 353.3,377.4 		"/>
		<path clip-path="url(#SVGID_4_)" fill="#164C9C" d="M377.7,371.6l-22.1-4.8l6.4-29.4c0.3-1.2,1.5-2,2.7-1.7l17.6,3.9
			c1.2,0.3,2,1.5,1.7,2.7L377.7,371.6z"/>
		<path clip-path="url(#SVGID_4_)" fill="#EC2A4A" d="M376,346.6l-6.8-1.5c-1.2-0.3-2-1.5-1.7-2.7l0,0c0.3-1.2,1.5-2,2.7-1.7
			l6.8,1.5c1.2,0.3,2,1.5,1.7,2.7l0,0C378.4,346.1,377.2,346.8,376,346.6"/>
		<path clip-path="url(#SVGID_4_)" fill="#EC2A4A" d="M374.3,354.2l-6.8-1.5c-1.2-0.3-2-1.5-1.7-2.7l0,0c0.3-1.2,1.5-2,2.7-1.7
			l6.8,1.5c1.2,0.3,2,1.5,1.7,2.7l0,0C376.8,353.7,375.6,354.5,374.3,354.2"/>
		<path clip-path="url(#SVGID_4_)" fill="#EC2A4A" d="M384.1,368.6l-1.6,7.1c-0.2,1.1-1.4,1.8-2.5,1.6l-0.4-0.1
			c-1.1-0.2-1.8-1.4-1.6-2.5l1.6-7.1c0.2-1.1,1.4-1.8,2.5-1.6l0.4,0.1C383.6,366.4,384.3,367.5,384.1,368.6"/>
		
			<line clip-path="url(#SVGID_4_)" fill="none" stroke="#EC2A4A" stroke-width="0.59" stroke-miterlimit="10" x1="374.4" y1="337.7" x2="367.6" y2="368.7"/>
		<path clip-path="url(#SVGID_4_)" fill="#164C9C" d="M371.9,369.6c-0.5,2.4-2.8,3.8-5.2,3.3c-2.4-0.5-3.8-2.8-3.3-5.2
			c0.5-2.4,2.8-3.8,5.2-3.3C370.9,365,372.4,367.3,371.9,369.6"/>
		<path clip-path="url(#SVGID_4_)" fill="none" stroke="#EC2A4A" stroke-width="0.984" stroke-miterlimit="10" d="M371.9,369.6
			c-0.5,2.4-2.8,3.8-5.2,3.3c-2.4-0.5-3.8-2.8-3.3-5.2c0.5-2.4,2.8-3.8,5.2-3.3C370.9,365,372.4,367.3,371.9,369.6z"/>
		
			<rect x="353.7" y="377.1" transform="matrix(-0.9768 -0.2142 0.2142 -0.9768 656.0759 826.1631)" clip-path="url(#SVGID_4_)" fill="#FFFFFF" width="38.2" height="0.9"/>
		<path clip-path="url(#SVGID_4_)" fill="#164C9C" d="M391.6,381c1.2-5.4-2.2-10.8-7.7-12l-27.5-6l-2.2,10l37.3,8.2L391.6,381z"/>
		<polygon clip-path="url(#SVGID_4_)" fill="#EC2A4A" points="364.2,379.8 364.8,377.6 376.9,382.6 390.6,385.6 391.3,382 
			354.1,373.9 353.3,377.4 		"/>
		<path clip-path="url(#SVGID_4_)" fill="#164C9C" d="M377.7,371.6l-22.1-4.8l6.4-29.4c0.3-1.2,1.5-2,2.7-1.7l17.6,3.9
			c1.2,0.3,2,1.5,1.7,2.7L377.7,371.6z"/>
		<path clip-path="url(#SVGID_4_)" fill="#EC2A4A" d="M376,346.6l-6.8-1.5c-1.2-0.3-2-1.5-1.7-2.7l0,0c0.3-1.2,1.5-2,2.7-1.7
			l6.8,1.5c1.2,0.3,2,1.5,1.7,2.7l0,0C378.4,346.1,377.2,346.8,376,346.6"/>
		<path clip-path="url(#SVGID_4_)" fill="#EC2A4A" d="M374.3,354.2l-6.8-1.5c-1.2-0.3-2-1.5-1.7-2.7l0,0c0.3-1.2,1.5-2,2.7-1.7
			l6.8,1.5c1.2,0.3,2,1.5,1.7,2.7l0,0C376.8,353.7,375.6,354.5,374.3,354.2"/>
		<path clip-path="url(#SVGID_4_)" fill="#EC2A4A" d="M384.1,368.6l-1.6,7.1c-0.2,1.1-1.4,1.8-2.5,1.6l-0.4-0.1
			c-1.1-0.2-1.8-1.4-1.6-2.5l1.6-7.1c0.2-1.1,1.4-1.8,2.5-1.6l0.4,0.1C383.6,366.4,384.3,367.5,384.1,368.6"/>
		
			<line clip-path="url(#SVGID_4_)" fill="none" stroke="#EC2A4A" stroke-width="0.59" stroke-miterlimit="10" x1="374.4" y1="337.7" x2="367.6" y2="368.7"/>
		<path clip-path="url(#SVGID_4_)" fill="#164C9C" d="M371.9,369.6c-0.5,2.4-2.8,3.8-5.2,3.3c-2.4-0.5-3.8-2.8-3.3-5.2
			c0.5-2.4,2.8-3.8,5.2-3.3C370.9,365,372.4,367.3,371.9,369.6"/>
		<path clip-path="url(#SVGID_4_)" fill="none" stroke="#EC2A4A" stroke-width="0.984" stroke-miterlimit="10" d="M371.9,369.6
			c-0.5,2.4-2.8,3.8-5.2,3.3c-2.4-0.5-3.8-2.8-3.3-5.2c0.5-2.4,2.8-3.8,5.2-3.3C370.9,365,372.4,367.3,371.9,369.6z"/>
		
			<rect x="353.7" y="377.1" transform="matrix(-0.9768 -0.2142 0.2142 -0.9768 656.0759 826.1631)" clip-path="url(#SVGID_4_)" fill="#FFFFFF" width="38.2" height="0.9"/>
		<path clip-path="url(#SVGID_4_)" fill="#164C9C" d="M363.9,374.9c1.2-5.4-2.2-10.8-7.7-12l-27.5-6l-2.2,10l37.3,8.2L363.9,374.9z"
			/>
		<polygon clip-path="url(#SVGID_4_)" fill="#EC2A4A" points="336.6,373.7 337.1,371.5 349.3,376.5 362.9,379.5 363.7,376 
			326.4,367.8 325.7,371.3 		"/>
		<path clip-path="url(#SVGID_4_)" fill="#164C9C" d="M350.1,365.5l-22.1-4.8l6.5-29.4c0.3-1.2,1.5-2,2.7-1.7l17.6,3.9
			c1.2,0.3,2,1.5,1.7,2.7L350.1,365.5z"/>
		<path clip-path="url(#SVGID_4_)" fill="#EC2A4A" d="M348.4,340.5l-6.8-1.5c-1.2-0.3-2-1.5-1.7-2.7l0,0c0.3-1.2,1.5-2,2.7-1.7
			l6.8,1.5c1.2,0.3,2,1.5,1.7,2.7l0,0C350.8,340,349.6,340.8,348.4,340.5"/>
		<path clip-path="url(#SVGID_4_)" fill="#EC2A4A" d="M346.7,348.2l-6.8-1.5c-1.2-0.3-2-1.5-1.7-2.7l0,0c0.3-1.2,1.5-2,2.7-1.7
			l6.8,1.5c1.2,0.3,2,1.5,1.7,2.7l0,0C349.1,347.7,347.9,348.5,346.7,348.2"/>
		<path clip-path="url(#SVGID_4_)" fill="#EC2A4A" d="M356.4,362.5l-1.6,7.1c-0.2,1.1-1.4,1.8-2.5,1.6l-0.4-0.1
			c-1.1-0.2-1.8-1.4-1.6-2.5l1.6-7.1c0.2-1.1,1.4-1.8,2.5-1.6l0.4,0.1C355.9,360.3,356.7,361.4,356.4,362.5"/>
		
			<line clip-path="url(#SVGID_4_)" fill="none" stroke="#EC2A4A" stroke-width="0.59" stroke-miterlimit="10" x1="346.8" y1="331.6" x2="340" y2="362.7"/>
		<path clip-path="url(#SVGID_4_)" fill="#164C9C" d="M344.2,363.6c-0.5,2.4-2.8,3.8-5.2,3.3c-2.4-0.5-3.8-2.8-3.3-5.2
			c0.5-2.4,2.8-3.8,5.2-3.3C343.3,358.9,344.8,361.2,344.2,363.6"/>
		
			<circle clip-path="url(#SVGID_4_)" fill="none" stroke="#EC2A4A" stroke-width="0.984" stroke-miterlimit="10" cx="340" cy="362.7" r="4.4"/>
		
			<rect x="326.1" y="371" transform="matrix(-0.9768 -0.2141 0.2141 -0.9768 602.7617 808.2416)" clip-path="url(#SVGID_4_)" fill="#FFFFFF" width="38.2" height="0.9"/>
		
			<path clip-path="url(#SVGID_4_)" fill="none" stroke="#010101" stroke-width="1.698" stroke-linecap="round" stroke-linejoin="round" stroke-miterlimit="10" d="
			M234.6,351.4l264.3,58c0,0,14.7,3.5,17.1-7.4"/>
	</g>
</g>
<path opacity="0.1" fill-rule="evenodd" clip-rule="evenodd" fill="#010101" d="M592.1,98.8l48.6,303.3c0.1,0.8,1,3.3,1.2,3.8
	c0.6,1.4,1.5,2.8,2.7,4c2.6,2.5,6.4,4.1,11.6,4.3c11.2,0.4,51.8-3.9,70.4-6.9c0.6-0.1,0.6-0.1,1.3-0.2c19-3.1,59.8-11.8,70.5-15.7
	c5-1.8,8.2-4.5,9.9-7.7c0.8-1.6,1.2-3.1,1.4-4.7c0-0.6,0.1-3.3-0.1-4L760.8,71.8c-0.1-0.8-0.4-2.2-0.5-2.5c-0.1-0.5-0.3-1-0.5-1.5
	c-0.6-1.4-1.5-2.8-2.7-4c-2.6-2.5-6.4-4.1-11.6-4.3c-11.2-0.4-51.8,3.9-70.4,6.9c-0.6,0.1-0.6,0.1-1.3,0.2
	c-19,3.1-59.7,11.8-70.5,15.7c-5,1.8-8.2,4.5-9.9,7.7c-0.8,1.6-1.2,3.1-1.3,4.7C592.1,95.3,592.1,98.8,592.1,98.8"/>
<path fill-rule="evenodd" clip-rule="evenodd" fill="#444444" d="M604.4,82.5L653,385.8c0.1,0.8,1,3.3,1.2,3.8
	c0.6,1.4,1.5,2.8,2.7,4c2.6,2.5,6.4,4.1,11.6,4.3c11.2,0.4,51.8-3.9,70.4-6.9c0.6-0.1,0.6-0.1,1.3-0.2c19-3.1,59.7-11.8,70.5-15.7
	c5-1.8,8.2-4.5,9.9-7.7c0.8-1.6,1.2-3.1,1.4-4.7c0-0.6,0.1-3.3-0.1-4L773.1,55.5c-0.1-0.8-0.4-2.2-0.5-2.5c-0.1-0.5-0.3-1-0.5-1.5
	c-0.6-1.4-1.5-2.8-2.7-4c-2.6-2.5-6.4-4.1-11.6-4.3c-11.2-0.4-51.8,3.9-70.4,6.9c-0.6,0.1-0.6,0.1-1.3,0.2
	c-19,3.1-59.8,11.8-70.5,15.7c-5,1.8-8.2,4.5-9.9,7.7c-0.8,1.6-1.2,3.1-1.3,4.7C604.4,79,604.4,82.5,604.4,82.5"/>
<path fill-rule="evenodd" clip-rule="evenodd" fill="#010101" d="M689.6,74.7c2.3-0.4,3.8-2.5,3.4-4.8c-0.4-2.3-2.5-3.8-4.8-3.4
	c-2.3,0.4-3.8,2.5-3.4,4.7C685.2,73.5,687.4,75.1,689.6,74.7"/>
<path fill-rule="evenodd" clip-rule="evenodd" fill="#5A5A5D" d="M688.7,69.1c0.1,0,0.2-0.1,0.2-0.2c0-0.1-0.1-0.2-0.2-0.2
	c-0.1,0-0.2,0.1-0.2,0.2C688.5,69,688.6,69.1,688.7,69.1"/>
<path fill-rule="evenodd" clip-rule="evenodd" fill="#5A5A5D" d="M690.7,70.6c0.1,0,0.2-0.1,0.2-0.2c0-0.1-0.1-0.2-0.2-0.2
	c-0.1,0-0.2,0.1-0.2,0.2C690.5,70.5,690.6,70.6,690.7,70.6"/>
<path fill-rule="evenodd" clip-rule="evenodd" fill="#5A5A5D" d="M691.6,70.4c0.1,0,0.2-0.1,0.2-0.2c0-0.1-0.1-0.2-0.3-0.2
	c-0.1,0-0.2,0.1-0.2,0.2C691.4,70.4,691.5,70.4,691.6,70.4"/>
<path fill-rule="evenodd" clip-rule="evenodd" fill="#5A5A5D" d="M688.6,68.2c0.1,0,0.2-0.1,0.2-0.3c0-0.1-0.1-0.2-0.2-0.2
	c-0.1,0-0.2,0.1-0.2,0.2C688.4,68.2,688.5,68.3,688.6,68.2"/>
<path fill-rule="evenodd" clip-rule="evenodd" fill="#5A5A5D" d="M689.4,73.4c0.1,0,0.2-0.1,0.2-0.2c0-0.1-0.1-0.2-0.2-0.2
	c-0.1,0-0.2,0.1-0.2,0.2C689.2,73.4,689.3,73.4,689.4,73.4"/>
<path fill-rule="evenodd" clip-rule="evenodd" fill="#5A5A5D" d="M689,70.8c0.1,0,0.2-0.1,0.2-0.2c0-0.1-0.1-0.2-0.2-0.2
	c-0.1,0-0.2,0.1-0.2,0.2C688.8,70.8,688.9,70.8,689,70.8"/>
<path fill-rule="evenodd" clip-rule="evenodd" fill="#5A5A5D" d="M689.9,70.7c0.1,0,0.2-0.1,0.2-0.2c0-0.1-0.1-0.2-0.2-0.2
	c-0.1,0-0.2,0.1-0.2,0.2C689.6,70.6,689.8,70.7,689.9,70.7"/>
<path fill-rule="evenodd" clip-rule="evenodd" fill="#5A5A5D" d="M689.7,69.8c0.1,0,0.2-0.1,0.2-0.2c0-0.1-0.1-0.2-0.2-0.2
	c-0.1,0-0.2,0.1-0.2,0.2C689.5,69.8,689.6,69.8,689.7,69.8"/>
<path fill-rule="evenodd" clip-rule="evenodd" fill="#5A5A5D" d="M690.6,69.7c0.1,0,0.2-0.1,0.2-0.2c0-0.1-0.1-0.2-0.3-0.2
	c-0.1,0-0.2,0.1-0.2,0.2C690.4,69.6,690.5,69.7,690.6,69.7"/>
<path fill-rule="evenodd" clip-rule="evenodd" fill="#5A5A5D" d="M690.5,68.8c0.1,0,0.2-0.1,0.2-0.2c0-0.1-0.1-0.2-0.3-0.2
	c-0.1,0-0.2,0.1-0.2,0.2C690.2,68.8,690.3,68.8,690.5,68.8"/>
<path fill-rule="evenodd" clip-rule="evenodd" fill="#5A5A5D" d="M689.6,69c0.1,0,0.2-0.1,0.2-0.2c0-0.1-0.1-0.2-0.2-0.2
	c-0.1,0-0.2,0.1-0.2,0.2C689.4,68.9,689.5,69,689.6,69"/>
<path fill-rule="evenodd" clip-rule="evenodd" fill="#5A5A5D" d="M689.5,68.1c0.1,0,0.2-0.1,0.2-0.2c0-0.1-0.1-0.2-0.3-0.2
	c-0.1,0-0.2,0.1-0.2,0.2C689.2,68,689.3,68.1,689.5,68.1"/>
<path fill-rule="evenodd" clip-rule="evenodd" fill="#5A5A5D" d="M691.5,69.6c0.1,0,0.2-0.1,0.2-0.2c0-0.1-0.1-0.2-0.2-0.2
	c-0.1,0-0.2,0.1-0.2,0.2C691.2,69.5,691.3,69.6,691.5,69.6"/>
<path fill-rule="evenodd" clip-rule="evenodd" fill="#5A5A5D" d="M691.7,71.3c0.1,0,0.2-0.1,0.2-0.3c0-0.1-0.1-0.2-0.2-0.2
	c-0.1,0-0.2,0.1-0.2,0.2C691.5,71.2,691.6,71.3,691.7,71.3"/>
<path fill-rule="evenodd" clip-rule="evenodd" fill="#5A5A5D" d="M690.9,71.4c0.1,0,0.2-0.1,0.2-0.2c0-0.1-0.1-0.2-0.2-0.2
	c-0.1,0-0.2,0.1-0.2,0.2C690.6,71.4,690.8,71.4,690.9,71.4"/>
<path fill-rule="evenodd" clip-rule="evenodd" fill="#5A5A5D" d="M690,71.6c0.1,0,0.2-0.1,0.2-0.3c0-0.1-0.1-0.2-0.2-0.2
	c-0.1,0-0.2,0.1-0.2,0.2C689.8,71.5,689.9,71.6,690,71.6"/>
<path fill-rule="evenodd" clip-rule="evenodd" fill="#5A5A5D" d="M690.2,72.4c0.1,0,0.2-0.1,0.2-0.2c0-0.1-0.1-0.2-0.3-0.2
	c-0.1,0-0.2,0.1-0.2,0.2C689.9,72.4,690,72.4,690.2,72.4"/>
<path fill-rule="evenodd" clip-rule="evenodd" fill="#5A5A5D" d="M691,72.3c0.1,0,0.2-0.1,0.2-0.3c0-0.1-0.1-0.2-0.3-0.2
	c-0.1,0-0.2,0.1-0.2,0.2C690.8,72.2,690.9,72.3,691,72.3"/>
<path fill-rule="evenodd" clip-rule="evenodd" fill="#5A5A5D" d="M690.3,73.3c0.1,0,0.2-0.1,0.2-0.2c0-0.1-0.1-0.2-0.3-0.2
	c-0.1,0-0.2,0.1-0.2,0.2C690.1,73.2,690.2,73.3,690.3,73.3"/>
<path fill-rule="evenodd" clip-rule="evenodd" fill="#5A5A5D" d="M688.6,73.6c0.1,0,0.2-0.1,0.2-0.2c0-0.1-0.1-0.2-0.2-0.2
	c-0.1,0-0.2,0.1-0.2,0.2C688.3,73.5,688.4,73.6,688.6,73.6"/>
<path fill-rule="evenodd" clip-rule="evenodd" fill="#5A5A5D" d="M688.4,72.7c0.1,0,0.2-0.1,0.2-0.2c0-0.1-0.1-0.2-0.2-0.2
	c-0.1,0-0.2,0.1-0.2,0.2C688.2,72.6,688.3,72.7,688.4,72.7"/>
<path fill-rule="evenodd" clip-rule="evenodd" fill="#5A5A5D" d="M688.3,71.8c0.1,0,0.2-0.1,0.2-0.2c0-0.1-0.1-0.2-0.2-0.2
	c-0.1,0-0.2,0.1-0.2,0.2C688.1,71.8,688.2,71.8,688.3,71.8"/>
<path fill-rule="evenodd" clip-rule="evenodd" fill="#5A5A5D" d="M687.4,72c0.1,0,0.2-0.1,0.2-0.2c0-0.1-0.1-0.2-0.2-0.2
	c-0.1,0-0.2,0.1-0.2,0.2C687.2,71.9,687.3,72,687.4,72"/>
<path fill-rule="evenodd" clip-rule="evenodd" fill="#5A5A5D" d="M687.6,72.8c0.1,0,0.2-0.1,0.2-0.2c0-0.1-0.1-0.2-0.2-0.2
	c-0.1,0-0.2,0.1-0.2,0.2C687.3,72.8,687.4,72.8,687.6,72.8"/>
<path fill-rule="evenodd" clip-rule="evenodd" fill="#5A5A5D" d="M686.6,72.1c0.1,0,0.2-0.1,0.2-0.2c0-0.1-0.1-0.2-0.2-0.2
	c-0.1,0-0.2,0.1-0.2,0.2C686.3,72,686.4,72.1,686.6,72.1"/>
<path fill-rule="evenodd" clip-rule="evenodd" fill="#5A5A5D" d="M686.3,70.4c0.1,0,0.2-0.1,0.2-0.3c0-0.1-0.1-0.2-0.2-0.2
	c-0.1,0-0.2,0.1-0.2,0.2C686.1,70.3,686.2,70.4,686.3,70.4"/>
<path fill-rule="evenodd" clip-rule="evenodd" fill="#5A5A5D" d="M687.2,70.2c0.1,0,0.2-0.1,0.2-0.2c0-0.1-0.1-0.2-0.3-0.2
	c-0.1,0-0.2,0.1-0.2,0.2C686.9,70.2,687,70.3,687.2,70.2"/>
<path fill-rule="evenodd" clip-rule="evenodd" fill="#5A5A5D" d="M688,70.1c0.1,0,0.2-0.1,0.2-0.2c0-0.1-0.1-0.2-0.2-0.2
	c-0.1,0-0.2,0.1-0.2,0.2C687.8,70,687.9,70.1,688,70.1"/>
<path fill-rule="evenodd" clip-rule="evenodd" fill="#5A5A5D" d="M687.9,69.2c0.1,0,0.2-0.1,0.2-0.2c0-0.1-0.1-0.2-0.2-0.2
	c-0.1,0-0.2,0.1-0.2,0.3C687.6,69.2,687.8,69.3,687.9,69.2"/>
<path fill-rule="evenodd" clip-rule="evenodd" fill="#5A5A5D" d="M687,69.4c0.1,0,0.2-0.1,0.2-0.2c0-0.1-0.1-0.2-0.2-0.2
	c-0.1,0-0.2,0.1-0.2,0.2C686.8,69.3,686.9,69.4,687,69.4"/>
<path fill-rule="evenodd" clip-rule="evenodd" fill="#5A5A5D" d="M687.7,68.4c0.1,0,0.2-0.1,0.2-0.2c0-0.1-0.1-0.2-0.3-0.2
	c-0.1,0-0.2,0.1-0.2,0.2C687.5,68.3,687.6,68.4,687.7,68.4"/>
<path fill-rule="evenodd" clip-rule="evenodd" fill="#5A5A5D" d="M687.3,71.1c0.1,0,0.2-0.1,0.2-0.3c0-0.1-0.1-0.2-0.2-0.2
	c-0.1,0-0.2,0.1-0.2,0.3C687.1,71,687.2,71.1,687.3,71.1"/>
<path fill-rule="evenodd" clip-rule="evenodd" fill="#5A5A5D" d="M688.2,71c0.1,0,0.2-0.1,0.2-0.2c0-0.1-0.1-0.2-0.3-0.2
	c-0.1,0-0.2,0.1-0.2,0.2C687.9,70.9,688,71,688.2,71"/>
<path fill-rule="evenodd" clip-rule="evenodd" fill="#5A5A5D" d="M686.4,71.2c0.1,0,0.2-0.1,0.2-0.2c0-0.1-0.1-0.2-0.2-0.2
	c-0.1,0-0.2,0.1-0.2,0.2C686.2,71.2,686.3,71.3,686.4,71.2"/>
<path fill-rule="evenodd" clip-rule="evenodd" fill="#5A5A5D" d="M688.9,70c0.1,0,0.2-0.1,0.2-0.2c0-0.1-0.1-0.2-0.2-0.2
	c-0.1,0-0.2,0.1-0.2,0.2C688.6,69.9,688.8,70,688.9,70"/>
<path fill-rule="evenodd" clip-rule="evenodd" fill="#5A5A5D" d="M689.3,72.6c0.1,0,0.2-0.1,0.2-0.2c0-0.1-0.1-0.2-0.3-0.2
	c-0.1,0-0.2,0.1-0.2,0.2C689.1,72.5,689.2,72.6,689.3,72.6"/>
<path fill-rule="evenodd" clip-rule="evenodd" fill="#5A5A5D" d="M689.2,71.7c0.1,0,0.2-0.1,0.2-0.2c0-0.1-0.1-0.2-0.3-0.2
	c-0.1,0-0.2,0.1-0.2,0.3C688.9,71.6,689,71.7,689.2,71.7"/>
<path fill-rule="evenodd" clip-rule="evenodd" fill="#010101" d="M634,81.9c1.2-0.2,2-1.3,1.8-2.5c-0.2-1.2-1.3-2-2.5-1.8
	c-1.2,0.2-2,1.3-1.8,2.5C631.7,81.2,632.8,82.1,634,81.9"/>
<path fill-rule="evenodd" clip-rule="evenodd" fill="#5A5A5D" d="M633.9,81c0.7-0.1,1.2-0.8,1.1-1.5c-0.1-0.7-0.8-1.2-1.5-1.1
	c-0.7,0.1-1.2,0.8-1.1,1.5C632.5,80.6,633.1,81.1,633.9,81"/>
<rect x="634.9" y="82.8" transform="matrix(-0.9874 0.1583 -0.1583 -0.9874 1453.0098 329.0562)" fill="#FFFFFF" width="157.1" height="279.2"/>
<polygon fill="#444444" points="609.2,93.2 657.3,378.1 816.4,351.9 769.7,68.8 "/>
<rect x="634.7" y="82.8" transform="matrix(-0.9876 0.1569 -0.1569 -0.9876 1452.448 330.1148)" fill="#FFFFFF" width="157.1" height="279.2"/>
<rect x="604.4" y="43.2" fill="none" width="217.6" height="354.8"/>
<g>
	<defs>
		
			<rect id="SVGID_13_" x="667.5" y="101.2" transform="matrix(-0.9882 0.1533 -0.1533 -0.9882 1457.9337 328.7704)" width="97.7" height="238.8"/>
	</defs>
	<clipPath id="SVGID_14_">
		<use xlink:href="#SVGID_13_"  overflow="visible"/>
	</clipPath>
	<path clip-path="url(#SVGID_14_)" fill="#865D3A" d="M659.6,173.9l96.5-15c-3-19.4-15.6-34.8-31.6-41.4l5-17.1
		c0.3-0.9-0.2-1.9-1-2.3c-0.8-0.4-1.6,0.1-1.9,1l-5,17.3c-6.8-2.3-14.2-3.1-21.7-1.9c-7.5,1.2-14.4,4.1-20.2,8.4l-10.1-15
		c-0.5-0.8-1.5-1-2.1-0.4c-0.7,0.6-0.8,1.7-0.2,2.5l10,14.8C663.9,136,656.6,154.5,659.6,173.9"/>
	<path clip-path="url(#SVGID_14_)" fill="#865D3A" d="M667.8,176.8c2.4-0.4,4.6,1.3,5,3.7l9.7,62.2c0.4,2.4-1.3,4.6-3.7,5
		c-2.4,0.4-4.6-1.3-5-3.7l-9.7-62.2C663.8,179.4,665.4,177.1,667.8,176.8"/>
	<path clip-path="url(#SVGID_14_)" fill="#182C54" d="M667.8,176.8c2.4-0.4,4.6,1.3,5,3.7l9.2,59.4l-8.7,1.3l-9.2-59.4
		C663.8,179.4,665.4,177.1,667.8,176.8"/>
	<path clip-path="url(#SVGID_14_)" fill="#865D3A" d="M749.2,164.1c2.4-0.4,4.6,1.3,5,3.7l9.7,62.2c0.4,2.4-1.3,4.6-3.7,5
		c-2.4,0.4-4.6-1.3-5-3.7l-9.7-62.2C745.2,166.8,746.8,164.5,749.2,164.1"/>
	<path clip-path="url(#SVGID_14_)" fill="#BBBE7B" d="M725.5,221.3c3.2-0.5,6.2,1.7,6.7,4.9l16,103.2c0.5,3.2-1.7,6.2-4.9,6.7
		c-3.2,0.5-6.2-1.7-6.7-4.9l-16-103.2C720.1,224.8,722.3,221.8,725.5,221.3"/>
	<path clip-path="url(#SVGID_14_)" fill="#BBBE7B" d="M707.7,224.1c3.2-0.5,6.2,1.7,6.7,4.9l16,103.2c0.5,3.2-1.7,6.2-4.9,6.7
		c-3.2,0.5-6.2-1.7-6.7-4.9l-16-103.2C702.3,227.6,704.5,224.6,707.7,224.1"/>
	<path clip-path="url(#SVGID_14_)" fill="#182C54" d="M746.7,226.8c0.6,3.8-2,7.3-5.8,7.9l-43.8,6.8c-3.8,0.6-7.4-2-7.9-5.8
		l-9.4-60.8l57.5-8.9L746.7,226.8z"/>
	<polygon clip-path="url(#SVGID_14_)" fill="#B5E4F9" points="715.8,211.3 698.5,171.9 720.4,168.5 	"/>
	
		<rect x="673.1" y="238.1" transform="matrix(-0.9882 0.1533 -0.1533 -0.9882 1383.6868 371.9567)" clip-path="url(#SVGID_14_)" fill="#B5E4F9" width="8.8" height="2.5"/>
	<path clip-path="url(#SVGID_14_)" fill="#182C54" d="M749.2,164.1c2.4-0.4,4.6,1.3,5,3.7l9.2,59.4l-8.7,1.3l-9.2-59.4
		C745.2,166.8,746.8,164.5,749.2,164.1"/>
	
		<rect x="754.5" y="225.5" transform="matrix(-0.9882 0.1533 -0.1533 -0.9882 1543.5746 334.3951)" clip-path="url(#SVGID_14_)" fill="#B5E4F9" width="8.8" height="2.5"/>
	<path clip-path="url(#SVGID_14_)" fill="#211F1F" d="M766.5,332.7l-28.9,4.5l-1.3-8.5l15.1-2.4
		C765.2,324.2,765.5,326.2,766.5,332.7"/>
	<path clip-path="url(#SVGID_14_)" fill="#FFFFFF" d="M766.3,330.9c0.3,0.8,0.3,1.8,0.3,1.8l-29,4.5l-0.3-1.8L766.3,330.9z"/>
	<path clip-path="url(#SVGID_14_)" fill="#FFFFFF" d="M739.7,332c-0.1-0.9,0.5-1.7,1.3-1.8c0.9-0.1,1.7,0.5,1.8,1.3
		c0.1,0.9-0.5,1.7-1.3,1.8C740.6,333.4,739.8,332.9,739.7,332"/>
	<path clip-path="url(#SVGID_14_)" fill="#FFFFFF" d="M750.8,326.3l0.3,1.9c0,0.2-0.1,0.4-0.3,0.5c-0.2,0-0.4-0.1-0.5-0.3l-0.3-1.9
		L750.8,326.3z"/>
	<path clip-path="url(#SVGID_14_)" fill="#FFFFFF" d="M752.2,328.5c-0.2,0-0.4-0.1-0.5-0.3l-0.3-1.9c0.3,0,0.5-0.1,0.8-0.1l0.3,1.9
		C752.6,328.2,752.4,328.4,752.2,328.5"/>
	<path clip-path="url(#SVGID_14_)" fill="#FFFFFF" d="M755.1,328c-0.2,0-0.4-0.1-0.5-0.3l-0.3-1.9c0.3,0,0.6-0.1,0.8-0.1l0.3,1.8
		C755.5,327.8,755.4,328,755.1,328"/>
	<path clip-path="url(#SVGID_14_)" fill="#FFFFFF" d="M753.7,328.2c-0.2,0-0.4-0.1-0.5-0.3l-0.3-1.9c0.3,0,0.6-0.1,0.8-0.1l0.3,1.9
		C754.1,328,753.9,328.2,753.7,328.2"/>
	<path clip-path="url(#SVGID_14_)" fill="#FFFFFF" d="M756.6,327.8c-0.2,0-0.4-0.1-0.5-0.3l-0.3-1.8c0.3,0,0.6-0.1,0.8-0.1l0.3,1.8
		C757,327.5,756.8,327.8,756.6,327.8"/>
	
		<rect x="737.4" y="334.5" transform="matrix(0.9882 -0.1533 0.1533 0.9882 -42.5029 119.2873)" clip-path="url(#SVGID_14_)" fill="#211F1F" width="29.3" height="1.4"/>
	<path clip-path="url(#SVGID_14_)" fill="#211F1F" d="M702.4,342.7l28.9-4.5l-1.3-8.5l-15.1,2.4
		C701.1,334.2,701.4,336.2,702.4,342.7"/>
	<path clip-path="url(#SVGID_14_)" fill="#FFFFFF" d="M702,340.9c0,0.8,0.3,1.8,0.3,1.8l29-4.5l-0.3-1.8L702,340.9z"/>
	<path clip-path="url(#SVGID_14_)" fill="#FFFFFF" d="M727.7,333.8c-0.1-0.9-0.9-1.5-1.8-1.3c-0.9,0.1-1.5,0.9-1.3,1.8
		c0.1,0.9,0.9,1.5,1.8,1.3C727.3,335.5,727.9,334.7,727.7,333.8"/>
	<path clip-path="url(#SVGID_14_)" fill="#FFFFFF" d="M715.4,331.8l0.3,1.9c0,0.2,0.2,0.4,0.5,0.3c0.2,0,0.4-0.2,0.3-0.5l-0.3-1.9
		L715.4,331.8z"/>
	<path clip-path="url(#SVGID_14_)" fill="#FFFFFF" d="M714.7,334.3c0.2,0,0.4-0.2,0.3-0.5l-0.3-1.9c-0.3,0-0.5,0.1-0.8,0.1l0.3,1.9
		C714.3,334.2,714.5,334.3,714.7,334.3"/>
	<path clip-path="url(#SVGID_14_)" fill="#FFFFFF" d="M711.8,334.7c0.2,0,0.4-0.2,0.3-0.5l-0.3-1.9c-0.3,0.1-0.5,0.1-0.8,0.2
		l0.3,1.8C711.3,334.6,711.6,334.8,711.8,334.7"/>
	<path clip-path="url(#SVGID_14_)" fill="#FFFFFF" d="M713.2,334.5c0.2,0,0.4-0.2,0.3-0.5l-0.3-1.9c-0.3,0-0.6,0.1-0.8,0.1l0.3,1.9
		C712.8,334.4,713,334.6,713.2,334.5"/>
	<path clip-path="url(#SVGID_14_)" fill="#FFFFFF" d="M710.3,335c0.2,0,0.4-0.2,0.3-0.5l-0.3-1.8c-0.3,0.1-0.5,0.1-0.8,0.2l0.3,1.8
		C709.9,334.9,710.1,335,710.3,335"/>
	
		<rect x="702.2" y="340" transform="matrix(-0.9882 0.1533 -0.1533 -0.9882 1477.4387 567.4238)" clip-path="url(#SVGID_14_)" fill="#211F1F" width="29.3" height="1.4"/>
	<path clip-path="url(#SVGID_14_)" fill="#FFFFFF" d="M731.5,137.9c-0.5-3.1-3.3-5.2-6.4-4.7c-3.1,0.5-5.2,3.3-4.7,6.4
		c0.5,3.1,3.3,5.2,6.4,4.7C729.9,143.8,732,141,731.5,137.9"/>
	<path clip-path="url(#SVGID_14_)" fill="#FFFFFF" d="M687.8,144.7c-0.5-3.1-3.3-5.2-6.4-4.7c-3.1,0.5-5.2,3.3-4.7,6.4
		c0.5,3.1,3.3,5.2,6.4,4.7C686.1,150.6,688.2,147.7,687.8,144.7"/>
	<path clip-path="url(#SVGID_14_)" fill="#BCA130" d="M719.8,215.6c0.1,0.6-0.3,1.2-0.9,1.3c-0.6,0.1-1.2-0.3-1.3-0.9
		c-0.1-0.6,0.3-1.2,0.9-1.3C719.2,214.6,719.7,215,719.8,215.6"/>
	<path clip-path="url(#SVGID_14_)" fill="#BCA130" d="M720.8,222.1c0.1,0.6-0.3,1.2-0.9,1.3c-0.6,0.1-1.2-0.3-1.3-0.9
		c-0.1-0.6,0.3-1.2,0.9-1.3C720.2,221.1,720.7,221.5,720.8,222.1"/>
	<path clip-path="url(#SVGID_14_)" fill="#BCA130" d="M721.8,228.5c0.1,0.6-0.3,1.2-0.9,1.3c-0.6,0.1-1.2-0.3-1.3-0.9
		c-0.1-0.6,0.3-1.2,0.9-1.3C721.2,227.5,721.7,227.9,721.8,228.5"/>
	<path clip-path="url(#SVGID_14_)" fill="#B5E4F9" d="M719.5,234.8c0.3,1.7-0.9,3.4-2.7,3.6l3.2-0.5l3.2-0.5
		C721.4,237.8,719.7,236.6,719.5,234.8"/>
	<path clip-path="url(#SVGID_14_)" fill="#425779" d="M712.7,175.7l-4.6,0.7c-0.5,0.1-1-0.3-1-0.8l-0.8-5l6.4-1l0.8,5
		C713.5,175.1,713.2,175.6,712.7,175.7"/>
	<polygon clip-path="url(#SVGID_14_)" fill="#425779" points="715.8,211.3 708.5,194.8 708,175.3 712.4,174.7 717.8,193 	"/>
	<polygon clip-path="url(#SVGID_14_)" fill="#85ABBA" points="706.2,170.7 701.8,179.5 702.2,180.5 706.4,172.1 	"/>
	<polygon clip-path="url(#SVGID_14_)" fill="#85ABBA" points="712.7,169.7 719.5,176.8 719.4,177.8 712.9,171.1 	"/>
	
		<line clip-path="url(#SVGID_14_)" fill="none" stroke="#8C8E5C" stroke-width="0.372" stroke-miterlimit="10" x1="714.3" y1="238.9" x2="714.5" y2="239.9"/>
	
		<line clip-path="url(#SVGID_14_)" fill="none" stroke="#8C8E5C" stroke-width="0.372" stroke-miterlimit="10" stroke-dasharray="1.509,0.754" x1="714.6" y1="241" x2="728.2" y2="328.2"/>
	
		<line clip-path="url(#SVGID_14_)" fill="none" stroke="#8C8E5C" stroke-width="0.372" stroke-miterlimit="10" x1="728.3" y1="328.8" x2="728.4" y2="329.8"/>
	
		<line clip-path="url(#SVGID_14_)" fill="none" stroke="#8C8E5C" stroke-width="0.372" stroke-miterlimit="10" x1="714.3" y1="238.9" x2="714.5" y2="239.9"/>
	
		<line clip-path="url(#SVGID_14_)" fill="none" stroke="#8C8E5C" stroke-width="0.372" stroke-miterlimit="10" stroke-dasharray="1.509,0.754" x1="714.6" y1="241" x2="728.2" y2="328.2"/>
	
		<line clip-path="url(#SVGID_14_)" fill="none" stroke="#8C8E5C" stroke-width="0.372" stroke-miterlimit="10" x1="728.3" y1="328.8" x2="728.4" y2="329.8"/>
	
		<line clip-path="url(#SVGID_14_)" fill="none" stroke="#8C8E5C" stroke-width="0.372" stroke-miterlimit="10" x1="723.7" y1="237.4" x2="723.8" y2="238.5"/>
	
		<line clip-path="url(#SVGID_14_)" fill="none" stroke="#8C8E5C" stroke-width="0.372" stroke-miterlimit="10" stroke-dasharray="1.509,0.754" x1="724" y1="239.5" x2="737.6" y2="326.8"/>
	
		<line clip-path="url(#SVGID_14_)" fill="none" stroke="#8C8E5C" stroke-width="0.372" stroke-miterlimit="10" x1="737.6" y1="327.3" x2="737.8" y2="328.3"/>
	<path clip-path="url(#SVGID_14_)" fill="#BCA130" d="M681.9,121.4c0,0-0.6,11.4-15.9,24.5c-2.1,6.1-6.1,8.9-6.1,8.9
		S660,125.8,681.9,121.4"/>
	<path clip-path="url(#SVGID_14_)" fill="#BCA130" d="M679.1,122.1c0,0,4.3,9.5,36.4,8.2c17.2-0.7,16.9-6.7,16.9-6.7s2.9,8.9,17,16
		c-1-6.3-16.9-32-50.6-26.8C681.9,115.4,679.1,122.1,679.1,122.1"/>
</g>
<path fill="#636464" d="M33.7,231.9c12.7-4.5,40.2,39.7,61.4,98.8c21.2,59.1,28.1,110.8,15.4,115.3c-12.7,4.5-40.1-39.7-61.4-98.8
	C27.9,288,21,236.4,33.7,231.9"/>
<polygon fill="#636464" points="33.7,231.9 110.5,446 163.3,427 86.5,212.9 "/>
<path fill="#979797" d="M83.7,214c11.1-4,37.3,40.7,58.5,99.9c21.2,59.1,29.4,110.3,18.3,114.3c-11.1,4-37.3-40.7-58.5-99.9
	C80.8,269.1,72.6,217.9,83.7,214"/>
<path fill="#FFFFFF" d="M141.2,313.5c11.6,32.4-5.2,68-37.6,79.6c-32.4,11.6-68-5.2-79.6-37.6c-11.6-32.4,5.2-68,37.6-79.6
	C93.9,264.2,129.6,281.1,141.2,313.5"/>
<path fill="none" stroke="#444444" stroke-width="20" d="M141.2,313.5c11.6,32.4-5.2,68-37.6,79.6c-32.4,11.6-68-5.2-79.6-37.6
	c-11.6-32.4,5.2-68,37.6-79.6C93.9,264.2,129.6,281.1,141.2,313.5z"/>
<g>
	<defs>
		
			<rect id="SVGID_15_" x="48.8" y="316.2" transform="matrix(-0.8753 0.4836 -0.4836 -0.8753 312.0028 586.6292)" width="63.2" height="34.6"/>
	</defs>
	<clipPath id="SVGID_16_">
		<use xlink:href="#SVGID_15_"  overflow="visible"/>
	</clipPath>
	<g clip-path="url(#SVGID_16_)">
		<defs>
			
				<rect id="SVGID_17_" x="48.8" y="316.2" transform="matrix(-0.8753 0.4835 -0.4835 -0.8753 311.998 586.6323)" width="63.2" height="34.6"/>
		</defs>
		<clipPath id="SVGID_18_">
			<use xlink:href="#SVGID_17_"  overflow="visible"/>
		</clipPath>
		<path clip-path="url(#SVGID_18_)" fill="#79C259" d="M88.2,332.4c0.3-0.2,0.6-0.5,0.7-0.9l6.7-23.1c0.2-0.8-0.2-1.7-1.1-1.9
			c-0.8-0.2-1.7,0.2-1.9,1.1L86,330.6c-0.2,0.8,0.2,1.7,1.1,1.9C87.5,332.6,87.9,332.6,88.2,332.4"/>
		<path clip-path="url(#SVGID_18_)" fill="#79C259" d="M75.2,339.6c0.3-0.2,0.6-0.5,0.7-0.9c0.2-0.8-0.2-1.7-1.1-1.9l-23.1-6.7
			c-0.8-0.2-1.7,0.2-1.9,1.1c-0.2,0.8,0.2,1.7,1.1,1.9l23.1,6.7C74.4,339.8,74.8,339.8,75.2,339.6"/>
		<path clip-path="url(#SVGID_18_)" fill="#79C259" d="M61.1,364l55.3-30.5c-8.4-15.3-27.6-20.8-42.9-12.4
			C58.2,329.5,52.7,348.7,61.1,364"/>
		<path clip-path="url(#SVGID_18_)" fill="#FFFFFF" d="M72.1,342.2c-0.8-1.5-2.8-2.1-4.3-1.2c-1.5,0.8-2.1,2.8-1.2,4.3
			c0.8,1.5,2.8,2.1,4.3,1.2C72.4,345.7,73,343.7,72.1,342.2"/>
		<path clip-path="url(#SVGID_18_)" fill="#FFFFFF" d="M97.6,328.1c-0.8-1.5-2.8-2.1-4.3-1.2c-1.5,0.8-2.1,2.8-1.2,4.3
			c0.8,1.5,2.8,2.1,4.3,1.2C97.9,331.6,98.5,329.7,97.6,328.1"/>
		<g opacity="0.3" clip-path="url(#SVGID_18_)">
			<g>
				<defs>
					
						<rect id="SVGID_19_" x="87.4" y="320.5" transform="matrix(-0.8753 0.4835 -0.4835 -0.8753 340.7704 569.5158)" width="19.1" height="16.3"/>
				</defs>
				<clipPath id="SVGID_20_">
					<use xlink:href="#SVGID_19_"  overflow="visible"/>
				</clipPath>
				<path clip-path="url(#SVGID_20_)" fill="#FFFFFF" d="M94.8,320.5l-9.9,6.1l21.5,6.2c2.5-6.6-5.2-14.7-5.2-14.7L94.8,320.5z"/>
			</g>
		</g>
		<g opacity="0.3" clip-path="url(#SVGID_18_)">
			<g>
				<defs>
					
						<rect id="SVGID_21_" x="61.3" y="335.2" transform="matrix(-0.8753 0.4835 -0.4835 -0.8753 297.1525 607.965)" width="17.8" height="14.2"/>
				</defs>
				<clipPath id="SVGID_22_">
					<use xlink:href="#SVGID_21_"  overflow="visible"/>
				</clipPath>
				<path clip-path="url(#SVGID_22_)" fill="#FFFFFF" d="M69.1,334.7l-9.9,6.1l18.6,5.4c2.5-6.6-2.7-13-2.7-13L69.1,334.7z"/>
			</g>
		</g>
		<path clip-path="url(#SVGID_18_)" fill="#221F1F" d="M51.7,344.3c0,0.6,2.1,3.5,2.5,3.6c0.4,0.1,1.7-0.9,2.3,0.2
			c1.6,2.9,4.6,5.8,5.8,6.5c1.2,0.7,2.4,1.7,6.2,0.8c3.5-0.8,6.8-2.8,8.4-5.1c1.3-1.8,2.8-5.5,2.3-9.6c-0.4-3.2-1.4-5.9,1.1-7.3
			c2.5-1.4,4.2,1.1,6.8,3.1c3.2,2.6,7.1,3.3,9.3,3.1c2.8-0.2,6.3-1.8,8.8-4.4c2.7-2.8,2.6-4.3,2.6-5.7c0-1.4-0.8-5.5-2.4-8.4
			c-0.6-1.1,0.9-1.7,1.1-2.1c0.2-0.4-1.2-3.7-1.7-4c-0.5-0.3-14.4,6.4-17.2,8.2c-5.1,3.2-4.9,5.5-8.6,7.6c-3.7,2.1-6.4,1.1-11.2,3.1
			C64.7,335.4,51.7,343.7,51.7,344.3 M87.8,334.4c-1.5-1.7-3.6-3.7-2.5-5.8c1-2.1,4.3-4.3,6.8-5.6c2.4-1.3,6.8-3.1,7.8-3
			c1.7,0.1,2.6,0.5,4.2,3.6c1.6,3.1,3.3,6.4,1.7,8.9c-1.6,2.5-4.9,5.2-8.8,5.7C93.1,338.6,89.4,336.1,87.8,334.4 M59.2,348.2
			c-1.8-3-1.6-4-0.8-5.5c0.5-0.9,4.3-3.7,6.7-5c2.4-1.3,6-3,8.3-2.7c2.3,0.2,3,3,3.6,5.3c0.6,2.2,0.8,6.7-1.8,9.7
			c-2.5,3-6.6,4.4-9.5,4.4C62.9,354.3,61,351.2,59.2,348.2"/>
	</g>
</g>
</svg>
