<?xml version="1.0" encoding="utf-8"?>
<!-- Generator: Adobe Illustrator 18.0.0, SVG Export Plug-In . SVG Version: 6.00 Build 0)  -->
<!DOCTYPE svg PUBLIC "-//W3C//DTD SVG 1.1//EN" "http://www.w3.org/Graphics/SVG/1.1/DTD/svg11.dtd">
<svg version="1.1" id="Layer_1" xmlns="http://www.w3.org/2000/svg" xmlns:xlink="http://www.w3.org/1999/xlink" x="0px" y="0px"
	 viewBox="0 0 735.9 524.6" enable-background="new 0 0 735.9 524.6" xml:space="preserve">
<polygon fill="#E0E1E0" points="735.9,388.6 535.2,524.6 159.6,492.3 311.8,352.2 "/>
<polygon fill="#A57C52" points="594.9,195.3 594.9,440.4 533.5,522.3 533.5,284.3 "/>
<polygon fill="#C49B6D" points="159.8,262.5 159.8,492.2 533.5,522.3 533.5,291.3 "/>
<polygon fill="#C49B6D" points="612.8,144.2 540.5,283.6 117.6,247.8 188.6,107.7 "/>
<polygon fill="#91653C" points="618.6,158.9 547.5,298.3 540.5,283.6 612.8,144.2 "/>
<polygon fill="#B28960" points="117.6,247.8 126.1,263.6 547.5,298.3 540.5,283.6 "/>
<polygon fill="#1E1E1E" points="515.7,192.5 501,220.1 213.6,196.9 231.8,167.8 "/>
<polygon fill="#B28960" points="516,192.3 231.7,167.8 239.8,188.9 506.2,210.3 "/>
<polygon fill="#91653C" points="234.6,198.7 213.6,196.9 231.8,167.8 239.8,188.9 "/>
<g>
	<path fill="#E5E5E5" d="M248,82.8l73.2,122.8l39.6,3.2L307.6,120c17.2-10.3,38.4-9,55.5,1.5l9.5-16.3c0.6-1,2.1-1.2,2.9-0.3
		c0.5,0.6,0.5,1.5,0.2,2.2l-9.6,16.4c6.9,4.8,12.9,11.2,17.6,19c4.7,7.8,7.5,16.2,8.5,24.5l19-0.7c0.8,0,1.6,0.4,1.8,1.1
		c0.4,1.2-0.4,2.4-1.6,2.5l-18.9,0.7c0.9,14.7-3.6,29-12.8,39.6l72.3,5.8l13-7.7L352.8,20.3L248,82.8z"/>
	<path fill="#7AC259" d="M392.5,170.7l18.9-0.7c1.2,0,2.1-1.2,1.6-2.5c-0.3-0.7-1-1.2-1.8-1.1l-19,0.7c-1-8.4-3.8-16.7-8.5-24.5
		c-4.7-7.8-10.8-14.2-17.6-19l9.6-16.4c0.4-0.7,0.4-1.6-0.2-2.2c-0.9-1-2.3-0.8-2.9,0.3l-9.5,16.3c-17.1-10.5-38.2-11.8-55.5-1.5
		l53.3,88.8l18.8,1.5C389,199.7,393.5,185.4,392.5,170.7z M351.6,142.2c-3.7,3.3-9.5,1.9-11.2-2.8c-1-2.6-0.2-5.6,1.9-7.5
		c3.7-3.3,9.5-1.9,11.2,2.8C354.4,137.4,353.7,140.4,351.6,142.2z M375.9,182.8c-3.7,3.3-9.5,1.9-11.2-2.8c-1-2.6-0.2-5.6,1.9-7.5
		c3.7-3.3,9.5-1.9,11.2,2.8C378.8,177.9,378,180.9,375.9,182.8z"/>
	<path fill="#FFFFFF" d="M342.3,132c-2.1,1.8-2.8,4.9-1.9,7.5c1.7,4.7,7.5,6.1,11.2,2.8c2.1-1.8,2.8-4.9,1.9-7.5
		C351.8,130.1,346,128.7,342.3,132z"/>
	<path fill="#FFFFFF" d="M366.6,172.5c-2.1,1.8-2.8,4.9-1.9,7.5c1.7,4.7,7.5,6.1,11.2,2.8c2.1-1.8,2.8-4.9,1.9-7.5
		C376.1,170.6,370.3,169.2,366.6,172.5z"/>
</g>
</svg>
