<?xml version="1.0" encoding="utf-8"?>
<!-- Generator: Adobe Illustrator 18.0.0, SVG Export Plug-In . SVG Version: 6.00 Build 0)  -->
<!DOCTYPE svg PUBLIC "-//W3C//DTD SVG 1.1//EN" "http://www.w3.org/Graphics/SVG/1.1/DTD/svg11.dtd">
<svg version="1.1" id="Layer_2" xmlns="http://www.w3.org/2000/svg" xmlns:xlink="http://www.w3.org/1999/xlink" x="0px" y="0px"
	 width="100px" height="100px" viewBox="0 0 100 100" enable-background="new 0 0 100 100" xml:space="preserve">
<path fill="#E4E4E4" d="M39.4,58.1c-0.5,0.6-1.1,1.2-1.8,1.8L0.6,88.6V70.9c0.7-0.3,1.3-0.7,1.9-1c1.6-0.9,3.3-1.7,5-2.6
	c2.3-1.2,4.5-2.3,6.8-3.5c2.4-1.3,4.8-2.5,7.3-3.8c2.2-1.1,4.5-2.3,6.7-3.4l8-4c0.6-0.3,1.3-0.6,2-0.8l0,0c0.7-0.2,1.4,0.2,1.7,0.8
	l0,0C40.9,54.4,40.7,56.5,39.4,58.1z"/>
<path fill="#F2F2F2" d="M99,59.1c-0.3,0.6-0.8,1.2-1.3,1.8L71.9,89.6V71.9c0.5-0.3,0.9-0.7,1.4-1c1.1-0.9,2.3-1.7,3.5-2.6
	c1.6-1.2,3.2-2.3,4.7-3.5c1.7-1.3,3.4-2.5,5.1-3.8c1.5-1.1,3.2-2.3,4.7-3.4l5.5-4c0.5-0.3,0.9-0.6,1.4-0.8l0,0
	c0.5-0.2,1,0.2,1.2,0.8l0,0C100,55.4,99.8,57.5,99,59.1z"/>
<rect x="3.1" y="71.4" opacity="0.7" fill="#4253A3" enable-background="new    " width="31.7" height="15"/>
<rect x="40.2" y="71.4" opacity="0.8" fill="#EC2024" enable-background="new    " width="31.7" height="15"/>
<rect x="4.3" y="72.9" fill="#46439A" width="28.6" height="1.9"/>
<rect x="41.3" y="72.9" fill="#971B1E" width="29.1" height="1.9"/>
<path fill="#F2F2F2" d="M71.6,68.9H36.9H3.1c-1.6,0-2.9,1.3-2.9,2.9V87c0,1.6,1.3,2.9,2.9,2.9h29.5c0.2,0,0.3,0,0.4-0.1l2.6-1.6
	c0.8-0.5,1.8-0.5,2.6,0l2.9,1.6c0.1,0.1,0.2,0.1,0.4,0.1h30.1c1.6,0,2.9-1.3,2.9-2.9V71.8C74.5,70.2,73.2,68.9,71.6,68.9z M4.3,73
	h28.6v12.8H4.3V73z M70.4,85.8H41.3V73h29.1V85.8z"/>
</svg>
